<?xml version="1.0" ?>
<svg xmlns="http://www.w3.org/2000/svg" xmlns:ev="http://www.w3.org/2001/xml-events" xmlns:xlink="http://www.w3.org/1999/xlink" baseProfile="full" height="504px" version="1.1" viewBox="-50.703326772780976 -41.97675735858098 609.837010157562 511.9538977231619" width="600px">
	<defs/>
	<path d="M 233.62699639800002,341.317188254 L 229.64019964600004,337.852240315 L 227.97278832300003,336.607082608 L 226.314638362,335.34960342 L 224.66583083600003,334.079883807 L 220.47873925100004,331.300804132 L 215.92773866200002,329.169270505 L 211.11227225200003,327.731832972 L 206.13751839200003,327.01992344499996 L 201.11218166100002,327.04908561900004 L 196.14602040000003,327.818691259 L 191.347556829,329.311899655 L 186.82160448200003,331.496103515 L 100.88405798400001,381.11215901500003 L 79.63405798400001,344.306077475 L 42.82799672500002,365.556077475 L 0.3279967250000215,291.943914412 L 37.134057984000016,270.69392454399997 L 15.884057984000016,233.887843004 L 101.82160448200001,184.271782455 L 105.97614955000003,181.444298442 L 109.66853809200002,178.035308842 L 112.818113081,174.11928963500003 L 115.35603237100003,169.781786912 L 117.22688983400003,165.117572664 L 118.38976930900003,160.228537139 L 118.81931852600005,155.221495145 L 118.50609373000003,150.205832689 L 118.15898489100002,147.584077236 L 117.83655952500004,144.959173026 L 117.538817632,142.33135056199998 L 116.64320063100004,137.444045212 L 115.04481386400003,132.73946065599998 L 112.77780484000004,128.31807491799998 L 109.89062857400003,124.27430909200001 L 106.44489240300004,120.694525626 L 102.51420092100004,117.655173843 L 98.18251442500002,115.22116409499999 L 93.54232501900003,113.444477605 L 88.69275164500003,112.36305777800001 L 83.73733113700003,111.99999999799999 L 64.89763807400003,111.99999999799999 L 59.578876005000026,111.581403575 L 54.39104985700004,110.33592155899998 L 49.46197460600002,108.29422193299999 L 44.91291951400002,105.506577828 L 40.85599373299999,102.041630535 L 37.39106605800001,97.98469905900001 L 34.60341404800004,93.435676879 L 32.56169747300002,88.506577573 L 31.316215508000035,83.31877168899999 L 30.897650229000064,77.999999488 L 30.897650229000064,43.397640103 L 73.39762996500005,43.397640103 L 73.39762996500005,0.897640103000007 L 115.89762996500005,0.897640103000007 L 115.89762996500005,43.397640103 L 184.49999999200003,43.397640103 L 191.67089414300003,43.773450075999996 L 198.76323889300002,44.896766063 L 205.69929552000002,46.755276732 L 212.403088321,49.328625314 L 218.801174865,52.58861226 L 224.82345651900002,56.499524531 L 230.40393839900003,61.018510584000005 L 235.48148940600004,66.096061591 L 240.00048052500006,71.676543471 L 243.91139279600003,77.698820059 L 247.17137467600003,84.09690660300001 L 249.74472832400005,90.80070447 L 251.60323392700002,97.736767421 L 252.72655498000003,104.82910078100001 L 253.102359887,111.99999999799999 L 253.489351389,122.546260622 L 254.648228401,133.035795357 L 256.57277953100004,143.412187374 L 259.252628795,153.619622698 L 262.673387631,163.60320192 L 266.816634652,173.309223774 L 271.66008782200004,182.685484116 L 277.17771601,191.68155205499997 L 283.339820012,200.24903845100002 L 286.80089723800006,204.069485188 L 290.799782384,207.32275915699998 L 295.244550823,209.934070235 L 300.03301332800004,211.84339177899997 L 305.055087317,213.006828548 L 310.195340036,213.397640103 L 508.102359887,213.397640103 L 508.102359887,255.897640103 L 396.999999992,255.897640103 L 389.82910077500003,256.27344501 L 382.73676741500003,257.39676606300003 L 375.800704464,259.255271666 L 369.09690659700004,261.828625314 L 362.698820053,265.088607194 L 356.67654346500007,268.999519465 L 351.096061585,273.518510584 L 346.0185105780001,278.596061591 L 341.499524525,284.176543471 L 337.58861225400005,290.19882512500004 L 334.328625308,296.596911669 L 331.75527672600003,303.30070447 L 329.89676605700004,310.236761097 L 328.77345007,317.329105847 L 328.397640097,324.499999998 L 328.397640097,384.6027429029999 L 285.8976400970001,384.6027429029999 L 285.8976400970001,427.1027429029999 L 243.39764009700005,427.1027429029999 L 243.39764009700005,365.1696128880001 L 242.98734317600002,359.90350078800003 L 241.76634204400003,354.76447415999996 L 239.76412308200003,349.87659883399994 L 237.029009572,345.35780023999996 L 233.62699639800002,341.317188254" fill="none" stroke="#000000" stroke-width="0.507774363162"/>
</svg>
