<svg xmlns="http://www.w3.org/2000/svg" width="13.641416231944444in" height="13.823883018611113in" viewBox="0 0 982.1819687 995.3195773400001"><g/><g/><g/><g/><g/><g/><g/><g/><g/><g/><g/><g/><g/><g/><g/><g/><g/><g/><g/><g/><g/><line x1="178.05150220000013" x2="0.000002200000096763688" y1="657.3539901000004" y2="657.3539901000004" fill="none" stroke="#000000"/><line x1="14.60549600000013" x2="14.60549600000013" y1="888.5549900999998" y2="888.5549901" fill="none" stroke="#000000"/><line x1="27.893245999999863" x2="27.89324600000009" y1="885.3667401000001" y2="885.3667401000001" fill="none" stroke="#000000"/><line x1="33.20774600000027" x2="33.20774600000004" y1="888.5549901" y2="888.5549901" fill="none" stroke="#000000"/><line x1="33.20774600000004" x2="33.20774600000004" y1="896.5282401000001" y2="896.5282401" fill="none" stroke="#000000"/><line x1="79.72349599999984" x2="79.72349600000007" y1="896.5282401" y2="896.5282401" fill="none" stroke="#000000"/><line x1="79.72349600000007" x2="79.72349600000007" y1="904.4999900999999" y2="904.4999901" fill="none" stroke="#000000"/><line x1="93.01124600000026" x2="93.01124600000003" y1="904.4999901" y2="904.4999901" fill="none" stroke="#000000"/><line x1="93.01124600000003" x2="93.01124600000003" y1="896.5282401000001" y2="896.5282401" fill="none" stroke="#000000"/><line x1="386.29049599999985" x2="386.2904960000003" y1="896.5282401" y2="896.5282401" fill="none" stroke="#000000"/><line x1="386.2904960000003" x2="386.2904960000003" y1="904.4999900999999" y2="904.4999901" fill="none" stroke="#000000"/><line x1="399.57824600000026" x2="399.5782459999998" y1="904.4999901" y2="904.4999901" fill="none" stroke="#000000"/><line x1="399.5782459999998" x2="399.5782459999998" y1="896.5282401000001" y2="896.5282401" fill="none" stroke="#000000"/><line x1="446.08424599999967" x2="446.0842460000001" y1="896.5282401" y2="896.5282401" fill="none" stroke="#000000"/><line x1="446.0842460000001" x2="446.0842460000001" y1="888.5549900999998" y2="888.5549901" fill="none" stroke="#000000"/><line x1="448.157246" x2="448.1572460000002" y1="885.3667401000001" y2="885.3667401000001" fill="none" stroke="#000000"/><line x1="462.61349600000017" x2="462.61349599999994" y1="875.2694901000001" y2="875.2694901000001" fill="none" stroke="#000000"/><line x1="459.37199599999985" x2="459.3719960000001" y1="885.3667401000001" y2="885.3667401000001" fill="none" stroke="#000000"/><line x1="485.0294913" x2="485.0294913" y1="596.3009901" y2="596.3009901000005" fill="none" stroke="#000000"/><line x1="571.9417900000001" x2="571.9417900000001" y1="118.2007595" y2="118.20000949999985" fill="none" stroke="#000000"/><line x1="518.5680126000002" x2="518.5680126000002" y1="650.6102354" y2="650.6109854" fill="none" stroke="#000000"/><line x1="140.6915038000002" x2="140.6907538000005" y1="108.95661960000004" y2="108.95661960000004" fill="none" stroke="#000000"/><line x1="221.90100220000014" y1="681.2722400999999" x2="221.9010022" y2="201.96974009999985" fill="none" stroke="#000000"/><line x1="265.74975219999993" y1="681.2722401000001" x2="265.7497521999999" y2="201.9697401000003" fill="none" stroke="#000000"/><line x1="33.20773899999995" y1="852.6802400999999" x2="33.20773899999995" y2="844.7077400999999" fill="none" stroke="#000000"/><path id="path12799_1_" fill="none" stroke="#000000" stroke-width="0.5" stroke-linecap="round" d="M 92.15624492395682 122.24399012177184 C 73.82174492395643 122.23799012177176 58.96049492395696 107.37449012177183 58.952994923956794 89.03924012177174 C 58.945494923957085 70.69349012177179 73.81049492395687 55.81499012177176 92.15624492395682 55.80749012177182 L 92.15624492395682 55.80749012177182 L 387.1417449239566 55.80749012177182 L 387.1417449239566 55.80749012177182 L 387.1417449239566 55.80674012177178 L 387.1417449239566 55.80674012177178 C 405.4769949239567 55.81199012177183 420.33674492395676 70.67699012177184 420.3449949239566 89.0099901217718 C 420.35399492395663 107.35724012177172 405.48749492395655 122.2364901217718 387.1417449239566 122.24399012177184 L 387.1417449239566 122.24399012177184 L 92.15624492395682 122.24399012177184 z"/><path id="path12799" fill="none" stroke="#000000" stroke-width="0.5" stroke-linecap="round" d="M 122.24400220000012 565.1977401000004 L 122.24325220000014 565.1977401000004 L 122.24325220000014 565.1977401000004 C 122.23725220000011 583.5314901000002 107.37375220000013 598.3934901000002 89.0385022000001 598.4009901000004 C 70.69275220000014 598.4077401000004 55.81425220000011 583.5434900999999 55.80675220000012 565.1977401000004 L 55.80675220000012 565.1977401000004 L 55.80675220000006 270.21224010000014 L 55.80675220000006 270.21224010000014 C 55.812752200000034 251.87699010000006 70.67625220000002 237.01724009999998 89.01075220000007 237.00899010000012 C 107.3580022000001 236.9999901000001 122.23650220000007 251.8664901000002 122.24400220000007 270.21224010000014 L 122.24400220000007 270.21224010000014 L 122.24400220000012 565.1977401000004 z"/><path id="path12457" fill="none" stroke="#000000" stroke-width="0.5" stroke-linecap="round" d="M 465.0615022000002 348.83849010000006 L 465.0615022000002 390.85349010000004 L 465.0615022000002 390.85349010000004 L 465.0615022000002 390.8519901000001 L 465.0615022000002 390.8519901000001 C 443.5005022 373.1669901 411.6855022 376.30724010000006 394.0005022 397.8682401000001 C 376.31400220000023 419.4269901 379.4557522 451.24424010000007 401.0160022 468.92924010000013 C 419.63400219999994 484.1992401000001 446.4435022 484.1992401000001 465.0630022 468.92924010000013 L 465.0630022 468.92924010000013 L 465.0615022000002 468.9292401 L 465.0615022000002 468.9292401 L 465.0615022000002 510.9442401 L 465.0615022000002 510.9442401 L 407.2627522 510.9442401 L 407.2627522 510.9442401 L 407.26125219999994 510.9442401 L 407.26125219999994 510.9442401 L 407.26125219999994 518.9159901"/><path id="path11479" fill="none" stroke="#000000" stroke-width="0.5" stroke-linecap="round" d="M 485.0294913000001 573.3952401000001 L 485.0294913 573.3952401000001 L 485.0294913 573.3952401000001 L 485.0294913 596.3009901 L 485.0294913 596.3009901000005 C 485.37374129999995 596.6309901000004 485.7134913 596.9692401000007 486.0427413 597.3134901000003 C 499.25024129999997 611.0819901000002 498.79724130000005 632.9504901000005 485.0294913000001 646.1602401000005 L 485.0294913000001 646.1602401000005 L 485.0294913000001 646.1587401000004 L 485.0294913000001 646.1587401000004 L 485.0294913000001 692.9812401000004 L 485.02949130000013 692.9812401000004 L 485.0294913000001 692.9812401000004 L 485.02949130000013 692.9812401000004 L 467.7554913000001 692.9812401000004 L 467.7554913000001 692.9812401000004 L 467.7554913000001 685.0094901000002 L 467.7554913000001 685.0094901000002 L 465.0982413000001 685.0094901000002 L 465.0982413000001 685.0094901 L 465.0982413000001 685.0094901000002 L 465.0982413000001 685.0094901 L 465.0982413000001 673.8487401000002 L 465.0982413000001 673.8487401000002 L 468.33974130000007 673.8487401000002 L 468.33974130000007 673.8487401000004 L 468.33974130000007 673.8487401000002 L 468.33974130000007 673.8487401000004 L 468.33974130000007 663.7499901000003 L 468.33974130000007 663.7499901000003 L 468.33899130000003 663.7499901000003 L 468.33899130000003 663.7499901000003 L 453.88349130000006 663.7499901000003 L 453.88349130000006 663.7499901000003 L 453.88349130000006 673.8487401000004 L 453.88349130000006 673.8487401000004 L 453.88424130000004 673.8487401000002 L 453.88424130000004 673.8487401000002 L 457.1257413000001 673.8487401000002 L 457.1257413000001 673.8487401000002 L 457.1257413000001 685.0094901 L 457.1257413000001 685.0094901000002 L 457.1257413000001 685.0094901 L 457.1257413000001 685.0094901000002 L 454.46774130000006 685.0094901000002 L 454.46774130000006 685.0094901000002 L 454.46774130000006 692.9812401000004 L 454.46774130000006 692.9812401000004 L 437.19449130000004 692.9812401000004"/><path id="path11479" fill="none" stroke="#000000" stroke-width="0.5" stroke-linecap="round" d="M 437.19449130000004 646.1602401 C 436.85024130000005 645.8279901000001 436.51124130000005 645.4919900999998 436.18199130000005 645.1477401000002 C 422.97299130000005 631.3784901000001 423.42824129999997 609.5084901000002 437.1944913 596.3009901 L 437.1944913 596.3009901 L 437.1944913 573.3952401000001"/><path id="path11479" fill="none" stroke="#000000" stroke-width="0.5" stroke-linecap="round" d="M 457.1257413 573.3952401000001 L 457.1257413 584.5574901000005 L 457.1257413 584.5574901000005 L 457.12499130000003 584.5574901000005 L 457.12499130000003 584.5574901000005 L 453.8834913 584.5574901000005 L 453.8834913 584.5574901000005 L 453.8834913 594.6547401000003 L 453.8834913 594.6547401000003 L 453.8842413 594.6547401000003 L 453.8842413 594.6547401000003 L 457.1257413 594.6547401000003 L 457.1257413 594.6547401000003 L 457.1257413 594.6562401000003 L 457.1257413 594.6562401000003 L 457.1257413 601.7024901000004 L 457.1257413 601.7024901000004 L 457.1257413 601.7009901000004 L 457.1257413 601.7009901000004 C 446.33999129999995 603.9044901000004 439.3814913 614.4329901000006 441.5827413 625.2164901000001 C 443.78474130000006 636.0022401000001 454.3124913000001 642.9607401000003 465.0982413000001 640.7602401000001 C 475.88324130000007 638.5582401000001 482.8424913 628.0304901000002 480.64124130000005 617.2447401000004 C 479.0429913000001 609.4162401000003 472.9274913000001 603.2984901000004 465.09824130000004 601.7002401000002 L 465.09824130000004 601.7002401000002 L 465.09824130000004 601.7024901000004 L 465.09824130000004 601.7024901000004 L 465.09824130000004 594.6562401000003 L 465.09824130000004 594.6562401000003 L 465.09824130000004 594.6547401000003 L 465.09824130000004 594.6547401000003 L 468.3397413 594.6547401000003 L 468.3397413 594.6547401000003 L 468.3397413 584.5574901000005 L 468.3397413 584.5574901000005 L 465.09824130000004 584.5574901000005 L 465.09824130000004 584.5574901000005 L 465.09824130000004 573.3952401000001"/><path id="path11515" fill="none" stroke="#000000" stroke-width="0.5" stroke-linecap="round" d="M 89.56857980000004 545.3382005999997 L 114.81432980000002 545.3382005999997 L 114.81432980000002 545.3382005999997 L 114.81432980000002 545.3397006 L 114.81432980000002 545.3397006 L 114.81432980000002 529.3939506000002 L 114.81432980000002 529.3939506000002 L 114.8128298 529.3939506000002 L 114.8128298 529.3939506000002 L 89.56707980000002 529.3939506000002 L 89.56707980000002 529.3939506000002 L 89.56707980000002 529.3924506000003 L 89.56707980000002 529.3924506000003 L 89.56707979999999 423.0942006 L 89.56707979999999 423.0942006 L 89.56782979999997 423.0942006 L 89.56782979999997 423.0942006 L 76.28007980000001 423.0942006 L 76.28007980000001 423.0942006 L 76.28007980000001 423.0957006000003 L 76.28007980000001 423.0957006000003 L 76.28007980000004 529.3939506000002 L 76.28007980000004 529.3939506000002 L 76.27932980000006 529.3939506000002 L 76.27932980000006 529.3939506000002 L 64.32132980000003 529.3939506000002 L 64.32132980000003 529.3939506000002 C 59.918079800000044 529.4067006 56.3585798 532.9842005999999 56.36982980000005 537.3874505999997 C 56.38257980000006 541.7757005999997 59.93457980000002 545.3269505999997 64.32132980000003 545.3397006 L 64.32132980000003 545.3397006 L 64.32207980000001 545.3382005999997 L 64.32207980000001 545.3382005999997 L 76.28007980000004 545.3382005999997 L 76.28007980000004 545.3382005999997 L 76.28007980000004 545.3397006 L 76.28007980000004 545.3397006 L 76.28007980000004 595.8304506 L 76.28007980000004 595.8304506 L 76.27932980000006 595.8304506 L 76.27932980000006 595.8304506 L 89.56707980000002 595.8304506 L 89.56707980000002 595.8304506 L 89.56707980000002 545.3382005999997 z"/><path id="path11415" fill="none" stroke="#000000" stroke-width="0.5" stroke-linecap="round" d="M 518.5680126000002 650.6109854 L 518.5680126000002 643.5639854 L 518.5680126000002 643.5639854 L 515.3287626000001 643.5639854 L 515.3287626000001 643.5639854 L 515.3272626000003 643.5639854 L 515.3272626000003 643.5639854 L 515.3272626000003 633.4652354 L 515.3272626000003 633.4652354 L 518.5672626000003 633.4652354 L 518.5672626000003 633.4652354 L 518.5680126000002 633.4652354 L 518.5680126000002 633.4652354 L 518.5680126000002 622.3037353999999 L 518.5680126000002 622.3037353999999 L 518.5672626000003 622.3037353999999 L 518.5672626000003 622.3037353999999 L 498.6382626000002 622.3037353999999 L 498.6382626000002 622.3037353999999 L 498.6382626000002 645.2087354 L 498.6382626000002 645.2087354 C 484.8705126000002 658.4177354 484.41601260000016 680.2869853999999 497.62351260000014 694.0562354 C 497.9542626 694.4004854 498.29401259999986 694.7372354 498.6382626000002 695.0679854 L 498.6382626000002 695.0679854 L 498.6382626000002 695.0672354 L 498.6382626000002 695.0672354 L 498.6382626000002 741.8904854 L 498.6382626000002 741.8904854 L 515.9100126000003 741.8904854 L 515.9100126000003 741.8904854 L 515.9107626 741.8904854 L 515.9107626 741.8904854 L 515.9107626 733.9179854 L 515.9107626 733.9179854 L 515.9107626 733.9172354 L 515.9107626 733.9172354 L 518.5680126000002 733.9172354 L 518.5680126000002 733.9172354 L 518.5680126000002 733.9179854 L 518.5680126000002 733.9179854 L 518.5680126000002 722.7572354 L 518.5680126000002 722.7572354 L 515.3287626000001 722.7572354 L 515.3287626000001 722.7572354 L 515.3272626000003 722.7572354 L 515.3272626000003 722.7572354 L 515.3272626000003 712.6584854 L 515.3272626000003 712.6584854 L 529.7812626 712.6584854 L 529.7812626 712.6584854 L 529.7827626000001 712.6584854 L 529.7827626000001 712.6584854 L 529.7827626000001 722.7572354 L 529.7827626000001 722.7572354 L 526.5412626 722.7572354 L 526.5412626 722.7572354 L 526.5405126 722.7572354 L 526.5405126 722.7572354 L 526.5405126 733.9179854 L 526.5405126 733.9179854 L 526.5405126 733.9172354 L 526.5405126 733.9172354 L 529.1992626000001 733.9172354 L 529.1992626000001 733.9172354 L 529.1992625999999 733.9179854 L 529.1992625999999 733.9179854 L 529.1992625999999 741.8904854 L 529.1992625999999 741.8904854 L 546.4702625999998 741.8904854 L 546.4702625999998 741.8904854 L 546.4717626000001 741.8904854 L 546.4717626000001 741.8904854 L 546.4717626000001 695.0672354 L 546.4717626000001 695.0672354 L 546.4717626000001 695.0679854 L 546.4717626000001 695.0679854 C 560.2395126000001 681.8589853999999 560.6940126000002 659.9897354 547.4865126 646.2212354 C 547.1557626000003 645.8769854 546.8160126000002 645.5394854 546.4717626000001 645.2087354 L 546.4717626000001 645.2087354 L 546.4717626000001 622.3037353999999 L 546.4717626000001 622.3037353999999 L 546.4702626000001 622.3037353999999 L 546.4702626000001 622.3037353999999 L 526.5405126 622.3037353999999 L 526.5405126 622.3037353999999 L 526.5405126 633.4652354 L 526.5405126 633.4652354 L 529.7812626 633.4652354 L 529.7812626 633.4652354 L 529.7827626000001 633.4652354 L 529.7827626000001 633.4652354 L 529.7827626000001 643.5639854 L 529.7827626000001 643.5639854 L 526.5412626 643.5639854 L 526.5412626 643.5639854 L 526.5405126 643.5639854 L 526.5405126 643.5639854 L 526.5405126 650.6109854 L 526.5405126 650.6109854 L 526.5412626 650.6102354 L 526.5412626 650.6102354 C 534.3697626000001 652.2077354 540.4867626 658.3239854 542.0850126 666.1524853999999 C 544.2840126000001 676.9374854 537.3270125999998 687.4659854 526.5412626 689.6672354 C 515.7555126000002 691.8684854 505.22851260000016 684.9099854 503.02576260000023 674.1249854 C 500.82676259999994 663.3399853999999 507.78376260000005 652.8114854 518.5680126000002 650.6102354 z"/><path d="M -0.000005076043180451965 178.05149012177174 L 479.30249492395706 178.05149012177174 L 479.30249492395706 178.05149012177174 L 479.30249492395706 -0.000009878228297566245 L 479.30249492395706 -0.000009878228297566245 L -0.000005076043180451965 -0.000009878228297566245 L -0.000005076043169549451 -0.000009878228297566238 L -0.0000050760432098007745 657.3539901000004" fill="none" stroke="#000000"/><path d="M 178.05150220000007 178.05149010000014 L 178.05150220000007 178.0514901000006 L 178.05150220000007 178.05149010000014 L 178.0515022000001 681.2722400999999" fill="none" stroke="#000000"/><path d="M 93.01124130000002 808.8307401000002 L 93.01124130000002 800.8582400999999 L 93.01124130000002 800.8582400999999 L 42.518991300000025 800.8582400999999 L 42.518991300000025 800.8582400999999 L 42.518991300000025 789.6967400999999 L 42.518991300000025 789.6967400999999 L 45.76124130000002 789.6967400999999 L 45.76124130000002 789.6967400999999 L 45.76124130000002 779.5979901000001 L 45.76124130000002 779.5979901000001 L 31.304241300000022 779.5979901000001 L 31.304241300000022 779.5979901000001 L 31.30424130000003 789.6967400999999 L 31.30424130000003 789.6967400999999 L 34.54649130000003 789.6967400999999 L 34.54649130000003 789.6967400999999 L 34.54649130000003 800.8582400999999 L 34.54649130000003 800.8582400999999 L 26.614491300000033 800.8582400999999 L 26.614491300000033 800.8582400999999 L 26.614491300000033 808.8307401000002 L 26.614491300000033 808.8307401000002 L 18.641991300000036 808.8307401000002 L 18.641991300000036 808.8307401000002 L 18.641991300000036 800.8582400999999 L 18.641991300000015 800.8582400999999 L 18.641991300000036 800.8582400999999 L 18.641991300000015 800.8582400999999 L -0.000008699999980876783 800.8582400999999 L -0.000008699999980876783 800.8582400999999 L -0.000008699999995087637 665.3272400999999 L -0.000008699999995087637 665.3272401000002 L -0.000008699999995087637 665.3272400999999 L -0.000008699999995087637 665.3272401000002 L 37.9882413 665.3272401000002 L 37.9882413 665.3272401000002 L 37.9882413 657.3539900999999" fill="none" stroke="#000000"/><path d="M 45.9607413 657.3539900999999 L 45.96074130000001 665.3272401000002 L 45.960741299999995 665.3272401000002 L 45.96074130000001 665.3272401000002 L 45.960741299999995 665.3272401000002 L 53.933241300000006 665.3272401000002 L 53.933241300000006 665.3272401000002 L 53.933241300000006 690.3074901 L 53.933241300000006 690.3074901 L 53.933241300000006 690.3067400999998 L 53.933241300000006 690.3067400999998 L 50.691741300000004 690.3067400999998 L 50.691741300000004 690.3067400999998 L 50.69099130000001 690.3067400999998 L 50.69099130000001 690.3067400999998 L 50.69099130000001 700.4054901 L 50.69099130000001 700.4054901 L 65.1472413 700.4054901 L 65.1472413 700.4054901 L 65.1479913 700.4054901 L 65.1479913 700.4054901 L 65.1479913 690.3067400999998 L 65.1479913 690.3067400999998 L 61.90574130000001 690.3067400999998 L 61.90574130000001 690.3067400999998 L 61.906491300000006 690.3074901 L 61.906491300000006 690.3074901 L 61.9064913 665.3272401000002 L 61.9064913 665.3272401000002 L 61.9057413 665.3272401000002 L 61.9057413 665.3272401000002 L 66.2107413 665.3272401000002 L 66.2107413 665.3272401000002 L 66.2107413 657.3539900999999 L 66.2107413 657.3539900999999 L 74.1832413 657.3539900999999 L 74.1832413 657.3539900999999 L 74.1832413 665.3272401000002 L 74.1832413 665.3272401000002 L 74.1839913 665.3272401000002 L 74.1839913 665.3272401000002 L 78.4364913 665.3272401000002 L 78.4364913 665.3272401000002 L 78.4364913 681.2722401000001 L 78.4364913 681.2722401000001 L 386.7029913 681.2722401000001 L 386.7029913 681.2722401000001 L 386.7029913 665.3272401000002 L 386.7029913 665.3272401000002 L 386.70224129999997 665.3272401000002 L 386.70224129999997 665.3272401000002 L 399.99074129999997 665.3272401000002 L 399.99074129999997 665.3272401000002 L 399.99074129999997 657.3539900999999 L 399.99074129999997 657.3539900999999 L 407.96324130000005 657.3539900999999 L 407.96324130000005 657.3539900999999 L 407.96324130000005 665.3272401000002 L 407.96324130000005 665.3272401000002 L 407.9639913 665.3272401000002 L 407.9639913 665.3272401000002 L 415.93649129999994 665.3272401000002 L 415.93649129999994 665.3272401000002 L 415.93649129999994 676.4894901000002 L 415.93649129999994 676.4894901 L 415.93649129999994 676.4894901000002 L 415.93649129999994 676.4894901 L 412.69424130000004 676.4894901 L 412.69424130000004 676.4894901 L 412.69274129999997 676.4894901 L 412.69274129999997 676.4894901 L 412.69274129999997 686.5867401 L 412.69274129999997 686.5867401 L 412.69274129999997 686.5859900999999 L 412.69274129999997 686.5859900999999 L 427.14899130000003 686.5859900999999 L 427.14899130000003 686.5859900999999 L 427.14974129999996 686.5867401 L 427.14974129999996 686.5867401 L 427.14974129999996 676.4894901 L 427.14974129999996 676.4894901 L 423.9082413 676.4894901 L 423.9082413 676.4894901 L 423.90749129999995 676.4894901000002 L 423.90749129999995 676.4894901000002 L 423.90749129999995 665.3272401000002 L 423.90749129999995 665.3272401000002 L 429.2219913 665.3272401000002 L 429.2219913 665.3272401000002 L 429.2219913 657.3539900999999 L 429.2219913 657.3539900999999 L 437.1944913 657.3539900999999" fill="none" stroke="#000000"/><path d="M 106.29824130000003 808.8307401000002 L 106.29824130000002 747.7087400999999 L 106.29824130000003 747.7087400999999 L 106.29824130000002 747.7087400999999 L 106.29824130000003 747.7087400999999 L 98.36624130000001 747.7087400999999 L 98.36624130000001 747.7087401000001 L 98.36624130000001 747.7087400999999 L 98.36624130000001 747.7087401000001 L 98.36624130000001 734.4209901000002 L 98.36624130000001 734.4209901000002 L 106.29824130000002 734.4209901000002 L 106.29824130000002 734.4209901000002 L 106.2982413 699.8744901000002 L 106.2982413 699.8744901000002 L 106.2982413 699.8737401000001 L 106.2982413 699.8737401000001 L 384.04574130000003 699.8737401000001 L 384.04574130000003 699.8737401000001 L 384.0449913 699.8737401000001 L 384.0449913 699.8737401000001 L 392.0182413 707.8469901000001 L 392.0182413 707.8469901000001 L 437.19374130000006 707.8469901000001 L 437.19374130000006 707.8469901000001 L 437.1944913 707.8454901 L 437.1944913 707.8454901 L 437.1944913 646.1587401000004" fill="none" stroke="#000000"/><path d="M 178.05150219999996 201.96974009999985 L 221.90025219999995 201.96974009999985 L 221.90025219999995 201.96974009999985 L 221.9010022 201.96974009999985 L 221.90100219999988 201.9697401000003 L 265.7497521999999 201.9697401000003 L 265.7497521999999 201.9697401000003 L 265.74975219999965 201.9697401000003 L 265.7497521999999 201.9697401000003 L 309.59850219999976 201.9697401000003 L 309.59850219999976 201.9697401000003 L 309.5985022 681.2722401000001 L 309.5985022 681.2722400999996 L 309.5985022 681.2722401000001" fill="none" stroke="#000000"/><path d="M 265.7497522000001 666.6562400999999 L 265.7497521999999 666.6562400999999 L 265.7497522000001 666.6562400999999 L 273.72150220000003 666.6562400999999 L 273.72150220000003 666.6562400999999 L 273.72150220000003 648.0539900999997 L 273.7215021999998 648.0539900999997 L 273.72150220000003 648.0539900999997 L 273.7215021999998 648.0539900999997 L 265.7497521999999 648.0539900999997" fill="none" stroke="#000000"/><path d="M 265.7497521999999 235.1774900999999 L 265.74975219999965 235.1774900999999 L 265.7497521999999 235.1774900999999 L 273.7215021999998 235.1774900999999 L 273.7215021999998 235.1774900999999 L 273.7215021999998 235.1789901000002 L 273.7215021999998 235.1789901000002 L 273.7215021999998 216.57599010000013 L 273.7215021999996 216.57599010000013 L 273.7215021999998 216.57599010000013 L 273.7215021999996 216.57599010000013 L 265.74975219999965 216.57599010000013" fill="none" stroke="#000000"/><path d="M 479.30248900000015 852.6794901 L 479.30248900000015 808.8307401000001 L 479.30248900000015 808.8307401000001 L -0.000010999999631167157 808.8307401000001" fill="none" stroke="#000000"/><path d="M 446.08423900000025 852.6794901 L 446.084239 852.6794901 L 446.08423900000025 852.6794901 L 446.08423900000025 844.7077400999999 L 446.08423900000025 844.7077400999999 L 464.6864890000004 844.7077400999999 L 464.68648900000017 844.7077400999999 L 464.68648900000017 852.6802400999999" fill="none" stroke="#000000"/><path d="M 14.606239000000187 852.6794901 L 14.606239000000187 844.7077400999999 L 14.606239000000187 844.7077400999999 L 33.2084890000001 844.7077400999999" fill="none" stroke="#000000"/><path d="M 309.5985022 255.82574010000008 L 342.71550219999995 255.82574010000008 L 342.71550219999995 255.82574010000008 L 342.71700220000025 255.82574010000008 L 342.71700220000025 255.82574010000008 L 342.71700220000025 239.17349010000007 L 342.71700220000025 239.17349010000007 L 340.0597522000003 239.17349010000007 L 340.0597522000003 239.17349010000007 L 340.0597522000003 215.25599010000008 L 340.0597522000003 215.25599010000008 L 342.71700220000025 215.25599010000008 L 342.71700220000025 215.25599010000008 L 342.71700220000025 178.05149010000008" fill="none" stroke="#000000"/><path d="M 478.2547522 178.05149010000005 L 478.25475220000044 178.05149010000005 L 478.2547522 178.05149010000005 L 478.2547522 215.25599010000005 L 478.2547522 215.25599010000005 L 480.9120022000002 215.25599010000005 L 480.9120022000002 215.25599010000005 L 480.9120022000002 239.17349010000004 L 480.9120022000002 239.17349010000004 L 478.2547522 239.17349010000004 L 478.2547522 239.17349010000004 L 478.2547522 255.82574010000005 L 478.2547522 255.82574010000005 L 503.5950021999997 255.82574010000005 L 503.5950022000002 255.82574010000005 L 503.5950021999997 255.82574010000005 L 503.5950022000002 255.82574010000005 L 503.5950022000002 348.83849010000006 L 503.5950022000002 348.83849010000006 L 407.26125219999994 348.83849010000006 L 407.26125219999994 348.83849010000006 L 407.26125219999994 340.86524010000005 L 407.26125219999994 340.86524010000005 L 407.2597522000001 340.86524010000005 L 407.2597522000001 340.86524010000005 L 367.3987522 340.86524010000005 L 367.3987522 340.86524010000005 L 367.3987522 348.83849010000006 L 367.3987522 348.83849010000006 L 367.3972521999999 348.83849010000006 L 367.3972521999999 348.83849010000006 L 309.5985022 348.83849010000006 L 309.5985022 348.83849010000006 L 309.5985022 348.8369901" fill="none" stroke="#000000"/><path d="M 457.08900219999987 348.83849010000006 L 457.08900219999987 267.58424010000005 L 457.08900219999987 267.58424010000005 L 445.33200220000003 255.82574010000005 L 445.33200220000003 255.82574010000005 L 367.8637521999999 255.82574010000008 L 367.86375220000036 255.82574010000008 L 367.8637521999999 255.82574010000008 L 367.86375220000036 255.82574010000008 L 356.1037522000004 267.58424010000005 L 356.1037522000004 267.58424010000005 L 356.1045022000003 267.58424010000005 L 356.1045022000003 267.58424010000005 L 356.1045022000003 348.83849010000006" fill="none" stroke="#000000"/><path d="M 106.29824129999986 799.4174901 L 106.29824130000009 799.4174901 L 106.29824129999986 799.4174901 L 108.2129913 799.4174901 L 108.2129913 799.4174901 L 108.2129913 807.3907401 L 108.21299130000011 807.3907401 L 108.2129913 807.3907401 L 108.21299130000011 807.3907401 L 116.18474130000004 807.3907401 L 116.18474130000004 807.3907401 L 116.18474130000004 799.4174901 L 116.18474130000004 799.4174901 L 116.1862413 799.4174901 L 116.1862413 799.4174901 L 120.17174130000001 799.4174901 L 120.17174130000001 799.4174901 L 120.17174130000001 788.2567401 L 120.17174130000001 788.2567401 L 120.17024129999993 788.2567401 L 120.17024129999993 788.2567401 L 116.92874130000007 788.2567401 L 116.92874130000007 788.2567401 L 116.92874130000007 778.1579901000001 L 116.92874130000007 778.1579901000001 L 116.93024129999992 778.1579901000001 L 116.93024129999992 778.1579901000001 L 131.3864913000001 778.1579901000001 L 131.3864913000001 778.1579901000001 L 131.3864913000001 778.1572401000002 L 131.3864913000001 778.1572401000002 L 131.3864913000001 788.2567401 L 131.3864913000001 788.2567401 L 131.3849912999999 788.2567401 L 131.3849912999999 788.2567401 L 128.14349129999994 788.2567401 L 128.14349129999994 788.2567401 L 128.14349129999994 799.4174901 L 128.14349129999994 799.4174901 L 131.54474130000006 799.4174901 L 131.54474130000006 799.4174901 L 131.54474130000006 807.3907401 L 131.54474130000006 807.3907401 L 131.54624130000002 807.3907401 L 131.54624130000002 807.3907401 L 439.8149912999999 807.3907401 L 439.8149912999999 807.3907401 L 439.8149912999999 799.4174901 L 439.8149912999999 799.4174901 L 439.8127412999999 799.4174901 L 439.8127412999999 799.4174901 L 486.35924129999995 799.4174901 L 486.35924129999995 799.4174901 L 486.35924129999995 807.3907401 L 486.35924129999995 807.3907401 L 494.33099129999994 807.3907401 L 494.33099129999994 807.3907401 L 494.33099129999994 799.4174901 L 494.33099129999994 799.4174901 L 499.64549129999995 799.4174901 L 499.64549129999995 799.4174901 L 499.64549129999995 788.2567401 L 499.64549130000006 788.2567401 L 499.64549129999995 788.2567401 L 499.64549130000006 788.2567401 L 496.4054913 788.2567401 L 496.4054913 788.2567401 L 496.4054913 778.1579901000001 L 496.4054913 778.1579901000001 L 510.86099129999997 778.1579901000001 L 510.86099129999997 778.1579901000001 L 510.86099129999997 778.1572401000002 L 510.86099129999997 778.1572401000002 L 510.86099129999997 788.2567401 L 510.86099129999997 788.2567401 L 510.8602412999999 788.2567401 L 510.8602412999999 788.2567401 L 507.61874129999995 788.2567401 L 507.61874129999995 788.2567401 L 507.61874129999995 799.4174901 L 507.61874129999995 799.4174901 L 518.2492413 799.4174901 L 518.2492413 799.4174901 L 518.2492413 799.4159900999999 L 518.2492413 799.4159900999999 L 518.2492413 759.5557401 L 518.2492413 759.5557401 L 106.29824130000009 759.5557401 L 106.29824130000009 759.5557401 L 106.29824130000009 759.5572401000001" fill="none" stroke="#000000"/><path d="M 309.5985022 510.9442401 L 309.60000219999984 510.9442401 L 309.60000219999984 510.9442401 L 367.3987522 510.9442401 L 367.3987522 510.9442401 L 367.3987522 518.9159901" fill="none" stroke="#000000"/><path d="M 479.30249490000006 39.015754100000095 L 479.30249490000006 39.017254099999946 L 479.30249490000006 39.017254099999946 L 508.53674490000014 39.017254099999946 L 508.53674490000014 39.017254099999946 L 508.5359949 39.017254099999946 L 508.5359949 39.017254099999946 L 508.5359949 440.2965041 L 508.5359949 440.2965041 L 479.3017449 440.2965041" fill="none" stroke="#000000"/><path d="M 479.3017449 0.0000041000000692292815 L 523.1527449 0.0000041000000692292815 L 523.1527449 0.0000041000000692292815 L 523.1527449 0.0015041000001474458 L 523.1527449 0.0015041000001474458 L 523.1527449 19.932004100000086 L 523.1527449 19.932004100000086 L 523.1534949 19.932004100000086 L 523.1534949 19.932004100000086 L 511.9889949000001 19.932004100000086 L 511.9889949000001 19.932004100000086 L 511.9889949000001 19.93125410000016 L 511.9889949000001 19.93125410000016 L 511.9889949000001 16.689004100000147 L 511.98899489999997 16.689004100000147 L 511.9889949000001 16.689004100000147 L 511.98899489999997 16.689004100000147 L 501.89174489999994 16.689004100000147 L 501.89174489999994 16.689004100000147 L 501.89174489999994 16.6905041 L 501.89174489999994 16.6905041 L 501.89174489999994 31.145254099999875 L 501.89174490000005 31.145254099999875 L 501.89174489999994 31.145254099999875 L 501.89174490000005 31.145254099999875 L 511.9889949000001 31.145254099999875 L 511.9889949000001 31.145254099999875 L 511.9889949000001 31.143754100000024 L 511.9889949000001 31.143754100000024 L 511.9889949000001 27.903754100000015 L 511.9889949000001 27.903754100000015 L 511.98824490000004 27.903754100000015 L 511.98824490000004 27.903754100000015 L 523.1527449 27.903754100000015 L 523.1527449 27.903754100000015 L 523.1527449 79.72500409999998 L 523.1527449 79.72500409999998 L 523.1512449 79.72500409999998 L 523.1512449 79.72500409999998 L 531.1244949000001 79.72500409999998 L 531.1244949000001 79.72500409999998 L 531.1244949000001 79.7235040999999 L 531.1244949000001 79.7235040999999 L 531.1244949000001 93.01125409999986 L 531.1244949000001 93.01125409999986 L 523.1527449 93.01125409999986 L 523.1527449 93.01125410000009 L 523.1527449 93.01125409999986 L 523.1527449 93.01125410000009 L 523.1527449 386.29050410000013 L 523.1527449 386.29050410000013 L 523.1512449 386.29050410000013 L 523.1512449 386.29050410000013 L 531.1244949000001 386.29050410000013 L 531.1244949000001 386.2905040999999 L 531.1244949000001 386.29050410000013 L 531.1244949000001 386.2905040999999 L 531.1244949000001 399.57825409999987 L 531.1244949000001 399.57825409999987 L 523.1527449 399.57825409999987 L 523.1527449 399.57825409999987 L 523.1527449 399.5797541000002 L 523.1527449 399.5797541000002 L 523.1527449 451.41000410000015 L 523.1527449 451.41000410000015 L 523.1534949 451.41000410000015 L 523.1534949 451.41000410000015 L 511.9889949000001 451.41000410000015 L 511.9889949000001 451.41000410000015 L 511.9889949000001 451.4085041000003 L 511.9889949000001 451.4085041000003 L 511.9889949000001 448.1670041000002 L 511.98899489999997 448.1670041000002 L 511.9889949000001 448.1670041000002 L 511.98899489999997 448.1670041000002 L 501.89174489999994 448.1670041000002 L 501.89174489999994 448.1670041000002 L 501.89174489999994 462.62475410000025 L 501.89174490000005 462.62475410000025 L 501.89174489999994 462.62475410000025 L 501.89174490000005 462.62475410000025 L 511.9889949000001 462.62475410000025 L 511.9889949000001 462.62475410000025 L 511.9889949000001 459.3817541000001 L 511.9889949000001 459.3817541000001 L 511.98824490000004 459.3817541000001 L 511.98824490000004 459.3817541000001 L 523.1527449 459.3817541000001 L 523.1527449 459.38175409999985 L 523.1527449 459.3817541000001 L 523.1527449 459.38175409999985 L 523.1527449 479.30250409999985 L 523.1527449 479.30250409999985 L 523.1534949 479.30250409999985 L 523.1534949 479.30250409999985 L 479.30249490000006 479.30250409999985 L 479.30249490000006 479.30250409999985 L 479.30249490000006 440.2965041" fill="none" stroke="#000000"/><path d="M 309.5985022 598.6409901 L 309.5985022 598.6394901 L 309.5985022 598.6394901 L 423.8692521999999 598.6394901 L 423.8692521999999 598.6394901 L 423.8692521999999 510.9434901000001 L 423.8692521999999 510.9434901000001 L 423.86775220000004 510.9442401" fill="none" stroke="#000000"/><path d="M 309.5985022 518.9159901 L 423.8692521999999 518.9159901 L 423.8692521999999 518.9159901 L 423.8692521999999 518.9144901" fill="none" stroke="#000000"/><path d="M -0.0015040000000681177 852.6794901 L 479.302496 852.6794901 L 479.302496 852.6794901 L 479.302496 896.5282401 L 479.302496 896.5282401 L 464.68649600000003 896.5282401 L 464.68649600000003 896.5282401000001 L 464.68649600000003 896.5282401 L 464.68649600000003 896.5282401000001 L 464.68649600000003 888.5549901 L 464.68649600000003 888.5549901 L 459.3719960000001 888.5549901 L 459.3719960000001 888.5549901 L 459.3719960000001 888.5557401 L 459.3719960000001 888.5557401 L 459.3719960000001 885.3667401000001 L 459.37199599999985 885.3667401000001 L 462.61349599999994 885.3667401000001 L 462.61349599999994 885.3667401000001 L 462.61349599999994 875.2694901000001 L 462.61349600000017 875.2694901000001 L 448.1572460000002 875.2694901000001 L 448.1572460000002 875.2694901000001 L 448.1572460000002 885.3667401000001 L 448.157246 885.3667401000001 L 451.3987460000001 885.3667401000001 L 451.3987460000001 885.3667401000001 L 451.3987460000001 885.3659901000001 L 451.3987460000001 885.3659901000001 L 451.3987460000001 888.5549901 L 451.3987460000001 888.5549901 L 446.0842460000001 888.5549901 L 446.0842460000001 888.5549900999998 L 446.0842460000001 896.5282401 L 446.08424599999967 896.5282401 L 399.5782459999998 896.5282401 L 399.5782459999998 896.5282401000001 L 399.5782459999998 904.4999901 L 399.57824600000026 904.4999901 L 386.2904960000003 904.4999901 L 386.2904960000003 904.4999900999999 L 386.2904960000003 896.5282401 L 386.29049599999985 896.5282401 L 93.01124600000003 896.5282401 L 93.01124600000003 896.5282401000001 L 93.01124600000003 904.4999901 L 93.01124600000026 904.4999901 L 79.72349600000007 904.4999901 L 79.72349600000007 904.4999900999999 L 79.72349600000007 896.5282401 L 79.72349599999984 896.5282401 L 33.20774600000004 896.5282401 L 33.20774600000004 896.5282401000001 L 33.20774600000004 888.5549901 L 33.20774600000027 888.5549901 L 27.89324600000009 888.5549901 L 27.89324600000009 888.5549901 L 27.89324600000009 888.5557401 L 27.89324600000009 888.5557401 L 27.89324600000009 885.3667401000001 L 27.893245999999863 885.3667401000001 L 31.135496000000103 885.3667401000001 L 31.135496000000103 885.3667401000001 L 31.135496000000103 875.2694901000001 L 31.135496000000103 875.2694901000001 L 31.13474599999995 875.2694901000001 L 31.13474599999995 875.2694901000001 L 16.678495999999996 875.2694901000001 L 16.678495999999996 875.2694901000001 L 16.678495999999996 885.3667401000001 L 16.678495999999996 885.3667401000001 L 19.92149600000016 885.3667401000001 L 19.92149600000016 885.3667401000001 L 19.92149600000016 885.3659901000001 L 19.92149600000016 885.3659901000001 L 19.92149600000016 888.5549901 L 19.92149600000016 888.5549901 L 14.60549600000013 888.5549901 L 14.60549600000013 888.5549900999998 L 14.60549600000013 896.5282401 L 14.60549600000013 896.5282401 L 14.606996000000208 896.5282401 L 14.606996000000208 896.5282401 L -0.000003999999762527299 896.5282401 L -0.000003999999759842334 896.5282401 L -0.000003999999765212257 808.8307401000001" fill="none" stroke="#000000"/><path d="M 440.28524600000014 852.6794901 L 440.28524600000014 881.9137401 L 440.28524600000014 881.9137401 L 75.1934960000001 881.9137401 L 75.1934960000001 881.9137401 L 39.00674600000025 881.9137401 L 39.00674600000025 881.9137401 L 39.005996000000096 881.9137401 L 39.005996000000096 881.9137401 L 39.005996000000096 852.6794901" fill="none" stroke="#000000"/><path d="M 423.8692521999999 573.3952401 L 423.87075219999974 573.3952401 L 423.87075219999974 573.3952401 L 579.3307521999998 573.3952401 L 579.3307521999998 573.3952401 L 579.3307521999998 505.62974010000005 L 579.3307521999998 505.62974010000005 L 579.3307521999998 505.6289901 L 579.3307521999998 505.6289901 L 515.5530022 505.6289901 L 515.5530022 505.6289901 L 515.5522521999999 505.6289901 L 515.5522521999999 505.6289901 L 515.5522521999999 544.0297401 L 515.5522521999999 544.0297401 L 515.5522521999999 544.0312401000001 L 515.5522521999999 544.0312401000001 L 453.09900219999986 544.0312401000001 L 453.09900219999986 544.0312401000001 L 453.10050220000016 544.0297401 L 453.10050220000016 544.0297401 L 453.10050220000016 510.9442401" fill="none" stroke="#000000"/><path d="M 555.99679 80.60485549999999 L 555.99679 80.60635549999984 L 555.99679 80.60635549999984 L 548.82529 87.77785549999976 L 548.82529 87.77785549999999 L 548.82529 87.77785549999976 L 548.82529 87.77785549999999 L 548.82529 390.84535549999987 L 548.82529 390.84535549999987 L 555.99679 398.0161055000001" fill="none" stroke="#000000"/><path d="M 555.99679 38.086605499999905 L 555.99529 38.086605499999905 L 555.99529 38.086605499999905 L 531.8842899999999 38.086605499999905 L 531.8842899999999 38.086605499999905 L 531.8842899999999 90.29035550000003 L 531.8842899999999 90.29035550000003 L 531.8842899999999 90.29185549999988 L 531.8842899999999 90.29185549999988 L 540.8535399999998 93.55735549999986 L 540.8535399999998 93.55735549999986 L 540.85354 93.5558555 L 540.85354 93.5558555 L 540.85354 97.03585550000003 L 540.85354 97.03585550000003 L 531.88429 100.3013555 L 531.88429 100.3013555 L 531.8842899999999 100.29985549999992 L 531.8842899999999 100.29985549999992 L 531.8842899999999 102.81460549999997 L 531.8842899999999 102.81460549999997 L 540.8535399999998 106.08010549999995 L 540.8535399999998 106.08010549999995 L 540.85354 106.07785549999994 L 540.85354 106.07785549999994 L 540.85354 109.55860550000011 L 540.85354 109.55860550000011 L 531.88429 112.82410550000009 L 531.88429 112.82410550000009 L 531.8842899999999 112.82260550000001 L 531.8842899999999 112.82260550000001 L 531.8842899999999 115.33810550000021 L 531.8842899999999 115.33810550000021 L 540.8535399999998 118.60285550000003 L 540.85354 118.60285550000003 L 540.8535399999998 118.60285550000003 L 540.85354 118.60285550000003 L 540.85354 122.08285550000005 L 540.85354 122.08285550000005 L 540.85354 122.0813555000002 L 540.85354 122.0813555000002 L 531.88429 125.34685550000017 L 531.88429 125.34685550000017 L 531.8842899999999 125.34535549999987 L 531.8842899999999 125.34535549999987 L 531.8842899999999 127.86085550000007 L 531.8842899999999 127.86085550000007 L 531.8842899999999 127.86010550000015 L 531.8842899999999 127.86010550000015 L 540.8535399999998 131.12560550000012 L 540.85354 131.12560550000012 L 540.8535399999998 131.12560550000012 L 540.85354 131.12560550000012 L 540.85354 134.60485549999999 L 540.85354 134.60485549999999 L 531.88429 137.87035549999996 L 531.88429 137.87035549999996 L 531.8842899999999 137.86960550000003 L 531.8842899999999 137.86960550000003 L 531.8842899999999 140.3851055 L 531.8842899999999 140.3851055 L 531.8842899999999 140.38360550000016 L 531.8842899999999 140.38360550000016 L 540.8535399999998 143.64910550000013 L 540.8535399999998 143.64910550000013 L 540.85354 143.64835549999998 L 540.85354 143.64835549999998 L 540.85354 147.12910549999992 L 540.85354 147.12910549999992 L 540.85354 147.12760550000007 L 540.85354 147.12760550000007 L 531.88429 150.39310550000005 L 531.88429 150.39310550000005 L 531.8842899999999 150.3923554999999 L 531.8842899999999 150.3923554999999 L 531.8842899999999 152.90785549999987 L 531.8842899999999 152.90785549999987 L 531.8842899999999 152.90635550000002 L 531.8842899999999 152.90635550000002 L 540.8535399999998 156.1718555 L 540.85354 156.1718555 L 540.8535399999998 156.1718555 L 540.85354 156.1718555 L 540.85354 159.6533555000001 L 540.85354 159.6533555000001 L 540.85354 159.6518555 L 540.85354 159.6518555 L 531.88429 162.91585550000013 L 531.8842899999999 162.91585550000013 L 531.88429 162.91585550000013 L 531.8842899999999 162.91585550000013 L 531.8842899999999 165.4313555000001 L 531.8842899999999 165.4313555000001 L 531.8842899999999 165.42985550000003 L 531.8842899999999 165.42985550000003 L 540.8535399999998 168.69460550000008 L 540.85354 168.69460550000008 L 540.8535399999998 168.69460550000008 L 540.85354 168.69460550000008 L 540.85354 172.17535550000002 L 540.85354 172.17535550000002 L 540.85354 172.17310550000002 L 540.85354 172.17310550000002 L 531.88429 175.43860550000022 L 531.8842899999999 175.4386055 L 531.88429 175.43860550000022 L 531.8842899999999 175.4386055 L 531.8842899999999 177.9526054999999 L 531.8842899999999 177.9526054999999 L 540.8535399999998 181.21885550000002 L 540.8535399999998 181.21885550000002 L 540.85354 181.21735550000017 L 540.85354 181.21735550000017 L 540.85354 184.69660550000003 L 540.85354 184.69660550000003 L 531.88429 187.9621055 L 531.88429 187.9621055 L 531.8842899999999 187.96135550000008 L 531.8842899999999 187.96135550000008 L 531.8842899999999 190.47685550000006 L 531.8842899999999 190.47685550000006 L 531.8842899999999 190.47535549999998 L 531.8842899999999 190.47535549999998 L 540.8535399999998 193.74085550000018 L 540.8535399999998 193.74085550000018 L 540.85354 193.74010550000003 L 540.85354 193.74010550000003 L 540.85354 197.22085549999997 L 540.85354 197.22085549999997 L 540.85354 197.21935550000012 L 540.85354 197.21935550000012 L 531.88429 200.4848555000001 L 531.8842899999999 200.4848555000001 L 531.88429 200.4848555000001 L 531.8842899999999 200.4848555000001 L 531.8842899999999 203.00035550000007 L 531.8842899999999 203.00035550000007 L 531.8842899999999 202.99960549999992 L 531.8842899999999 202.99960549999992 L 540.8535399999998 206.26360550000004 L 540.85354 206.26360550000004 L 540.8535399999998 206.26360550000004 L 540.85354 206.26360550000004 L 540.85354 209.74510550000014 L 540.85354 209.74510550000014 L 540.85354 209.74360550000006 L 540.85354 209.74360550000006 L 531.88429 213.00760549999995 L 531.8842899999999 213.00760549999995 L 531.88429 213.00760549999995 L 531.8842899999999 213.00760549999995 L 531.8842899999999 215.52310550000016 L 531.8842899999999 215.52310550000016 L 531.8842899999999 215.5223555 L 531.8842899999999 215.5223555 L 540.8535399999998 218.78785549999998 L 540.8535399999998 218.78785549999998 L 540.85354 218.7863554999999 L 540.85354 218.7863554999999 L 540.85354 222.26710550000007 L 540.85354 222.26710550000007 L 540.85354 222.26635550000015 L 540.85354 222.26635550000015 L 531.88429 225.53185550000012 L 531.88429 225.53185550000012 L 531.8842899999999 225.53035550000004 L 531.8842899999999 225.53035550000004 L 531.8842899999999 228.04585550000024 L 531.8842899999999 228.04585550000002 L 531.8842899999999 228.04585550000024 L 531.8842899999999 228.04585550000002 L 540.8535399999998 231.3113555 L 540.8535399999998 231.3113555 L 540.85354 231.31060550000007 L 540.85354 231.31060550000007 L 540.85354 234.78985549999993 L 540.85354 234.78985550000016 L 540.85354 234.78985549999993 L 540.85354 234.78985550000016 L 531.88429 238.05535550000013 L 531.88429 238.05535550000013 L 531.8842899999999 238.05460549999998 L 531.8842899999999 238.05460549999998 L 531.8842899999999 240.5686055000001 L 531.8842899999999 240.5686055000001 L 540.8535399999998 243.83410550000008 L 540.8535399999998 243.83410550000008 L 540.85354 243.83335550000015 L 540.85354 243.83335550000015 L 540.85354 247.31260550000002 L 540.85354 247.31260550000002 L 531.88429 250.57660550000014 L 531.8842899999999 250.57660550000014 L 531.88429 250.57660550000014 L 531.8842899999999 250.57660550000014 L 531.8842899999999 253.09210550000012 L 531.8842899999999 253.09210550000012 L 531.8842899999999 253.09135549999996 L 531.8842899999999 253.09135549999996 L 540.8535399999998 256.35535549999986 L 540.85354 256.35535549999986 L 540.8535399999998 256.35535549999986 L 540.85354 256.35535549999986 L 540.85354 259.83685549999973 L 540.85354 259.83685549999973 L 540.85354 259.8353555000001 L 540.85354 259.8353555000001 L 531.88429 263.1008555000001 L 531.88429 263.1008555000001 L 531.8842899999999 263.0993555 L 531.8842899999999 263.0993555 L 531.8842899999999 265.6156054999999 L 531.8842899999999 265.6156054999999 L 540.8535399999998 268.8796055 L 540.85354 268.8796055 L 540.8535399999998 268.8796055 L 540.85354 268.8796055 L 540.85354 272.3588554999999 L 540.85354 272.3588554999999 L 531.88429 275.62435549999987 L 531.88429 275.62435549999987 L 531.8842899999999 275.6221055000001 L 531.8842899999999 275.6221055000001 L 531.8842899999999 278.13760549999984 L 531.8842899999999 278.13760549999984 L 540.8535399999998 281.4031054999998 L 540.8535399999998 281.4031054999998 L 540.85354 281.4023555000001 L 540.85354 281.4023555000001 L 540.85354 284.8816055 L 540.85354 284.8816055 L 531.88429 288.14710549999995 L 531.88429 288.14710549999995 L 531.8842899999999 288.14635550000025 L 531.8842899999999 288.14635550000025 L 531.8842899999999 290.6618555 L 531.8842899999999 290.6618555 L 531.8842899999999 290.6603554999999 L 531.8842899999999 290.6603554999999 L 540.8535399999998 293.9258554999999 L 540.8535399999998 293.9258554999999 L 540.85354 293.9251055000002 L 540.85354 293.9251055000002 L 540.85354 297.40585550000014 L 540.85354 297.40585550000014 L 540.85354 297.40435550000007 L 540.85354 297.40435550000007 L 531.88429 300.66985550000004 L 531.8842899999999 300.66985550000004 L 531.88429 300.66985550000004 L 531.8842899999999 300.66985550000004 L 531.8842899999999 303.1853555 L 531.8842899999999 303.1853555 L 531.8842899999999 303.1846055000001 L 531.8842899999999 303.1846055000001 L 540.8535399999998 306.4486055 L 540.85354 306.4486055 L 540.8535399999998 306.4486055 L 540.85354 306.4486055 L 540.85354 309.93010549999985 L 540.85354 309.93010549999985 L 540.85354 309.9286055 L 540.85354 309.9286055 L 531.88429 313.1926054999997 L 531.8842899999999 313.1926055000001 L 531.88429 313.1926054999997 L 531.8842899999999 313.1926055000001 L 531.8842899999999 315.7081055000001 L 531.8842899999999 315.7081055000001 L 531.8842899999999 315.7073555000002 L 531.8842899999999 315.7073555000002 L 540.8535399999998 318.9713555000001 L 540.85354 318.9713555000001 L 540.8535399999998 318.9713555000001 L 540.85354 318.9713555000001 L 540.85354 322.45060550000017 L 540.85354 322.45060550000017 L 531.88429 325.7161054999999 L 531.88429 325.7161054999999 L 531.8842899999999 325.71535549999976 L 531.8842899999999 325.71535549999976 L 531.8842899999999 328.23085549999973 L 531.8842899999999 328.23085549999973 L 531.8842899999999 328.2293555000001 L 531.8842899999999 328.2293555000001 L 540.8535399999998 331.4956055 L 540.85354 331.4956055 L 540.8535399999998 331.4956055 L 540.85354 331.4956055 L 540.85354 334.97485550000033 L 540.85354 334.97485550000033 L 540.85354 334.9733555 L 540.85354 334.9733555 L 531.88429 338.2388554999998 L 531.88429 338.2388554999998 L 531.8842899999999 338.23810549999985 L 531.8842899999999 338.23810549999985 L 531.8842899999999 340.7536054999998 L 531.8842899999999 340.7536055000003 L 531.8842899999999 340.7536054999998 L 531.8842899999999 340.7536055000003 L 540.8535399999998 344.0191055 L 540.8535399999998 344.0191055 L 540.85354 344.01835549999987 L 540.85354 344.01835549999987 L 540.85354 347.49760549999996 L 540.85354 347.49760549999996 L 531.88429 350.76160549999986 L 531.8842899999999 350.76160549999986 L 531.88429 350.76160549999986 L 531.8842899999999 350.76160549999986 L 531.8842899999999 353.2771054999996 L 531.8842899999999 353.2771054999996 L 531.8842899999999 353.2763554999999 L 531.8842899999999 353.2763554999999 L 540.8535399999998 356.5418554999999 L 540.8535399999998 356.5418554999999 L 540.85354 356.54035550000003 L 540.85354 356.54035550000003 L 540.85354 360.0218554999999 L 540.85354 360.0218554999999 L 540.85354 360.02035550000005 L 540.85354 360.02035550000005 L 531.88429 363.2858555 L 531.88429 363.2858555 L 531.8842899999999 363.28435549999995 L 531.8842899999999 363.28435549999995 L 531.8842899999999 365.7998554999997 L 531.8842899999999 365.7998554999997 L 531.8842899999999 365.7991055 L 531.8842899999999 365.7991055 L 540.8535399999998 369.06460549999997 L 540.8535399999998 369.06460549999997 L 540.85354 369.0631054999999 L 540.85354 369.0631054999999 L 540.85354 372.54385549999984 L 540.85354 372.54385549999984 L 531.88429 375.8093554999998 L 531.88429 375.8093554999998 L 531.8842899999999 375.8086055000001 L 531.8842899999999 375.8086055000001 L 531.8842899999999 378.3226054999998 L 531.8842899999999 378.3226054999998 L 540.8535399999998 381.58810549999976 L 540.8535399999998 381.58810549999976 L 540.85354 381.58735550000006 L 540.85354 381.58735550000006 L 540.85354 385.0666054999999 L 540.85354 385.0666054999999 L 531.88429 388.3321054999999 L 531.88429 388.3321054999999 L 531.8842899999999 388.3313555000002 L 531.8842899999999 388.3313555000002 L 531.8842899999999 398.81710550000025 L 531.8842899999999 398.81710550000025 L 531.8842899999999 398.8186054999999 L 531.8842899999999 398.8186054999999 L 524.1060399999999 406.59535549999987 L 524.1060399999999 406.59535549999987 L 524.1060399999999 406.5938555 L 524.1060399999999 406.5938555 L 524.1060399999999 445.26535549999994 L 524.1060399999999 445.26535549999994 L 540.8520399999999 445.26535549999994 L 540.8520399999999 445.26535549999994 L 540.8520399999999 445.26610549999964 L 540.8520399999999 445.26610549999964 L 540.8520399999999 437.29285549999986 L 540.85204 437.29285549999986 L 540.8520399999999 437.29285549999986 L 540.85204 437.29285549999986 L 548.82529 437.29285549999986 L 548.82529 437.29285549999986 L 548.82529 437.2913554999998 L 548.82529 437.2913554999998 L 548.82529 445.26535549999994 L 548.82529 445.26535549999994 L 555.99679 445.26535549999994" fill="none" stroke="#000000"/><path d="M 571.9417900000001 118.20000949999985 L 571.9417900000001 122.68200949999982 L 571.9417900000001 122.68200950000005 L 571.9417900000001 122.68200949999982 L 571.9417900000001 122.68200950000005 L 561.3112900000001 126.55050950000009 L 561.3112900000001 126.55050950000009 L 561.3112900000001 131.02875949999998 L 561.3112900000001 131.02875949999998 L 571.9417900000001 134.8972594999998 L 571.9417900000001 134.89725950000002 L 571.9417900000001 134.8972594999998 L 571.9417900000001 134.89725950000002 L 571.9417900000001 139.37850950000006 L 571.9417900000001 139.37850950000006 L 571.9410399999999 139.37700949999976 L 571.9410399999999 139.37700949999976 L 561.45154 143.19675949999987 L 561.45154 143.19675949999987 L 561.45154 147.77625949999992 L 561.45154 147.77625949999992 L 561.45154 147.7777595 L 561.45154 147.7777595 L 571.9410399999999 151.59525949999988 L 571.9410399999999 151.59525949999988 L 571.9417900000001 151.5937594999998 L 571.9417900000001 151.5937594999998 L 571.9417900000001 156.07650949999993 L 571.9417900000001 156.07650949999993 L 571.9410399999999 156.0757595 L 571.9410399999999 156.0757595 L 561.45154 159.89325949999989 L 561.45154 159.89325949999989 L 561.45154 164.47350949999986 L 561.45154 164.47350949999986 L 561.45154 164.47500949999994 L 561.45154 164.47500949999994 L 571.9410399999999 168.29250949999982 L 571.9410399999999 168.29250949999982 L 571.9417900000001 168.29175949999967 L 571.9417900000001 168.29175949999967 L 571.9417900000001 172.77375949999987 L 571.9417900000001 172.77375949999987 L 571.94104 172.7737595000001 L 571.94104 172.7737595000001 L 561.45154 176.59125949999998 L 561.45154 176.59125949999998 L 561.45154 181.17150949999996 L 561.45154 181.17150949999996 L 561.45154 181.17300950000003 L 561.45154 181.17300950000003 L 571.94104 184.99050949999992 L 571.94104 184.99050949999992 L 571.9417900000001 184.99050950000014 L 571.9417900000001 184.99050950000014 L 571.9417900000001 189.47175949999996 L 571.9417900000001 189.47175949999996 L 571.94104 189.47100950000004 L 571.94104 189.47100950000004 L 561.45154 193.28925949999984 L 561.45154 193.28925949999984 L 561.45154 197.86800949999997 L 561.45154 197.86800949999997 L 561.45154 197.86950949999982 L 561.45154 197.86950949999982 L 571.94104 201.6885095 L 571.94104 201.6885095 L 571.9417900000001 201.6870094999997 L 571.9417900000001 201.6870094999997 L 571.9417900000001 206.1690094999999 L 571.9417900000001 206.1690094999999 L 571.94104 206.16900950000013 L 571.94104 206.16900950000013 L 561.45154 209.9865095 L 561.45154 209.9865095 L 561.45154 214.5667595 L 561.45154 214.5667595 L 561.45154 214.56750949999991 L 561.45154 214.56750949999991 L 571.94104 218.3865095000001 L 571.94104 218.3865095000001 L 571.9417900000001 218.38425949999987 L 571.9417900000001 218.38425949999987 L 571.9417900000001 222.86550949999992 L 571.9417900000001 222.86550949999992 L 571.94104 222.86550949999992 L 571.94104 222.86550949999992 L 561.45154 226.68450949999988 L 561.45154 226.68450949999988 L 561.45154 231.26400949999993 L 561.45154 231.26400949999993 L 561.45154 231.26475949999985 L 561.45154 231.26475949999985 L 571.94104 235.08375950000004 L 571.94104 235.08375950000004 L 571.9417900000001 235.08225949999996 L 571.9417900000001 235.08225949999996 L 571.9417900000001 239.5635095 L 571.9417900000001 239.5635095 L 571.94104 239.56275949999986 L 571.94104 239.56275949999986 L 561.45154 243.38025949999997 L 561.45154 243.38025949999997 L 561.45154 247.9597594999998 L 561.45154 247.9597594999998 L 561.45154 247.96125949999987 L 561.45154 247.96125949999987 L 571.94104 251.78025950000006 L 571.94104 251.78025950000006 L 571.9417900000001 251.77875949999975 L 571.9417900000001 251.77875949999975 L 571.9417900000001 256.26075949999995 L 571.9417900000001 256.26075949999995 L 571.94104 256.26075949999995 L 571.94104 256.26075949999995 L 561.45154 260.0797594999999 L 561.45154 260.0797594999999 L 561.45154 264.65850950000004 L 561.45154 264.65850950000004 L 561.45154 264.65925949999996 L 561.45154 264.65925949999996 L 571.94104 268.4782594999999 L 571.94104 268.4782594999999 L 571.9417900000001 268.4775095 L 571.9417900000001 268.4775095 L 571.9417900000001 272.95875950000004 L 571.9417900000001 272.95875950000004 L 571.94104 272.95875950000004 L 571.94104 272.95875950000004 L 561.45154 276.7762594999999 L 561.45154 276.7762594999999 L 561.45154 281.3565094999999 L 561.45154 281.3565094999999 L 561.45154 281.3580095 L 561.45154 281.3580095 L 571.94104 285.17550949999986 L 571.94104 285.17550949999986 L 571.9417900000001 285.1740095 L 571.9417900000001 285.1740095 L 571.9417900000001 289.65525950000006 L 571.9417900000001 289.65525950000006 L 571.94104 289.65525950000006 L 571.94104 289.65525950000006 L 561.45154 293.4742595 L 561.45154 293.4742595 L 561.45154 298.0545095 L 561.45154 298.0545095 L 571.94104 301.8720094999999 L 571.94104 301.8720094999999 L 571.9417900000001 301.8705095 L 571.9417900000001 301.8705095 L 571.9417900000001 306.3540095000001 L 571.9417900000001 306.3540095000001 L 571.94104 306.3540095000001 L 571.94104 306.3540095000001 L 561.45154 310.17150949999996 L 561.45154 310.17150949999996 L 561.45154 314.75175949999993 L 561.45154 314.75175949999993 L 561.45154 314.75250949999986 L 561.45154 314.75250949999986 L 571.94104 318.57000949999997 L 571.94104 318.57000949999997 L 571.9417900000001 318.56775949999997 L 571.9417900000001 318.56775949999997 L 571.9417900000001 323.0505095000001 L 571.9417900000001 323.0505095000001 L 571.94104 323.0505095000001 L 571.94104 323.0505095000001 L 561.45154 326.8680095000002 L 561.45154 326.8680095000002 L 561.45154 331.4482595000002 L 561.45154 331.4482595000002 L 561.45154 331.4497595 L 561.45154 331.4497595 L 571.94104 335.26725950000014 L 571.94104 335.26725950000014 L 571.9417900000001 335.26725950000014 L 571.9417900000001 335.26725950000014 L 571.9417900000001 339.74850949999995 L 571.9417900000001 339.74850949999995 L 571.94104 339.7485094999997 L 571.94104 339.7485094999997 L 561.45154 343.56600949999984 L 561.45154 343.56600949999984 L 561.45154 348.1462594999998 L 561.45154 348.1462594999998 L 571.94104 351.9652595 L 571.94104 351.9652595 L 571.9417900000001 351.9637594999999 L 571.9417900000001 351.9637594999999 L 571.9417900000001 356.4457595000001 L 571.9417900000001 356.4457595000001 L 571.94104 356.4442594999998 L 571.94104 356.4442594999998 L 561.45154 360.2632594999998 L 561.45154 360.2632594999998 L 561.45154 364.84275950000006 L 561.45154 364.84275950000006 L 561.45154 364.8442594999999 L 561.45154 364.8442594999999 L 571.94104 368.6617595 L 571.94104 368.6617595 L 571.9417900000001 368.6610095000003 L 571.9417900000001 368.6610095000003 L 571.9417900000001 373.1437595 L 571.9417900000001 373.1437595 L 561.3112900000001 377.0122595 L 561.3112900000001 377.0122595 L 561.3112900000001 381.49050950000014 L 561.3112900000001 381.49050950000014 L 571.9417900000001 385.35900949999996 L 571.9417900000001 385.35900949999996 L 571.9417900000001 389.8402595 L 571.9417900000001 389.8402595 L 561.3112900000001 393.7087594999998 L 561.3112900000001 393.7087594999998 L 561.3112900000001 398.1885094999998 L 561.3112900000001 398.1885094999998 L 571.9417900000001 402.0570094999996 L 571.9417900000001 402.0570094999996 L 571.9417900000001 402.05550949999974 L 571.9417900000001 402.05550949999974 L 571.9417900000001 406.5375094999997 L 571.9417900000001 406.5375094999997 L 571.9417900000001 406.53825949999987 L 571.9417900000001 406.53825949999987 L 561.3112900000001 410.4067594999999 L 561.3112900000001 410.4067594999999 L 561.3112900000001 410.4060095000002 L 561.3112900000001 410.4060095000002 L 561.3112900000001 414.8857595000002 L 561.3112900000001 414.8857595000002 L 572.01829 418.7527594999999 L 572.01829 418.7527594999999 L 572.0190400000001 418.75350949999984 L 572.0190400000001 418.75350949999984 L 572.0190400000001 423.4275094999998 L 572.01904 423.4275094999998 L 572.0190400000001 423.4275094999998 L 572.01904 423.4275094999998 L 569.2845400000001 424.4235094999997 L 569.2845400000001 424.4235094999997 L 569.2845400000001 424.42200949999983 L 569.2845400000001 424.42200949999983 L 569.2845400000001 479.3025094999998 L 569.2845400000001 479.3025094999998 L 555.9960400000001 479.3025094999998 L 555.9960400000001 479.3025094999998 L 555.99679 479.3025094999998 L 555.99679 479.3025094999998 L 555.99679 464.68650950000006 L 555.99679 464.68650950000006 L 540.0517900000001 464.68650950000006 L 540.0517900000001 464.68650950000006 L 540.0517900000001 446.08425950000014 L 540.0517900000001 446.08425950000014 L 555.99679 446.08425950000014 L 555.99679 446.08425950000014 L 555.9967899999999 33.21825949999993 L 555.9967899999999 33.21825949999993 L 540.05179 33.21825949999993 L 540.05179 33.21825949999993 L 540.05179 14.616009499999791 L 540.05179 14.616009499999791 L 555.9967899999999 14.616009499999791 L 555.9967899999999 14.616009499999791 L 555.9967899999999 0.000009499999805484549 L 555.9967899999999 0.000009499999805484549 L 569.28529 0.000009499999805484549 L 569.28529 0.000009499999805484549 L 569.28454 -0.0007405000001199369 L 569.28454 -0.0007405000001199369 L 569.28454 117.23325950000003 L 569.28454 117.23325950000003 L 571.9417900000001 118.2007595 z" fill="none" stroke="#000000"/><path d="M 140.6907538000005 108.95661960000004 L 140.6907538000005 116.9291196 L 140.6907538000005 116.9291196 L 127.40300380000008 116.9291196 L 127.40300380000008 116.9291196 L 127.40375380000023 116.9291196 L 127.40375380000023 116.9291196 L 127.40375380000023 108.95661960000004 L 127.40375380000023 108.95661960000004 L 66.28325380000024 108.95661960000004 L 66.28325380000024 108.95661960000004 L 66.28250380000009 108.95661960000004 L 66.28250380000009 108.95661960000004 L 66.28250380000009 100.98411960000001 L 66.28250380000009 100.98411960000001 L 74.25425380000024 100.98411960000001 L 74.25425380000024 100.98411960000001 L 74.25425380000024 93.01161959999999 L 74.25425380000024 93.01161959999999 L 85.4165038000001 93.01161959999999 L 85.4165038000001 93.01161959999999 L 85.4165038000001 96.25311960000002 L 85.4165038000001 96.25311960000002 L 95.51525380000021 96.25311960000002 L 95.51525380000021 96.25311960000002 L 95.51525380000021 81.79686960000001 L 95.51525380000021 81.79686960000001 L 85.4165038000001 81.79686960000001 L 85.4165038000001 81.79686960000001 L 85.4165038000001 85.03911960000002 L 85.4165038000001 85.03911960000002 L 74.25425380000024 85.03911960000002 L 74.25425380000024 85.03911960000002 L 74.25425380000024 77.06661960000005 L 74.25425380000024 77.06661960000005 L 66.28250380000009 77.06661960000005 L 66.28250380000009 77.06661960000005 L 66.28250380000009 69.09411960000003 L 66.28250380000009 69.09411960000003 L 116.77325380000002 69.09411960000003 L 116.77325380000002 69.09411960000003 L 116.77325380000002 102.31236959999998 L 116.77325380000002 102.31236959999998 L 179.22650380000005 102.31236959999998 L 179.22650380000005 102.31236959999998 L 179.2250038000002 102.31236959999998 L 179.2250038000002 102.31236959999998 L 179.2250038000002 69.09411960000003 L 179.2250038000002 69.09411960000003 L 193.84100380000018 69.0941196 L 193.84100380000018 69.0941196 L 193.84175380000033 69.0941196 L 193.84175380000033 69.0941196 L 193.84175380000033 82.38111959999998 L 193.84175380000033 82.38111959999998 L 201.81350380000003 82.38111959999998 L 201.81350380000003 82.38111959999998 L 201.81350380000003 95.6688696 L 201.81350380000003 95.6688696 L 193.84175380000033 95.6688696 L 193.84175380000033 95.6688696 L 193.84175380000033 108.95661960000001 L 193.84175380000033 108.95661960000001 L 140.6915038000002 108.95661960000004 z" fill="none" stroke="#000000"/></svg>