<?xml version="1.0" encoding="UTF-8" standalone="no"?>
<!-- Generator: Adobe Illustrator 15.1.0, SVG Export Plug-In . SVG Version: 6.00 Build 0)  -->

<svg
   version="1.1"
   id="svg10668"
   sodipodi:docname="draw-bot.svg"
   inkscape:version="1.1 (c68e22c387, 2021-05-23)"
   x="0px"
   y="0px"
   width="3700.547px"
   height="1728px"
   viewBox="0 -185.319 3700.547 1728"
   enable-background="new 0 -185.319 3700.547 1728"
   xml:space="preserve"
   xmlns:inkscape="http://www.inkscape.org/namespaces/inkscape"
   xmlns:sodipodi="http://sodipodi.sourceforge.net/DTD/sodipodi-0.dtd"
   xmlns="http://www.w3.org/2000/svg"
   xmlns:svg="http://www.w3.org/2000/svg"><defs
   id="defs1444" />
<sodipodi:namedview
   id="namedview13135"
   pagecolor="#ffffff"
   borderopacity="1"
   objecttolerance="10"
   bordercolor="#666666"
   inkscape:window-width="1920"
   gridtolerance="10"
   guidetolerance="10"
   inkscape:pageopacity="0"
   inkscape:pageshadow="2"
   inkscape:window-height="1017"
   showgrid="false"
   inkscape:zoom="0.61088506"
   inkscape:cx="2308.1265"
   inkscape:cy="1095.9508"
   inkscape:window-x="1912"
   inkscape:window-y="518"
   inkscape:window-maximized="1"
   inkscape:current-layer="g10725"
   inkscape:pagecheckerboard="1">
	</sodipodi:namedview>
<desc
   id="desc10670">
	C:\Users\Gaurav\Desktop\Projects\Mini Drawbot\Mini Drawbot 2D.DXF - scale = 1.000000, origin = (0.000000, 0.000000), auto = False
	</desc>
<g
   id="g10725"
   inkscape:groupmode="layer"
   inkscape:label="0">
	<path
   id="path11415"
   fill="none"
   stroke="#000000"
   stroke-width="0.5"
   stroke-linecap="round"
   d="m 2770.4951,204.44446 v -9.396 m -4.323,9.396 h 4.322 m -4.322,13.465 v -13.465 m 4.323,13.465 h -4.321 m 4.321,0 v 14.882 m 0,0 h -26.573 m 0,-30.54 v 30.54 m 0,-97.019 c -18.357,17.612 -18.963,46.771 -1.353,65.129 0.441,0.459 0.894,0.909 1.353,1.35 m 0,-128.909002 v 62.431002 m 23.03,-62.431002 h -23.028 m 23.028,0 v 10.63 m 3.545,10e-4 h -3.545 m 3.545,14.88 v -14.881 m -4.323,14.881 h 4.322 m -4.322,13.465002 V 98.853458 m 19.274,13.465002 h -19.272 m 19.272,0 V 98.853458 m -4.321,0 h 4.319 m -4.319,0 v -14.881 m 3.543,10e-4 h -3.543 m 3.543,-10.631 v 10.63 m 23.03,-10.63 h -23.029 m 23.029,0 v 62.431002 m 0,66.478 c 18.357,-17.612 18.963,-46.771 1.353,-65.13 -0.441,-0.459 -0.894,-0.908 -1.353,-1.349 m 0,66.479 v 30.54 m 0,0 h -26.572 m 0,-14.882 v 14.882 m 4.321,-14.882 h -4.32 m 4.32,0 v -13.465 m -4.321,0 h 4.319 m -4.319,0 v -9.396 m 0,0.001 c 14.379,-2.935 23.655,-16.973 20.723,-31.353 -2.937,-14.38 -16.973,-23.658 -31.354,-20.723 -14.381,2.935 -23.657,16.973 -20.725,31.353 2.131,10.438 10.287,18.593 20.725,20.723" />
	<path
   id="path11479"
   fill="none"
   stroke="#000000"
   stroke-width="0.5"
   stroke-linecap="round"
   d="m 2755.7075,737.63384 h -9.395 m -121.705,26.575 h 62.43 m -51.801,-26.575 v 3.543 m 14.881,0.779 v -4.322 m 13.465,4.322 h -13.465 m 13.465,-19.275 v 19.274 m 0,-19.274 h -13.465 m 0,4.323 v -4.322 m 36.918,41.527 c 17.613,18.357 46.771,18.961 65.129,1.351 0.459,-0.439 0.91,-0.892 1.35,-1.351 m -128.907,-63.78 h 62.43 m 66.477,0 c -17.61,-18.355 -46.77,-18.962 -65.129,-1.35 -0.459,0.439 -0.907,0.891 -1.35,1.35 m 66.479,0 h 30.541 m -14.883,22.252 v 4.322 m -13.465,10e-4 h -9.395 m -96.195,0 h -14.881 m 0,-3.544 v 3.544 m -10.629,-3.544 h 10.629 m -10.629,-23.031 v 23.031 m 0,17.717 v 23.032 m 159.448,-63.78 v 26.575 m -133.938,10.63 h -14.881 m 133.936,-14.953 h -13.463 m 0,4.323 v -4.322 m 0,19.274 v -4.322 m 13.463,4.322 h -13.463 m 13.463,-4.322 v 4.322 m -15.658,22.253 h 30.541 m -159.448,-23.032 h 10.629 m 133.936,-14.173 h 14.883 m -37.741,0 c -2.938,-14.381 -16.976,-23.659 -31.354,-20.724 -14.381,2.936 -23.659,16.973 -20.725,31.354 2.936,14.38 16.973,23.659 31.354,20.724 10.438,-2.131 18.595,-10.285 20.726,-20.724 m 37.74,0 v 26.575 m -14.883,-26.575 h 14.883" />
	<path
   id="path11563"
   fill="none"
   stroke="#000000"
   stroke-width="0.5"
   stroke-linecap="round"
   d="m 2921.9265,210.59554 v 106.3 m 152.361,-106.3 h -152.361 m 0,106.298 h 152.361 m 0,0 v -106.3" />
	<path
   id="path12085"
   fill="none"
   stroke="#000000"
   stroke-width="0.5"
   stroke-linecap="round"
   d="m 2856.5624,981.31752 h 63 m 0,0 v 9.562 m 0,0 h -10.632 m 0,0 v 10.63098 m 0,0 h 10.631 m 0,0 v 22.328 m 0,0 h -51.561 m 0,0 -10.369,-10.371 m -13.983,0 h 13.981 m -18.334,-11.959 4.354,11.959 m -8.993,-11.959 h 4.639 m -8.992,11.959 4.354,-11.959 m -7.706,11.959 h 3.352 m -7.705,-11.959 4.354,11.959 m -8.995,-11.959 h 4.641 m -8.993,11.959 4.354,-11.959 m -7.707,11.959 h 3.354 m -7.706,-11.959 4.354,11.959 m -8.994,-11.959 h 4.642 m -8.994,11.959 4.354,-11.959 m -7.707,11.959 h 3.354 m -7.706,-11.959 4.352,11.959 m -8.991,-11.959 h 4.639 m -8.992,11.959 4.354,-11.959 m -7.708,11.959 h 3.354 m -7.707,-11.959 4.354,11.959 m -8.991,-11.959 h 4.639 m -8.994,11.959 4.355,-11.959 m -7.707,11.959 h 3.354 m -7.707,-11.959 4.354,11.959 m -8.993,-11.959 h 4.639 m -8.991,11.959 4.352,-11.959 m -7.705,11.959 h 3.354 m -7.706,-11.959 4.352,11.959 m -8.992,-11.959 h 4.642 m -8.994,11.959 4.352,-11.959 m -7.705,11.959 h 3.354 m -7.708,-11.959 4.354,11.959 m -8.993,-11.959 h 4.641 m -8.994,11.959 4.354,-11.959 m -7.706,11.959 h 3.354 m -7.707,-11.959 4.354,11.959 m -8.993,-11.959 h 4.639 m -8.992,11.959 4.354,-11.959 m -7.708,11.959 h 3.354 m -7.705,-11.959 4.354,11.959 m -8.993,-11.959 h 4.639 m -8.991,11.959 4.352,-11.959 m -7.707,11.959 h 3.355 m -7.707,-11.959 4.354,11.959 m -8.994,-11.959 h 4.642 m -8.994,11.959 4.352,-11.959 m -7.705,11.959 h 3.354 m -7.706,-11.959 4.352,11.959 m -8.991,-11.959 h 4.639 m -8.992,11.959 4.354,-11.959 m -7.706,11.959 h 3.352 m -7.705,-11.959 4.354,11.959 m -8.993,-11.959 h 4.639 m -8.992,11.959 4.354,-11.959 m -7.708,11.959 h 3.354 m -7.706,-11.959 4.354,11.959 m -8.994,-11.959 h 4.641 m -8.993,11.959 4.354,-11.959 m -7.707,11.959 h 3.354 m -7.706,-11.959 4.352,11.959 m -8.992,-11.959 h 4.642 m -8.994,11.959 4.352,-11.959 m -7.705,11.959 h 3.354 m -7.708,-11.959 4.354,11.959 m -8.993,-11.959 h 4.641 m -8.994,11.959 4.354,-11.959 m -7.706,11.959 h 3.354 m -7.707,-11.959 4.354,11.959 m -8.993,-11.959 h 4.639 m -8.992,11.959 4.355,-11.959 m -7.707,11.959 h 3.352 m -7.706,-11.959 4.354,11.959 m -8.992,-11.959 h 4.641 m -8.994,11.959 4.353,-11.959 m -7.705,11.959 h 3.354 m -7.706,-11.959 4.352,11.959 m -8.992,-11.959 h 4.642 m -8.996,11.959 4.354,-11.959 m -7.706,11.959 h 3.354 m -7.707,-11.959 4.354,11.959 m -8.993,-11.959 h 4.641 m -8.994,11.959 4.354,-11.959 m -7.706,11.959 h 3.354 m -7.707,-11.959 4.354,11.959 m -8.993,-11.959 h 4.639 m -8.993,11.959 4.354,-11.959 m -7.707,11.959 h 3.354 m -7.706,-11.959 4.354,11.959 m -8.992,-11.959 h 4.64 m -8.993,11.959 4.353,-11.959 m -7.707,11.959 h 3.354 m -7.706,-11.959 4.354,11.959 m -8.995,-11.959 h 4.641 m -8.992,11.959 4.354,-11.959 m -7.707,11.959 h 3.353 m -7.705,-11.959 4.354,11.959 m -8.994,-11.959 h 4.64 m -8.992,11.959 4.354,-11.959 m -73.961,11.959 h 69.605 m -69.605,0 v -32.14798 m 0,0 h 56.691 m 0,0 9.562,9.562 m 404.09,0 h -404.09 m 404.09,0 9.561,-9.562" />
	<path
   id="path12241"
   fill="none"
   stroke="#000000"
   stroke-width="0.5"
   stroke-linecap="round"
   d="m 2337.5855,416.87928 h 10.631 m 0,0 v 10.63 m -25.514,6.306 h -13.463 m -18.425,-482.669002 v 19.275 m -45.354,54.868 h 46.062 m 12.757,-74.143 h -13.465 m 46.771,465.733002 v -17.718 m -56.693,7.088 v 60.234 m 67.324,0.001 v -10.63 m -10.631,0 h 10.631 m -10.631,0 v -7.086 m 0,0 h -14.883 m 0,4.323 v -4.322 m -18.423,-478.347002 v -4.323 m 0,4.323 h -13.465 m 46.771,457.087002 h 10.631 m 0,38.975 h -67.322 m 35.431,-67.322 V -11.859722 m 0,0 h 21.26 m 0,0 v -5.67 m 0,-0.001 h 10.631 m 0,-10.63 v 10.63 m -10.631,-10.63 h 10.631 m -25.514,466.301002 v -4.323 m 14.883,4.323 h -14.883 m 14.883,0 v -10.63 m -92.125,-412.797002 v 10.576 m 46.063,0 V 395.61928 m 12.756,-440.150002 v -4.322 m 33.306,4.322 h -33.307 m 33.307,0 v -10.63 m 0,0 h 10.631 m 0,0 v -10.63 m -10.631,0 h 10.631 m -10.631,0 v -50.650998 m -180.708,0 h 180.708 m -14.883,569.533 h -13.463 m 10e-4,-19.276 v 19.275 m -63.78,-438.377002 h -17.717 m -70.866,-95.669 h -10.63 m 10.63,10.576 h 14.882 m 0,-4.323 v 4.323 m 0,-4.323 h 13.465 m 152.361,473.865002 h -21.26 m -144.566,-454.589002 h 13.465 m -28.347,-4.323 h 14.882 m -14.882,0 V 7.5732776 m 0,0 h -10.63 m 0,17.7160004 V 7.5732776 m 191.338,-35.7339996 v -5.74 m -191.338,-47.055 v -10.63 m 81.496,106.299 v 10.576 m -70.866,-106.245 v 10.576 m 124.015,476.629002 10.631,-10.631 m -134.646,-512.06 v 24.855998 m 28.347,36.159 v -19.276 m -13.465,14.953 v 4.323 m -14.882,-36.159 h -10.63 m 191.338,57.686 h -33.307 m -158.031,59.189 h 81.496" />
	<path
   id="path12321"
   fill="none"
   stroke="#000000"
   stroke-width="0.5"
   stroke-linecap="round"
   d="m 751.05271,533.60051 v 411.025 m 0,0 h -10.631 m 0,0 v 4.535 m 0,0 h -14.881 m 0,0 v -4.322 m 0,0 h -13.466 m 10e-4,0 v 19.275 m 0,0 h 13.465 m 0,0 v -4.322 m 0,0 h 14.881 m 0,0 v 5.314 m 0,0 h 10.631 m 0,0 v 10.629 m 0,0 h -10.631 m 0,0 v 2.553 m 0,0 h -53.147 m 0,0 v -549.266 m 53.149,0 v 14.174 m 0,0 h -14.881 m 0,0 v -4.322 m 0,-0.001 h -13.466 m 10e-4,0 v 19.274 m 0,0 h 13.465 m 0,0 v -4.32 m 0,0 h 14.881 m 0,0 v 7.086 m 0,0 h 10.631 m 0,0 v 10.629 m 0,0 h -10.631 m 0,0 v 62.062 m 0,-0.003 h 10.631 m -63.78,-104.579 h 53.147" />
	<path
   id="path12393"
   fill="none"
   stroke="#000000"
   stroke-width="0.5"
   stroke-linecap="round"
   d="m 2642.2183,45.078969 h -44.156 m 0,0 v 22.203 m 0,0 h 3.543 m 0,0 v 31.89 m 0,0 h -3.543 m 0,0 v 49.606001 m 0,0 h -180.717 m 0,0 V 99.171969 m 0,0 h -3.543 m 0,0 v -31.89 m 0,0 h 3.543 m 0,0 v -22.203 m 0,0 h -33.787 m 0,0 v -124.017 m 0,0 h 62.008 m 0,0 v 108.339 m 0,0 15.676,15.678 m 0,0 h 103.291 m 0,0 15.68,-15.678 m 0,0 v -108.339 m 62.008,0 v 124.017 m -62.008,-124.017 h 62.008" />
	<path
   id="path12419"
   fill="none"
   stroke="#000000"
   stroke-width="0.5"
   stroke-linecap="round"
   d="m 2621.9631,542.07439 v 44.114 m 83.269,0.002 h -83.271 m 83.271,-51.203 v 51.201 m 85.038,39.154 v -90.354 m 0,90.354 h -207.28 m 0,0 v -83.269 m 38.975,10e-4 h -38.977 m 207.284,-7.087 h -85.037" />
	<path
   id="path12457"
   fill="none"
   stroke="#000000"
   stroke-width="0.5"
   stroke-linecap="round"
   d="m 3131.5775,831.94505 h 77.065 m 0,0 v -10.629 m 0,0 h 53.15 m 0,0 v 10.629 m 0,0 h 77.065 m 0,0 v 216.14305 m 0,0 h -77.065 m 0,0 v 10.631 m 0,0 h -53.148 m 0,0 v -10.631 m 0,0 h -77.065 m 0,0 v -56.02005 m 0,0.002 c 28.748,23.58005 71.168,19.39305 94.748,-9.355 23.582,-28.745 19.393,-71.168 -9.354,-94.748 -24.824,-20.36 -60.57,-20.36 -85.396,0 m 0,0 v -56.02" />
	<path
   id="path12689"
   fill="none"
   stroke="#000000"
   stroke-width="0.5"
   stroke-linecap="round"
   d="M 1418.8208,977.23059 H 779.75078 m 0,0 v -58.46498 m 639.07002,0 v 58.46498 M 779.75078,918.76561 h 639.07002" />
	<g
   id="g14921"
   transform="translate(-940.84802,-3.273935)">
		<path
   id="path12743"
   fill="none"
   stroke="#000000"
   stroke-width="0.5"
   stroke-linecap="round"
   d="m 2358.11,1063.358 v -58.465 m -594.779,0 v 10.629 m 594.779,-10.629 h -19.475 m 0,0 v 10.629 m 0,0 h -24.803 m 0,0 v -10.63 m 0,10e-4 H 1763.33 m 0,10.629 h -24.803 m 0,0 v -10.63 m 0,10e-4 h -19.488 m 0,0 v 58.465 m 639.07,0 h -639.07" />
	</g>
	<path
   id="path12689_1_"
   fill="none"
   stroke="#000000"
   stroke-width="0.5"
   stroke-linecap="round"
   d="M 1417.6658,1138.8162 H 778.59584 m 0,0 v -58.466 m 639.06996,0 v 58.465 m -639.06996,-58.465 h 639.06996" />
	<g
   id="g14921_1_"
   transform="translate(-942.48498,-140.77934)">
		<path
   id="path12743_1_"
   fill="none"
   stroke="#000000"
   stroke-width="0.5"
   stroke-linecap="round"
   d="m 2360.229,1362.448 v -58.465 m -594.779,0 v 10.629 m 594.779,-10.629 h -19.475 m 0,0 v 10.629 m 0,0 h -24.804 m 0,0 v -10.629 m 0,0 h -550.5 m 0,10.629 h -24.803 m 0,0 v -10.629 m 0,0 h -19.488 m 0,0 v 58.465 m 639.07,0 h -639.07" />
	</g>
	<path
   id="path11515"
   fill="none"
   stroke="#000000"
   stroke-width="0.5"
   stroke-linecap="round"
   d="m 3178.6045,405.47533 h 67.321 m 0,0 v -15.944 m 21.259,-0.001 c -0.017,-5.871 -4.787,-10.617 -10.658,-10.602 -5.851,0.017 -10.586,4.753 -10.603,10.602 m 21.261,0 v 15.944 m 0,10e-4 h 141.731 m 0,0 v 17.717 m 0,-0.001 h -141.727 m 0,0 v 33.661 m 0,0.002 h -21.261 m 0,-33.663 h -67.322 m 0,0 v -17.717 m 67.323,51.38 v -33.661" />
	<g
   id="g15992"
   transform="translate(1008.4937,-205.56352)">
		<path
   id="path11623"
   fill="none"
   stroke="#000000"
   stroke-width="0.5"
   stroke-linecap="round"
   d="M 1844.969,645.247 V 627.53 m 10.629,0 v -17.717 m -10.629,17.717 h 10.629 m 0,17.717 h -10.629 m 10.629,17.716 v -17.716 m 19.489,17.716 h -19.488 m 19.488,-44.291 v 44.291 m 83.269,-44.291 h -83.271 m 83.271,44.291 v -44.291 m 67.321,44.291 h -67.321 m 67.321,-10.63 v 10.63 m -10.629,-10.63 h 10.629 m -10.629,-10.63 v 10.63 m -14.883,-10.63 h 14.883 m -14.883,4.323 v -4.323 m -13.465,4.323 h 13.465 M 1986.7,626.751 v 19.275 m 13.465,-19.275 H 1986.7 m 13.465,4.322 v -4.322 m 14.883,4.322 h -14.883 m 14.883,-10.63 v 10.63 m 10.629,-10.63 h -10.629 m 10.629,-10.63 v 10.63 m -81.495,-10.63 h 81.494 m -81.494,-10.63 v 10.63 m -17.716,-10.63 h 17.717 m -17.717,10.63 v -10.63 m -70.868,10.63 h 70.867" />
	</g>
	<path
   id="path12799"
   fill="none"
   stroke="#000000"
   stroke-width="0.5"
   stroke-linecap="round"
   d="m 3509.0905,503.27524 h -639.07 m 639.07,237.402 v -237.402 m -639.07,0 v 237.402 m 0,0 h 639.07 m -516.195,-162.993 c -24.461,0.01 -44.28,19.848 -44.271,44.309 0.01,24.447 19.826,44.265 44.271,44.273 m 393.314,-88.582 h -393.314 m 393.314,88.583 c 24.461,-0.01 44.283,-19.848 44.271,-44.311 -0.011,-24.446 -19.824,-44.264 -44.271,-44.272 m -393.314,88.583 h 393.314" />
	<path
   id="path12799_1_"
   fill="none"
   stroke="#000000"
   stroke-width="0.5"
   stroke-linecap="round"
   d="m 3339.8526,1107.9077 h -639.07 m 639.07,237.402 v -237.402 m -639.07,0 v 237.402 m 0,0 h 639.07 m -516.195,-162.992 c -24.461,0.01 -44.281,19.848 -44.271,44.309 0.01,24.447 19.825,44.265 44.271,44.273 m 393.314,-88.582 h -393.314 m 393.314,88.582 c 24.461,-0.01 44.283,-19.849 44.271,-44.312 -0.011,-24.444 -19.824,-44.264 -44.271,-44.271 m -393.314,88.583 h 393.314" />
	
	
	
	
	
	
	
	
	
	
	
	
	
	
	
	
	
	
	
	
	
	
	
	
	
	
	
	
	
	
	
	
	
	
	
	
	
	
	
	
	
	
	
	
	
	
	
	
	
	
	
	
	
	
	
	
	
	
	
	
	
	
	
	
	
	
	
	
	
	
	
	
	
	
	
	
	
	
	
	
	
	
	
	
	
	
	
	<path
   id="path12979"
   d="m 1783.95,566.557 1.29,-3.543 m 5.975,0 h -5.976 m 11.134,14.174 -5.158,-14.174 m 5.158,14.174 h 5.971 m 0,0 5.158,-14.174 m 5.975,0 h -5.975 m 11.066,13.987 -5.093,-13.986 m 5.093,13.986 h 6.106 m 0,0 5.09,-13.986 m 5.975,-10e-4 h -5.977 m 11.066,13.987 -5.09,-13.986 m 5.09,13.986 h 6.107 m 0,0 5.09,-13.986 m 5.975,-10e-4 h -5.976 m 11.066,13.987 -5.09,-13.986 m 5.09,13.986 h 6.107 m 0,0 5.09,-13.986 m 5.975,-10e-4 h -5.975 m 11.065,13.987 -5.091,-13.986 m 5.091,13.986 h 6.105 m 0,0 5.092,-13.986 m 5.974,-10e-4 h -5.976 m 11.066,13.987 -5.09,-13.986 m 5.09,13.986 h 6.107 m 10e-4,0 5.092,-13.986 m 5.972,-10e-4 h -5.975 m 11.067,13.987 -5.092,-13.986 m 5.092,13.986 h 6.106 m 10e-4,0 5.092,-13.986 m 5.973,-10e-4 h -5.975 m 11.064,13.987 -5.09,-13.986 m 5.09,13.986 h 6.106 m 0,0 5.092,-13.986 m 5.974,-10e-4 h -5.976 m 11.068,13.987 -5.092,-13.986 m 5.092,13.986 h 6.105 m 10e-4,0 5.092,-13.986 m 5.974,-10e-4 h -5.975 m 11.065,13.987 -5.09,-13.986 m 5.09,13.986 h 6.107 m 0,0 5.09,-13.986 m 5.973,-10e-4 h -5.975 m 11.067,13.987 -5.092,-13.986 m 5.092,13.986 h 6.107 m 0,0 5.09,-13.986 m 5.976,-10e-4 h -5.978 m 11.068,13.987 -5.09,-13.986 m 5.09,13.986 h 6.107 m 10e-4,0 5.09,-13.986 m 5.974,-10e-4 h -5.977 m 11.067,13.987 -5.09,-13.986 m 5.09,13.986 h 6.107 m 0,0 5.09,-13.986 m 5.975,-10e-4 h -5.975 m 11.065,13.987 -5.09,-13.986 m 5.09,13.986 h 6.107 m 0,0 5.092,-13.986 m 5.974,-10e-4 h -5.976 m 11.066,13.987 -5.092,-13.986 m 5.092,13.986 h 6.106 m 0,0 5.09,-13.986 m 5.976,-10e-4 h -5.977 m 11.135,14.174 -5.158,-14.174 m 5.158,14.174 h 5.971 m 0,0 5.158,-14.174 m 5.975,0 h -5.975 m 11.133,14.174 -5.158,-14.174 m 11.131,14.174 h -5.973 m 5.973,0 5.158,-14.174 m 5.974,0 h -5.976 m 11.135,14.174 -5.158,-14.174 m 11.13,14.174 h -5.973 m 5.973,0 5.156,-14.276 m 6.233,-0.001 h -6.232 m 7.56,3.646 -1.328,-3.646 m 74.5,3.646 h -73.174 m 73.174,0 v 17.718 m -19.488,-10e-4 h 19.488 m -19.488,21.26 v -21.26 m 0,21.25945 h -24.803 m 0,5.5e-4 v -21.26 m -550.488,21.26 v -21.26 m 0,21.26 h -24.803 m 0,0 v -21.26 m -19.488,0 h 19.488 m -19.488,0 v -17.718 m 156.311,10e-4 h -156.312 m 44.292,17.717 h 550.488"
   style="stroke:#000000;stroke-opacity:1" />
	
	
	
	
	
	
	
	
	
	
	
	
	
	
	
	
	
	
	
	
	
	
	
	
	
	
	
	
	
	
	
	<path
   id="path13047"
   d="m 1721.135,875.716 h 535.039 m -535.039,38.978 v -38.979 m -52.023,-19.488 v 58.468 m 26.576,-43.583 v -14.886 m -4.324,14.886 h 4.323 m -4.323,13.463 v -13.463 m 19.275,13.463 h -19.273 m 19.273,-13.463 v 13.463 m 64.773,-38.977 v 10.631 m 17.715,-0.002 v -10.629 m 391.039,10.629 h -391.039 m 391.039,-10.629 v 10.631 m 101.779,14.883 v 13.463 m -4.324,-13.463 h 4.324 m -4.324,-14.885 v 14.886 m -585.933,-14.886 h -26.574 m 587.06,58.467 h 52.008 m -52.008,-38.978 v 38.979 m 52.008,-0.001 v -58.468 m -515.055,-10.628 h -17.717 m -106.298,69.096 h 52.021 m 549.859,-58.467 h -69.107 m 0,0 v -10.629 m 64.785,25.514 h 4.322 m -4.322,13.463 v -13.463 m 19.277,13.463 h -19.277 m -560.351,-28.348 v 14.886 m 0,-0.001 h 4.32 m 64.775,-14.885 h -69.095 m 564.675,14.885 v -14.886 m 37.19,10e-4 h -26.561 m -79.738,-10.629 h -17.717"
   style="stroke:#000000;stroke-opacity:1" />
	<path
   id="path13129"
   fill="none"
   stroke="#000000"
   stroke-width="0.5"
   stroke-linecap="round"
   d="m 816.78893,888.07527 h 7.086 m -2.763,-4.251 h -4.323 m 4.323,-13.463 v 13.463 m -19.276,-13.463 h 19.275 m -19.275,13.463 v -13.463 m 4.324,13.463 h -4.324 m 4.324,4.251 v -4.252 m 25.446,-43.582 h -52.01 m 52.01,38.979 v -38.979 m 587.06197,0 h -52.023 m 32.535,47.834 v 10.631 m -513.28397,10.629 h 17.717 m -79.738,-21.26 v 10.631 m -24.803,-10.631 h 7.088 m -7.088,10.631 v -10.631 m -19.474,-47.834 v 58.465 m 587.04697,-19.486 h -486.78897 -48.249 m -14.818,4.604 v 4.252 m 601.87897,10.63 v -58.465 m -26.574,47.834 h 7.086 m -619.58197,10.631 h 19.476 m 578.06697,-14.882 v -13.463 m 4.322,13.463 h -4.322 m 4.322,4.251 v -4.252 m -7.086,4.252 h 7.086 m -7.086,10.631 v -10.631 m -62.008,10.631 h 62.008 m -62.008,10.629 v -10.629 m -17.717,10.629 h 17.717 m -17.717,-10.629 v 10.629 m -391.03897,-10.629 h 391.03897 m -391.03897,10.629 v -10.629 m 473.52797,-28.345 h 19.275 m 0,0 v 13.463 m -29.771,-43.583 v 38.979 m -480.74897,19.486 v 10.629 m -62.021,-10.629 h 62.021 m 513.28397,0 h 19.488 m -26.574,-14.882 v 4.252 m 4.322,-4.252 h -4.322" />
	
</g>
<g
   id="g13133"
   inkscape:groupmode="layer"
   inkscape:label="FORMAT">
</g>
</svg>
