<?xml version="1.0" encoding="utf-8" standalone="no"?>
<!DOCTYPE svg PUBLIC "-//W3C//DTD SVG 1.1//EN"
  "http://www.w3.org/Graphics/SVG/1.1/DTD/svg11.dtd">
<svg height="187.2pt" version="1.1" viewBox="0 0 223.2 187.2" width="223.2pt" xmlns="http://www.w3.org/2000/svg" xmlns:xlink="http://www.w3.org/1999/xlink">
 <metadata>
  <rdf:RDF xmlns:cc="http://creativecommons.org/ns#" xmlns:dc="http://purl.org/dc/elements/1.1/" xmlns:rdf="http://www.w3.org/1999/02/22-rdf-syntax-ns#">
   <cc:Work>
    <dc:type rdf:resource="http://purl.org/dc/dcmitype/StillImage"/>
    <dc:date>2021-10-22T19:00:06.378968</dc:date>
    <dc:format>image/svg+xml</dc:format>
    <dc:creator>
     <cc:Agent>
      <dc:title>Matplotlib v3.4.3, https://matplotlib.org/</dc:title>
     </cc:Agent>
    </dc:creator>
   </cc:Work>
  </rdf:RDF>
 </metadata>
 <defs>
  <style type="text/css">*{stroke-linecap:butt;stroke-linejoin:round;}</style>
 </defs>
 <g id="figure_1">
  <g id="patch_1">
   <path d="M -0 187.2 
L 223.2 187.2 
L 223.2 0 
L -0 0 
z
" style="fill:#ffffff;"/>
  </g>
  <g id="axes_1">
   <g id="patch_2">
    <path clip-path="url(#p097109e8b6)" d="M 234.394077 75.724818 
L 236.935637 75.413483 
L 239.326902 74.497888 
L 241.426466 73.032178 
L 243.110168 71.103028 
L 244.278437 68.824518 
L 244.862186 66.331389 
L 244.954388 65.517569 
L 245.054241 64.704651 
L 245.161745 63.89271 
L 245.206462 61.406502 
L 244.666904 58.979136 
L 243.573177 56.745982 
L 241.986259 54.831582 
L 239.994657 53.342698 
L 213.380355 37.976919 
L 219.961334 26.578302 
L 208.562727 19.997313 
L 221.724712 -2.799913 
L 233.123325 3.781079 
L 239.704317 -7.617528 
L 266.318625 7.748248 
L 268.603837 8.728584 
L 271.055215 9.145689 
L 273.536054 8.976309 
L 275.907989 8.229896 
L 278.038752 6.948073 
L 278.549371 6.554843 
L 279.062893 6.165416 
L 279.579286 5.779785 
L 281.365094 4.101531 
L 282.714599 2.055929 
L 283.554695 -0.246228 
L 283.839873 -2.680228 
L 283.839873 -21.860525 
L 297.00186 -21.860525 
L 297.00186 -8.698547 
L 310.163845 -8.698547 
L 310.163845 9.914897 
L 310.572073 14.059737 
L 311.781078 18.045282 
L 313.744393 21.718389 
L 316.386572 24.93789 
L 319.606075 27.580069 
L 323.279181 29.543384 
L 327.264732 30.752389 
L 331.409567 31.160619 
L 365.817273 31.160619 
L 365.817273 44.322603 
L 304.526706 44.322603 
L 302.150309 44.594268 
L 299.89654 45.395249 
L 297.881685 46.684211 
L 296.209716 48.394643 
L 292.917912 53.266854 
L 290.296218 58.530041 
L 288.390282 64.092579 
L 287.233285 69.857627 
L 286.845367 75.724818 
L 286.437137 79.869653 
L 285.228133 83.855204 
L 283.264817 87.52831 
L 280.622638 90.747813 
L 277.403137 93.389992 
L 273.73003 95.353307 
L 269.744485 96.562311 
L 265.599645 96.97054 
L 244.353926 96.97054 
L 244.353926 110.132525 
L 231.191936 110.132525 
L 231.191936 96.97054 
L 218.029958 96.97054 
L 218.029958 86.254406 
L 218.388751 83.529148 
L 219.440655 80.989612 
L 221.113995 78.808863 
L 223.294747 77.135516 
L 225.834279 76.083605 
L 228.559541 75.724818 
z
" style="fill:#0000ff;"/>
   </g>
  </g>
 </g>
 <defs>
  <clipPath id="p097109e8b6">
   <rect height="144.144" width="172.98" x="200.7" y="-27.936"/>
  </clipPath>
 </defs>
</svg>
