0
SECTION
  2
HEADER
  9
$EXTMAX
 10
   31.7434
 20
   24.8488
  9
$EXTMIN
 10
   -0.8488
 20
  -12.7313
  9
$LIMMAX
 10
   31.7434
 20
   24.8488
  9
$LIMMIN
 10
   -0.8488
 20
  -12.7313
  0
ENDSEC
0
SECTION
  2
TABLES
  0
TABLE
  2
LTYPE
 70
     1
  0
LTYPE
  2
CONTINUOUS
 70
    64
  3
Solid line
 72
   65
 73
    0
 40
0.0
  0
ENDTAB
  0
TABLE
  2
LAYER
 70
       2
  0
LAYER
  2
251
 70
    0
 62
251
  6
CONTINUOUS
  0
LAYER
  2
0
 70
    0
 62
1
  6
CONTINUOUS
  0
ENDTAB
  0
ENDSEC
0
SECTION
  2
ENTITIES
  0
LINE
  8
251
 62
9
 10
      0.0000
 20
      0.0000
 30
      0.0000
 11
      0.0000
 21
     24.0000
 31
      0.0000
  0
LINE
  8
251
 62
9
 10
      0.0000
 20
     24.0000
 30
      0.0000
 11
     25.4626
 21
     24.0000
 31
      0.0000
  0
LINE
  8
251
 62
9
 10
     25.4626
 20
     24.0000
 30
      0.0000
 11
     25.4626
 21
      0.0000
 31
      0.0000
  0
LINE
  8
251
 62
9
 10
     25.4626
 20
      0.0000
 30
      0.0000
 11
      0.0000
 21
      0.0000
 31
      0.0000
  0
TEXT
  8
251
 62
12
 10
     11.4582
 20
     24.2122
 30
      0.0000
 40
      0.4244
 1
25.463
  0
POLYLINE
  8
251
 62
12
 10
      0.0000
 20
      0.0000
 30
      0.0000
 66
  1
 70
  0
  0
VERTEX
  8
251
 62
12
 10
     11.2460
 20
     24.4244
 30
      0.0000
  0
VERTEX
  8
251
 62
12
 10
      0.0000
 20
     24.4244
 30
      0.0000
  0
VERTEX
  8
251
 62
12
 10
      0.4244
 20
     24.2122
 30
      0.0000
  0
VERTEX
  8
251
 62
12
 10
      0.4244
 20
     24.6366
 30
      0.0000
  0
VERTEX
  8
251
 62
12
 10
      0.0000
 20
     24.4244
 30
      0.0000
  0
VERTEX
  8
251
 62
12
 10
      0.0000
 20
     24.0000
 30
      0.0000
  0
VERTEX
  8
251
 62
12
 10
      0.0000
 20
     24.8488
 30
      0.0000
  0
SEQEND
  8
251
 62
12
  0
POLYLINE
  8
251
 62
12
 10
      0.0000
 20
      0.0000
 30
      0.0000
 66
  1
 70
  0
  0
VERTEX
  8
251
 62
12
 10
     14.2166
 20
     24.4244
 30
      0.0000
  0
VERTEX
  8
251
 62
12
 10
     25.4626
 20
     24.4244
 30
      0.0000
  0
VERTEX
  8
251
 62
12
 10
     25.0382
 20
     24.6366
 30
      0.0000
  0
VERTEX
  8
251
 62
12
 10
     25.0382
 20
     24.2122
 30
      0.0000
  0
VERTEX
  8
251
 62
12
 10
     25.4626
 20
     24.4244
 30
      0.0000
  0
VERTEX
  8
251
 62
12
 10
     25.4626
 20
     24.8488
 30
      0.0000
  0
VERTEX
  8
251
 62
12
 10
     25.4626
 20
     24.0000
 30
      0.0000
  0
SEQEND
  8
251
 62
12
  0
TEXT
  8
251
 62
12
 10
     -0.2122
 20
     10.7269
 30
      0.0000
 40
      0.4244
 1
24.000
 50
     90.0000
  0
POLYLINE
  8
251
 62
12
 10
      0.0000
 20
      0.0000
 30
      0.0000
 66
  1
 70
  0
  0
VERTEX
  8
251
 62
12
 10
     -0.4244
 20
     10.5147
 30
      0.0000
  0
VERTEX
  8
251
 62
12
 10
     -0.4244
 20
      0.0000
 30
      0.0000
  0
VERTEX
  8
251
 62
12
 10
     -0.2122
 20
      0.4244
 30
      0.0000
  0
VERTEX
  8
251
 62
12
 10
     -0.6366
 20
      0.4244
 30
      0.0000
  0
VERTEX
  8
251
 62
12
 10
     -0.4244
 20
      0.0000
 30
      0.0000
  0
VERTEX
  8
251
 62
12
 10
      0.0000
 20
      0.0000
 30
      0.0000
  0
VERTEX
  8
251
 62
12
 10
     -0.8488
 20
      0.0000
 30
      0.0000
  0
SEQEND
  8
251
 62
12
  0
POLYLINE
  8
251
 62
12
 10
      0.0000
 20
      0.0000
 30
      0.0000
 66
  1
 70
  0
  0
VERTEX
  8
251
 62
12
 10
     -0.4244
 20
     13.4853
 30
      0.0000
  0
VERTEX
  8
251
 62
12
 10
     -0.4244
 20
     24.0000
 30
      0.0000
  0
VERTEX
  8
251
 62
12
 10
     -0.6366
 20
     23.5756
 30
      0.0000
  0
VERTEX
  8
251
 62
12
 10
     -0.2122
 20
     23.5756
 30
      0.0000
  0
VERTEX
  8
251
 62
12
 10
     -0.4244
 20
     24.0000
 30
      0.0000
  0
VERTEX
  8
251
 62
12
 10
     -0.8488
 20
     24.0000
 30
      0.0000
  0
VERTEX
  8
251
 62
12
 10
      0.0000
 20
     24.0000
 30
      0.0000
  0
SEQEND
  8
251
 62
12
  0
POLYLINE
  8
0
 62
7
 10
      0.0000
 20
      0.0000
 30
      0.0000
 66
  1
 70
  1
  0
VERTEX
  8
0
 62
7
 10
      4.0167
 20
      4.4778
 30
      0.0000
  0
VERTEX
  8
0
 62
7
 10
      3.7667
 20
      4.4778
 30
      0.0000
  0
VERTEX
  8
0
 62
7
 10
      3.7667
 20
      4.2278
 30
      0.0000
  0
VERTEX
  8
0
 62
7
 10
      4.0167
 20
      4.2278
 30
      0.0000
  0
SEQEND
  8
0
 62
7
  0
POLYLINE
  8
0
 62
7
 10
      0.0000
 20
      0.0000
 30
      0.0000
 66
  1
 70
  1
  0
VERTEX
  8
0
 62
7
 10
      5.2884
 20
      4.2278
 30
      0.0000
  0
VERTEX
  8
0
 62
7
 10
      5.7884
 20
      4.2278
 30
      0.0000
  0
VERTEX
  8
0
 62
7
 10
      5.7884
 20
      4.4778
 30
      0.0000
  0
VERTEX
  8
0
 62
7
 10
      5.2884
 20
      4.4778
 30
      0.0000
  0
SEQEND
  8
0
 62
7
  0
POLYLINE
  8
0
 62
7
 10
      0.0000
 20
      0.0000
 30
      0.0000
 66
  1
 70
  1
  0
VERTEX
  8
0
 62
7
 10
      4.7667
 20
      4.9286
 30
      0.0000
  0
VERTEX
  8
0
 62
7
 10
      5.0167
 20
      4.9286
 30
      0.0000
  0
VERTEX
  8
0
 62
7
 10
      5.0167
 20
      5.4286
 30
      0.0000
  0
VERTEX
  8
0
 62
7
 10
      4.7667
 20
      5.4286
 30
      0.0000
  0
SEQEND
  8
0
 62
7
  0
POLYLINE
  8
0
 62
7
 10
      0.0000
 20
      0.0000
 30
      0.0000
 66
  1
 70
  1
  0
VERTEX
  8
0
 62
7
 10
      5.1713
 20
      5.8794
 30
      0.0000
  0
VERTEX
  8
0
 62
7
 10
      5.6713
 20
      5.8794
 30
      0.0000
  0
VERTEX
  8
0
 62
7
 10
      5.6713
 20
      6.1294
 30
      0.0000
  0
VERTEX
  8
0
 62
7
 10
      5.1713
 20
      6.1294
 30
      0.0000
  0
SEQEND
  8
0
 62
7
  0
POLYLINE
  8
0
 62
7
 10
      0.0000
 20
      0.0000
 30
      0.0000
 66
  1
 70
  1
  0
VERTEX
  8
0
 62
7
 10
      3.6722
 20
      5.9581
 30
      0.0000
  0
VERTEX
  8
0
 62
7
 10
      3.9222
 20
      5.9581
 30
      0.0000
  0
VERTEX
  8
0
 62
7
 10
      3.9222
 20
      6.2081
 30
      0.0000
  0
VERTEX
  8
0
 62
7
 10
      3.6722
 20
      6.2081
 30
      0.0000
  0
SEQEND
  8
0
 62
7
  0
POLYLINE
  8
0
 62
7
 10
      0.0000
 20
      0.0000
 30
      0.0000
 66
  1
 70
  1
  0
VERTEX
  8
0
 62
7
 10
      2.2102
 20
      6.6379
 30
      0.0000
  0
VERTEX
  8
0
 62
7
 10
      1.7772
 20
      6.3879
 30
      0.0000
  0
VERTEX
  8
0
 62
7
 10
      1.9022
 20
      6.1714
 30
      0.0000
  0
VERTEX
  8
0
 62
7
 10
      2.3352
 20
      6.4214
 30
      0.0000
  0
SEQEND
  8
0
 62
7
  0
POLYLINE
  8
0
 62
7
 10
      0.0000
 20
      0.0000
 30
      0.0000
 66
  1
 70
  1
  0
VERTEX
  8
0
 62
7
 10
      2.4222
 20
      3.6510
 30
      0.0000
  0
VERTEX
  8
0
 62
7
 10
      2.6722
 20
      3.6510
 30
      0.0000
  0
VERTEX
  8
0
 62
7
 10
      2.6722
 20
      3.9010
 30
      0.0000
  0
VERTEX
  8
0
 62
7
 10
      2.4222
 20
      3.9010
 30
      0.0000
  0
SEQEND
  8
0
 62
7
  0
POLYLINE
  8
0
 62
7
 10
      0.0000
 20
      0.0000
 30
      0.0000
 66
  1
 70
  1
  0
VERTEX
  8
0
 62
7
 10
      1.1437
 20
      3.6510
 30
      0.0000
  0
VERTEX
  8
0
 62
7
 10
      1.8937
 20
      3.6510
 30
      0.0000
  0
VERTEX
  8
0
 62
7
 10
      1.8937
 20
      3.9010
 30
      0.0000
  0
VERTEX
  8
0
 62
7
 10
      1.1437
 20
      3.9010
 30
      0.0000
  0
SEQEND
  8
0
 62
7
  0
POLYLINE
  8
0
 62
7
 10
      0.0000
 20
      0.0000
 30
      0.0000
 66
  1
 70
  1
  0
VERTEX
  8
0
 62
7
 10
      2.3937
 20
      9.7142
 30
      0.0000
  0
VERTEX
  8
0
 62
7
 10
      2.1437
 20
      9.7142
 30
      0.0000
  0
VERTEX
  8
0
 62
7
 10
      2.1437
 20
      9.2142
 30
      0.0000
  0
VERTEX
  8
0
 62
7
 10
      2.3937
 20
      9.2142
 30
      0.0000
  0
SEQEND
  8
0
 62
7
  0
POLYLINE
  8
0
 62
7
 10
      0.0000
 20
      0.0000
 30
      0.0000
 66
  1
 70
  1
  0
VERTEX
  8
0
 62
7
 10
      1.8937
 20
      4.9581
 30
      0.0000
  0
VERTEX
  8
0
 62
7
 10
      1.1437
 20
      4.9581
 30
      0.0000
  0
VERTEX
  8
0
 62
7
 10
      1.1437
 20
      4.7081
 30
      0.0000
  0
VERTEX
  8
0
 62
7
 10
      1.8937
 20
      4.7081
 30
      0.0000
  0
SEQEND
  8
0
 62
7
  0
POLYLINE
  8
0
 62
7
 10
      0.0000
 20
      0.0000
 30
      0.0000
 66
  1
 70
  1
  0
VERTEX
  8
0
 62
7
 10
      5.0963
 20
      9.5044
 30
      0.0000
  0
VERTEX
  8
0
 62
7
 10
      5.0963
 20
      9.2544
 30
      0.0000
  0
VERTEX
  8
0
 62
7
 10
      5.5963
 20
      9.2544
 30
      0.0000
  0
VERTEX
  8
0
 62
7
 10
      5.5963
 20
      9.5044
 30
      0.0000
  0
SEQEND
  8
0
 62
7
  0
POLYLINE
  8
0
 62
7
 10
      0.0000
 20
      0.0000
 30
      0.0000
 66
  1
 70
  1
  0
VERTEX
  8
0
 62
7
 10
      4.6917
 20
      8.3036
 30
      0.0000
  0
VERTEX
  8
0
 62
7
 10
      4.9417
 20
      8.3036
 30
      0.0000
  0
VERTEX
  8
0
 62
7
 10
      4.9417
 20
      8.8036
 30
      0.0000
  0
VERTEX
  8
0
 62
7
 10
      4.6917
 20
      8.8036
 30
      0.0000
  0
SEQEND
  8
0
 62
7
  0
POLYLINE
  8
0
 62
7
 10
      0.0000
 20
      0.0000
 30
      0.0000
 66
  1
 70
  1
  0
VERTEX
  8
0
 62
7
 10
      5.7134
 20
      7.8528
 30
      0.0000
  0
VERTEX
  8
0
 62
7
 10
      5.2134
 20
      7.8528
 30
      0.0000
  0
VERTEX
  8
0
 62
7
 10
      5.2134
 20
      7.6028
 30
      0.0000
  0
VERTEX
  8
0
 62
7
 10
      5.7134
 20
      7.6028
 30
      0.0000
  0
SEQEND
  8
0
 62
7
  0
POLYLINE
  8
0
 62
7
 10
      0.0000
 20
      0.0000
 30
      0.0000
 66
  1
 70
  1
  0
VERTEX
  8
0
 62
7
 10
      4.8435
 20
      9.5821
 30
      0.0000
  0
VERTEX
  8
0
 62
7
 10
      5.0935
 20
      9.5821
 30
      0.0000
  0
VERTEX
  8
0
 62
7
 10
      5.0935
 20
     10.0821
 30
      0.0000
  0
VERTEX
  8
0
 62
7
 10
      4.8435
 20
     10.0821
 30
      0.0000
  0
SEQEND
  8
0
 62
7
  0
POLYLINE
  8
0
 62
7
 10
      0.0000
 20
      0.0000
 30
      0.0000
 66
  1
 70
  1
  0
VERTEX
  8
0
 62
7
 10
      4.3927
 20
      9.4276
 30
      0.0000
  0
VERTEX
  8
0
 62
7
 10
      3.8927
 20
      9.4276
 30
      0.0000
  0
VERTEX
  8
0
 62
7
 10
      3.8927
 20
      9.1776
 30
      0.0000
  0
VERTEX
  8
0
 62
7
 10
      4.3927
 20
      9.1776
 30
      0.0000
  0
SEQEND
  8
0
 62
7
  0
POLYLINE
  8
0
 62
7
 10
      0.0000
 20
      0.0000
 30
      0.0000
 66
  1
 70
  1
  0
VERTEX
  8
0
 62
7
 10
      3.4419
 20
     10.4650
 30
      0.0000
  0
VERTEX
  8
0
 62
7
 10
      3.1919
 20
     10.4650
 30
      0.0000
  0
VERTEX
  8
0
 62
7
 10
      3.1919
 20
      9.9650
 30
      0.0000
  0
VERTEX
  8
0
 62
7
 10
      3.4419
 20
      9.9650
 30
      0.0000
  0
SEQEND
  8
0
 62
7
  0
CIRCLE
  8
0
 62
7
 10
      3.2687
 20
      7.6796
 30
      0.0000
 40
      0.1125
  0
CIRCLE
  8
0
 62
7
 10
      4.2136
 20
      7.6895
 30
      0.0000
 40
      0.1125
  0
POLYLINE
  8
0
 62
7
 10
      0.0000
 20
      0.0000
 30
      0.0000
 66
  1
 70
  1
  0
VERTEX
  8
0
 62
7
 10
      0.6437
 20
     12.4642
 30
      0.0000
  0
VERTEX
  8
0
 62
7
 10
      0.3937
 20
     12.4642
 30
      0.0000
  0
VERTEX
  8
0
 62
7
 10
      0.3937
 20
     13.9642
 30
      0.0000
  0
VERTEX
  8
0
 62
7
 10
      1.3937
 20
     13.9642
 30
      0.0000
  0
VERTEX
  8
0
 62
7
 10
      1.3937
 20
     13.7142
 30
      0.0000
  0
VERTEX
  8
0
 62
7
 10
      2.6437
 20
     13.7142
 30
      0.0000
  0
VERTEX
  8
0
 62
7
 10
      2.6437
 20
     13.9642
 30
      0.0000
  0
VERTEX
  8
0
 62
7
 10
      3.8937
 20
     13.9642
 30
      0.0000
  0
VERTEX
  8
0
 62
7
 10
      3.8937
 20
     13.7142
 30
      0.0000
  0
VERTEX
  8
0
 62
7
 10
      5.1437
 20
     13.7142
 30
      0.0000
  0
VERTEX
  8
0
 62
7
 10
      5.1437
 20
     13.9642
 30
      0.0000
  0
VERTEX
  8
0
 62
7
 10
      6.1437
 20
     13.9642
 30
      0.0000
  0
VERTEX
  8
0
 62
7
 10
      6.1437
 20
      0.8796
 30
      0.0000
  0
VERTEX
  8
0
 62
7
 10
      5.1437
 20
      0.8796
 30
      0.0000
  0
VERTEX
  8
0
 62
7
 10
      5.1437
 20
      0.6296
 30
      0.0000
  0
VERTEX
  8
0
 62
7
 10
      3.7687
 20
      0.6296
 30
      0.0000
  0
VERTEX
  8
0
 62
7
 10
      3.7687
 20
      0.8796
 30
      0.0000
  0
VERTEX
  8
0
 62
7
 10
      2.7687
 20
      0.8796
 30
      0.0000
  0
VERTEX
  8
0
 62
7
 10
      2.7687
 20
      0.6296
 30
      0.0000
  0
VERTEX
  8
0
 62
7
 10
      1.3937
 20
      0.6296
 30
      0.0000
  0
VERTEX
  8
0
 62
7
 10
      1.3937
 20
      0.8796
 30
      0.0000
  0
VERTEX
  8
0
 62
7
 10
      0.3937
 20
      0.8796
 30
      0.0000
  0
VERTEX
  8
0
 62
7
 10
      0.3937
 20
      1.7653
 30
      0.0000
  0
VERTEX
  8
0
 62
7
 10
      0.6437
 20
      1.7653
 30
      0.0000
  0
VERTEX
  8
0
 62
7
 10
      0.6437
 20
      2.7653
 30
      0.0000
  0
VERTEX
  8
0
 62
7
 10
      0.3937
 20
      2.7653
 30
      0.0000
  0
VERTEX
  8
0
 62
7
 10
      0.3937
 20
      6.4581
 30
      0.0000
  0
VERTEX
  8
0
 62
7
 10
      0.6437
 20
      6.4581
 30
      0.0000
  0
VERTEX
  8
0
 62
7
 10
      0.6437
 20
      7.7081
 30
      0.0000
  0
VERTEX
  8
0
 62
7
 10
      0.3937
 20
      7.7081
 30
      0.0000
  0
VERTEX
  8
0
 62
7
 10
      0.3937
 20
     11.2142
 30
      0.0000
  0
VERTEX
  8
0
 62
7
 10
      0.6437
 20
     11.2142
 30
      0.0000
  0
SEQEND
  8
0
 62
7
  0
TEXT
  8
251
 62
13
 10
      0.3596
 20
     12.4642
 30
      0.0000
 40
      0.3183
 1
1
  0
POLYLINE
  8
0
 62
7
 10
      0.0000
 20
      0.0000
 30
      0.0000
 66
  1
 70
  1
  0
VERTEX
  8
0
 62
7
 10
      0.8098
 20
     14.5292
 30
      0.0000
  0
VERTEX
  8
0
 62
7
 10
      1.7232
 20
     14.5292
 30
      0.0000
  0
VERTEX
  8
0
 62
7
 10
      1.7232
 20
     14.8441
 30
      0.0000
  0
VERTEX
  8
0
 62
7
 10
      0.8098
 20
     14.8441
 30
      0.0000
  0
SEQEND
  8
0
 62
7
  0
POLYLINE
  8
0
 62
7
 10
      0.0000
 20
      0.0000
 30
      0.0000
 66
  1
 70
  1
  0
VERTEX
  8
0
 62
7
 10
      0.8098
 20
     15.4741
 30
      0.0000
  0
VERTEX
  8
0
 62
7
 10
      0.8098
 20
     15.1591
 30
      0.0000
  0
VERTEX
  8
0
 62
7
 10
      1.7232
 20
     15.1591
 30
      0.0000
  0
VERTEX
  8
0
 62
7
 10
      1.7232
 20
     15.4741
 30
      0.0000
  0
SEQEND
  8
0
 62
7
  0
POLYLINE
  8
0
 62
7
 10
      0.0000
 20
      0.0000
 30
      0.0000
 66
  1
 70
  1
  0
VERTEX
  8
0
 62
7
 10
      2.0382
 20
     15.3166
 30
      0.0000
  0
VERTEX
  8
0
 62
7
 10
      2.0382
 20
     14.6867
 30
      0.0000
  0
VERTEX
  8
0
 62
7
 10
      3.2882
 20
     14.6867
 30
      0.0000
  0
VERTEX
  8
0
 62
7
 10
      3.2882
 20
     13.9642
 30
      0.0000
  0
VERTEX
  8
0
 62
7
 10
      3.0382
 20
     13.9642
 30
      0.0000
  0
VERTEX
  8
0
 62
7
 10
      3.0382
 20
     14.2142
 30
      0.0000
  0
VERTEX
  8
0
 62
7
 10
      1.7665
 20
     14.2142
 30
      0.0000
  0
VERTEX
  8
0
 62
7
 10
      1.7665
 20
     13.9642
 30
      0.0000
  0
VERTEX
  8
0
 62
7
 10
      1.2665
 20
     13.9642
 30
      0.0000
  0
VERTEX
  8
0
 62
7
 10
      1.2665
 20
     14.2142
 30
      0.0000
  0
VERTEX
  8
0
 62
7
 10
      0.4791
 20
     14.2142
 30
      0.0000
  0
VERTEX
  8
0
 62
7
 10
      0.4791
 20
     15.7890
 30
      0.0000
  0
VERTEX
  8
0
 62
7
 10
      2.2882
 20
     15.7890
 30
      0.0000
  0
VERTEX
  8
0
 62
7
 10
      2.2882
 20
     15.3166
 30
      0.0000
  0
SEQEND
  8
0
 62
7
  0
TEXT
  8
251
 62
13
 10
      1.7199
 20
     14.8425
 30
      0.0000
 40
      0.3183
 1
2
  0
POLYLINE
  8
0
 62
7
 10
      0.0000
 20
      0.0000
 30
      0.0000
 66
  1
 70
  1
  0
VERTEX
  8
0
 62
7
 10
      7.6014
 20
      3.4376
 30
      0.0000
  0
VERTEX
  8
0
 62
7
 10
      7.3514
 20
      3.4376
 30
      0.0000
  0
VERTEX
  8
0
 62
7
 10
      7.3514
 20
      3.9376
 30
      0.0000
  0
VERTEX
  8
0
 62
7
 10
      7.6014
 20
      3.9376
 30
      0.0000
  0
SEQEND
  8
0
 62
7
  0
TEXT
  8
251
 62
13
 10
      7.3930
 20
      3.5134
 30
      0.0000
 40
      0.1667
 1
3
  0
POLYLINE
  8
0
 62
7
 10
      0.0000
 20
      0.0000
 30
      0.0000
 66
  1
 70
  1
  0
VERTEX
  8
0
 62
7
 10
      8.0856
 20
      2.6251
 30
      0.0000
  0
VERTEX
  8
0
 62
7
 10
      8.0856
 20
      3.0001
 30
      0.0000
  0
VERTEX
  8
0
 62
7
 10
      8.3356
 20
      3.0001
 30
      0.0000
  0
VERTEX
  8
0
 62
7
 10
      8.3356
 20
      3.1876
 30
      0.0000
  0
VERTEX
  8
0
 62
7
 10
      9.3336
 20
      3.1876
 30
      0.0000
  0
VERTEX
  8
0
 62
7
 10
      9.3336
 20
      2.9376
 30
      0.0000
  0
VERTEX
  8
0
 62
7
 10
      9.0836
 20
      2.9376
 30
      0.0000
  0
VERTEX
  8
0
 62
7
 10
      9.0836
 20
      2.6876
 30
      0.0000
  0
VERTEX
  8
0
 62
7
 10
      9.3336
 20
      2.6876
 30
      0.0000
  0
VERTEX
  8
0
 62
7
 10
      9.3336
 20
      2.4376
 30
      0.0000
  0
VERTEX
  8
0
 62
7
 10
      8.3356
 20
      2.4376
 30
      0.0000
  0
VERTEX
  8
0
 62
7
 10
      8.3356
 20
      2.6251
 30
      0.0000
  0
SEQEND
  8
0
 62
7
  0
TEXT
  8
251
 62
13
 10
      8.0856
 20
      2.6535
 30
      0.0000
 40
      0.3183
 1
4
  0
POLYLINE
  8
0
 62
7
 10
      0.0000
 20
      0.0000
 30
      0.0000
 66
  1
 70
  1
  0
VERTEX
  8
0
 62
7
 10
      9.6437
 20
      4.3126
 30
      0.0000
  0
VERTEX
  8
0
 62
7
 10
      9.6437
 20
      4.5626
 30
      0.0000
  0
VERTEX
  8
0
 62
7
 10
      8.6437
 20
      4.5626
 30
      0.0000
  0
VERTEX
  8
0
 62
7
 10
      8.6437
 20
      4.3126
 30
      0.0000
  0
SEQEND
  8
0
 62
7
  0
POLYLINE
  8
0
 62
7
 10
      0.0000
 20
      0.0000
 30
      0.0000
 66
  1
 70
  1
  0
VERTEX
  8
0
 62
7
 10
      7.6014
 20
      3.1876
 30
      0.0000
  0
VERTEX
  8
0
 62
7
 10
      7.6014
 20
      3.9376
 30
      0.0000
  0
VERTEX
  8
0
 62
7
 10
      7.3514
 20
      3.9376
 30
      0.0000
  0
VERTEX
  8
0
 62
7
 10
      7.3514
 20
      4.9376
 30
      0.0000
  0
VERTEX
  8
0
 62
7
 10
      7.6014
 20
      4.9376
 30
      0.0000
  0
VERTEX
  8
0
 62
7
 10
      7.6014
 20
      5.6876
 30
      0.0000
  0
VERTEX
  8
0
 62
7
 10
     10.4360
 20
      5.6876
 30
      0.0000
  0
VERTEX
  8
0
 62
7
 10
     10.4360
 20
      4.9376
 30
      0.0000
  0
VERTEX
  8
0
 62
7
 10
     10.6860
 20
      4.9376
 30
      0.0000
  0
VERTEX
  8
0
 62
7
 10
     10.6860
 20
      3.9376
 30
      0.0000
  0
VERTEX
  8
0
 62
7
 10
     10.4360
 20
      3.9376
 30
      0.0000
  0
VERTEX
  8
0
 62
7
 10
     10.4360
 20
      3.1876
 30
      0.0000
  0
SEQEND
  8
0
 62
7
  0
TEXT
  8
251
 62
13
 10
      7.6014
 20
      3.4035
 30
      0.0000
 40
      0.3183
 1
5
  0
POLYLINE
  8
0
 62
7
 10
      0.0000
 20
      0.0000
 30
      0.0000
 66
  1
 70
  1
  0
VERTEX
  8
0
 62
7
 10
      7.5272
 20
      6.3879
 30
      0.0000
  0
VERTEX
  8
0
 62
7
 10
      7.6522
 20
      6.1714
 30
      0.0000
  0
VERTEX
  8
0
 62
7
 10
      8.0852
 20
      6.4214
 30
      0.0000
  0
VERTEX
  8
0
 62
7
 10
      7.9602
 20
      6.6379
 30
      0.0000
  0
SEQEND
  8
0
 62
7
  0
POLYLINE
  8
0
 62
7
 10
      0.0000
 20
      0.0000
 30
      0.0000
 66
  1
 70
  1
  0
VERTEX
  8
0
 62
7
 10
      8.1437
 20
      9.7142
 30
      0.0000
  0
VERTEX
  8
0
 62
7
 10
      7.8937
 20
      9.7142
 30
      0.0000
  0
VERTEX
  8
0
 62
7
 10
      7.8937
 20
      9.2142
 30
      0.0000
  0
VERTEX
  8
0
 62
7
 10
      8.1437
 20
      9.2142
 30
      0.0000
  0
SEQEND
  8
0
 62
7
  0
POLYLINE
  8
0
 62
7
 10
      0.0000
 20
      0.0000
 30
      0.0000
 66
  1
 70
  1
  0
VERTEX
  8
0
 62
7
 10
     11.4634
 20
      7.8528
 30
      0.0000
  0
VERTEX
  8
0
 62
7
 10
     10.9634
 20
      7.8528
 30
      0.0000
  0
VERTEX
  8
0
 62
7
 10
     10.9634
 20
      7.6028
 30
      0.0000
  0
VERTEX
  8
0
 62
7
 10
     11.4634
 20
      7.6028
 30
      0.0000
  0
SEQEND
  8
0
 62
7
  0
POLYLINE
  8
0
 62
7
 10
      0.0000
 20
      0.0000
 30
      0.0000
 66
  1
 70
  1
  0
VERTEX
  8
0
 62
7
 10
     10.6917
 20
      8.8036
 30
      0.0000
  0
VERTEX
  8
0
 62
7
 10
     10.4417
 20
      8.8036
 30
      0.0000
  0
VERTEX
  8
0
 62
7
 10
     10.4417
 20
      8.3036
 30
      0.0000
  0
VERTEX
  8
0
 62
7
 10
     10.6917
 20
      8.3036
 30
      0.0000
  0
SEQEND
  8
0
 62
7
  0
POLYLINE
  8
0
 62
7
 10
      0.0000
 20
      0.0000
 30
      0.0000
 66
  1
 70
  1
  0
VERTEX
  8
0
 62
7
 10
     11.3463
 20
      9.5044
 30
      0.0000
  0
VERTEX
  8
0
 62
7
 10
     10.8463
 20
      9.5044
 30
      0.0000
  0
VERTEX
  8
0
 62
7
 10
     10.8463
 20
      9.2544
 30
      0.0000
  0
VERTEX
  8
0
 62
7
 10
     11.3463
 20
      9.2544
 30
      0.0000
  0
SEQEND
  8
0
 62
7
  0
POLYLINE
  8
0
 62
7
 10
      0.0000
 20
      0.0000
 30
      0.0000
 66
  1
 70
  1
  0
VERTEX
  8
0
 62
7
 10
     10.8937
 20
     10.8796
 30
      0.0000
  0
VERTEX
  8
0
 62
7
 10
      9.6437
 20
     10.8796
 30
      0.0000
  0
VERTEX
  8
0
 62
7
 10
      9.6437
 20
     10.6296
 30
      0.0000
  0
VERTEX
  8
0
 62
7
 10
     10.8937
 20
     10.6296
 30
      0.0000
  0
SEQEND
  8
0
 62
7
  0
POLYLINE
  8
0
 62
7
 10
      0.0000
 20
      0.0000
 30
      0.0000
 66
  1
 70
  1
  0
VERTEX
  8
0
 62
7
 10
      8.3937
 20
     10.8796
 30
      0.0000
  0
VERTEX
  8
0
 62
7
 10
      7.1437
 20
     10.8796
 30
      0.0000
  0
VERTEX
  8
0
 62
7
 10
      7.1437
 20
     10.6296
 30
      0.0000
  0
VERTEX
  8
0
 62
7
 10
      8.3937
 20
     10.6296
 30
      0.0000
  0
SEQEND
  8
0
 62
7
  0
POLYLINE
  8
0
 62
7
 10
      0.0000
 20
      0.0000
 30
      0.0000
 66
  1
 70
  1
  0
VERTEX
  8
0
 62
7
 10
      9.1919
 20
     10.4650
 30
      0.0000
  0
VERTEX
  8
0
 62
7
 10
      8.9419
 20
     10.4650
 30
      0.0000
  0
VERTEX
  8
0
 62
7
 10
      8.9419
 20
      9.9650
 30
      0.0000
  0
VERTEX
  8
0
 62
7
 10
      9.1919
 20
      9.9650
 30
      0.0000
  0
SEQEND
  8
0
 62
7
  0
POLYLINE
  8
0
 62
7
 10
      0.0000
 20
      0.0000
 30
      0.0000
 66
  1
 70
  1
  0
VERTEX
  8
0
 62
7
 10
     10.1427
 20
      9.4276
 30
      0.0000
  0
VERTEX
  8
0
 62
7
 10
      9.6427
 20
      9.4276
 30
      0.0000
  0
VERTEX
  8
0
 62
7
 10
      9.6427
 20
      9.1776
 30
      0.0000
  0
VERTEX
  8
0
 62
7
 10
     10.1427
 20
      9.1776
 30
      0.0000
  0
SEQEND
  8
0
 62
7
  0
POLYLINE
  8
0
 62
7
 10
      0.0000
 20
      0.0000
 30
      0.0000
 66
  1
 70
  1
  0
VERTEX
  8
0
 62
7
 10
     10.5935
 20
      9.5821
 30
      0.0000
  0
VERTEX
  8
0
 62
7
 10
     10.8435
 20
      9.5821
 30
      0.0000
  0
VERTEX
  8
0
 62
7
 10
     10.8435
 20
     10.0821
 30
      0.0000
  0
VERTEX
  8
0
 62
7
 10
     10.5935
 20
     10.0821
 30
      0.0000
  0
SEQEND
  8
0
 62
7
  0
CIRCLE
  8
0
 62
7
 10
      9.0187
 20
      7.6796
 30
      0.0000
 40
      0.6250
  0
CIRCLE
  8
0
 62
7
 10
      9.0187
 20
      4.3046
 30
      0.0000
 40
      2.0500
  0
CIRCLE
  8
0
 62
7
 10
      9.9636
 20
      7.6895
 30
      0.0000
 40
      0.1100
  0
CIRCLE
  8
0
 62
7
 10
     10.3000
 20
      8.9609
 30
      0.0000
 40
      0.0780
  0
CIRCLE
  8
0
 62
7
 10
      7.7374
 20
      8.9609
 30
      0.0000
 40
      0.0780
  0
CIRCLE
  8
0
 62
7
 10
     10.3000
 20
      6.3983
 30
      0.0000
 40
      0.0780
  0
POLYLINE
  8
0
 62
7
 10
      0.0000
 20
      0.0000
 30
      0.0000
 66
  1
 70
  1
  0
VERTEX
  8
0
 62
7
 10
      6.3937
 20
     12.4642
 30
      0.0000
  0
VERTEX
  8
0
 62
7
 10
      6.1437
 20
     12.4642
 30
      0.0000
  0
VERTEX
  8
0
 62
7
 10
      6.1437
 20
     13.9642
 30
      0.0000
  0
VERTEX
  8
0
 62
7
 10
      7.1437
 20
     13.9642
 30
      0.0000
  0
VERTEX
  8
0
 62
7
 10
      7.1437
 20
     13.7142
 30
      0.0000
  0
VERTEX
  8
0
 62
7
 10
      8.3937
 20
     13.7142
 30
      0.0000
  0
VERTEX
  8
0
 62
7
 10
      8.3937
 20
     13.9642
 30
      0.0000
  0
VERTEX
  8
0
 62
7
 10
      9.6437
 20
     13.9642
 30
      0.0000
  0
VERTEX
  8
0
 62
7
 10
      9.6437
 20
     13.7142
 30
      0.0000
  0
VERTEX
  8
0
 62
7
 10
     10.8937
 20
     13.7142
 30
      0.0000
  0
VERTEX
  8
0
 62
7
 10
     10.8937
 20
     13.9642
 30
      0.0000
  0
VERTEX
  8
0
 62
7
 10
     11.8937
 20
     13.9642
 30
      0.0000
  0
VERTEX
  8
0
 62
7
 10
     11.8937
 20
      6.1294
 30
      0.0000
  0
VERTEX
  8
0
 62
7
 10
     11.6437
 20
      6.1294
 30
      0.0000
  0
VERTEX
  8
0
 62
7
 10
     11.6437
 20
      5.8794
 30
      0.0000
  0
VERTEX
  8
0
 62
7
 10
     11.8937
 20
      5.8794
 30
      0.0000
  0
VERTEX
  8
0
 62
7
 10
     11.8937
 20
      4.7296
 30
      0.0000
  0
VERTEX
  8
0
 62
7
 10
     11.6437
 20
      4.7296
 30
      0.0000
  0
VERTEX
  8
0
 62
7
 10
     11.6437
 20
      4.4796
 30
      0.0000
  0
VERTEX
  8
0
 62
7
 10
     11.8937
 20
      4.4796
 30
      0.0000
  0
VERTEX
  8
0
 62
7
 10
     11.8937
 20
      0.8796
 30
      0.0000
  0
VERTEX
  8
0
 62
7
 10
     10.8937
 20
      0.8796
 30
      0.0000
  0
VERTEX
  8
0
 62
7
 10
     10.8937
 20
      0.6296
 30
      0.0000
  0
VERTEX
  8
0
 62
7
 10
      9.5187
 20
      0.6296
 30
      0.0000
  0
VERTEX
  8
0
 62
7
 10
      9.5187
 20
      0.8796
 30
      0.0000
  0
VERTEX
  8
0
 62
7
 10
      8.5187
 20
      0.8796
 30
      0.0000
  0
VERTEX
  8
0
 62
7
 10
      8.5187
 20
      0.6296
 30
      0.0000
  0
VERTEX
  8
0
 62
7
 10
      7.1437
 20
      0.6296
 30
      0.0000
  0
VERTEX
  8
0
 62
7
 10
      7.1437
 20
      0.8796
 30
      0.0000
  0
VERTEX
  8
0
 62
7
 10
      6.1437
 20
      0.8796
 30
      0.0000
  0
VERTEX
  8
0
 62
7
 10
      6.1437
 20
      1.7653
 30
      0.0000
  0
VERTEX
  8
0
 62
7
 10
      6.3937
 20
      1.7653
 30
      0.0000
  0
VERTEX
  8
0
 62
7
 10
      6.3937
 20
      2.7653
 30
      0.0000
  0
VERTEX
  8
0
 62
7
 10
      6.1437
 20
      2.7653
 30
      0.0000
  0
VERTEX
  8
0
 62
7
 10
      6.1437
 20
      3.6510
 30
      0.0000
  0
VERTEX
  8
0
 62
7
 10
      6.3937
 20
      3.6510
 30
      0.0000
  0
VERTEX
  8
0
 62
7
 10
      6.3937
 20
      3.9010
 30
      0.0000
  0
VERTEX
  8
0
 62
7
 10
      6.1437
 20
      3.9010
 30
      0.0000
  0
VERTEX
  8
0
 62
7
 10
      6.1437
 20
      4.4796
 30
      0.0000
  0
VERTEX
  8
0
 62
7
 10
      6.3937
 20
      4.4796
 30
      0.0000
  0
VERTEX
  8
0
 62
7
 10
      6.3937
 20
      4.7296
 30
      0.0000
  0
VERTEX
  8
0
 62
7
 10
      6.1437
 20
      4.7296
 30
      0.0000
  0
VERTEX
  8
0
 62
7
 10
      6.1437
 20
      6.4581
 30
      0.0000
  0
VERTEX
  8
0
 62
7
 10
      6.3937
 20
      6.4581
 30
      0.0000
  0
VERTEX
  8
0
 62
7
 10
      6.3937
 20
      7.7081
 30
      0.0000
  0
VERTEX
  8
0
 62
7
 10
      6.1437
 20
      7.7081
 30
      0.0000
  0
VERTEX
  8
0
 62
7
 10
      6.1437
 20
     11.2142
 30
      0.0000
  0
VERTEX
  8
0
 62
7
 10
      6.3937
 20
     11.2142
 30
      0.0000
  0
SEQEND
  8
0
 62
7
  0
TEXT
  8
251
 62
13
 10
      6.1096
 20
     12.4642
 30
      0.0000
 40
      0.3183
 1
6
  0
POLYLINE
  8
0
 62
7
 10
      0.0000
 20
      0.0000
 30
      0.0000
 66
  1
 70
  1
  0
VERTEX
  8
0
 62
7
 10
      9.8966
 20
     15.9926
 30
      0.0000
  0
VERTEX
  8
0
 62
7
 10
      8.2076
 20
     15.9926
 30
      0.0000
  0
VERTEX
  8
0
 62
7
 10
      8.2076
 20
     15.7426
 30
      0.0000
  0
VERTEX
  8
0
 62
7
 10
      7.2076
 20
     15.7426
 30
      0.0000
  0
VERTEX
  8
0
 62
7
 10
      7.2076
 20
     15.9926
 30
      0.0000
  0
VERTEX
  8
0
 62
7
 10
      5.5186
 20
     15.9926
 30
      0.0000
  0
VERTEX
  8
0
 62
7
 10
      5.5186
 20
     17.2926
 30
      0.0000
  0
VERTEX
  8
0
 62
7
 10
      5.2686
 20
     17.2926
 30
      0.0000
  0
VERTEX
  8
0
 62
7
 10
      5.2686
 20
     18.2926
 30
      0.0000
  0
VERTEX
  8
0
 62
7
 10
      5.5186
 20
     18.2926
 30
      0.0000
  0
VERTEX
  8
0
 62
7
 10
      5.5186
 20
     19.5926
 30
      0.0000
  0
VERTEX
  8
0
 62
7
 10
      7.2076
 20
     19.5926
 30
      0.0000
  0
VERTEX
  8
0
 62
7
 10
      7.2076
 20
     19.8426
 30
      0.0000
  0
VERTEX
  8
0
 62
7
 10
      8.2076
 20
     19.8426
 30
      0.0000
  0
VERTEX
  8
0
 62
7
 10
      8.2076
 20
     19.5926
 30
      0.0000
  0
VERTEX
  8
0
 62
7
 10
      9.8966
 20
     19.5926
 30
      0.0000
  0
VERTEX
  8
0
 62
7
 10
      9.8966
 20
     18.2926
 30
      0.0000
  0
VERTEX
  8
0
 62
7
 10
     10.1466
 20
     18.2926
 30
      0.0000
  0
VERTEX
  8
0
 62
7
 10
     10.1466
 20
     17.2926
 30
      0.0000
  0
VERTEX
  8
0
 62
7
 10
      9.8966
 20
     17.2926
 30
      0.0000
  0
SEQEND
  8
0
 62
7
  0
TEXT
  8
251
 62
13
 10
      8.8930
 20
     15.9926
 30
      0.0000
 40
      0.3183
 1
7
  0
POLYLINE
  8
0
 62
7
 10
      0.0000
 20
      0.0000
 30
      0.0000
 66
  1
 70
  1
  0
VERTEX
  8
0
 62
7
 10
      1.6386
 20
     16.8292
 30
      0.0000
  0
VERTEX
  8
0
 62
7
 10
      4.1141
 20
     16.8292
 30
      0.0000
  0
VERTEX
  8
0
 62
7
 10
      4.1141
 20
     17.8309
 30
      0.0000
  0
VERTEX
  8
0
 62
7
 10
      1.6386
 20
     17.8309
 30
      0.0000
  0
SEQEND
  8
0
 62
7
  0
POLYLINE
  8
0
 62
7
 10
      0.0000
 20
      0.0000
 30
      0.0000
 66
  1
 70
  1
  0
VERTEX
  8
0
 62
7
 10
      3.2358
 20
     18.9061
 30
      0.0000
  0
VERTEX
  8
0
 62
7
 10
      2.2358
 20
     18.9061
 30
      0.0000
  0
VERTEX
  8
0
 62
7
 10
      2.2358
 20
     18.6561
 30
      0.0000
  0
VERTEX
  8
0
 62
7
 10
      3.2358
 20
     18.6561
 30
      0.0000
  0
SEQEND
  8
0
 62
7
  0
POLYLINE
  8
0
 62
7
 10
      0.0000
 20
      0.0000
 30
      0.0000
 66
  1
 70
  1
  0
VERTEX
  8
0
 62
7
 10
     11.6233
 20
     17.7811
 30
      0.0000
  0
VERTEX
  8
0
 62
7
 10
     11.2483
 20
     17.7811
 30
      0.0000
  0
VERTEX
  8
0
 62
7
 10
     11.2483
 20
     17.5311
 30
      0.0000
  0
VERTEX
  8
0
 62
7
 10
     11.6233
 20
     17.5311
 30
      0.0000
  0
SEQEND
  8
0
 62
7
  0
POLYLINE
  8
0
 62
7
 10
      0.0000
 20
      0.0000
 30
      0.0000
 66
  1
 70
  1
  0
VERTEX
  8
0
 62
7
 10
      4.9506
 20
     16.6840
 30
      0.0000
 42
          0.7101450
  0
VERTEX
  8
0
 62
7
 10
     10.5210
 20
     16.6840
 30
      0.0000
  0
VERTEX
  8
0
 62
7
 10
     10.6858
 20
     17.1561
 30
      0.0000
  0
VERTEX
  8
0
 62
7
 10
     10.9358
 20
     17.1561
 30
      0.0000
  0
VERTEX
  8
0
 62
7
 10
     10.9358
 20
     18.1561
 30
      0.0000
  0
VERTEX
  8
0
 62
7
 10
     10.6858
 20
     18.1561
 30
      0.0000
  0
VERTEX
  8
0
 62
7
 10
     10.5210
 20
     18.6281
 30
      0.0000
 42
          0.7101450
  0
VERTEX
  8
0
 62
7
 10
      4.9506
 20
     18.6281
 30
      0.0000
  0
VERTEX
  8
0
 62
7
 10
      4.7858
 20
     18.1561
 30
      0.0000
  0
VERTEX
  8
0
 62
7
 10
      4.5358
 20
     18.1561
 30
      0.0000
  0
VERTEX
  8
0
 62
7
 10
      4.5358
 20
     17.1561
 30
      0.0000
  0
VERTEX
  8
0
 62
7
 10
      4.7858
 20
     17.1561
 30
      0.0000
  0
SEQEND
  8
0
 62
7
  0
POLYLINE
  8
0
 62
7
 10
      0.0000
 20
      0.0000
 30
      0.0000
 66
  1
 70
  1
  0
VERTEX
  8
0
 62
7
 10
      3.8749
 20
     19.0606
 30
      0.0000
  0
VERTEX
  8
0
 62
7
 10
      3.8749
 20
     18.7535
 30
      0.0000
  0
VERTEX
  8
0
 62
7
 10
      4.7962
 20
     18.7535
 30
      0.0000
  0
VERTEX
  8
0
 62
7
 10
      4.7962
 20
     19.0606
 30
      0.0000
  0
SEQEND
  8
0
 62
7
  0
POLYLINE
  8
0
 62
7
 10
      0.0000
 20
      0.0000
 30
      0.0000
 66
  1
 70
  1
  0
VERTEX
  8
0
 62
7
 10
     10.6804
 20
     18.7496
 30
      0.0000
  0
VERTEX
  8
0
 62
7
 10
     11.3767
 20
     18.7496
 30
      0.0000
  0
VERTEX
  8
0
 62
7
 10
     11.9358
 20
     17.7811
 30
      0.0000
  0
VERTEX
  8
0
 62
7
 10
     11.9358
 20
     17.5311
 30
      0.0000
  0
VERTEX
  8
0
 62
7
 10
     10.9403
 20
     15.8064
 30
      0.0000
 42
         -0.3692495
  0
VERTEX
  8
0
 62
7
 10
      6.4062
 20
     14.2032
 30
      0.0000
  0
VERTEX
  8
0
 62
7
 10
      0.6858
 20
     16.4061
 30
      0.0000
  0
VERTEX
  8
0
 62
7
 10
      0.6858
 20
     17.1561
 30
      0.0000
  0
VERTEX
  8
0
 62
7
 10
      0.9358
 20
     17.1561
 30
      0.0000
  0
VERTEX
  8
0
 62
7
 10
      0.9358
 20
     18.1561
 30
      0.0000
  0
VERTEX
  8
0
 62
7
 10
      0.6858
 20
     18.1561
 30
      0.0000
  0
VERTEX
  8
0
 62
7
 10
      0.6858
 20
     18.9061
 30
      0.0000
  0
VERTEX
  8
0
 62
7
 10
      6.4062
 20
     21.1089
 30
      0.0000
 42
         -0.3692495
  0
VERTEX
  8
0
 62
7
 10
     10.9403
 20
     19.5058
 30
      0.0000
  0
VERTEX
  8
0
 62
7
 10
     11.1995
 20
     19.0567
 30
      0.0000
  0
VERTEX
  8
0
 62
7
 10
     10.6804
 20
     19.0567
 30
      0.0000
  0
SEQEND
  8
0
 62
7
  0
TEXT
  8
251
 62
13
 10
     10.8694
 20
     18.4313
 30
      0.0000
 40
      0.3183
 1
8
  0
POLYLINE
  8
0
 62
7
 10
      0.0000
 20
      0.0000
 30
      0.0000
 66
  1
 70
  1
  0
VERTEX
  8
0
 62
7
 10
      1.8129
 20
     22.6513
 30
      0.0000
  0
VERTEX
  8
0
 62
7
 10
      0.8209
 20
     22.6513
 30
      0.0000
  0
VERTEX
  8
0
 62
7
 10
      0.8209
 20
     20.1780
 30
      0.0000
  0
VERTEX
  8
0
 62
7
 10
      1.8129
 20
     20.1780
 30
      0.0000
  0
SEQEND
  8
0
 62
7
  0
POLYLINE
  8
0
 62
7
 10
      0.0000
 20
      0.0000
 30
      0.0000
 66
  1
 70
  1
  0
VERTEX
  8
0
 62
7
 10
      0.3937
 20
     23.3563
 30
      0.0000
  0
VERTEX
  8
0
 62
7
 10
      1.1437
 20
     23.3563
 30
      0.0000
  0
VERTEX
  8
0
 62
7
 10
      1.1437
 20
     23.6063
 30
      0.0000
  0
VERTEX
  8
0
 62
7
 10
      2.1437
 20
     23.6063
 30
      0.0000
  0
VERTEX
  8
0
 62
7
 10
      2.1437
 20
     23.3563
 30
      0.0000
  0
VERTEX
  8
0
 62
7
 10
      2.8937
 20
     23.3563
 30
      0.0000
  0
VERTEX
  8
0
 62
7
 10
      2.8937
 20
     22.0563
 30
      0.0000
  0
VERTEX
  8
0
 62
7
 10
      2.6437
 20
     22.0563
 30
      0.0000
  0
VERTEX
  8
0
 62
7
 10
      2.6437
 20
     21.0563
 30
      0.0000
  0
VERTEX
  8
0
 62
7
 10
      2.8937
 20
     21.0563
 30
      0.0000
  0
VERTEX
  8
0
 62
7
 10
      2.8937
 20
     19.7563
 30
      0.0000
  0
VERTEX
  8
0
 62
7
 10
      2.1437
 20
     19.7563
 30
      0.0000
  0
VERTEX
  8
0
 62
7
 10
      2.1437
 20
     19.5063
 30
      0.0000
  0
VERTEX
  8
0
 62
7
 10
      1.1437
 20
     19.5063
 30
      0.0000
  0
VERTEX
  8
0
 62
7
 10
      1.1437
 20
     19.7563
 30
      0.0000
  0
VERTEX
  8
0
 62
7
 10
      0.3937
 20
     19.7563
 30
      0.0000
  0
SEQEND
  8
0
 62
7
  0
TEXT
  8
251
 62
13
 10
      0.6096
 20
     23.0380
 30
      0.0000
 40
      0.3183
 1
9
  0
POLYLINE
  8
0
 62
7
 10
      0.0000
 20
      0.0000
 30
      0.0000
 66
  1
 70
  1
  0
VERTEX
  8
0
 62
7
 10
      5.1860
 20
     22.0692
 30
      0.0000
  0
VERTEX
  8
0
 62
7
 10
      5.1860
 20
     22.3192
 30
      0.0000
  0
VERTEX
  8
0
 62
7
 10
      4.1860
 20
     22.3192
 30
      0.0000
  0
VERTEX
  8
0
 62
7
 10
      4.1860
 20
     22.0692
 30
      0.0000
  0
SEQEND
  8
0
 62
7
  0
POLYLINE
  8
0
 62
7
 10
      0.0000
 20
      0.0000
 30
      0.0000
 66
  1
 70
  1
  0
VERTEX
  8
0
 62
7
 10
      3.1437
 20
     20.9442
 30
      0.0000
  0
VERTEX
  8
0
 62
7
 10
      3.1437
 20
     21.6942
 30
      0.0000
  0
VERTEX
  8
0
 62
7
 10
      2.8937
 20
     21.6942
 30
      0.0000
  0
VERTEX
  8
0
 62
7
 10
      2.8937
 20
     22.6942
 30
      0.0000
  0
VERTEX
  8
0
 62
7
 10
      3.1437
 20
     22.6942
 30
      0.0000
  0
VERTEX
  8
0
 62
7
 10
      3.1437
 20
     23.4442
 30
      0.0000
  0
VERTEX
  8
0
 62
7
 10
      5.9783
 20
     23.4442
 30
      0.0000
  0
VERTEX
  8
0
 62
7
 10
      5.9783
 20
     22.6942
 30
      0.0000
  0
VERTEX
  8
0
 62
7
 10
      6.2283
 20
     22.6942
 30
      0.0000
  0
VERTEX
  8
0
 62
7
 10
      6.2283
 20
     21.6942
 30
      0.0000
  0
VERTEX
  8
0
 62
7
 10
      5.9783
 20
     21.6942
 30
      0.0000
  0
VERTEX
  8
0
 62
7
 10
      5.9783
 20
     20.9442
 30
      0.0000
  0
SEQEND
  8
0
 62
7
  0
TEXT
  8
251
 62
13
 10
      2.9846
 20
     21.1600
 30
      0.0000
 40
      0.3183
 1
10
  0
POLYLINE
  8
0
 62
7
 10
      0.0000
 20
      0.0000
 30
      0.0000
 66
  1
 70
  1
  0
VERTEX
  8
0
 62
7
 10
      8.0484
 20
     21.6317
 30
      0.0000
  0
VERTEX
  8
0
 62
7
 10
      8.0484
 20
     23.2065
 30
      0.0000
  0
VERTEX
  8
0
 62
7
 10
      8.9341
 20
     23.2065
 30
      0.0000
  0
VERTEX
  8
0
 62
7
 10
      8.9341
 20
     23.4565
 30
      0.0000
  0
VERTEX
  8
0
 62
7
 10
      9.9341
 20
     23.4565
 30
      0.0000
  0
VERTEX
  8
0
 62
7
 10
      9.9341
 20
     23.2065
 30
      0.0000
  0
VERTEX
  8
0
 62
7
 10
     10.8198
 20
     23.2065
 30
      0.0000
  0
VERTEX
  8
0
 62
7
 10
     10.8198
 20
     21.6317
 30
      0.0000
  0
VERTEX
  8
0
 62
7
 10
      9.9341
 20
     21.6317
 30
      0.0000
  0
VERTEX
  8
0
 62
7
 10
      9.9341
 20
     21.3817
 30
      0.0000
  0
VERTEX
  8
0
 62
7
 10
      8.9341
 20
     21.3817
 30
      0.0000
  0
VERTEX
  8
0
 62
7
 10
      8.9341
 20
     21.6317
 30
      0.0000
  0
SEQEND
  8
0
 62
7
  0
TEXT
  8
251
 62
13
 10
      7.8892
 20
     22.2600
 30
      0.0000
 40
      0.3183
 1
11
  0
POLYLINE
  8
0
 62
7
 10
      0.0000
 20
      0.0000
 30
      0.0000
 66
  1
 70
  1
  0
VERTEX
  8
0
 62
7
 10
     13.4528
 20
      1.2022
 30
      0.0000
  0
VERTEX
  8
0
 62
7
 10
     13.7028
 20
      1.2022
 30
      0.0000
  0
VERTEX
  8
0
 62
7
 10
     13.7028
 20
      1.7022
 30
      0.0000
  0
VERTEX
  8
0
 62
7
 10
     13.4528
 20
      1.7022
 30
      0.0000
  0
SEQEND
  8
0
 62
7
  0
POLYLINE
  8
0
 62
7
 10
      0.0000
 20
      0.0000
 30
      0.0000
 66
  1
 70
  1
  0
VERTEX
  8
0
 62
7
 10
     13.9528
 20
      2.2396
 30
      0.0000
  0
VERTEX
  8
0
 62
7
 10
     13.9528
 20
      0.6648
 30
      0.0000
  0
VERTEX
  8
0
 62
7
 10
     12.5758
 20
      0.6648
 30
      0.0000
  0
VERTEX
  8
0
 62
7
 10
     12.5758
 20
      0.4148
 30
      0.0000
  0
VERTEX
  8
0
 62
7
 10
     11.8937
 20
      0.4148
 30
      0.0000
  0
VERTEX
  8
0
 62
7
 10
     11.8937
 20
      0.9955
 30
      0.0000
  0
VERTEX
  8
0
 62
7
 10
     12.2087
 20
      0.9955
 30
      0.0000
  0
VERTEX
  8
0
 62
7
 10
     12.2087
 20
      1.9089
 30
      0.0000
  0
VERTEX
  8
0
 62
7
 10
     11.8937
 20
      1.9089
 30
      0.0000
  0
VERTEX
  8
0
 62
7
 10
     11.8937
 20
      2.2396
 30
      0.0000
  0
VERTEX
  8
0
 62
7
 10
     12.7982
 20
      2.2396
 30
      0.0000
  0
VERTEX
  8
0
 62
7
 10
     12.7982
 20
      2.4896
 30
      0.0000
  0
VERTEX
  8
0
 62
7
 10
     13.2982
 20
      2.4896
 30
      0.0000
  0
VERTEX
  8
0
 62
7
 10
     13.2982
 20
      2.2396
 30
      0.0000
  0
SEQEND
  8
0
 62
7
  0
TEXT
  8
251
 62
13
 10
     13.4753
 20
      1.2931
 30
      0.0000
 40
      0.3183
 1
12
  0
POLYLINE
  8
0
 62
7
 10
      0.0000
 20
      0.0000
 30
      0.0000
 66
  1
 70
  1
  0
VERTEX
  8
0
 62
7
 10
     12.1437
 20
      7.5842
 30
      0.0000
  0
VERTEX
  8
0
 62
7
 10
     12.1437
 20
      8.6009
 30
      0.0000
  0
VERTEX
  8
0
 62
7
 10
     12.9508
 20
      8.6009
 30
      0.0000
  0
VERTEX
  8
0
 62
7
 10
     12.9508
 20
      7.5842
 30
      0.0000
  0
VERTEX
  8
0
 62
7
 10
     13.2008
 20
      7.5842
 30
      0.0000
  0
VERTEX
  8
0
 62
7
 10
     13.2008
 20
      7.3342
 30
      0.0000
  0
VERTEX
  8
0
 62
7
 10
     12.9508
 20
      7.3342
 30
      0.0000
  0
VERTEX
  8
0
 62
7
 10
     12.9508
 20
      6.5675
 30
      0.0000
  0
VERTEX
  8
0
 62
7
 10
     12.1437
 20
      6.5675
 30
      0.0000
  0
VERTEX
  8
0
 62
7
 10
     12.1437
 20
      7.3342
 30
      0.0000
  0
VERTEX
  8
0
 62
7
 10
     11.8937
 20
      7.3342
 30
      0.0000
  0
VERTEX
  8
0
 62
7
 10
     11.8937
 20
      7.5842
 30
      0.0000
  0
SEQEND
  8
0
 62
7
  0
TEXT
  8
251
 62
13
 10
     11.9846
 20
      7.9334
 30
      0.0000
 40
      0.3183
 1
13
  0
POLYLINE
  8
0
 62
7
 10
      0.0000
 20
      0.0000
 30
      0.0000
 66
  1
 70
  1
  0
VERTEX
  8
0
 62
7
 10
     12.6437
 20
      8.8509
 30
      0.0000
  0
VERTEX
  8
0
 62
7
 10
     12.6437
 20
      8.6009
 30
      0.0000
  0
VERTEX
  8
0
 62
7
 10
     12.1437
 20
      8.6009
 30
      0.0000
  0
VERTEX
  8
0
 62
7
 10
     12.1437
 20
      8.8509
 30
      0.0000
  0
VERTEX
  8
0
 62
7
 10
     11.8937
 20
      8.8509
 30
      0.0000
  0
VERTEX
  8
0
 62
7
 10
     11.8937
 20
     10.4258
 30
      0.0000
  0
VERTEX
  8
0
 62
7
 10
     12.1437
 20
     10.4258
 30
      0.0000
  0
VERTEX
  8
0
 62
7
 10
     12.1437
 20
     10.6758
 30
      0.0000
  0
VERTEX
  8
0
 62
7
 10
     12.6437
 20
     10.6758
 30
      0.0000
  0
VERTEX
  8
0
 62
7
 10
     12.6437
 20
     10.4258
 30
      0.0000
  0
VERTEX
  8
0
 62
7
 10
     12.8937
 20
     10.4258
 30
      0.0000
  0
VERTEX
  8
0
 62
7
 10
     12.8937
 20
      8.8509
 30
      0.0000
  0
SEQEND
  8
0
 62
7
  0
TEXT
  8
251
 62
13
 10
     12.1663
 20
      8.5668
 30
      0.0000
 40
      0.3183
 1
14
  0
POLYLINE
  8
0
 62
7
 10
      0.0000
 20
      0.0000
 30
      0.0000
 66
  1
 70
  1
  0
VERTEX
  8
0
 62
7
 10
     12.7687
 20
     10.6758
 30
      0.0000
  0
VERTEX
  8
0
 62
7
 10
     11.8937
 20
     10.6758
 30
      0.0000
  0
VERTEX
  8
0
 62
7
 10
     11.8937
 20
     13.4258
 30
      0.0000
  0
VERTEX
  8
0
 62
7
 10
     12.7687
 20
     13.4258
 30
      0.0000
  0
SEQEND
  8
0
 62
7
  0
TEXT
  8
251
 62
13
 10
     12.0129
 20
     10.6758
 30
      0.0000
 40
      0.3183
 1
15
  0
POLYLINE
  8
0
 62
7
 10
      0.0000
 20
      0.0000
 30
      0.0000
 66
  1
 70
  1
  0
VERTEX
  8
0
 62
7
 10
     17.4837
 20
      8.7232
 30
      0.0000
  0
VERTEX
  8
0
 62
7
 10
     16.4837
 20
      8.7232
 30
      0.0000
  0
VERTEX
  8
0
 62
7
 10
     16.4837
 20
      8.4732
 30
      0.0000
  0
VERTEX
  8
0
 62
7
 10
     17.4837
 20
      8.4732
 30
      0.0000
  0
SEQEND
  8
0
 62
7
  0
POLYLINE
  8
0
 62
7
 10
      0.0000
 20
      0.0000
 30
      0.0000
 66
  1
 70
  1
  0
VERTEX
  8
0
 62
7
 10
     17.4837
 20
      3.9393
 30
      0.0000
  0
VERTEX
  8
0
 62
7
 10
     16.4837
 20
      3.9393
 30
      0.0000
  0
VERTEX
  8
0
 62
7
 10
     16.4837
 20
      3.6893
 30
      0.0000
  0
VERTEX
  8
0
 62
7
 10
     17.4837
 20
      3.6893
 30
      0.0000
  0
SEQEND
  8
0
 62
7
  0
POLYLINE
  8
0
 62
7
 10
      0.0000
 20
      0.0000
 30
      0.0000
 66
  1
 70
  1
  0
VERTEX
  8
0
 62
7
 10
     17.4837
 20
      5.7484
 30
      0.0000
  0
VERTEX
  8
0
 62
7
 10
     17.4561
 20
      5.7484
 30
      0.0000
  0
VERTEX
  8
0
 62
7
 10
     17.4561
 20
      6.5988
 30
      0.0000
  0
VERTEX
  8
0
 62
7
 10
     16.5113
 20
      6.5988
 30
      0.0000
  0
VERTEX
  8
0
 62
7
 10
     16.5113
 20
      5.7484
 30
      0.0000
  0
VERTEX
  8
0
 62
7
 10
     16.4837
 20
      5.7484
 30
      0.0000
  0
VERTEX
  8
0
 62
7
 10
     16.4837
 20
      5.4984
 30
      0.0000
  0
VERTEX
  8
0
 62
7
 10
     17.4837
 20
      5.4984
 30
      0.0000
  0
SEQEND
  8
0
 62
7
  0
POLYLINE
  8
0
 62
7
 10
      0.0000
 20
      0.0000
 30
      0.0000
 66
  1
 70
  1
  0
VERTEX
  8
0
 62
7
 10
     15.9837
 20
     10.4122
 30
      0.0000
  0
VERTEX
  8
0
 62
7
 10
     15.9837
 20
     11.4122
 30
      0.0000
  0
VERTEX
  8
0
 62
7
 10
     15.7337
 20
     11.4122
 30
      0.0000
  0
VERTEX
  8
0
 62
7
 10
     15.7337
 20
     13.1011
 30
      0.0000
  0
VERTEX
  8
0
 62
7
 10
     16.4837
 20
     13.1011
 30
      0.0000
  0
VERTEX
  8
0
 62
7
 10
     16.4837
 20
     13.6011
 30
      0.0000
  0
VERTEX
  8
0
 62
7
 10
     17.4837
 20
     13.6011
 30
      0.0000
  0
VERTEX
  8
0
 62
7
 10
     17.4837
 20
     13.1011
 30
      0.0000
  0
VERTEX
  8
0
 62
7
 10
     18.2337
 20
     13.1011
 30
      0.0000
  0
VERTEX
  8
0
 62
7
 10
     18.2337
 20
      2.4511
 30
      0.0000
  0
VERTEX
  8
0
 62
7
 10
     19.8587
 20
      1.4511
 30
      0.0000
  0
VERTEX
  8
0
 62
7
 10
     19.8587
 20
      0.4511
 30
      0.0000
  0
VERTEX
  8
0
 62
7
 10
     19.6087
 20
      0.4511
 30
      0.0000
  0
VERTEX
  8
0
 62
7
 10
     19.6087
 20
      0.7011
 30
      0.0000
  0
VERTEX
  8
0
 62
7
 10
     14.3587
 20
      0.7011
 30
      0.0000
  0
VERTEX
  8
0
 62
7
 10
     14.3587
 20
      0.4511
 30
      0.0000
  0
VERTEX
  8
0
 62
7
 10
     14.1087
 20
      0.4511
 30
      0.0000
  0
VERTEX
  8
0
 62
7
 10
     14.1087
 20
      1.4511
 30
      0.0000
  0
VERTEX
  8
0
 62
7
 10
     15.7337
 20
      2.4511
 30
      0.0000
  0
VERTEX
  8
0
 62
7
 10
     15.7337
 20
     10.4122
 30
      0.0000
  0
SEQEND
  8
0
 62
7
  0
TEXT
  8
251
 62
13
 10
     15.8246
 20
     10.7530
 30
      0.0000
 40
      0.3183
 1
16
  0
POLYLINE
  8
0
 62
7
 10
      0.0000
 20
      0.0000
 30
      0.0000
 66
  1
 70
  1
  0
VERTEX
  8
0
 62
7
 10
     15.1353
 20
     11.9014
 30
      0.0000
  0
VERTEX
  8
0
 62
7
 10
     15.1353
 20
     11.6514
 30
      0.0000
  0
VERTEX
  8
0
 62
7
 10
     15.4837
 20
     11.6514
 30
      0.0000
  0
VERTEX
  8
0
 62
7
 10
     15.4837
 20
     11.9014
 30
      0.0000
  0
SEQEND
  8
0
 62
7
  0
POLYLINE
  8
0
 62
7
 10
      0.0000
 20
      0.0000
 30
      0.0000
 66
  1
 70
  1
  0
VERTEX
  8
0
 62
7
 10
     14.2869
 20
     11.6514
 30
      0.0000
  0
VERTEX
  8
0
 62
7
 10
     14.2869
 20
     11.9014
 30
      0.0000
  0
VERTEX
  8
0
 62
7
 10
     13.4837
 20
     11.9014
 30
      0.0000
  0
VERTEX
  8
0
 62
7
 10
     13.4837
 20
     11.6514
 30
      0.0000
  0
SEQEND
  8
0
 62
7
  0
POLYLINE
  8
0
 62
7
 10
      0.0000
 20
      0.0000
 30
      0.0000
 66
  1
 70
  1
  0
VERTEX
  8
0
 62
7
 10
     14.8853
 20
     11.2469
 30
      0.0000
  0
VERTEX
  8
0
 62
7
 10
     14.8853
 20
     10.4969
 30
      0.0000
  0
VERTEX
  8
0
 62
7
 10
     15.1353
 20
     10.4969
 30
      0.0000
  0
VERTEX
  8
0
 62
7
 10
     15.1353
 20
     11.2469
 30
      0.0000
  0
SEQEND
  8
0
 62
7
  0
POLYLINE
  8
0
 62
7
 10
      0.0000
 20
      0.0000
 30
      0.0000
 66
  1
 70
  1
  0
VERTEX
  8
0
 62
7
 10
     13.7337
 20
     10.0923
 30
      0.0000
  0
VERTEX
  8
0
 62
7
 10
     13.7337
 20
      9.8424
 30
      0.0000
  0
VERTEX
  8
0
 62
7
 10
     14.4837
 20
      9.8424
 30
      0.0000
  0
VERTEX
  8
0
 62
7
 10
     14.4837
 20
     10.0923
 30
      0.0000
  0
SEQEND
  8
0
 62
7
  0
POLYLINE
  8
0
 62
7
 10
      0.0000
 20
      0.0000
 30
      0.0000
 66
  1
 70
  1
  0
VERTEX
  8
0
 62
7
 10
     12.6087
 20
     15.1396
 30
      0.0000
  0
VERTEX
  8
0
 62
7
 10
     12.6087
 20
     14.6396
 30
      0.0000
  0
VERTEX
  8
0
 62
7
 10
     13.9837
 20
     14.6396
 30
      0.0000
  0
VERTEX
  8
0
 62
7
 10
     13.9837
 20
     15.1396
 30
      0.0000
  0
SEQEND
  8
0
 62
7
  0
POLYLINE
  8
0
 62
7
 10
      0.0000
 20
      0.0000
 30
      0.0000
 66
  1
 70
  1
  0
VERTEX
  8
0
 62
7
 10
     14.9837
 20
     15.1396
 30
      0.0000
  0
VERTEX
  8
0
 62
7
 10
     14.9837
 20
     14.6396
 30
      0.0000
  0
VERTEX
  8
0
 62
7
 10
     16.3587
 20
     14.6396
 30
      0.0000
  0
VERTEX
  8
0
 62
7
 10
     16.3587
 20
     15.1396
 30
      0.0000
  0
SEQEND
  8
0
 62
7
  0
POLYLINE
  8
0
 62
7
 10
      0.0000
 20
      0.0000
 30
      0.0000
 66
  1
 70
  1
  0
VERTEX
  8
0
 62
7
 10
     13.9837
 20
      7.1175
 30
      0.0000
  0
VERTEX
  8
0
 62
7
 10
     13.9837
 20
      6.8675
 30
      0.0000
  0
VERTEX
  8
0
 62
7
 10
     14.9837
 20
      6.8675
 30
      0.0000
  0
VERTEX
  8
0
 62
7
 10
     14.9837
 20
      7.1175
 30
      0.0000
  0
SEQEND
  8
0
 62
7
  0
POLYLINE
  8
0
 62
7
 10
      0.0000
 20
      0.0000
 30
      0.0000
 66
  1
 70
  1
  0
VERTEX
  8
0
 62
7
 10
     13.4837
 20
      5.1786
 30
      0.0000
  0
VERTEX
  8
0
 62
7
 10
     13.2337
 20
      5.1786
 30
      0.0000
  0
VERTEX
  8
0
 62
7
 10
     13.2337
 20
     10.4969
 30
      0.0000
  0
VERTEX
  8
0
 62
7
 10
     13.4837
 20
     10.4969
 30
      0.0000
  0
VERTEX
  8
0
 62
7
 10
     13.4837
 20
     11.2469
 30
      0.0000
  0
VERTEX
  8
0
 62
7
 10
     13.2337
 20
     11.2469
 30
      0.0000
  0
VERTEX
  8
0
 62
7
 10
     13.2337
 20
     13.1396
 30
      0.0000
  0
VERTEX
  8
0
 62
7
 10
     11.6087
 20
     14.1396
 30
      0.0000
  0
VERTEX
  8
0
 62
7
 10
     11.6087
 20
     16.9644
 30
      0.0000
  0
VERTEX
  8
0
 62
7
 10
     12.6087
 20
     16.9644
 30
      0.0000
  0
VERTEX
  8
0
 62
7
 10
     12.6087
 20
     16.7144
 30
      0.0000
  0
VERTEX
  8
0
 62
7
 10
     13.9837
 20
     16.7144
 30
      0.0000
  0
VERTEX
  8
0
 62
7
 10
     13.9837
 20
     16.9644
 30
      0.0000
  0
VERTEX
  8
0
 62
7
 10
     14.9837
 20
     16.9644
 30
      0.0000
  0
VERTEX
  8
0
 62
7
 10
     14.9837
 20
     16.7144
 30
      0.0000
  0
VERTEX
  8
0
 62
7
 10
     16.3587
 20
     16.7144
 30
      0.0000
  0
VERTEX
  8
0
 62
7
 10
     16.3587
 20
     16.9644
 30
      0.0000
  0
VERTEX
  8
0
 62
7
 10
     17.3587
 20
     16.9644
 30
      0.0000
  0
VERTEX
  8
0
 62
7
 10
     17.3587
 20
     14.1396
 30
      0.0000
  0
VERTEX
  8
0
 62
7
 10
     15.7337
 20
     13.1396
 30
      0.0000
  0
VERTEX
  8
0
 62
7
 10
     15.7337
 20
      2.4896
 30
      0.0000
  0
VERTEX
  8
0
 62
7
 10
     14.9837
 20
      2.4896
 30
      0.0000
  0
VERTEX
  8
0
 62
7
 10
     14.9837
 20
      2.2396
 30
      0.0000
  0
VERTEX
  8
0
 62
7
 10
     13.9837
 20
      2.2396
 30
      0.0000
  0
VERTEX
  8
0
 62
7
 10
     13.9837
 20
      2.4896
 30
      0.0000
  0
VERTEX
  8
0
 62
7
 10
     13.2337
 20
      2.4896
 30
      0.0000
  0
VERTEX
  8
0
 62
7
 10
     13.2337
 20
      4.1786
 30
      0.0000
  0
VERTEX
  8
0
 62
7
 10
     13.4837
 20
      4.1786
 30
      0.0000
  0
SEQEND
  8
0
 62
7
  0
TEXT
  8
251
 62
13
 10
     13.0404
 20
      5.1786
 30
      0.0000
 40
      0.3183
 1
17
  0
POLYLINE
  8
0
 62
7
 10
      0.0000
 20
      0.0000
 30
      0.0000
 66
  1
 70
  1
  0
VERTEX
  8
0
 62
7
 10
     18.9837
 20
     11.2675
 30
      0.0000
  0
VERTEX
  8
0
 62
7
 10
     18.9837
 20
     11.0175
 30
      0.0000
  0
VERTEX
  8
0
 62
7
 10
     19.9837
 20
     11.0175
 30
      0.0000
  0
VERTEX
  8
0
 62
7
 10
     19.9837
 20
     11.2675
 30
      0.0000
  0
SEQEND
  8
0
 62
7
  0
POLYLINE
  8
0
 62
7
 10
      0.0000
 20
      0.0000
 30
      0.0000
 66
  1
 70
  1
  0
VERTEX
  8
0
 62
7
 10
     18.9837
 20
      6.6396
 30
      0.0000
  0
VERTEX
  8
0
 62
7
 10
     18.9837
 20
      6.3896
 30
      0.0000
  0
VERTEX
  8
0
 62
7
 10
     19.9837
 20
      6.3896
 30
      0.0000
  0
VERTEX
  8
0
 62
7
 10
     19.9837
 20
      6.6396
 30
      0.0000
  0
SEQEND
  8
0
 62
7
  0
POLYLINE
  8
0
 62
7
 10
      0.0000
 20
      0.0000
 30
      0.0000
 66
  1
 70
  1
  0
VERTEX
  8
0
 62
7
 10
     19.6087
 20
      3.9396
 30
      0.0000
  0
VERTEX
  8
0
 62
7
 10
     19.6087
 20
      4.9396
 30
      0.0000
  0
VERTEX
  8
0
 62
7
 10
     19.3587
 20
      4.9396
 30
      0.0000
  0
VERTEX
  8
0
 62
7
 10
     19.3587
 20
      3.9396
 30
      0.0000
  0
SEQEND
  8
0
 62
7
  0
POLYLINE
  8
0
 62
7
 10
      0.0000
 20
      0.0000
 30
      0.0000
 66
  1
 70
  1
  0
VERTEX
  8
0
 62
7
 10
     20.7337
 20
      2.4896
 30
      0.0000
  0
VERTEX
  8
0
 62
7
 10
     19.9837
 20
      2.4896
 30
      0.0000
  0
VERTEX
  8
0
 62
7
 10
     19.9837
 20
      1.9896
 30
      0.0000
  0
VERTEX
  8
0
 62
7
 10
     18.9837
 20
      1.9896
 30
      0.0000
  0
VERTEX
  8
0
 62
7
 10
     18.9837
 20
      2.4896
 30
      0.0000
  0
VERTEX
  8
0
 62
7
 10
     18.2337
 20
      2.4896
 30
      0.0000
  0
VERTEX
  8
0
 62
7
 10
     18.2337
 20
     13.1396
 30
      0.0000
  0
VERTEX
  8
0
 62
7
 10
     17.6087
 20
     14.1396
 30
      0.0000
  0
VERTEX
  8
0
 62
7
 10
     17.6087
 20
     15.1396
 30
      0.0000
  0
VERTEX
  8
0
 62
7
 10
     18.8587
 20
     15.1396
 30
      0.0000
  0
VERTEX
  8
0
 62
7
 10
     18.8587
 20
     14.8896
 30
      0.0000
  0
VERTEX
  8
0
 62
7
 10
     20.1087
 20
     14.8896
 30
      0.0000
  0
VERTEX
  8
0
 62
7
 10
     20.1087
 20
     15.1396
 30
      0.0000
  0
VERTEX
  8
0
 62
7
 10
     21.3587
 20
     15.1396
 30
      0.0000
  0
VERTEX
  8
0
 62
7
 10
     21.3587
 20
     14.1396
 30
      0.0000
  0
VERTEX
  8
0
 62
7
 10
     20.7337
 20
     13.1396
 30
      0.0000
  0
SEQEND
  8
0
 62
7
  0
TEXT
  8
251
 62
13
 10
     20.0404
 20
      2.4896
 30
      0.0000
 40
      0.3183
 1
18
  0
POLYLINE
  8
0
 62
7
 10
      0.0000
 20
      0.0000
 30
      0.0000
 66
  1
 70
  1
  0
VERTEX
  8
0
 62
7
 10
     18.6185
 20
     15.1396
 30
      0.0000
  0
VERTEX
  8
0
 62
7
 10
     18.6185
 20
     15.7380
 30
      0.0000
  0
VERTEX
  8
0
 62
7
 10
     17.6737
 20
     15.7380
 30
      0.0000
  0
VERTEX
  8
0
 62
7
 10
     17.6737
 20
     15.1396
 30
      0.0000
  0
VERTEX
  8
0
 62
7
 10
     17.3587
 20
     15.1396
 30
      0.0000
  0
VERTEX
  8
0
 62
7
 10
     17.3587
 20
     16.5412
 30
      0.0000
  0
VERTEX
  8
0
 62
7
 10
     17.8961
 20
     16.5412
 30
      0.0000
  0
VERTEX
  8
0
 62
7
 10
     17.8961
 20
     16.7912
 30
      0.0000
  0
VERTEX
  8
0
 62
7
 10
     18.3961
 20
     16.7912
 30
      0.0000
  0
VERTEX
  8
0
 62
7
 10
     18.3961
 20
     16.5412
 30
      0.0000
  0
VERTEX
  8
0
 62
7
 10
     18.9335
 20
     16.5412
 30
      0.0000
  0
VERTEX
  8
0
 62
7
 10
     18.9335
 20
     16.0904
 30
      0.0000
  0
VERTEX
  8
0
 62
7
 10
     19.1835
 20
     16.0904
 30
      0.0000
  0
VERTEX
  8
0
 62
7
 10
     19.1835
 20
     15.5904
 30
      0.0000
  0
VERTEX
  8
0
 62
7
 10
     18.9335
 20
     15.5904
 30
      0.0000
  0
VERTEX
  8
0
 62
7
 10
     18.9335
 20
     15.1396
 30
      0.0000
  0
SEQEND
  8
0
 62
7
  0
TEXT
  8
251
 62
13
 10
     18.4594
 20
     15.2797
 30
      0.0000
 40
      0.3183
 1
19
  0
POLYLINE
  8
0
 62
7
 10
      0.0000
 20
      0.0000
 30
      0.0000
 66
  1
 70
  1
  0
VERTEX
  8
0
 62
7
 10
     21.5220
 20
      0.6437
 30
      0.0000
  0
VERTEX
  8
0
 62
7
 10
     20.4797
 20
      0.6437
 30
      0.0000
  0
VERTEX
  8
0
 62
7
 10
     20.4797
 20
      0.8937
 30
      0.0000
  0
VERTEX
  8
0
 62
7
 10
     22.5643
 20
      4.5437
 30
      0.0000
  0
VERTEX
  8
0
 62
7
 10
     22.8768
 20
      4.5437
 30
      0.0000
  0
VERTEX
  8
0
 62
7
 10
     22.8768
 20
      4.7937
 30
      0.0000
  0
VERTEX
  8
0
 62
7
 10
     23.2518
 20
      4.7937
 30
      0.0000
  0
VERTEX
  8
0
 62
7
 10
     23.2518
 20
      4.5437
 30
      0.0000
  0
VERTEX
  8
0
 62
7
 10
     23.5643
 20
      4.5437
 30
      0.0000
  0
VERTEX
  8
0
 62
7
 10
     23.5643
 20
      3.0937
 30
      0.0000
  0
VERTEX
  8
0
 62
7
 10
     23.8143
 20
      3.0937
 30
      0.0000
  0
VERTEX
  8
0
 62
7
 10
     23.8143
 20
      2.0937
 30
      0.0000
  0
VERTEX
  8
0
 62
7
 10
     23.5643
 20
      2.0937
 30
      0.0000
  0
VERTEX
  8
0
 62
7
 10
     23.5643
 20
      0.6437
 30
      0.0000
  0
VERTEX
  8
0
 62
7
 10
     22.5220
 20
      0.6437
 30
      0.0000
  0
VERTEX
  8
0
 62
7
 10
     22.5220
 20
      0.3937
 30
      0.0000
  0
VERTEX
  8
0
 62
7
 10
     21.5220
 20
      0.3937
 30
      0.0000
  0
SEQEND
  8
0
 62
7
  0
TEXT
  8
251
 62
13
 10
     20.6826
 20
      0.6437
 30
      0.0000
 40
      0.3183
 1
20
  0
POLYLINE
  8
0
 62
7
 10
      0.0000
 20
      0.0000
 30
      0.0000
 66
  1
 70
  1
  0
VERTEX
  8
0
 62
7
 10
     22.5585
 20
      4.5335
 30
      0.0000
  0
VERTEX
  8
0
 62
7
 10
     20.9837
 20
      4.5335
 30
      0.0000
  0
VERTEX
  8
0
 62
7
 10
     20.9837
 20
      6.0335
 30
      0.0000
  0
VERTEX
  8
0
 62
7
 10
     20.7337
 20
      6.0335
 30
      0.0000
  0
VERTEX
  8
0
 62
7
 10
     20.7337
 20
      7.2835
 30
      0.0000
  0
VERTEX
  8
0
 62
7
 10
     20.9837
 20
      7.2835
 30
      0.0000
  0
VERTEX
  8
0
 62
7
 10
     20.9837
 20
     10.7896
 30
      0.0000
  0
VERTEX
  8
0
 62
7
 10
     20.7337
 20
     10.7896
 30
      0.0000
  0
VERTEX
  8
0
 62
7
 10
     20.7337
 20
     12.0396
 30
      0.0000
  0
VERTEX
  8
0
 62
7
 10
     20.9837
 20
     12.0396
 30
      0.0000
  0
VERTEX
  8
0
 62
7
 10
     20.9837
 20
     13.5396
 30
      0.0000
  0
VERTEX
  8
0
 62
7
 10
     22.5585
 20
     13.5396
 30
      0.0000
  0
VERTEX
  8
0
 62
7
 10
     22.5585
 20
     12.0396
 30
      0.0000
  0
VERTEX
  8
0
 62
7
 10
     22.8085
 20
     12.0396
 30
      0.0000
  0
VERTEX
  8
0
 62
7
 10
     22.8085
 20
     10.7896
 30
      0.0000
  0
VERTEX
  8
0
 62
7
 10
     22.5585
 20
     10.7896
 30
      0.0000
  0
VERTEX
  8
0
 62
7
 10
     22.5585
 20
      7.2835
 30
      0.0000
  0
VERTEX
  8
0
 62
7
 10
     22.8085
 20
      7.2835
 30
      0.0000
  0
VERTEX
  8
0
 62
7
 10
     22.8085
 20
      6.0335
 30
      0.0000
  0
VERTEX
  8
0
 62
7
 10
     22.5585
 20
      6.0335
 30
      0.0000
  0
SEQEND
  8
0
 62
7
  0
TEXT
  8
251
 62
13
 10
     21.4528
 20
      4.5335
 30
      0.0000
 40
      0.3183
 1
21
  0
POLYLINE
  8
0
 62
7
 10
      0.0000
 20
      0.0000
 30
      0.0000
 66
  1
 70
  1
  0
VERTEX
  8
0
 62
7
 10
     16.8138
 20
     17.7144
 30
      0.0000
  0
VERTEX
  8
0
 62
7
 10
     16.8138
 20
     18.7144
 30
      0.0000
  0
VERTEX
  8
0
 62
7
 10
     16.5638
 20
     18.7144
 30
      0.0000
  0
VERTEX
  8
0
 62
7
 10
     16.5638
 20
     17.7144
 30
      0.0000
  0
SEQEND
  8
0
 62
7
  0
POLYLINE
  8
0
 62
7
 10
      0.0000
 20
      0.0000
 30
      0.0000
 66
  1
 70
  1
  0
VERTEX
  8
0
 62
7
 10
     20.6858
 20
     17.5894
 30
      0.0000
  0
VERTEX
  8
0
 62
7
 10
     20.6858
 20
     18.8394
 30
      0.0000
  0
VERTEX
  8
0
 62
7
 10
     20.4358
 20
     18.8394
 30
      0.0000
  0
VERTEX
  8
0
 62
7
 10
     20.4358
 20
     17.5894
 30
      0.0000
  0
SEQEND
  8
0
 62
7
  0
POLYLINE
  8
0
 62
7
 10
      0.0000
 20
      0.0000
 30
      0.0000
 66
  1
 70
  1
  0
VERTEX
  8
0
 62
7
 10
     12.1858
 20
     17.7144
 30
      0.0000
  0
VERTEX
  8
0
 62
7
 10
     12.1858
 20
     18.7144
 30
      0.0000
  0
VERTEX
  8
0
 62
7
 10
     11.9358
 20
     18.7144
 30
      0.0000
  0
VERTEX
  8
0
 62
7
 10
     11.9358
 20
     19.4644
 30
      0.0000
  0
VERTEX
  8
0
 62
7
 10
     18.6858
 20
     19.4644
 30
      0.0000
  0
VERTEX
  8
0
 62
7
 10
     19.6858
 20
     20.0894
 30
      0.0000
  0
VERTEX
  8
0
 62
7
 10
     20.6858
 20
     20.0894
 30
      0.0000
  0
VERTEX
  8
0
 62
7
 10
     20.6858
 20
     21.0894
 30
      0.0000
  0
VERTEX
  8
0
 62
7
 10
     22.2606
 20
     21.0894
 30
      0.0000
  0
VERTEX
  8
0
 62
7
 10
     22.2606
 20
     20.0894
 30
      0.0000
  0
VERTEX
  8
0
 62
7
 10
     22.5106
 20
     20.0894
 30
      0.0000
  0
VERTEX
  8
0
 62
7
 10
     22.5106
 20
     18.8394
 30
      0.0000
  0
VERTEX
  8
0
 62
7
 10
     22.2606
 20
     18.8394
 30
      0.0000
  0
VERTEX
  8
0
 62
7
 10
     22.2606
 20
     17.5894
 30
      0.0000
  0
VERTEX
  8
0
 62
7
 10
     22.5106
 20
     17.5894
 30
      0.0000
  0
VERTEX
  8
0
 62
7
 10
     22.5106
 20
     16.3394
 30
      0.0000
  0
VERTEX
  8
0
 62
7
 10
     22.2606
 20
     16.3394
 30
      0.0000
  0
VERTEX
  8
0
 62
7
 10
     22.2606
 20
     15.5894
 30
      0.0000
  0
VERTEX
  8
0
 62
7
 10
     20.6858
 20
     15.5894
 30
      0.0000
  0
VERTEX
  8
0
 62
7
 10
     20.6858
 20
     16.3394
 30
      0.0000
  0
VERTEX
  8
0
 62
7
 10
     19.6858
 20
     16.3394
 30
      0.0000
  0
VERTEX
  8
0
 62
7
 10
     18.6858
 20
     16.9644
 30
      0.0000
  0
VERTEX
  8
0
 62
7
 10
     11.9358
 20
     16.9644
 30
      0.0000
  0
VERTEX
  8
0
 62
7
 10
     11.9358
 20
     17.7144
 30
      0.0000
  0
SEQEND
  8
0
 62
7
  0
TEXT
  8
251
 62
13
 10
     12.0267
 20
     18.0553
 30
      0.0000
 40
      0.3183
 1
22
  0
POLYLINE
  8
0
 62
7
 10
      0.0000
 20
      0.0000
 30
      0.0000
 66
  1
 70
  1
  0
VERTEX
  8
0
 62
7
 10
     14.5403
 20
     21.6334
 30
      0.0000
  0
VERTEX
  8
0
 62
7
 10
     14.2923
 20
     21.6646
 30
      0.0000
  0
VERTEX
  8
0
 62
7
 10
     14.2611
 20
     21.4165
 30
      0.0000
  0
VERTEX
  8
0
 62
7
 10
     14.5092
 20
     21.3854
 30
      0.0000
  0
SEQEND
  8
0
 62
7
  0
POLYLINE
  8
0
 62
7
 10
      0.0000
 20
      0.0000
 30
      0.0000
 66
  1
 70
  1
  0
VERTEX
  8
0
 62
7
 10
     13.6721
 20
     21.7424
 30
      0.0000
  0
VERTEX
  8
0
 62
7
 10
     13.4241
 20
     21.7736
 30
      0.0000
  0
VERTEX
  8
0
 62
7
 10
     13.3929
 20
     21.5255
 30
      0.0000
  0
VERTEX
  8
0
 62
7
 10
     13.6410
 20
     21.4944
 30
      0.0000
  0
SEQEND
  8
0
 62
7
  0
POLYLINE
  8
0
 62
7
 10
      0.0000
 20
      0.0000
 30
      0.0000
 66
  1
 70
  1
  0
VERTEX
  8
0
 62
7
 10
     14.7413
 20
     20.5743
 30
      0.0000
  0
VERTEX
  8
0
 62
7
 10
     13.1163
 20
     20.5743
 30
      0.0000
  0
VERTEX
  8
0
 62
7
 10
     13.1163
 20
     20.3233
 30
      0.0000
  0
VERTEX
  8
0
 62
7
 10
     12.4007
 20
     20.3233
 30
      0.0000
  0
VERTEX
  8
0
 62
7
 10
     12.4007
 20
     22.1481
 30
      0.0000
  0
VERTEX
  8
0
 62
7
 10
     12.7757
 20
     22.1481
 30
      0.0000
  0
VERTEX
  8
0
 62
7
 10
     12.7757
 20
     21.8981
 30
      0.0000
  0
VERTEX
  8
0
 62
7
 10
     13.7757
 20
     21.8981
 30
      0.0000
  0
VERTEX
  8
0
 62
7
 10
     13.7757
 20
     22.1481
 30
      0.0000
  0
VERTEX
  8
0
 62
7
 10
     14.1507
 20
     22.1481
 30
      0.0000
  0
VERTEX
  8
0
 62
7
 10
     14.1507
 20
     21.8981
 30
      0.0000
  0
VERTEX
  8
0
 62
7
 10
     14.7413
 20
     21.8981
 30
      0.0000
  0
SEQEND
  8
0
 62
7
  0
TEXT
  8
251
 62
13
 10
     13.6105
 20
     20.5743
 30
      0.0000
 40
      0.3183
 1
23
  0
POLYLINE
  8
0
 62
7
 10
      0.0000
 20
      0.0000
 30
      0.0000
 66
  1
 70
  1
  0
VERTEX
  8
0
 62
7
 10
     11.6948
 20
     20.0894
 30
      0.0000
  0
VERTEX
  8
0
 62
7
 10
     14.3228
 20
     20.0894
 30
      0.0000
 42
          0.4142130
  0
VERTEX
  8
0
 62
7
 10
     14.8228
 20
     20.5894
 30
      0.0000
  0
VERTEX
  8
0
 62
7
 10
     14.8228
 20
     21.6740
 30
      0.0000
 42
          0.4142136
  0
VERTEX
  8
0
 62
7
 10
     14.3228
 20
     22.1740
 30
      0.0000
  0
VERTEX
  8
0
 62
7
 10
     11.6948
 20
     22.1740
 30
      0.0000
 42
          0.4142147
  0
VERTEX
  8
0
 62
7
 10
     11.1948
 20
     21.6740
 30
      0.0000
  0
VERTEX
  8
0
 62
7
 10
     11.1948
 20
     20.5894
 30
      0.0000
 42
          0.4142141
  0
VERTEX
  8
0
 62
7
 10
     11.6948
 20
     20.0894
 30
      0.0000
  0
SEQEND
  8
0
 62
7
  0
POLYLINE
  8
0
 62
7
 10
      0.0000
 20
      0.0000
 30
      0.0000
 66
  1
 70
  1
  0
VERTEX
  8
0
 62
7
 10
     15.1978
 20
     20.6317
 30
      0.0000
  0
VERTEX
  8
0
 62
7
 10
     15.1978
 20
     19.7144
 30
      0.0000
  0
VERTEX
  8
0
 62
7
 10
     13.5088
 20
     19.7144
 30
      0.0000
  0
VERTEX
  8
0
 62
7
 10
     13.5088
 20
     19.4644
 30
      0.0000
  0
VERTEX
  8
0
 62
7
 10
     12.5088
 20
     19.4644
 30
      0.0000
  0
VERTEX
  8
0
 62
7
 10
     12.5088
 20
     19.7144
 30
      0.0000
  0
VERTEX
  8
0
 62
7
 10
     10.8198
 20
     19.7144
 30
      0.0000
  0
VERTEX
  8
0
 62
7
 10
     10.8198
 20
     20.6317
 30
      0.0000
  0
VERTEX
  8
0
 62
7
 10
     10.5698
 20
     20.6317
 30
      0.0000
  0
VERTEX
  8
0
 62
7
 10
     10.5698
 20
     21.6317
 30
      0.0000
  0
VERTEX
  8
0
 62
7
 10
     10.8198
 20
     21.6317
 30
      0.0000
  0
VERTEX
  8
0
 62
7
 10
     10.8198
 20
     22.5490
 30
      0.0000
  0
VERTEX
  8
0
 62
7
 10
     12.5088
 20
     22.5490
 30
      0.0000
  0
VERTEX
  8
0
 62
7
 10
     12.5088
 20
     22.7990
 30
      0.0000
  0
VERTEX
  8
0
 62
7
 10
     13.5088
 20
     22.7990
 30
      0.0000
  0
VERTEX
  8
0
 62
7
 10
     13.5088
 20
     22.5490
 30
      0.0000
  0
VERTEX
  8
0
 62
7
 10
     15.1978
 20
     22.5490
 30
      0.0000
  0
VERTEX
  8
0
 62
7
 10
     15.1978
 20
     21.6317
 30
      0.0000
  0
VERTEX
  8
0
 62
7
 10
     15.4478
 20
     21.6317
 30
      0.0000
  0
VERTEX
  8
0
 62
7
 10
     15.4478
 20
     20.6317
 30
      0.0000
  0
SEQEND
  8
0
 62
7
  0
TEXT
  8
251
 62
13
 10
     14.7204
 20
     20.0139
 30
      0.0000
 40
      0.3183
 1
24
  0
POLYLINE
  8
0
 62
7
 10
      0.0000
 20
      0.0000
 30
      0.0000
 66
  1
 70
  1
  0
VERTEX
  8
0
 62
7
 10
     17.0602
 20
     21.1211
 30
      0.0000
  0
VERTEX
  8
0
 62
7
 10
     17.0688
 20
     21.1117
 30
      0.0000
 42
          0.3174645
  0
VERTEX
  8
0
 62
7
 10
     17.0799
 20
     21.1093
 30
      0.0000
  0
VERTEX
  8
0
 62
7
 10
     17.1509
 20
     21.1503
 30
      0.0000
 42
         -0.3718250
  0
VERTEX
  8
0
 62
7
 10
     17.1586
 20
     21.1500
 30
      0.0000
  0
VERTEX
  8
0
 62
7
 10
     17.1853
 20
     21.1274
 30
      0.0000
 42
         -0.3717762
  0
VERTEX
  8
0
 62
7
 10
     17.1869
 20
     21.1198
 30
      0.0000
  0
VERTEX
  8
0
 62
7
 10
     17.1581
 20
     21.0431
 30
      0.0000
 42
          0.3175265
  0
VERTEX
  8
0
 62
7
 10
     17.1623
 20
     21.0325
 30
      0.0000
  0
VERTEX
  8
0
 62
7
 10
     17.1730
 20
     21.0256
 30
      0.0000
 42
          0.3175414
  0
VERTEX
  8
0
 62
7
 10
     17.1844
 20
     21.0262
 30
      0.0000
  0
VERTEX
  8
0
 62
7
 10
     17.2423
 20
     21.0842
 30
      0.0000
 42
         -0.3718330
  0
VERTEX
  8
0
 62
7
 10
     17.2498
 20
     21.0859
 30
      0.0000
  0
VERTEX
  8
0
 62
7
 10
     17.2815
 20
     21.0709
 30
      0.0000
 42
         -0.3716394
  0
VERTEX
  8
0
 62
7
 10
     17.2849
 20
     21.0640
 30
      0.0000
  0
VERTEX
  8
0
 62
7
 10
     17.2771
 20
     20.9825
 30
      0.0000
 42
          0.3174879
  0
VERTEX
  8
0
 62
7
 10
     17.2838
 20
     20.9733
 30
      0.0000
  0
VERTEX
  8
0
 62
7
 10
     17.2960
 20
     20.9694
 30
      0.0000
 42
          0.3175726
  0
VERTEX
  8
0
 62
7
 10
     17.3068
 20
     20.9730
 30
      0.0000
  0
VERTEX
  8
0
 62
7
 10
     17.3477
 20
     21.0439
 30
      0.0000
 42
         -0.3716395
  0
VERTEX
  8
0
 62
7
 10
     17.3545
 20
     21.0475
 30
      0.0000
  0
VERTEX
  8
0
 62
7
 10
     17.3890
 20
     21.0413
 30
      0.0000
 42
         -0.3717766
  0
VERTEX
  8
0
 62
7
 10
     17.3941
 20
     21.0355
 30
      0.0000
  0
VERTEX
  8
0
 62
7
 10
     17.4076
 20
     20.9547
 30
      0.0000
 42
          0.3174962
  0
VERTEX
  8
0
 62
7
 10
     17.4165
 20
     20.9476
 30
      0.0000
  0
VERTEX
  8
0
 62
7
 10
     17.4292
 20
     20.9470
 30
      0.0000
 42
          0.3175337
  0
VERTEX
  8
0
 62
7
 10
     17.4388
 20
     20.9532
 30
      0.0000
  0
VERTEX
  8
0
 62
7
 10
     17.4600
 20
     21.0324
 30
      0.0000
 42
         -0.3717305
  0
VERTEX
  8
0
 62
7
 10
     17.4656
 20
     21.0376
 30
      0.0000
  0
VERTEX
  8
0
 62
7
 10
     17.5005
 20
     21.0405
 30
      0.0000
 42
         -0.3717889
  0
VERTEX
  8
0
 62
7
 10
     17.5069
 20
     21.0363
 30
      0.0000
  0
VERTEX
  8
0
 62
7
 10
     17.5409
 20
     20.9617
 30
      0.0000
 42
          0.3175412
  0
VERTEX
  8
0
 62
7
 10
     17.5513
 20
     20.9571
 30
      0.0000
  0
VERTEX
  8
0
 62
7
 10
     17.5638
 20
     20.9598
 30
      0.0000
 42
          0.3174925
  0
VERTEX
  8
0
 62
7
 10
     17.5714
 20
     20.9683
 30
      0.0000
  0
VERTEX
  8
0
 62
7
 10
     17.5714
 20
     21.0502
 30
      0.0000
 42
         -0.3717369
  0
VERTEX
  8
0
 62
7
 10
     17.5755
 20
     21.0568
 30
      0.0000
  0
VERTEX
  8
0
 62
7
 10
     17.6084
 20
     21.0686
 30
      0.0000
 42
         -0.3718205
  0
VERTEX
  8
0
 62
7
 10
     17.6157
 20
     21.0661
 30
      0.0000
  0
VERTEX
  8
0
 62
7
 10
     17.6678
 20
     21.0029
 30
      0.0000
 42
          0.3175707
  0
VERTEX
  8
0
 62
7
 10
     17.6791
 20
     21.0012
 30
      0.0000
  0
VERTEX
  8
0
 62
7
 10
     17.6904
 20
     21.0071
 30
      0.0000
 42
          0.3175459
  0
VERTEX
  8
0
 62
7
 10
     17.6956
 20
     21.0172
 30
      0.0000
  0
VERTEX
  8
0
 62
7
 10
     17.6743
 20
     21.0963
 30
      0.0000
 42
         -0.3718866
  0
VERTEX
  8
0
 62
7
 10
     17.6766
 20
     21.1037
 30
      0.0000
  0
VERTEX
  8
0
 62
7
 10
     17.7054
 20
     21.1236
 30
      0.0000
 42
         -0.3718447
  0
VERTEX
  8
0
 62
7
 10
     17.7131
 20
     21.1232
 30
      0.0000
  0
VERTEX
  8
0
 62
7
 10
     17.7798
 20
     21.0756
 30
      0.0000
 42
          0.3175798
  0
VERTEX
  8
0
 62
7
 10
     17.7911
 20
     21.0768
 30
      0.0000
  0
VERTEX
  8
0
 62
7
 10
     17.8005
 20
     21.0854
 30
      0.0000
 42
          0.3175247
  0
VERTEX
  8
0
 62
7
 10
     17.8029
 20
     21.0965
 30
      0.0000
  0
VERTEX
  8
0
 62
7
 10
     17.7619
 20
     21.1675
 30
      0.0000
 42
         -0.3718915
  0
VERTEX
  8
0
 62
7
 10
     17.7622
 20
     21.1752
 30
      0.0000
  0
VERTEX
  8
0
 62
7
 10
     17.7848
 20
     21.2019
 30
      0.0000
 42
         -0.3717034
  0
VERTEX
  8
0
 62
7
 10
     17.7924
 20
     21.2035
 30
      0.0000
  0
VERTEX
  8
0
 62
7
 10
     17.8691
 20
     21.1748
 30
      0.0000
 42
          0.3176356
  0
VERTEX
  8
0
 62
7
 10
     17.8797
 20
     21.1789
 30
      0.0000
  0
VERTEX
  8
0
 62
7
 10
     17.8866
 20
     21.1896
 30
      0.0000
 42
          0.3175414
  0
VERTEX
  8
0
 62
7
 10
     17.8860
 20
     21.2010
 30
      0.0000
  0
VERTEX
  8
0
 62
7
 10
     17.8280
 20
     21.2589
 30
      0.0000
 42
         -0.3718330
  0
VERTEX
  8
0
 62
7
 10
     17.8263
 20
     21.2664
 30
      0.0000
  0
VERTEX
  8
0
 62
7
 10
     17.8412
 20
     21.2981
 30
      0.0000
 42
         -0.3718668
  0
VERTEX
  8
0
 62
7
 10
     17.8481
 20
     21.3015
 30
      0.0000
  0
VERTEX
  8
0
 62
7
 10
     17.9297
 20
     21.2937
 30
      0.0000
 42
          0.3175260
  0
VERTEX
  8
0
 62
7
 10
     17.9388
 20
     21.3004
 30
      0.0000
  0
VERTEX
  8
0
 62
7
 10
     17.9427
 20
     21.3126
 30
      0.0000
 42
          0.3174980
  0
VERTEX
  8
0
 62
7
 10
     17.9392
 20
     21.3234
 30
      0.0000
  0
VERTEX
  8
0
 62
7
 10
     17.8683
 20
     21.3643
 30
      0.0000
 42
         -0.3716730
  0
VERTEX
  8
0
 62
7
 10
     17.8647
 20
     21.3712
 30
      0.0000
  0
VERTEX
  8
0
 62
7
 10
     17.8709
 20
     21.4056
 30
      0.0000
 42
         -0.3716079
  0
VERTEX
  8
0
 62
7
 10
     17.8766
 20
     21.4107
 30
      0.0000
  0
VERTEX
  8
0
 62
7
 10
     17.9575
 20
     21.4242
 30
      0.0000
 42
          0.3175346
  0
VERTEX
  8
0
 62
7
 10
     17.9646
 20
     21.4331
 30
      0.0000
  0
VERTEX
  8
0
 62
7
 10
     17.9652
 20
     21.4458
 30
      0.0000
 42
          0.3175816
  0
VERTEX
  8
0
 62
7
 10
     17.9590
 20
     21.4554
 30
      0.0000
  0
VERTEX
  8
0
 62
7
 10
     17.8798
 20
     21.4766
 30
      0.0000
 42
         -0.3718255
  0
VERTEX
  8
0
 62
7
 10
     17.8746
 20
     21.4822
 30
      0.0000
  0
VERTEX
  8
0
 62
7
 10
     17.8717
 20
     21.5171
 30
      0.0000
 42
         -0.3719144
  0
VERTEX
  8
0
 62
7
 10
     17.8759
 20
     21.5235
 30
      0.0000
  0
VERTEX
  8
0
 62
7
 10
     17.9505
 20
     21.5575
 30
      0.0000
 42
          0.3175646
  0
VERTEX
  8
0
 62
7
 10
     17.9551
 20
     21.5679
 30
      0.0000
  0
VERTEX
  8
0
 62
7
 10
     17.9523
 20
     21.5804
 30
      0.0000
 42
          0.3175035
  0
VERTEX
  8
0
 62
7
 10
     17.9439
 20
     21.5880
 30
      0.0000
  0
VERTEX
  8
0
 62
7
 10
     17.8620
 20
     21.5880
 30
      0.0000
 42
         -0.3717369
  0
VERTEX
  8
0
 62
7
 10
     17.8554
 20
     21.5921
 30
      0.0000
  0
VERTEX
  8
0
 62
7
 10
     17.8436
 20
     21.6250
 30
      0.0000
 42
         -0.3718934
  0
VERTEX
  8
0
 62
7
 10
     17.8460
 20
     21.6323
 30
      0.0000
  0
VERTEX
  8
0
 62
7
 10
     17.9093
 20
     21.6844
 30
      0.0000
 42
          0.3175268
  0
VERTEX
  8
0
 62
7
 10
     17.9110
 20
     21.6957
 30
      0.0000
  0
VERTEX
  8
0
 62
7
 10
     17.9051
 20
     21.7070
 30
      0.0000
 42
          0.3174966
  0
VERTEX
  8
0
 62
7
 10
     17.8950
 20
     21.7122
 30
      0.0000
  0
VERTEX
  8
0
 62
7
 10
     17.8159
 20
     21.6910
 30
      0.0000
 42
         -0.3716098
  0
VERTEX
  8
0
 62
7
 10
     17.8085
 20
     21.6932
 30
      0.0000
  0
VERTEX
  8
0
 62
7
 10
     17.7885
 20
     21.7220
 30
      0.0000
 42
         -0.3719076
  0
VERTEX
  8
0
 62
7
 10
     17.7890
 20
     21.7297
 30
      0.0000
  0
VERTEX
  8
0
 62
7
 10
     17.8366
 20
     21.7964
 30
      0.0000
 42
          0.3175368
  0
VERTEX
  8
0
 62
7
 10
     17.8353
 20
     21.8077
 30
      0.0000
  0
VERTEX
  8
0
 62
7
 10
     17.8268
 20
     21.8171
 30
      0.0000
 42
          0.3174043
  0
VERTEX
  8
0
 62
7
 10
     17.8156
 20
     21.8195
 30
      0.0000
  0
VERTEX
  8
0
 62
7
 10
     17.7447
 20
     21.7785
 30
      0.0000
 42
         -0.3718778
  0
VERTEX
  8
0
 62
7
 10
     17.7370
 20
     21.7788
 30
      0.0000
  0
VERTEX
  8
0
 62
7
 10
     17.7103
 20
     21.8014
 30
      0.0000
 42
         -0.3718452
  0
VERTEX
  8
0
 62
7
 10
     17.7087
 20
     21.8090
 30
      0.0000
  0
VERTEX
  8
0
 62
7
 10
     17.7374
 20
     21.8857
 30
      0.0000
 42
          0.3175265
  0
VERTEX
  8
0
 62
7
 10
     17.7333
 20
     21.8963
 30
      0.0000
  0
VERTEX
  8
0
 62
7
 10
     17.7225
 20
     21.9032
 30
      0.0000
 42
          0.3175117
  0
VERTEX
  8
0
 62
7
 10
     17.7112
 20
     21.9026
 30
      0.0000
  0
VERTEX
  8
0
 62
7
 10
     17.6533
 20
     21.8446
 30
      0.0000
 42
         -0.3719768
  0
VERTEX
  8
0
 62
7
 10
     17.6457
 20
     21.8429
 30
      0.0000
  0
VERTEX
  8
0
 62
7
 10
     17.6141
 20
     21.8579
 30
      0.0000
 42
         -0.3717595
  0
VERTEX
  8
0
 62
7
 10
     17.6106
 20
     21.8648
 30
      0.0000
  0
VERTEX
  8
0
 62
7
 10
     17.6185
 20
     21.9463
 30
      0.0000
 42
          0.3174514
  0
VERTEX
  8
0
 62
7
 10
     17.6118
 20
     21.9555
 30
      0.0000
  0
VERTEX
  8
0
 62
7
 10
     17.5996
 20
     21.9594
 30
      0.0000
 42
          0.3174713
  0
VERTEX
  8
0
 62
7
 10
     17.5888
 20
     21.9558
 30
      0.0000
  0
VERTEX
  8
0
 62
7
 10
     17.5479
 20
     21.8849
 30
      0.0000
 42
         -0.3719079
  0
VERTEX
  8
0
 62
7
 10
     17.5410
 20
     21.8813
 30
      0.0000
  0
VERTEX
  8
0
 62
7
 10
     17.5066
 20
     21.8875
 30
      0.0000
 42
         -0.3716968
  0
VERTEX
  8
0
 62
7
 10
     17.5015
 20
     21.8933
 30
      0.0000
  0
VERTEX
  8
0
 62
7
 10
     17.4880
 20
     21.9741
 30
      0.0000
 42
          0.3174833
  0
VERTEX
  8
0
 62
7
 10
     17.4791
 20
     21.9812
 30
      0.0000
  0
VERTEX
  8
0
 62
7
 10
     17.4663
 20
     21.9818
 30
      0.0000
 42
          0.3175497
  0
VERTEX
  8
0
 62
7
 10
     17.4568
 20
     21.9756
 30
      0.0000
  0
VERTEX
  8
0
 62
7
 10
     17.4356
 20
     21.8964
 30
      0.0000
 42
         -0.3716419
  0
VERTEX
  8
0
 62
7
 10
     17.4300
 20
     21.8912
 30
      0.0000
  0
VERTEX
  8
0
 62
7
 10
     17.3951
 20
     21.8883
 30
      0.0000
 42
         -0.3719025
  0
VERTEX
  8
0
 62
7
 10
     17.3886
 20
     21.8925
 30
      0.0000
  0
VERTEX
  8
0
 62
7
 10
     17.3547
 20
     21.9671
 30
      0.0000
 42
          0.3175935
  0
VERTEX
  8
0
 62
7
 10
     17.3443
 20
     21.9717
 30
      0.0000
  0
VERTEX
  8
0
 62
7
 10
     17.3318
 20
     21.9690
 30
      0.0000
 42
          0.3176022
  0
VERTEX
  8
0
 62
7
 10
     17.3242
 20
     21.9605
 30
      0.0000
  0
VERTEX
  8
0
 62
7
 10
     17.3242
 20
     21.8786
 30
      0.0000
 42
         -0.3717369
  0
VERTEX
  8
0
 62
7
 10
     17.3201
 20
     21.8720
 30
      0.0000
  0
VERTEX
  8
0
 62
7
 10
     17.2872
 20
     21.8602
 30
      0.0000
 42
         -0.3717066
  0
VERTEX
  8
0
 62
7
 10
     17.2798
 20
     21.8626
 30
      0.0000
  0
VERTEX
  8
0
 62
7
 10
     17.2278
 20
     21.9259
 30
      0.0000
 42
          0.3174621
  0
VERTEX
  8
0
 62
7
 10
     17.2165
 20
     21.9276
 30
      0.0000
  0
VERTEX
  8
0
 62
7
 10
     17.2052
 20
     21.9217
 30
      0.0000
 42
          0.3175459
  0
VERTEX
  8
0
 62
7
 10
     17.2000
 20
     21.9116
 30
      0.0000
  0
VERTEX
  8
0
 62
7
 10
     17.2212
 20
     21.8325
 30
      0.0000
 42
         -0.3718866
  0
VERTEX
  8
0
 62
7
 10
     17.2190
 20
     21.8251
 30
      0.0000
  0
VERTEX
  8
0
 62
7
 10
     17.1902
 20
     21.8052
 30
      0.0000
 42
         -0.3717877
  0
VERTEX
  8
0
 62
7
 10
     17.1825
 20
     21.8056
 30
      0.0000
  0
VERTEX
  8
0
 62
7
 10
     17.1158
 20
     21.8532
 30
      0.0000
 42
          0.3175581
  0
VERTEX
  8
0
 62
7
 10
     17.1045
 20
     21.8520
 30
      0.0000
  0
VERTEX
  8
0
 62
7
 10
     17.0951
 20
     21.8434
 30
      0.0000
 42
          0.3175609
  0
VERTEX
  8
0
 62
7
 10
     17.0927
 20
     21.8322
 30
      0.0000
  0
VERTEX
  8
0
 62
7
 10
     17.1337
 20
     21.7613
 30
      0.0000
 42
         -0.3718869
  0
VERTEX
  8
0
 62
7
 10
     17.1334
 20
     21.7536
 30
      0.0000
  0
VERTEX
  8
0
 62
7
 10
     17.1108
 20
     21.7269
 30
      0.0000
 42
         -0.3717762
  0
VERTEX
  8
0
 62
7
 10
     17.1032
 20
     21.7253
 30
      0.0000
  0
VERTEX
  8
0
 62
7
 10
     17.0265
 20
     21.7540
 30
      0.0000
 42
          0.3176135
  0
VERTEX
  8
0
 62
7
 10
     17.0159
 20
     21.7499
 30
      0.0000
  0
VERTEX
  8
0
 62
7
 10
     17.0090
 20
     21.7392
 30
      0.0000
 42
          0.3175765
  0
VERTEX
  8
0
 62
7
 10
     17.0096
 20
     21.7278
 30
      0.0000
  0
VERTEX
  8
0
 62
7
 10
     17.0675
 20
     21.6699
 30
      0.0000
 42
         -0.3719768
  0
VERTEX
  8
0
 62
7
 10
     17.0693
 20
     21.6624
 30
      0.0000
  0
VERTEX
  8
0
 62
7
 10
     17.0543
 20
     21.6307
 30
      0.0000
 42
         -0.3717595
  0
VERTEX
  8
0
 62
7
 10
     17.0474
 20
     21.6272
 30
      0.0000
  0
VERTEX
  8
0
 62
7
 10
     16.9659
 20
     21.6351
 30
      0.0000
 42
          0.3175260
  0
VERTEX
  8
0
 62
7
 10
     16.9567
 20
     21.6284
 30
      0.0000
  0
VERTEX
  8
0
 62
7
 10
     16.9528
 20
     21.6162
 30
      0.0000
 42
          0.3174980
  0
VERTEX
  8
0
 62
7
 10
     16.9564
 20
     21.6054
 30
      0.0000
  0
VERTEX
  8
0
 62
7
 10
     17.0273
 20
     21.5645
 30
      0.0000
 42
         -0.3718145
  0
VERTEX
  8
0
 62
7
 10
     17.0309
 20
     21.5576
 30
      0.0000
  0
VERTEX
  8
0
 62
7
 10
     17.0247
 20
     21.5232
 30
      0.0000
 42
         -0.3717760
  0
VERTEX
  8
0
 62
7
 10
     17.0189
 20
     21.5181
 30
      0.0000
  0
VERTEX
  8
0
 62
7
 10
     16.9381
 20
     21.5046
 30
      0.0000
 42
          0.3175218
  0
VERTEX
  8
0
 62
7
 10
     16.9310
 20
     21.4957
 30
      0.0000
  0
VERTEX
  8
0
 62
7
 10
     16.9304
 20
     21.4829
 30
      0.0000
 42
          0.3175497
  0
VERTEX
  8
0
 62
7
 10
     16.9366
 20
     21.4734
 30
      0.0000
  0
VERTEX
  8
0
 62
7
 10
     17.0158
 20
     21.4522
 30
      0.0000
 42
         -0.3718250
  0
VERTEX
  8
0
 62
7
 10
     17.0210
 20
     21.4466
 30
      0.0000
  0
VERTEX
  8
0
 62
7
 10
     17.0239
 20
     21.4117
 30
      0.0000
 42
         -0.3719144
  0
VERTEX
  8
0
 62
7
 10
     17.0196
 20
     21.4053
 30
      0.0000
  0
VERTEX
  8
0
 62
7
 10
     16.9451
 20
     21.3713
 30
      0.0000
 42
          0.3175370
  0
VERTEX
  8
0
 62
7
 10
     16.9405
 20
     21.3609
 30
      0.0000
  0
VERTEX
  8
0
 62
7
 10
     16.9432
 20
     21.3484
 30
      0.0000
 42
          0.3175035
  0
VERTEX
  8
0
 62
7
 10
     16.9517
 20
     21.3408
 30
      0.0000
  0
VERTEX
  8
0
 62
7
 10
     17.0336
 20
     21.3408
 30
      0.0000
 42
         -0.3719055
  0
VERTEX
  8
0
 62
7
 10
     17.0402
 20
     21.3367
 30
      0.0000
  0
VERTEX
  8
0
 62
7
 10
     17.0520
 20
     21.3038
 30
      0.0000
 42
         -0.3718145
  0
VERTEX
  8
0
 62
7
 10
     17.0495
 20
     21.2965
 30
      0.0000
  0
VERTEX
  8
0
 62
7
 10
     16.9863
 20
     21.2444
 30
      0.0000
 42
          0.3174660
  0
VERTEX
  8
0
 62
7
 10
     16.9846
 20
     21.2331
 30
      0.0000
  0
VERTEX
  8
0
 62
7
 10
     16.9904
 20
     21.2218
 30
      0.0000
 42
          0.3175536
  0
VERTEX
  8
0
 62
7
 10
     17.0006
 20
     21.2166
 30
      0.0000
  0
VERTEX
  8
0
 62
7
 10
     17.0797
 20
     21.2378
 30
      0.0000
 42
         -0.3717662
  0
VERTEX
  8
0
 62
7
 10
     17.0871
 20
     21.2356
 30
      0.0000
  0
VERTEX
  8
0
 62
7
 10
     17.1070
 20
     21.2068
 30
      0.0000
 42
         -0.3719146
  0
VERTEX
  8
0
 62
7
 10
     17.1066
 20
     21.1991
 30
      0.0000
  0
VERTEX
  8
0
 62
7
 10
     17.0590
 20
     21.1324
 30
      0.0000
 42
          0.3175513
  0
VERTEX
  8
0
 62
7
 10
     17.0602
 20
     21.1211
 30
      0.0000
  0
SEQEND
  8
0
 62
7
  0
POLYLINE
  8
0
 62
7
 10
      0.0000
 20
      0.0000
 30
      0.0000
 66
  1
 70
  1
  0
VERTEX
  8
0
 62
7
 10
     18.2667
 20
     22.2458
 30
      0.0000
  0
VERTEX
  8
0
 62
7
 10
     18.0752
 20
     22.4065
 30
      0.0000
  0
VERTEX
  8
0
 62
7
 10
     17.9145
 20
     22.2150
 30
      0.0000
  0
VERTEX
  8
0
 62
7
 10
     18.1060
 20
     22.0543
 30
      0.0000
  0
SEQEND
  8
0
 62
7
  0
POLYLINE
  8
0
 62
7
 10
      0.0000
 20
      0.0000
 30
      0.0000
 66
  1
 70
  1
  0
VERTEX
  8
0
 62
7
 10
     16.6289
 20
     22.2458
 30
      0.0000
  0
VERTEX
  8
0
 62
7
 10
     16.7896
 20
     22.0543
 30
      0.0000
  0
VERTEX
  8
0
 62
7
 10
     16.9811
 20
     22.2150
 30
      0.0000
  0
VERTEX
  8
0
 62
7
 10
     16.8204
 20
     22.4065
 30
      0.0000
  0
SEQEND
  8
0
 62
7
  0
CIRCLE
  8
0
 62
7
 10
     17.4478
 20
     22.7144
 30
      0.0000
 40
      0.4035
  0
CIRCLE
  8
0
 62
7
 10
     17.4478
 20
     21.4644
 30
      0.0000
 40
      2.0000
  0
TEXT
  8
251
 62
13
 10
     17.1295
 20
     23.1461
 30
      0.0000
 40
      0.3183
 1
25
  0
POLYLINE
  8
0
 62
7
 10
      0.0000
 20
      0.0000
 30
      0.0000
 66
  1
 70
  1
  0
VERTEX
  8
0
 62
7
 10
     19.6978
 20
     21.1465
 30
      0.0000
  0
VERTEX
  8
0
 62
7
 10
     19.6978
 20
     20.8965
 30
      0.0000
  0
VERTEX
  8
0
 62
7
 10
     20.1978
 20
     20.8965
 30
      0.0000
  0
VERTEX
  8
0
 62
7
 10
     20.1978
 20
     21.1465
 30
      0.0000
  0
SEQEND
  8
0
 62
7
  0
POLYLINE
  8
0
 62
7
 10
      0.0000
 20
      0.0000
 30
      0.0000
 66
  1
 70
  1
  0
VERTEX
  8
0
 62
7
 10
     20.1978
 20
     20.3394
 30
      0.0000
  0
VERTEX
  8
0
 62
7
 10
     20.1978
 20
     20.0894
 30
      0.0000
  0
VERTEX
  8
0
 62
7
 10
     19.6978
 20
     20.0894
 30
      0.0000
  0
VERTEX
  8
0
 62
7
 10
     19.6978
 20
     20.3394
 30
      0.0000
  0
VERTEX
  8
0
 62
7
 10
     19.4478
 20
     20.3394
 30
      0.0000
  0
VERTEX
  8
0
 62
7
 10
     19.4478
 20
     21.9142
 30
      0.0000
  0
VERTEX
  8
0
 62
7
 10
     19.6978
 20
     21.9142
 30
      0.0000
  0
VERTEX
  8
0
 62
7
 10
     19.6978
 20
     22.1642
 30
      0.0000
  0
VERTEX
  8
0
 62
7
 10
     20.1978
 20
     22.1642
 30
      0.0000
  0
VERTEX
  8
0
 62
7
 10
     20.1978
 20
     21.9142
 30
      0.0000
  0
VERTEX
  8
0
 62
7
 10
     20.4478
 20
     21.9142
 30
      0.0000
  0
VERTEX
  8
0
 62
7
 10
     20.4478
 20
     20.3394
 30
      0.0000
  0
SEQEND
  8
0
 62
7
  0
TEXT
  8
251
 62
13
 10
     19.7204
 20
     20.0553
 30
      0.0000
 40
      0.3183
 1
26
  0
POLYLINE
  8
0
 62
7
 10
      0.0000
 20
      0.0000
 30
      0.0000
 66
  1
 70
  1
  0
VERTEX
  8
0
 62
7
 10
     24.9068
 20
      5.1803
 30
      0.0000
  0
VERTEX
  8
0
 62
7
 10
     24.9068
 20
      4.9303
 30
      0.0000
  0
VERTEX
  8
0
 62
7
 10
     24.8009
 20
      4.9303
 30
      0.0000
 42
          0.5209738
  0
VERTEX
  8
0
 62
7
 10
     24.3900
 20
      4.3427
 30
      0.0000
 42
         -0.5209850
  0
VERTEX
  8
0
 62
7
 10
     24.3430
 20
      4.2755
 30
      0.0000
  0
VERTEX
  8
0
 62
7
 10
     24.1224
 20
      4.2755
 30
      0.0000
  0
VERTEX
  8
0
 62
7
 10
     24.1224
 20
      4.0255
 30
      0.0000
  0
VERTEX
  8
0
 62
7
 10
     23.8724
 20
      4.0255
 30
      0.0000
  0
VERTEX
  8
0
 62
7
 10
     23.8724
 20
      4.2755
 30
      0.0000
  0
VERTEX
  8
0
 62
7
 10
     23.6518
 20
      4.2755
 30
      0.0000
 42
         -0.5209850
  0
VERTEX
  8
0
 62
7
 10
     23.6048
 20
      4.3427
 30
      0.0000
 42
          0.5209749
  0
VERTEX
  8
0
 62
7
 10
     23.1939
 20
      4.9303
 30
      0.0000
  0
VERTEX
  8
0
 62
7
 10
     23.0880
 20
      4.9303
 30
      0.0000
  0
VERTEX
  8
0
 62
7
 10
     23.0880
 20
      5.1803
 30
      0.0000
  0
VERTEX
  8
0
 62
7
 10
     23.6849
 20
      5.1803
 30
      0.0000
  0
VERTEX
  8
0
 62
7
 10
     23.6849
 20
      5.4303
 30
      0.0000
  0
VERTEX
  8
0
 62
7
 10
     24.3099
 20
      5.4303
 30
      0.0000
  0
VERTEX
  8
0
 62
7
 10
     24.3099
 20
      5.1803
 30
      0.0000
  0
SEQEND
  8
0
 62
7
  0
TEXT
  8
251
 62
13
 10
     24.4294
 20
      4.8962
 30
      0.0000
 40
      0.3183
 1
27
  0
POLYLINE
  8
0
 62
7
 10
      0.0000
 20
      0.0000
 30
      0.0000
 66
  1
 70
  1
  0
VERTEX
  8
0
 62
7
 10
     24.6176
 20
      6.7177
 30
      0.0000
  0
VERTEX
  8
0
 62
7
 10
     24.3676
 20
      6.7177
 30
      0.0000
  0
VERTEX
  8
0
 62
7
 10
     24.3676
 20
      6.2177
 30
      0.0000
  0
VERTEX
  8
0
 62
7
 10
     24.6176
 20
      6.2177
 30
      0.0000
  0
VERTEX
  8
0
 62
7
 10
     24.6176
 20
      5.6803
 30
      0.0000
  0
VERTEX
  8
0
 62
7
 10
     24.2130
 20
      5.6803
 30
      0.0000
  0
VERTEX
  8
0
 62
7
 10
     24.2130
 20
      5.4303
 30
      0.0000
  0
VERTEX
  8
0
 62
7
 10
     23.7130
 20
      5.4303
 30
      0.0000
  0
VERTEX
  8
0
 62
7
 10
     23.7130
 20
      5.6803
 30
      0.0000
  0
VERTEX
  8
0
 62
7
 10
     22.8085
 20
      5.6803
 30
      0.0000
  0
VERTEX
  8
0
 62
7
 10
     22.8085
 20
      6.0110
 30
      0.0000
  0
VERTEX
  8
0
 62
7
 10
     23.1235
 20
      6.0110
 30
      0.0000
  0
VERTEX
  8
0
 62
7
 10
     23.1235
 20
      6.9244
 30
      0.0000
  0
VERTEX
  8
0
 62
7
 10
     22.8085
 20
      6.9244
 30
      0.0000
  0
VERTEX
  8
0
 62
7
 10
     22.8085
 20
      7.2551
 30
      0.0000
  0
VERTEX
  8
0
 62
7
 10
     23.7130
 20
      7.2551
 30
      0.0000
  0
VERTEX
  8
0
 62
7
 10
     23.7130
 20
      7.5051
 30
      0.0000
  0
VERTEX
  8
0
 62
7
 10
     24.2130
 20
      7.5051
 30
      0.0000
  0
VERTEX
  8
0
 62
7
 10
     24.2130
 20
      7.2551
 30
      0.0000
  0
VERTEX
  8
0
 62
7
 10
     24.6176
 20
      7.2551
 30
      0.0000
  0
SEQEND
  8
0
 62
7
  0
TEXT
  8
251
 62
13
 10
     24.1743
 20
      6.7177
 30
      0.0000
 40
      0.3183
 1
28
  0
POLYLINE
  8
0
 62
7
 10
      0.0000
 20
      0.0000
 30
      0.0000
 66
  1
 70
  1
  0
VERTEX
  8
0
 62
7
 10
     23.1235
 20
      7.8201
 30
      0.0000
  0
VERTEX
  8
0
 62
7
 10
     24.0369
 20
      7.8201
 30
      0.0000
  0
VERTEX
  8
0
 62
7
 10
     24.0369
 20
      8.1351
 30
      0.0000
  0
VERTEX
  8
0
 62
7
 10
     23.1235
 20
      8.1351
 30
      0.0000
  0
SEQEND
  8
0
 62
7
  0
POLYLINE
  8
0
 62
7
 10
      0.0000
 20
      0.0000
 30
      0.0000
 66
  1
 70
  1
  0
VERTEX
  8
0
 62
7
 10
     24.0369
 20
      8.4500
 30
      0.0000
  0
VERTEX
  8
0
 62
7
 10
     24.0369
 20
      8.7650
 30
      0.0000
  0
VERTEX
  8
0
 62
7
 10
     23.1235
 20
      8.7650
 30
      0.0000
  0
VERTEX
  8
0
 62
7
 10
     23.1235
 20
      8.4500
 30
      0.0000
  0
SEQEND
  8
0
 62
7
  0
POLYLINE
  8
0
 62
7
 10
      0.0000
 20
      0.0000
 30
      0.0000
 66
  1
 70
  1
  0
VERTEX
  8
0
 62
7
 10
     22.8085
 20
      7.9776
 30
      0.0000
  0
VERTEX
  8
0
 62
7
 10
     22.8085
 20
      8.6075
 30
      0.0000
  0
VERTEX
  8
0
 62
7
 10
     22.5585
 20
      8.6075
 30
      0.0000
  0
VERTEX
  8
0
 62
7
 10
     22.5585
 20
      9.0799
 30
      0.0000
  0
VERTEX
  8
0
 62
7
 10
     23.0802
 20
      9.0799
 30
      0.0000
  0
VERTEX
  8
0
 62
7
 10
     23.0802
 20
      9.3299
 30
      0.0000
  0
VERTEX
  8
0
 62
7
 10
     23.5802
 20
      9.3299
 30
      0.0000
  0
VERTEX
  8
0
 62
7
 10
     23.5802
 20
      9.0799
 30
      0.0000
  0
VERTEX
  8
0
 62
7
 10
     24.3676
 20
      9.0799
 30
      0.0000
  0
VERTEX
  8
0
 62
7
 10
     24.3676
 20
      7.5051
 30
      0.0000
  0
VERTEX
  8
0
 62
7
 10
     23.5802
 20
      7.5051
 30
      0.0000
  0
VERTEX
  8
0
 62
7
 10
     23.5802
 20
      7.2551
 30
      0.0000
  0
VERTEX
  8
0
 62
7
 10
     23.0802
 20
      7.2551
 30
      0.0000
  0
VERTEX
  8
0
 62
7
 10
     23.0802
 20
      7.5051
 30
      0.0000
  0
VERTEX
  8
0
 62
7
 10
     22.5585
 20
      7.5051
 30
      0.0000
  0
VERTEX
  8
0
 62
7
 10
     22.5585
 20
      7.9776
 30
      0.0000
  0
SEQEND
  8
0
 62
7
  0
TEXT
  8
251
 62
13
 10
     22.6494
 20
      8.1334
 30
      0.0000
 40
      0.3183
 1
29
  0
POLYLINE
  8
0
 62
7
 10
      0.0000
 20
      0.0000
 30
      0.0000
 66
  1
 70
  1
  0
VERTEX
  8
0
 62
7
 10
     23.2121
 20
      9.6408
 30
      0.0000
  0
VERTEX
  8
0
 62
7
 10
     23.2121
 20
      9.5299
 30
      0.0000
 42
         -0.4142150
  0
VERTEX
  8
0
 62
7
 10
     23.0121
 20
      9.3299
 30
      0.0000
  0
VERTEX
  8
0
 62
7
 10
     22.8085
 20
      9.3299
 30
      0.0000
  0
VERTEX
  8
0
 62
7
 10
     22.8085
 20
      9.5799
 30
      0.0000
  0
VERTEX
  8
0
 62
7
 10
     22.5585
 20
      9.5799
 30
      0.0000
  0
VERTEX
  8
0
 62
7
 10
     22.5585
 20
      9.8299
 30
      0.0000
  0
VERTEX
  8
0
 62
7
 10
     22.8085
 20
      9.8299
 30
      0.0000
  0
VERTEX
  8
0
 62
7
 10
     22.8085
 20
     10.2335
 30
      0.0000
 42
         -0.4142136
  0
VERTEX
  8
0
 62
7
 10
     23.2121
 20
     10.6370
 30
      0.0000
 42
          0.1665661
  0
VERTEX
  8
0
 62
7
 10
     23.7312
 20
     10.8149
 30
      0.0000
 42
          0.2316628
  0
VERTEX
  8
0
 62
7
 10
     23.8085
 20
     10.9729
 30
      0.0000
  0
VERTEX
  8
0
 62
7
 10
     23.8085
 20
     12.1370
 30
      0.0000
  0
VERTEX
  8
0
 62
7
 10
     24.0585
 20
     12.1370
 30
      0.0000
  0
VERTEX
  8
0
 62
7
 10
     24.0585
 20
     11.4835
 30
      0.0000
 42
          0.4142136
  0
VERTEX
  8
0
 62
7
 10
     24.4621
 20
     11.0799
 30
      0.0000
  0
VERTEX
  8
0
 62
7
 10
     24.8156
 20
     11.0799
 30
      0.0000
  0
VERTEX
  8
0
 62
7
 10
     24.8156
 20
     10.8299
 30
      0.0000
  0
VERTEX
  8
0
 62
7
 10
     25.0656
 20
     10.8299
 30
      0.0000
  0
VERTEX
  8
0
 62
7
 10
     25.0656
 20
     10.5799
 30
      0.0000
  0
VERTEX
  8
0
 62
7
 10
     24.7013
 20
     10.5799
 30
      0.0000
 42
          0.2375928
  0
VERTEX
  8
0
 62
7
 10
     24.5406
 20
     10.4990
 30
      0.0000
  0
VERTEX
  8
0
 62
7
 10
     24.5296
 20
     10.4843
 30
      0.0000
  0
VERTEX
  8
0
 62
7
 10
     24.5184
 20
     10.4698
 30
      0.0000
 42
          0.3048339
  0
VERTEX
  8
0
 62
7
 10
     24.5032
 20
     10.2471
 30
      0.0000
  0
VERTEX
  8
0
 62
7
 10
     24.7951
 20
      9.7416
 30
      0.0000
  0
VERTEX
  8
0
 62
7
 10
     24.5786
 20
      9.6166
 30
      0.0000
  0
VERTEX
  8
0
 62
7
 10
     24.7036
 20
      9.4001
 30
      0.0000
  0
VERTEX
  8
0
 62
7
 10
     24.2705
 20
      9.1501
 30
      0.0000
  0
VERTEX
  8
0
 62
7
 10
     24.1455
 20
      9.3666
 30
      0.0000
  0
VERTEX
  8
0
 62
7
 10
     23.9290
 20
      9.2416
 30
      0.0000
  0
VERTEX
  8
0
 62
7
 10
     23.6372
 20
      9.7471
 30
      0.0000
 42
          0.3048314
  0
VERTEX
  8
0
 62
7
 10
     23.4368
 20
      9.8453
 30
      0.0000
  0
VERTEX
  8
0
 62
7
 10
     23.4137
 20
      9.8423
 30
      0.0000
  0
VERTEX
  8
0
 62
7
 10
     23.3905
 20
      9.8396
 30
      0.0000
 42
          0.3828907
  0
VERTEX
  8
0
 62
7
 10
     23.2121
 20
      9.6408
 30
      0.0000
  0
SEQEND
  8
0
 62
7
  0
TEXT
  8
251
 62
13
 10
     22.7346
 20
      9.4262
 30
      0.0000
 40
      0.3183
 1
30
  0
POLYLINE
  8
0
 62
7
 10
      0.0000
 20
      0.0000
 30
      0.0000
 66
  1
 70
  1
  0
VERTEX
  8
0
 62
7
 10
     23.2901
 20
     12.2422
 30
      0.0000
  0
VERTEX
  8
0
 62
7
 10
     23.0420
 20
     12.2110
 30
      0.0000
  0
VERTEX
  8
0
 62
7
 10
     23.0732
 20
     11.9630
 30
      0.0000
  0
VERTEX
  8
0
 62
7
 10
     23.3212
 20
     11.9941
 30
      0.0000
  0
SEQEND
  8
0
 62
7
  0
POLYLINE
  8
0
 62
7
 10
      0.0000
 20
      0.0000
 30
      0.0000
 66
  1
 70
  1
  0
VERTEX
  8
0
 62
7
 10
     23.1811
 20
     13.1104
 30
      0.0000
  0
VERTEX
  8
0
 62
7
 10
     22.9331
 20
     13.0792
 30
      0.0000
  0
VERTEX
  8
0
 62
7
 10
     22.9642
 20
     12.8312
 30
      0.0000
  0
VERTEX
  8
0
 62
7
 10
     23.2122
 20
     12.8623
 30
      0.0000
  0
SEQEND
  8
0
 62
7
  0
POLYLINE
  8
0
 62
7
 10
      0.0000
 20
      0.0000
 30
      0.0000
 66
  1
 70
  1
  0
VERTEX
  8
0
 62
7
 10
     24.1323
 20
     12.1370
 30
      0.0000
  0
VERTEX
  8
0
 62
7
 10
     23.3991
 20
     12.1370
 30
      0.0000
  0
VERTEX
  8
0
 62
7
 10
     23.3991
 20
     11.7620
 30
      0.0000
  0
VERTEX
  8
0
 62
7
 10
     22.8085
 20
     11.7620
 30
      0.0000
  0
VERTEX
  8
0
 62
7
 10
     22.8085
 20
     12.3526
 30
      0.0000
  0
VERTEX
  8
0
 62
7
 10
     22.5585
 20
     12.3526
 30
      0.0000
  0
VERTEX
  8
0
 62
7
 10
     22.5585
 20
     12.7276
 30
      0.0000
  0
VERTEX
  8
0
 62
7
 10
     22.8085
 20
     12.7276
 30
      0.0000
  0
VERTEX
  8
0
 62
7
 10
     22.8085
 20
     13.7276
 30
      0.0000
  0
VERTEX
  8
0
 62
7
 10
     22.5585
 20
     13.7276
 30
      0.0000
  0
VERTEX
  8
0
 62
7
 10
     22.5585
 20
     14.1026
 30
      0.0000
  0
VERTEX
  8
0
 62
7
 10
     24.3833
 20
     14.1026
 30
      0.0000
  0
VERTEX
  8
0
 62
7
 10
     24.3833
 20
     13.3870
 30
      0.0000
  0
VERTEX
  8
0
 62
7
 10
     24.1323
 20
     13.3870
 30
      0.0000
  0
SEQEND
  8
0
 62
7
  0
TEXT
  8
251
 62
13
 10
     23.4474
 20
     12.1370
 30
      0.0000
 40
      0.3183
 1
31
  0
POLYLINE
  8
0
 62
7
 10
      0.0000
 20
      0.0000
 30
      0.0000
 66
  1
 70
  1
  0
VERTEX
  8
0
 62
7
 10
     22.7743
 20
     15.0266
 30
      0.0000
  0
VERTEX
  8
0
 62
7
 10
     22.7917
 20
     15.2760
 30
      0.0000
  0
VERTEX
  8
0
 62
7
 10
     22.5423
 20
     15.2935
 30
      0.0000
  0
VERTEX
  8
0
 62
7
 10
     22.5249
 20
     15.0441
 30
      0.0000
  0
SEQEND
  8
0
 62
7
  0
POLYLINE
  8
0
 62
7
 10
      0.0000
 20
      0.0000
 30
      0.0000
 66
  1
 70
  1
  0
VERTEX
  8
0
 62
7
 10
     23.7891
 20
     14.1026
 30
      0.0000
  0
VERTEX
  8
0
 62
7
 10
     22.3884
 20
     14.1026
 30
      0.0000
  0
VERTEX
  8
0
 62
7
 10
     22.3884
 20
     13.7896
 30
      0.0000
  0
VERTEX
  8
0
 62
7
 10
     21.7606
 20
     13.7896
 30
      0.0000
  0
VERTEX
  8
0
 62
7
 10
     21.7606
 20
     13.5396
 30
      0.0000
  0
VERTEX
  8
0
 62
7
 10
     21.5106
 20
     13.5396
 30
      0.0000
  0
VERTEX
  8
0
 62
7
 10
     21.5106
 20
     15.3644
 30
      0.0000
  0
VERTEX
  8
0
 62
7
 10
     22.2606
 20
     15.3644
 30
      0.0000
  0
VERTEX
  8
0
 62
7
 10
     22.2606
 20
     15.6144
 30
      0.0000
  0
VERTEX
  8
0
 62
7
 10
     23.0106
 20
     15.6144
 30
      0.0000
  0
VERTEX
  8
0
 62
7
 10
     23.0106
 20
     15.3644
 30
      0.0000
  0
VERTEX
  8
0
 62
7
 10
     23.5391
 20
     15.3644
 30
      0.0000
  0
VERTEX
  8
0
 62
7
 10
     23.5391
 20
     15.6144
 30
      0.0000
  0
VERTEX
  8
0
 62
7
 10
     23.7891
 20
     15.6144
 30
      0.0000
  0
VERTEX
  8
0
 62
7
 10
     23.7891
 20
     14.5967
 30
      0.0000
  0
VERTEX
  8
0
 62
7
 10
     23.5391
 20
     14.5967
 30
      0.0000
  0
VERTEX
  8
0
 62
7
 10
     23.5391
 20
     14.3467
 30
      0.0000
  0
VERTEX
  8
0
 62
7
 10
     23.7891
 20
     14.3467
 30
      0.0000
  0
SEQEND
  8
0
 62
7
  0
TEXT
  8
251
 62
13
 10
     22.7705
 20
     14.1026
 30
      0.0000
 40
      0.3183
 1
32
  0
POLYLINE
  8
0
 62
7
 10
      0.0000
 20
      0.0000
 30
      0.0000
 66
  1
 70
  1
  0
VERTEX
  8
0
 62
7
 10
     23.5086
 20
     16.9751
 30
      0.0000
  0
VERTEX
  8
0
 62
7
 10
     23.5086
 20
     16.3501
 30
      0.0000
  0
VERTEX
  8
0
 62
7
 10
     23.7586
 20
     16.3501
 30
      0.0000
  0
VERTEX
  8
0
 62
7
 10
     23.7586
 20
     15.8644
 30
      0.0000
  0
VERTEX
  8
0
 62
7
 10
     22.7606
 20
     15.8644
 30
      0.0000
  0
VERTEX
  8
0
 62
7
 10
     22.7606
 20
     16.4126
 30
      0.0000
  0
VERTEX
  8
0
 62
7
 10
     22.5106
 20
     16.4126
 30
      0.0000
  0
VERTEX
  8
0
 62
7
 10
     22.5106
 20
     16.9126
 30
      0.0000
  0
VERTEX
  8
0
 62
7
 10
     22.7606
 20
     16.9126
 30
      0.0000
  0
VERTEX
  8
0
 62
7
 10
     22.7606
 20
     17.4609
 30
      0.0000
  0
VERTEX
  8
0
 62
7
 10
     23.7586
 20
     17.4609
 30
      0.0000
  0
VERTEX
  8
0
 62
7
 10
     23.7586
 20
     16.9751
 30
      0.0000
  0
SEQEND
  8
0
 62
7
  0
TEXT
  8
251
 62
13
 10
     23.0312
 20
     16.5035
 30
      0.0000
 40
      0.3183
 1
33
  0
POLYLINE
  8
0
 62
7
 10
      0.0000
 20
      0.0000
 30
      0.0000
 66
  1
 70
  1
  0
VERTEX
  8
0
 62
7
 10
     23.7470
 20
     18.8705
 30
      0.0000
  0
VERTEX
  8
0
 62
7
 10
     23.4976
 20
     18.8531
 30
      0.0000
  0
VERTEX
  8
0
 62
7
 10
     23.5151
 20
     18.6037
 30
      0.0000
  0
VERTEX
  8
0
 62
7
 10
     23.7645
 20
     18.6211
 30
      0.0000
  0
SEQEND
  8
0
 62
7
  0
POLYLINE
  8
0
 62
7
 10
      0.0000
 20
      0.0000
 30
      0.0000
 66
  1
 70
  1
  0
VERTEX
  8
0
 62
7
 10
     22.2606
 20
     17.5894
 30
      0.0000
  0
VERTEX
  8
0
 62
7
 10
     22.2606
 20
     18.4672
 30
      0.0000
  0
VERTEX
  8
0
 62
7
 10
     22.5736
 20
     18.4672
 30
      0.0000
  0
VERTEX
  8
0
 62
7
 10
     22.5736
 20
     18.8609
 30
      0.0000
  0
VERTEX
  8
0
 62
7
 10
     23.0677
 20
     18.8609
 30
      0.0000
  0
VERTEX
  8
0
 62
7
 10
     23.0677
 20
     19.6179
 30
      0.0000
  0
VERTEX
  8
0
 62
7
 10
     23.8354
 20
     19.6179
 30
      0.0000
  0
VERTEX
  8
0
 62
7
 10
     23.8354
 20
     19.0894
 30
      0.0000
  0
VERTEX
  8
0
 62
7
 10
     24.0854
 20
     19.0894
 30
      0.0000
  0
VERTEX
  8
0
 62
7
 10
     24.0854
 20
     18.3394
 30
      0.0000
  0
VERTEX
  8
0
 62
7
 10
     23.8354
 20
     18.3394
 30
      0.0000
  0
VERTEX
  8
0
 62
7
 10
     23.8354
 20
     17.5894
 30
      0.0000
  0
SEQEND
  8
0
 62
7
  0
TEXT
  8
251
 62
13
 10
     22.1015
 20
     17.8691
 30
      0.0000
 40
      0.3183
 1
34
  0
POLYLINE
  8
0
 62
7
 10
      0.0000
 20
      0.0000
 30
      0.0000
 66
  1
 70
  1
  0
VERTEX
  8
0
 62
7
 10
     21.4791
 20
     22.9567
 30
      0.0000
  0
VERTEX
  8
0
 62
7
 10
     21.6706
 20
     22.7960
 30
      0.0000
  0
VERTEX
  8
0
 62
7
 10
     21.8313
 20
     22.9876
 30
      0.0000
  0
VERTEX
  8
0
 62
7
 10
     21.6398
 20
     23.1483
 30
      0.0000
  0
SEQEND
  8
0
 62
7
  0
POLYLINE
  8
0
 62
7
 10
      0.0000
 20
      0.0000
 30
      0.0000
 66
  1
 70
  1
  0
VERTEX
  8
0
 62
7
 10
     21.8313
 20
     21.6712
 30
      0.0000
  0
VERTEX
  8
0
 62
7
 10
     21.6706
 20
     21.8627
 30
      0.0000
  0
VERTEX
  8
0
 62
7
 10
     21.4791
 20
     21.7020
 30
      0.0000
  0
VERTEX
  8
0
 62
7
 10
     21.6398
 20
     21.5105
 30
      0.0000
  0
SEQEND
  8
0
 62
7
  0
POLYLINE
  8
0
 62
7
 10
      0.0000
 20
      0.0000
 30
      0.0000
 66
  1
 70
  1
  0
VERTEX
  8
0
 62
7
 10
     22.7645
 20
     21.9418
 30
      0.0000
  0
VERTEX
  8
0
 62
7
 10
     22.7740
 20
     21.9504
 30
      0.0000
 42
          0.3175736
  0
VERTEX
  8
0
 62
7
 10
     22.7763
 20
     21.9615
 30
      0.0000
  0
VERTEX
  8
0
 62
7
 10
     22.7353
 20
     22.0325
 30
      0.0000
 42
         -0.3718250
  0
VERTEX
  8
0
 62
7
 10
     22.7356
 20
     22.0402
 30
      0.0000
  0
VERTEX
  8
0
 62
7
 10
     22.7582
 20
     22.0669
 30
      0.0000
 42
         -0.3716902
  0
VERTEX
  8
0
 62
7
 10
     22.7658
 20
     22.0684
 30
      0.0000
  0
VERTEX
  8
0
 62
7
 10
     22.8425
 20
     22.0397
 30
      0.0000
 42
          0.3175210
  0
VERTEX
  8
0
 62
7
 10
     22.8531
 20
     22.0439
 30
      0.0000
  0
VERTEX
  8
0
 62
7
 10
     22.8600
 20
     22.0546
 30
      0.0000
 42
          0.3174833
  0
VERTEX
  8
0
 62
7
 10
     22.8594
 20
     22.0659
 30
      0.0000
  0
VERTEX
  8
0
 62
7
 10
     22.8015
 20
     22.1239
 30
      0.0000
 42
         -0.3719768
  0
VERTEX
  8
0
 62
7
 10
     22.7998
 20
     22.1314
 30
      0.0000
  0
VERTEX
  8
0
 62
7
 10
     22.8147
 20
     22.1630
 30
      0.0000
 42
         -0.3716394
  0
VERTEX
  8
0
 62
7
 10
     22.8216
 20
     22.1665
 30
      0.0000
  0
VERTEX
  8
0
 62
7
 10
     22.9031
 20
     22.1586
 30
      0.0000
 42
          0.3175260
  0
VERTEX
  8
0
 62
7
 10
     22.9123
 20
     22.1654
 30
      0.0000
  0
VERTEX
  8
0
 62
7
 10
     22.9162
 20
     22.1775
 30
      0.0000
 42
          0.3175216
  0
VERTEX
  8
0
 62
7
 10
     22.9127
 20
     22.1883
 30
      0.0000
  0
VERTEX
  8
0
 62
7
 10
     22.8417
 20
     22.2293
 30
      0.0000
 42
         -0.3717290
  0
VERTEX
  8
0
 62
7
 10
     22.8381
 20
     22.2361
 30
      0.0000
  0
VERTEX
  8
0
 62
7
 10
     22.8443
 20
     22.2705
 30
      0.0000
 42
         -0.3717752
  0
VERTEX
  8
0
 62
7
 10
     22.8501
 20
     22.2757
 30
      0.0000
  0
VERTEX
  8
0
 62
7
 10
     22.9309
 20
     22.2892
 30
      0.0000
 42
          0.3175730
  0
VERTEX
  8
0
 62
7
 10
     22.9380
 20
     22.2980
 30
      0.0000
  0
VERTEX
  8
0
 62
7
 10
     22.9386
 20
     22.3108
 30
      0.0000
 42
          0.3174468
  0
VERTEX
  8
0
 62
7
 10
     22.9324
 20
     22.3203
 30
      0.0000
  0
VERTEX
  8
0
 62
7
 10
     22.8533
 20
     22.3415
 30
      0.0000
 42
         -0.3717337
  0
VERTEX
  8
0
 62
7
 10
     22.8480
 20
     22.3472
 30
      0.0000
  0
VERTEX
  8
0
 62
7
 10
     22.8451
 20
     22.3821
 30
      0.0000
 42
         -0.3718392
  0
VERTEX
  8
0
 62
7
 10
     22.8494
 20
     22.3885
 30
      0.0000
  0
VERTEX
  8
0
 62
7
 10
     22.9239
 20
     22.4225
 30
      0.0000
 42
          0.3175688
  0
VERTEX
  8
0
 62
7
 10
     22.9285
 20
     22.4329
 30
      0.0000
  0
VERTEX
  8
0
 62
7
 10
     22.9258
 20
     22.4453
 30
      0.0000
 42
          0.3175493
  0
VERTEX
  8
0
 62
7
 10
     22.9173
 20
     22.4529
 30
      0.0000
  0
VERTEX
  8
0
 62
7
 10
     22.8354
 20
     22.4529
 30
      0.0000
 42
         -0.3718385
  0
VERTEX
  8
0
 62
7
 10
     22.8289
 20
     22.4570
 30
      0.0000
  0
VERTEX
  8
0
 62
7
 10
     22.8170
 20
     22.4900
 30
      0.0000
 42
         -0.3718205
  0
VERTEX
  8
0
 62
7
 10
     22.8195
 20
     22.4973
 30
      0.0000
  0
VERTEX
  8
0
 62
7
 10
     22.8827
 20
     22.5494
 30
      0.0000
 42
          0.3175230
  0
VERTEX
  8
0
 62
7
 10
     22.8844
 20
     22.5606
 30
      0.0000
  0
VERTEX
  8
0
 62
7
 10
     22.8786
 20
     22.5720
 30
      0.0000
 42
          0.3174910
  0
VERTEX
  8
0
 62
7
 10
     22.8684
 20
     22.5771
 30
      0.0000
  0
VERTEX
  8
0
 62
7
 10
     22.7893
 20
     22.5559
 30
      0.0000
 42
         -0.3715793
  0
VERTEX
  8
0
 62
7
 10
     22.7819
 20
     22.5582
 30
      0.0000
  0
VERTEX
  8
0
 62
7
 10
     22.7620
 20
     22.5869
 30
      0.0000
 42
         -0.3718517
  0
VERTEX
  8
0
 62
7
 10
     22.7624
 20
     22.5947
 30
      0.0000
  0
VERTEX
  8
0
 62
7
 10
     22.8100
 20
     22.6613
 30
      0.0000
 42
          0.3176334
  0
VERTEX
  8
0
 62
7
 10
     22.8088
 20
     22.6726
 30
      0.0000
  0
VERTEX
  8
0
 62
7
 10
     22.8002
 20
     22.6821
 30
      0.0000
 42
          0.3175247
  0
VERTEX
  8
0
 62
7
 10
     22.7891
 20
     22.6844
 30
      0.0000
  0
VERTEX
  8
0
 62
7
 10
     22.7181
 20
     22.6435
 30
      0.0000
 42
         -0.3718296
  0
VERTEX
  8
0
 62
7
 10
     22.7104
 20
     22.6438
 30
      0.0000
  0
VERTEX
  8
0
 62
7
 10
     22.6837
 20
     22.6664
 30
      0.0000
 42
         -0.3717034
  0
VERTEX
  8
0
 62
7
 10
     22.6822
 20
     22.6739
 30
      0.0000
  0
VERTEX
  8
0
 62
7
 10
     22.7109
 20
     22.7507
 30
      0.0000
 42
          0.3175838
  0
VERTEX
  8
0
 62
7
 10
     22.7067
 20
     22.7612
 30
      0.0000
  0
VERTEX
  8
0
 62
7
 10
     22.6960
 20
     22.7682
 30
      0.0000
 42
          0.3175117
  0
VERTEX
  8
0
 62
7
 10
     22.6846
 20
     22.7675
 30
      0.0000
  0
VERTEX
  8
0
 62
7
 10
     22.6267
 20
     22.7096
 30
      0.0000
 42
         -0.3718330
  0
VERTEX
  8
0
 62
7
 10
     22.6192
 20
     22.7079
 30
      0.0000
  0
VERTEX
  8
0
 62
7
 10
     22.5875
 20
     22.7228
 30
      0.0000
 42
         -0.3719207
  0
VERTEX
  8
0
 62
7
 10
     22.5841
 20
     22.7297
 30
      0.0000
  0
VERTEX
  8
0
 62
7
 10
     22.5920
 20
     22.8113
 30
      0.0000
 42
          0.3175260
  0
VERTEX
  8
0
 62
7
 10
     22.5852
 20
     22.8204
 30
      0.0000
  0
VERTEX
  8
0
 62
7
 10
     22.5731
 20
     22.8243
 30
      0.0000
 42
          0.3174395
  0
VERTEX
  8
0
 62
7
 10
     22.5623
 20
     22.8208
 30
      0.0000
  0
VERTEX
  8
0
 62
7
 10
     22.5213
 20
     22.7498
 30
      0.0000
 42
         -0.3715669
  0
VERTEX
  8
0
 62
7
 10
     22.5145
 20
     22.7462
 30
      0.0000
  0
VERTEX
  8
0
 62
7
 10
     22.4800
 20
     22.7525
 30
      0.0000
 42
         -0.3716855
  0
VERTEX
  8
0
 62
7
 10
     22.4749
 20
     22.7582
 30
      0.0000
  0
VERTEX
  8
0
 62
7
 10
     22.4614
 20
     22.8390
 30
      0.0000
 42
          0.3174833
  0
VERTEX
  8
0
 62
7
 10
     22.4525
 20
     22.8461
 30
      0.0000
  0
VERTEX
  8
0
 62
7
 10
     22.4398
 20
     22.8467
 30
      0.0000
 42
          0.3174964
  0
VERTEX
  8
0
 62
7
 10
     22.4303
 20
     22.8405
 30
      0.0000
  0
VERTEX
  8
0
 62
7
 10
     22.4091
 20
     22.7614
 30
      0.0000
 42
         -0.3719916
  0
VERTEX
  8
0
 62
7
 10
     22.4034
 20
     22.7562
 30
      0.0000
  0
VERTEX
  8
0
 62
7
 10
     22.3685
 20
     22.7533
 30
      0.0000
 42
         -0.3719025
  0
VERTEX
  8
0
 62
7
 10
     22.3621
 20
     22.7575
 30
      0.0000
  0
VERTEX
  8
0
 62
7
 10
     22.3281
 20
     22.8321
 30
      0.0000
 42
          0.3175581
  0
VERTEX
  8
0
 62
7
 10
     22.3177
 20
     22.8366
 30
      0.0000
  0
VERTEX
  8
0
 62
7
 10
     22.3052
 20
     22.8339
 30
      0.0000
 42
          0.3175035
  0
VERTEX
  8
0
 62
7
 10
     22.2977
 20
     22.8255
 30
      0.0000
  0
VERTEX
  8
0
 62
7
 10
     22.2977
 20
     22.7435
 30
      0.0000
 42
         -0.3717369
  0
VERTEX
  8
0
 62
7
 10
     22.2935
 20
     22.7370
 30
      0.0000
  0
VERTEX
  8
0
 62
7
 10
     22.2606
 20
     22.7252
 30
      0.0000
 42
         -0.3717066
  0
VERTEX
  8
0
 62
7
 10
     22.2533
 20
     22.7276
 30
      0.0000
  0
VERTEX
  8
0
 62
7
 10
     22.2012
 20
     22.7908
 30
      0.0000
 42
          0.3174621
  0
VERTEX
  8
0
 62
7
 10
     22.1900
 20
     22.7926
 30
      0.0000
  0
VERTEX
  8
0
 62
7
 10
     22.1786
 20
     22.7867
 30
      0.0000
 42
          0.3174910
  0
VERTEX
  8
0
 62
7
 10
     22.1735
 20
     22.7766
 30
      0.0000
  0
VERTEX
  8
0
 62
7
 10
     22.1947
 20
     22.6974
 30
      0.0000
 42
         -0.3717732
  0
VERTEX
  8
0
 62
7
 10
     22.1924
 20
     22.6901
 30
      0.0000
  0
VERTEX
  8
0
 62
7
 10
     22.1636
 20
     22.6701
 30
      0.0000
 42
         -0.3716679
  0
VERTEX
  8
0
 62
7
 10
     22.1559
 20
     22.6706
 30
      0.0000
  0
VERTEX
  8
0
 62
7
 10
     22.0893
 20
     22.7182
 30
      0.0000
 42
          0.3175368
  0
VERTEX
  8
0
 62
7
 10
     22.0780
 20
     22.7169
 30
      0.0000
  0
VERTEX
  8
0
 62
7
 10
     22.0685
 20
     22.7083
 30
      0.0000
 42
          0.3175736
  0
VERTEX
  8
0
 62
7
 10
     22.0662
 20
     22.6972
 30
      0.0000
  0
VERTEX
  8
0
 62
7
 10
     22.1071
 20
     22.6263
 30
      0.0000
 42
         -0.3719496
  0
VERTEX
  8
0
 62
7
 10
     22.1068
 20
     22.6185
 30
      0.0000
  0
VERTEX
  8
0
 62
7
 10
     22.0842
 20
     22.5918
 30
      0.0000
 42
         -0.3717762
  0
VERTEX
  8
0
 62
7
 10
     22.0767
 20
     22.5903
 30
      0.0000
  0
VERTEX
  8
0
 62
7
 10
     21.9999
 20
     22.6190
 30
      0.0000
 42
          0.3174247
  0
VERTEX
  8
0
 62
7
 10
     21.9894
 20
     22.6149
 30
      0.0000
  0
VERTEX
  8
0
 62
7
 10
     21.9824
 20
     22.6041
 30
      0.0000
 42
          0.3175117
  0
VERTEX
  8
0
 62
7
 10
     21.9831
 20
     22.5928
 30
      0.0000
  0
VERTEX
  8
0
 62
7
 10
     22.0410
 20
     22.5348
 30
      0.0000
 42
         -0.3718956
  0
VERTEX
  8
0
 62
7
 10
     22.0427
 20
     22.5273
 30
      0.0000
  0
VERTEX
  8
0
 62
7
 10
     22.0278
 20
     22.4957
 30
      0.0000
 42
         -0.3717819
  0
VERTEX
  8
0
 62
7
 10
     22.0209
 20
     22.4922
 30
      0.0000
  0
VERTEX
  8
0
 62
7
 10
     21.9393
 20
     22.5001
 30
      0.0000
 42
          0.3175260
  0
VERTEX
  8
0
 62
7
 10
     21.9302
 20
     22.4934
 30
      0.0000
  0
VERTEX
  8
0
 62
7
 10
     21.9263
 20
     22.4812
 30
      0.0000
 42
          0.3174395
  0
VERTEX
  8
0
 62
7
 10
     21.9298
 20
     22.4704
 30
      0.0000
  0
VERTEX
  8
0
 62
7
 10
     22.0008
 20
     22.4294
 30
      0.0000
 42
         -0.3718352
  0
VERTEX
  8
0
 62
7
 10
     22.0044
 20
     22.4226
 30
      0.0000
  0
VERTEX
  8
0
 62
7
 10
     21.9981
 20
     22.3882
 30
      0.0000
 42
         -0.3716841
  0
VERTEX
  8
0
 62
7
 10
     21.9924
 20
     22.3830
 30
      0.0000
  0
VERTEX
  8
0
 62
7
 10
     21.9116
 20
     22.3695
 30
      0.0000
 42
          0.3174833
  0
VERTEX
  8
0
 62
7
 10
     21.9045
 20
     22.3607
 30
      0.0000
  0
VERTEX
  8
0
 62
7
 10
     21.9038
 20
     22.3479
 30
      0.0000
 42
          0.3175497
  0
VERTEX
  8
0
 62
7
 10
     21.9100
 20
     22.3384
 30
      0.0000
  0
VERTEX
  8
0
 62
7
 10
     21.9892
 20
     22.3172
 30
      0.0000
 42
         -0.3717337
  0
VERTEX
  8
0
 62
7
 10
     21.9944
 20
     22.3115
 30
      0.0000
  0
VERTEX
  8
0
 62
7
 10
     21.9973
 20
     22.2767
 30
      0.0000
 42
         -0.3719025
  0
VERTEX
  8
0
 62
7
 10
     21.9931
 20
     22.2702
 30
      0.0000
  0
VERTEX
  8
0
 62
7
 10
     21.9185
 20
     22.2363
 30
      0.0000
 42
          0.3175688
  0
VERTEX
  8
0
 62
7
 10
     21.9140
 20
     22.2259
 30
      0.0000
  0
VERTEX
  8
0
 62
7
 10
     21.9167
 20
     22.2134
 30
      0.0000
 42
          0.3175153
  0
VERTEX
  8
0
 62
7
 10
     21.9251
 20
     22.2058
 30
      0.0000
  0
VERTEX
  8
0
 62
7
 10
     22.0071
 20
     22.2058
 30
      0.0000
 42
         -0.3718146
  0
VERTEX
  8
0
 62
7
 10
     22.0136
 20
     22.2017
 30
      0.0000
  0
VERTEX
  8
0
 62
7
 10
     22.0254
 20
     22.1687
 30
      0.0000
 42
         -0.3717066
  0
VERTEX
  8
0
 62
7
 10
     22.0230
 20
     22.1614
 30
      0.0000
  0
VERTEX
  8
0
 62
7
 10
     21.9597
 20
     22.1093
 30
      0.0000
 42
          0.3174621
  0
VERTEX
  8
0
 62
7
 10
     21.9580
 20
     22.0981
 30
      0.0000
  0
VERTEX
  8
0
 62
7
 10
     21.9639
 20
     22.0867
 30
      0.0000
 42
          0.3174439
  0
VERTEX
  8
0
 62
7
 10
     21.9740
 20
     22.0816
 30
      0.0000
  0
VERTEX
  8
0
 62
7
 10
     22.0532
 20
     22.1028
 30
      0.0000
 42
         -0.3717662
  0
VERTEX
  8
0
 62
7
 10
     22.0605
 20
     22.1005
 30
      0.0000
  0
VERTEX
  8
0
 62
7
 10
     22.0805
 20
     22.0718
 30
      0.0000
 42
         -0.3717877
  0
VERTEX
  8
0
 62
7
 10
     22.0800
 20
     22.0641
 30
      0.0000
  0
VERTEX
  8
0
 62
7
 10
     22.0324
 20
     21.9974
 30
      0.0000
 42
          0.3174969
  0
VERTEX
  8
0
 62
7
 10
     22.0337
 20
     21.9861
 30
      0.0000
  0
VERTEX
  8
0
 62
7
 10
     22.0423
 20
     21.9766
 30
      0.0000
 42
          0.3176212
  0
VERTEX
  8
0
 62
7
 10
     22.0534
 20
     21.9743
 30
      0.0000
  0
VERTEX
  8
0
 62
7
 10
     22.1243
 20
     22.0153
 30
      0.0000
 42
         -0.3718250
  0
VERTEX
  8
0
 62
7
 10
     22.1320
 20
     22.0150
 30
      0.0000
  0
VERTEX
  8
0
 62
7
 10
     22.1588
 20
     21.9924
 30
      0.0000
 42
         -0.3718322
  0
VERTEX
  8
0
 62
7
 10
     22.1603
 20
     21.9848
 30
      0.0000
  0
VERTEX
  8
0
 62
7
 10
     22.1316
 20
     21.9081
 30
      0.0000
 42
          0.3175911
  0
VERTEX
  8
0
 62
7
 10
     22.1357
 20
     21.8975
 30
      0.0000
  0
VERTEX
  8
0
 62
7
 10
     22.1465
 20
     21.8906
 30
      0.0000
 42
          0.3175448
  0
VERTEX
  8
0
 62
7
 10
     22.1578
 20
     21.8912
 30
      0.0000
  0
VERTEX
  8
0
 62
7
 10
     22.2158
 20
     21.9491
 30
      0.0000
 42
         -0.3716614
  0
VERTEX
  8
0
 62
7
 10
     22.2233
 20
     21.9508
 30
      0.0000
  0
VERTEX
  8
0
 62
7
 10
     22.2549
 20
     21.9359
 30
      0.0000
 42
         -0.3718316
  0
VERTEX
  8
0
 62
7
 10
     22.2584
 20
     21.9290
 30
      0.0000
  0
VERTEX
  8
0
 62
7
 10
     22.2505
 20
     21.8474
 30
      0.0000
 42
          0.3175260
  0
VERTEX
  8
0
 62
7
 10
     22.2572
 20
     21.8383
 30
      0.0000
  0
VERTEX
  8
0
 62
7
 10
     22.2694
 20
     21.8344
 30
      0.0000
 42
          0.3174631
  0
VERTEX
  8
0
 62
7
 10
     22.2802
 20
     21.8379
 30
      0.0000
  0
VERTEX
  8
0
 62
7
 10
     22.3212
 20
     21.9089
 30
      0.0000
 42
         -0.3718912
  0
VERTEX
  8
0
 62
7
 10
     22.3280
 20
     21.9125
 30
      0.0000
  0
VERTEX
  8
0
 62
7
 10
     22.3624
 20
     21.9063
 30
      0.0000
 42
         -0.3716841
  0
VERTEX
  8
0
 62
7
 10
     22.3675
 20
     21.9005
 30
      0.0000
  0
VERTEX
  8
0
 62
7
 10
     22.3810
 20
     21.8197
 30
      0.0000
 42
          0.3175249
  0
VERTEX
  8
0
 62
7
 10
     22.3899
 20
     21.8126
 30
      0.0000
  0
VERTEX
  8
0
 62
7
 10
     22.4027
 20
     21.8120
 30
      0.0000
 42
          0.3175853
  0
VERTEX
  8
0
 62
7
 10
     22.4122
 20
     21.8182
 30
      0.0000
  0
VERTEX
  8
0
 62
7
 10
     22.4334
 20
     21.8973
 30
      0.0000
 42
         -0.3718218
  0
VERTEX
  8
0
 62
7
 10
     22.4391
 20
     21.9026
 30
      0.0000
  0
VERTEX
  8
0
 62
7
 10
     22.4739
 20
     21.9055
 30
      0.0000
 42
         -0.3718140
  0
VERTEX
  8
0
 62
7
 10
     22.4804
 20
     21.9012
 30
      0.0000
  0
VERTEX
  8
0
 62
7
 10
     22.5143
 20
     21.8266
 30
      0.0000
 42
          0.3175935
  0
VERTEX
  8
0
 62
7
 10
     22.5247
 20
     21.8221
 30
      0.0000
  0
VERTEX
  8
0
 62
7
 10
     22.5372
 20
     21.8248
 30
      0.0000
 42
          0.3175493
  0
VERTEX
  8
0
 62
7
 10
     22.5448
 20
     21.8333
 30
      0.0000
  0
VERTEX
  8
0
 62
7
 10
     22.5448
 20
     21.9152
 30
      0.0000
 42
         -0.3718146
  0
VERTEX
  8
0
 62
7
 10
     22.5489
 20
     21.9217
 30
      0.0000
  0
VERTEX
  8
0
 62
7
 10
     22.5818
 20
     21.9335
 30
      0.0000
 42
         -0.3718556
  0
VERTEX
  8
0
 62
7
 10
     22.5892
 20
     21.9311
 30
      0.0000
  0
VERTEX
  8
0
 62
7
 10
     22.6413
 20
     21.8679
 30
      0.0000
 42
          0.3175230
  0
VERTEX
  8
0
 62
7
 10
     22.6525
 20
     21.8662
 30
      0.0000
  0
VERTEX
  8
0
 62
7
 10
     22.6639
 20
     21.8720
 30
      0.0000
 42
          0.3174987
  0
VERTEX
  8
0
 62
7
 10
     22.6690
 20
     21.8821
 30
      0.0000
  0
VERTEX
  8
0
 62
7
 10
     22.6478
 20
     21.9613
 30
      0.0000
 42
         -0.3717308
  0
VERTEX
  8
0
 62
7
 10
     22.6501
 20
     21.9687
 30
      0.0000
  0
VERTEX
  8
0
 62
7
 10
     22.6788
 20
     21.9886
 30
      0.0000
 42
         -0.3718517
  0
VERTEX
  8
0
 62
7
 10
     22.6865
 20
     21.9881
 30
      0.0000
  0
VERTEX
  8
0
 62
7
 10
     22.7532
 20
     21.9405
 30
      0.0000
 42
          0.3174575
  0
VERTEX
  8
0
 62
7
 10
     22.7645
 20
     21.9418
 30
      0.0000
  0
SEQEND
  8
0
 62
7
  0
CIRCLE
  8
0
 62
7
 10
     21.1712
 20
     22.3294
 30
      0.0000
 40
      0.4035
  0
POLYLINE
  8
0
 62
7
 10
      0.0000
 20
      0.0000
 30
      0.0000
 66
  1
 70
  1
  0
VERTEX
  8
0
 62
7
 10
     22.2325
 20
     21.0937
 30
      0.0000
  0
VERTEX
  8
0
 62
7
 10
     21.2017
 20
     21.2511
 30
      0.0000
 42
         -0.3222538
  0
VERTEX
  8
0
 62
7
 10
     20.4508
 20
     21.9865
 30
      0.0000
 42
         -0.0863528
  0
VERTEX
  8
0
 62
7
 10
     20.4508
 20
     22.6722
 30
      0.0000
 42
         -0.3222542
  0
VERTEX
  8
0
 62
7
 10
     21.2017
 20
     23.4076
 30
      0.0000
  0
VERTEX
  8
0
 62
7
 10
     22.2325
 20
     23.5650
 30
      0.0000
 42
         -1.1642956
  0
VERTEX
  8
0
 62
7
 10
     22.2325
 20
     21.0937
 30
      0.0000
  0
SEQEND
  8
0
 62
7
  0
TEXT
  8
251
 62
13
 10
     21.4228
 20
     21.1706
 30
      0.0000
 40
      0.3183
 1
35
  0
POLYLINE
  8
0
 62
7
 10
      0.0000
 20
      0.0000
 30
      0.0000
 66
  1
 70
  1
  0
VERTEX
  8
0
 62
7
 10
     23.7891
 20
     17.3644
 30
      0.0000
  0
VERTEX
  8
0
 62
7
 10
     24.6641
 20
     17.3644
 30
      0.0000
  0
VERTEX
  8
0
 62
7
 10
     24.6641
 20
     16.7394
 30
      0.0000
  0
VERTEX
  8
0
 62
7
 10
     24.9141
 20
     16.7394
 30
      0.0000
  0
VERTEX
  8
0
 62
7
 10
     24.9141
 20
     16.4894
 30
      0.0000
  0
VERTEX
  8
0
 62
7
 10
     24.6641
 20
     16.4894
 30
      0.0000
  0
VERTEX
  8
0
 62
7
 10
     24.6641
 20
     15.8644
 30
      0.0000
  0
VERTEX
  8
0
 62
7
 10
     24.9141
 20
     15.8644
 30
      0.0000
  0
VERTEX
  8
0
 62
7
 10
     24.9141
 20
     15.6144
 30
      0.0000
  0
VERTEX
  8
0
 62
7
 10
     24.6641
 20
     15.6144
 30
      0.0000
  0
VERTEX
  8
0
 62
7
 10
     24.6641
 20
     14.6144
 30
      0.0000
  0
VERTEX
  8
0
 62
7
 10
     23.7891
 20
     14.6144
 30
      0.0000
  0
VERTEX
  8
0
 62
7
 10
     23.7891
 20
     15.6144
 30
      0.0000
  0
VERTEX
  8
0
 62
7
 10
     23.5391
 20
     15.6144
 30
      0.0000
  0
VERTEX
  8
0
 62
7
 10
     23.5391
 20
     15.8644
 30
      0.0000
  0
VERTEX
  8
0
 62
7
 10
     23.7891
 20
     15.8644
 30
      0.0000
  0
VERTEX
  8
0
 62
7
 10
     23.7891
 20
     16.4894
 30
      0.0000
  0
VERTEX
  8
0
 62
7
 10
     23.5391
 20
     16.4894
 30
      0.0000
  0
VERTEX
  8
0
 62
7
 10
     23.5391
 20
     16.7394
 30
      0.0000
  0
VERTEX
  8
0
 62
7
 10
     23.7891
 20
     16.7394
 30
      0.0000
  0
SEQEND
  8
0
 62
7
  0
TEXT
  8
251
 62
13
 10
     23.9084
 20
     17.0461
 30
      0.0000
 40
      0.3183
 1
36
  0
POLYLINE
  8
0
 62
7
 10
      0.0000
 20
      0.0000
 30
      0.0000
 66
  1
 70
  1
  0
VERTEX
  8
0
 62
7
 10
     24.3656
 20
     20.6711
 30
      0.0000
  0
VERTEX
  8
0
 62
7
 10
     24.3656
 20
     21.2695
 30
      0.0000
  0
VERTEX
  8
0
 62
7
 10
     24.6805
 20
     21.2695
 30
      0.0000
  0
VERTEX
  8
0
 62
7
 10
     24.6805
 20
     20.8187
 30
      0.0000
  0
VERTEX
  8
0
 62
7
 10
     24.9305
 20
     20.8187
 30
      0.0000
  0
VERTEX
  8
0
 62
7
 10
     24.9305
 20
     20.3187
 30
      0.0000
  0
VERTEX
  8
0
 62
7
 10
     24.6805
 20
     20.3187
 30
      0.0000
  0
VERTEX
  8
0
 62
7
 10
     24.6805
 20
     19.8679
 30
      0.0000
  0
VERTEX
  8
0
 62
7
 10
     24.1431
 20
     19.8679
 30
      0.0000
  0
VERTEX
  8
0
 62
7
 10
     24.1431
 20
     19.6179
 30
      0.0000
  0
VERTEX
  8
0
 62
7
 10
     23.6432
 20
     19.6179
 30
      0.0000
  0
VERTEX
  8
0
 62
7
 10
     23.6432
 20
     19.8679
 30
      0.0000
  0
VERTEX
  8
0
 62
7
 10
     23.1057
 20
     19.8679
 30
      0.0000
  0
VERTEX
  8
0
 62
7
 10
     23.1057
 20
     20.3187
 30
      0.0000
  0
VERTEX
  8
0
 62
7
 10
     22.8557
 20
     20.3187
 30
      0.0000
  0
VERTEX
  8
0
 62
7
 10
     22.8557
 20
     20.8187
 30
      0.0000
  0
VERTEX
  8
0
 62
7
 10
     23.1057
 20
     20.8187
 30
      0.0000
  0
VERTEX
  8
0
 62
7
 10
     23.1057
 20
     21.2695
 30
      0.0000
  0
VERTEX
  8
0
 62
7
 10
     23.4207
 20
     21.2695
 30
      0.0000
  0
VERTEX
  8
0
 62
7
 10
     23.4207
 20
     20.6711
 30
      0.0000
  0
SEQEND
  8
0
 62
7
  0
TEXT
  8
251
 62
13
 10
     24.2064
 20
     20.8112
 30
      0.0000
 40
      0.3183
 1
37
  0
TEXT
  8
251
 62
13
 10
     -0.8488
 20
     -1.2731
 30
      0.0000
 40
      0.3395
 1
1)basebot
  0
TEXT
  8
251
 62
13
 10
     15.4473
 20
     -1.2731
 30
      0.0000
 40
      0.3395
 1
2)motor6
  0
TEXT
  8
251
 62
13
 10
     -0.8488
 20
     -1.9097
 30
      0.0000
 40
      0.3395
 1
3)pin
  0
TEXT
  8
251
 62
13
 10
     15.4473
 20
     -1.9097
 30
      0.0000
 40
      0.3395
 1
4)blocker suppourt 2
  0
TEXT
  8
251
 62
13
 10
     -0.8488
 20
     -2.5463
 30
      0.0000
 40
      0.3395
 1
5)thingy 3
  0
TEXT
  8
251
 62
13
 10
     15.4473
 20
     -2.5463
 30
      0.0000
 40
      0.3395
 1
6)basetop
  0
TEXT
  8
251
 62
13
 10
     -0.8488
 20
     -3.1828
 30
      0.0000
 40
      0.3395
 1
7)tingy1
  0
TEXT
  8
251
 62
13
 10
     15.4473
 20
     -3.1828
 30
      0.0000
 40
      0.3395
 1
8)top ring v2
  0
TEXT
  8
251
 62
13
 10
     -0.8488
 20
     -3.8194
 30
      0.0000
 40
      0.3395
 1
9)thingy2
  0
TEXT
  8
251
 62
13
 10
     15.4473
 20
     -3.8194
 30
      0.0000
 40
      0.3395
 1
10)thingy 3-2
  0
TEXT
  8
251
 62
13
 10
     -0.8488
 20
     -4.4560
 30
      0.0000
 40
      0.3395
 1
11)venieer 2
  0
TEXT
  8
251
 62
13
 10
     15.7868
 20
     -4.4560
 30
      0.0000
 40
      0.3395
 1
12)motor4
  0
TEXT
  8
251
 62
13
 10
     -0.8488
 20
     -5.0925
 30
      0.0000
 40
      0.3395
 1
13)bot ramp 2
  0
TEXT
  8
251
 62
13
 10
     15.7868
 20
     -5.0925
 30
      0.0000
 40
      0.3395
 1
14)pillar2
  0
TEXT
  8
251
 62
13
 10
     -0.8488
 20
     -5.7291
 30
      0.0000
 40
      0.3395
 1
15)eject ramp
  0
TEXT
  8
251
 62
13
 10
     15.7868
 20
     -5.7291
 30
      0.0000
 40
      0.3395
 1
16)vert2
  0
TEXT
  8
251
 62
13
 10
     -0.8488
 20
     -6.3656
 30
      0.0000
 40
      0.3395
 1
17)vert3
  0
TEXT
  8
251
 62
13
 10
     15.7868
 20
     -6.3656
 30
      0.0000
 40
      0.3395
 1
18)vert1
  0
TEXT
  8
251
 62
13
 10
     -0.8488
 20
     -7.0022
 30
      0.0000
 40
      0.3395
 1
19)motor5
  0
TEXT
  8
251
 62
13
 10
     15.7868
 20
     -7.0022
 30
      0.0000
 40
      0.3395
 1
20)thingy4
  0
TEXT
  8
251
 62
13
 10
     -0.8488
 20
     -7.6388
 30
      0.0000
 40
      0.3395
 1
21)venieer 1
  0
TEXT
  8
251
 62
13
 10
     15.7868
 20
     -7.6388
 30
      0.0000
 40
      0.3395
 1
22)vert0
  0
TEXT
  8
251
 62
13
 10
     -0.8488
 20
     -8.2753
 30
      0.0000
 40
      0.3395
 1
23)bot ramp rails
  0
TEXT
  8
251
 62
13
 10
     15.7868
 20
     -8.2753
 30
      0.0000
 40
      0.3395
 1
24)ev3 backing
  0
TEXT
  8
251
 62
13
 10
     -0.8488
 20
     -8.9119
 30
      0.0000
 40
      0.3395
 1
25)Part7
  0
TEXT
  8
251
 62
13
 10
     15.7868
 20
     -8.9119
 30
      0.0000
 40
      0.3395
 1
26)pillar
  0
TEXT
  8
251
 62
13
 10
     -0.8488
 20
     -9.5485
 30
      0.0000
 40
      0.3395
 1
27)botblocker
  0
TEXT
  8
251
 62
13
 10
     15.7868
 20
     -9.5485
 30
      0.0000
 40
      0.3395
 1
28)motor2
  0
TEXT
  8
251
 62
13
 10
     -0.8488
 20
    -10.1850
 30
      0.0000
 40
      0.3395
 1
29)motor1
  0
TEXT
  8
251
 62
13
 10
     15.7868
 20
    -10.1850
 30
      0.0000
 40
      0.3395
 1
30)botblocker2
  0
TEXT
  8
251
 62
13
 10
     -0.8488
 20
    -10.8216
 30
      0.0000
 40
      0.3395
 1
31)bot ramp super rails
  0
TEXT
  8
251
 62
13
 10
     15.7868
 20
    -10.8216
 30
      0.0000
 40
      0.3395
 1
32)ret rail 2
  0
TEXT
  8
251
 62
13
 10
     -0.8488
 20
    -11.4582
 30
      0.0000
 40
      0.3395
 1
33)blocker suppourt 1
  0
TEXT
  8
251
 62
13
 10
     15.7868
 20
    -11.4582
 30
      0.0000
 40
      0.3395
 1
34)ret rail
  0
TEXT
  8
251
 62
13
 10
     -0.8488
 20
    -12.0947
 30
      0.0000
 40
      0.3395
 1
35)Part7-2
  0
TEXT
  8
251
 62
13
 10
     15.7868
 20
    -12.0947
 30
      0.0000
 40
      0.3395
 1
36)eject ramp 2
  0
TEXT
  8
251
 62
13
 10
     -0.8488
 20
    -12.7313
 30
      0.0000
 40
      0.3395
 1
37)motor3
  0
ENDSEC
  0
EOF
