0
SECTION
  2
HEADER
  9
$EXTMAX
 10
   49.0814
 20
   20.9974
  9
$EXTMIN
 10
   -1.3123
 20
  -19.6850
  9
$LIMMAX
 10
   49.0814
 20
   20.9974
  9
$LIMMIN
 10
   -1.3123
 20
  -19.6850
  0
ENDSEC
0
SECTION
  2
TABLES
  0
TABLE
  2
LTYPE
 70
     1
  0
LTYPE
  2
CONTINUOUS
 70
    64
  3
Solid line
 72
   65
 73
    0
 40
0.0
  0
ENDTAB
  0
TABLE
  2
LAYER
 70
       2
  0
LAYER
  2
251
 70
    0
 62
251
  6
CONTINUOUS
  0
LAYER
  2
0
 70
    0
 62
1
  6
CONTINUOUS
  0
ENDTAB
  0
ENDSEC
0
SECTION
  2
ENTITIES
  0
LINE
  8
251
 62
11
 10
     39.3701
 20
     19.6850
 30
      0.0000
 11
     39.3701
 21
      0.0000
 31
      0.0000
  0
LINE
  8
251
 62
11
 10
     39.3701
 20
      0.0000
 30
      0.0000
 11
     33.6516
 21
      0.0000
 31
      0.0000
  0
LINE
  8
251
 62
11
 10
     33.6516
 20
      0.0000
 30
      0.0000
 11
     33.6516
 21
     19.6850
 31
      0.0000
  0
LINE
  8
251
 62
11
 10
     33.6516
 20
     19.6850
 30
      0.0000
 11
     39.3701
 21
     19.6850
 31
      0.0000
  0
LINE
  8
251
 62
9
 10
      0.0000
 20
      0.0000
 30
      0.0000
 11
      0.0000
 21
     19.6850
 31
      0.0000
  0
LINE
  8
251
 62
9
 10
      0.0000
 20
     19.6850
 30
      0.0000
 11
     39.3701
 21
     19.6850
 31
      0.0000
  0
LINE
  8
251
 62
9
 10
     39.3701
 20
     19.6850
 30
      0.0000
 11
     39.3701
 21
      0.0000
 31
      0.0000
  0
LINE
  8
251
 62
9
 10
     39.3701
 20
      0.0000
 30
      0.0000
 11
      0.0000
 21
      0.0000
 31
      0.0000
  0
TEXT
  8
251
 62
12
 10
     14.8573
 20
     -0.9843
 30
      0.0000
 40
      0.6562
 1
33.652
  0
POLYLINE
  8
251
 62
12
 10
      0.0000
 20
      0.0000
 30
      0.0000
 66
  1
 70
  0
  0
VERTEX
  8
251
 62
12
 10
     14.5292
 20
     -0.6562
 30
      0.0000
  0
VERTEX
  8
251
 62
12
 10
      0.0000
 20
     -0.6562
 30
      0.0000
  0
VERTEX
  8
251
 62
12
 10
      0.6562
 20
     -0.9843
 30
      0.0000
  0
VERTEX
  8
251
 62
12
 10
      0.6562
 20
     -0.3281
 30
      0.0000
  0
VERTEX
  8
251
 62
12
 10
      0.0000
 20
     -0.6562
 30
      0.0000
  0
VERTEX
  8
251
 62
12
 10
      0.0000
 20
     -1.3123
 30
      0.0000
  0
VERTEX
  8
251
 62
12
 10
      0.0000
 20
      0.0000
 30
      0.0000
  0
SEQEND
  8
251
 62
12
  0
POLYLINE
  8
251
 62
12
 10
      0.0000
 20
      0.0000
 30
      0.0000
 66
  1
 70
  0
  0
VERTEX
  8
251
 62
12
 10
     19.1224
 20
     -0.6562
 30
      0.0000
  0
VERTEX
  8
251
 62
12
 10
     33.6516
 20
     -0.6562
 30
      0.0000
  0
VERTEX
  8
251
 62
12
 10
     32.9954
 20
     -0.3281
 30
      0.0000
  0
VERTEX
  8
251
 62
12
 10
     32.9954
 20
     -0.9843
 30
      0.0000
  0
VERTEX
  8
251
 62
12
 10
     33.6516
 20
     -0.6562
 30
      0.0000
  0
VERTEX
  8
251
 62
12
 10
     33.6516
 20
      0.0000
 30
      0.0000
  0
VERTEX
  8
251
 62
12
 10
     33.6516
 20
     -1.3123
 30
      0.0000
  0
SEQEND
  8
251
 62
12
  0
TEXT
  8
251
 62
12
 10
     17.7165
 20
     20.0131
 30
      0.0000
 40
      0.6562
 1
39.370
  0
POLYLINE
  8
251
 62
12
 10
      0.0000
 20
      0.0000
 30
      0.0000
 66
  1
 70
  0
  0
VERTEX
  8
251
 62
12
 10
     17.3885
 20
     20.3412
 30
      0.0000
  0
VERTEX
  8
251
 62
12
 10
      0.0000
 20
     20.3412
 30
      0.0000
  0
VERTEX
  8
251
 62
12
 10
      0.6562
 20
     20.0131
 30
      0.0000
  0
VERTEX
  8
251
 62
12
 10
      0.6562
 20
     20.6693
 30
      0.0000
  0
VERTEX
  8
251
 62
12
 10
      0.0000
 20
     20.3412
 30
      0.0000
  0
VERTEX
  8
251
 62
12
 10
      0.0000
 20
     19.6850
 30
      0.0000
  0
VERTEX
  8
251
 62
12
 10
      0.0000
 20
     20.9974
 30
      0.0000
  0
SEQEND
  8
251
 62
12
  0
POLYLINE
  8
251
 62
12
 10
      0.0000
 20
      0.0000
 30
      0.0000
 66
  1
 70
  0
  0
VERTEX
  8
251
 62
12
 10
     21.9816
 20
     20.3412
 30
      0.0000
  0
VERTEX
  8
251
 62
12
 10
     39.3701
 20
     20.3412
 30
      0.0000
  0
VERTEX
  8
251
 62
12
 10
     38.7139
 20
     20.6693
 30
      0.0000
  0
VERTEX
  8
251
 62
12
 10
     38.7139
 20
     20.0131
 30
      0.0000
  0
VERTEX
  8
251
 62
12
 10
     39.3701
 20
     20.3412
 30
      0.0000
  0
VERTEX
  8
251
 62
12
 10
     39.3701
 20
     20.9974
 30
      0.0000
  0
VERTEX
  8
251
 62
12
 10
     39.3701
 20
     19.6850
 30
      0.0000
  0
SEQEND
  8
251
 62
12
  0
TEXT
  8
251
 62
12
 10
     -0.3281
 20
      7.8740
 30
      0.0000
 40
      0.6562
 1
19.685
 50
     90.0000
  0
POLYLINE
  8
251
 62
12
 10
      0.0000
 20
      0.0000
 30
      0.0000
 66
  1
 70
  0
  0
VERTEX
  8
251
 62
12
 10
     -0.6562
 20
      7.5459
 30
      0.0000
  0
VERTEX
  8
251
 62
12
 10
     -0.6562
 20
      0.0000
 30
      0.0000
  0
VERTEX
  8
251
 62
12
 10
     -0.3281
 20
      0.6562
 30
      0.0000
  0
VERTEX
  8
251
 62
12
 10
     -0.9843
 20
      0.6562
 30
      0.0000
  0
VERTEX
  8
251
 62
12
 10
     -0.6562
 20
      0.0000
 30
      0.0000
  0
VERTEX
  8
251
 62
12
 10
      0.0000
 20
      0.0000
 30
      0.0000
  0
VERTEX
  8
251
 62
12
 10
     -1.3123
 20
      0.0000
 30
      0.0000
  0
SEQEND
  8
251
 62
12
  0
POLYLINE
  8
251
 62
12
 10
      0.0000
 20
      0.0000
 30
      0.0000
 66
  1
 70
  0
  0
VERTEX
  8
251
 62
12
 10
     -0.6562
 20
     12.1391
 30
      0.0000
  0
VERTEX
  8
251
 62
12
 10
     -0.6562
 20
     19.6850
 30
      0.0000
  0
VERTEX
  8
251
 62
12
 10
     -0.9843
 20
     19.0289
 30
      0.0000
  0
VERTEX
  8
251
 62
12
 10
     -0.3281
 20
     19.0289
 30
      0.0000
  0
VERTEX
  8
251
 62
12
 10
     -0.6562
 20
     19.6850
 30
      0.0000
  0
VERTEX
  8
251
 62
12
 10
     -1.3123
 20
     19.6850
 30
      0.0000
  0
VERTEX
  8
251
 62
12
 10
      0.0000
 20
     19.6850
 30
      0.0000
  0
SEQEND
  8
251
 62
12
  0
POLYLINE
  8
0
 62
7
 10
      0.0000
 20
      0.0000
 30
      0.0000
 66
  1
 70
  1
  0
VERTEX
  8
0
 62
7
 10
      3.1437
 20
      8.7965
 30
      0.0000
  0
VERTEX
  8
0
 62
7
 10
      3.3937
 20
      8.7965
 30
      0.0000
  0
VERTEX
  8
0
 62
7
 10
      3.3937
 20
      8.2965
 30
      0.0000
  0
VERTEX
  8
0
 62
7
 10
      3.1437
 20
      8.2965
 30
      0.0000
  0
SEQEND
  8
0
 62
7
  0
TEXT
  8
251
 62
13
 10
      3.0226
 20
      8.3043
 30
      0.0000
 40
      0.4921
 1
1
  0
POLYLINE
  8
0
 62
7
 10
      0.0000
 20
      0.0000
 30
      0.0000
 66
  1
 70
  1
  0
VERTEX
  8
0
 62
7
 10
      2.7689
 20
     10.9747
 30
      0.0000
  0
VERTEX
  8
0
 62
7
 10
      2.9604
 20
     10.8140
 30
      0.0000
  0
VERTEX
  8
0
 62
7
 10
      3.1211
 20
     11.0055
 30
      0.0000
  0
VERTEX
  8
0
 62
7
 10
      2.9296
 20
     11.1662
 30
      0.0000
  0
SEQEND
  8
0
 62
7
  0
POLYLINE
  8
0
 62
7
 10
      0.0000
 20
      0.0000
 30
      0.0000
 66
  1
 70
  1
  0
VERTEX
  8
0
 62
7
 10
      3.1211
 20
      9.6891
 30
      0.0000
  0
VERTEX
  8
0
 62
7
 10
      2.9604
 20
      9.8806
 30
      0.0000
  0
VERTEX
  8
0
 62
7
 10
      2.7689
 20
      9.7199
 30
      0.0000
  0
VERTEX
  8
0
 62
7
 10
      2.9296
 20
      9.5284
 30
      0.0000
  0
SEQEND
  8
0
 62
7
  0
POLYLINE
  8
0
 62
7
 10
      0.0000
 20
      0.0000
 30
      0.0000
 66
  1
 70
  1
  0
VERTEX
  8
0
 62
7
 10
      4.0543
 20
      9.9597
 30
      0.0000
  0
VERTEX
  8
0
 62
7
 10
      4.0637
 20
      9.9683
 30
      0.0000
 42
          0.3175194
  0
VERTEX
  8
0
 62
7
 10
      4.0661
 20
      9.9794
 30
      0.0000
  0
VERTEX
  8
0
 62
7
 10
      4.0251
 20
     10.0504
 30
      0.0000
 42
         -0.3717790
  0
VERTEX
  8
0
 62
7
 10
      4.0254
 20
     10.0581
 30
      0.0000
  0
VERTEX
  8
0
 62
7
 10
      4.0480
 20
     10.0848
 30
      0.0000
 42
         -0.3718046
  0
VERTEX
  8
0
 62
7
 10
      4.0556
 20
     10.0864
 30
      0.0000
  0
VERTEX
  8
0
 62
7
 10
      4.1323
 20
     10.0576
 30
      0.0000
 42
          0.3175282
  0
VERTEX
  8
0
 62
7
 10
      4.1429
 20
     10.0618
 30
      0.0000
  0
VERTEX
  8
0
 62
7
 10
      4.1498
 20
     10.0725
 30
      0.0000
 42
          0.3175282
  0
VERTEX
  8
0
 62
7
 10
      4.1492
 20
     10.0839
 30
      0.0000
  0
VERTEX
  8
0
 62
7
 10
      4.0912
 20
     10.1418
 30
      0.0000
 42
         -0.3718336
  0
VERTEX
  8
0
 62
7
 10
      4.0895
 20
     10.1493
 30
      0.0000
  0
VERTEX
  8
0
 62
7
 10
      4.1045
 20
     10.1810
 30
      0.0000
 42
         -0.3717393
  0
VERTEX
  8
0
 62
7
 10
      4.1114
 20
     10.1844
 30
      0.0000
  0
VERTEX
  8
0
 62
7
 10
      4.1929
 20
     10.1765
 30
      0.0000
 42
          0.3175612
  0
VERTEX
  8
0
 62
7
 10
      4.2021
 20
     10.1833
 30
      0.0000
  0
VERTEX
  8
0
 62
7
 10
      4.2060
 20
     10.1955
 30
      0.0000
 42
          0.3175208
  0
VERTEX
  8
0
 62
7
 10
      4.2024
 20
     10.2062
 30
      0.0000
  0
VERTEX
  8
0
 62
7
 10
      4.1315
 20
     10.2472
 30
      0.0000
 42
         -0.3717832
  0
VERTEX
  8
0
 62
7
 10
      4.1279
 20
     10.2540
 30
      0.0000
  0
VERTEX
  8
0
 62
7
 10
      4.1341
 20
     10.2885
 30
      0.0000
 42
         -0.3718516
  0
VERTEX
  8
0
 62
7
 10
      4.1399
 20
     10.2936
 30
      0.0000
  0
VERTEX
  8
0
 62
7
 10
      4.2207
 20
     10.3071
 30
      0.0000
 42
          0.3175364
  0
VERTEX
  8
0
 62
7
 10
      4.2278
 20
     10.3160
 30
      0.0000
  0
VERTEX
  8
0
 62
7
 10
      4.2284
 20
     10.3287
 30
      0.0000
 42
          0.3175497
  0
VERTEX
  8
0
 62
7
 10
      4.2222
 20
     10.3382
 30
      0.0000
  0
VERTEX
  8
0
 62
7
 10
      4.1430
 20
     10.3595
 30
      0.0000
 42
         -0.3717995
  0
VERTEX
  8
0
 62
7
 10
      4.1378
 20
     10.3651
 30
      0.0000
  0
VERTEX
  8
0
 62
7
 10
      4.1349
 20
     10.4000
 30
      0.0000
 42
         -0.3717906
  0
VERTEX
  8
0
 62
7
 10
      4.1391
 20
     10.4064
 30
      0.0000
  0
VERTEX
  8
0
 62
7
 10
      4.2137
 20
     10.4404
 30
      0.0000
 42
          0.3175118
  0
VERTEX
  8
0
 62
7
 10
      4.2183
 20
     10.4508
 30
      0.0000
  0
VERTEX
  8
0
 62
7
 10
      4.2156
 20
     10.4633
 30
      0.0000
 42
          0.3175052
  0
VERTEX
  8
0
 62
7
 10
      4.2071
 20
     10.4709
 30
      0.0000
  0
VERTEX
  8
0
 62
7
 10
      4.1252
 20
     10.4709
 30
      0.0000
 42
         -0.3717810
  0
VERTEX
  8
0
 62
7
 10
      4.1186
 20
     10.4750
 30
      0.0000
  0
VERTEX
  8
0
 62
7
 10
      4.1068
 20
     10.5079
 30
      0.0000
 42
         -0.3718066
  0
VERTEX
  8
0
 62
7
 10
      4.1092
 20
     10.5152
 30
      0.0000
  0
VERTEX
  8
0
 62
7
 10
      4.1725
 20
     10.5673
 30
      0.0000
 42
          0.3175381
  0
VERTEX
  8
0
 62
7
 10
      4.1742
 20
     10.5785
 30
      0.0000
  0
VERTEX
  8
0
 62
7
 10
      4.1683
 20
     10.5899
 30
      0.0000
 42
          0.3175091
  0
VERTEX
  8
0
 62
7
 10
      4.1582
 20
     10.5950
 30
      0.0000
  0
VERTEX
  8
0
 62
7
 10
      4.0791
 20
     10.5738
 30
      0.0000
 42
         -0.3718751
  0
VERTEX
  8
0
 62
7
 10
      4.0717
 20
     10.5761
 30
      0.0000
  0
VERTEX
  8
0
 62
7
 10
      4.0518
 20
     10.6049
 30
      0.0000
 42
         -0.3718307
  0
VERTEX
  8
0
 62
7
 10
      4.0522
 20
     10.6126
 30
      0.0000
  0
VERTEX
  8
0
 62
7
 10
      4.0998
 20
     10.6793
 30
      0.0000
 42
          0.3175305
  0
VERTEX
  8
0
 62
7
 10
      4.0986
 20
     10.6905
 30
      0.0000
  0
VERTEX
  8
0
 62
7
 10
      4.0900
 20
     10.7000
 30
      0.0000
 42
          0.3174977
  0
VERTEX
  8
0
 62
7
 10
      4.0789
 20
     10.7024
 30
      0.0000
  0
VERTEX
  8
0
 62
7
 10
      4.0079
 20
     10.6614
 30
      0.0000
 42
         -0.3717933
  0
VERTEX
  8
0
 62
7
 10
      4.0002
 20
     10.6617
 30
      0.0000
  0
VERTEX
  8
0
 62
7
 10
      3.9735
 20
     10.6843
 30
      0.0000
 42
         -0.3718350
  0
VERTEX
  8
0
 62
7
 10
      3.9719
 20
     10.6918
 30
      0.0000
  0
VERTEX
  8
0
 62
7
 10
      4.0006
 20
     10.7686
 30
      0.0000
 42
          0.3175397
  0
VERTEX
  8
0
 62
7
 10
      3.9965
 20
     10.7792
 30
      0.0000
  0
VERTEX
  8
0
 62
7
 10
      3.9858
 20
     10.7861
 30
      0.0000
 42
          0.3175399
  0
VERTEX
  8
0
 62
7
 10
      3.9744
 20
     10.7855
 30
      0.0000
  0
VERTEX
  8
0
 62
7
 10
      3.9165
 20
     10.7275
 30
      0.0000
 42
         -0.3717742
  0
VERTEX
  8
0
 62
7
 10
      3.9090
 20
     10.7258
 30
      0.0000
  0
VERTEX
  8
0
 62
7
 10
      3.8773
 20
     10.7407
 30
      0.0000
 42
         -0.3717778
  0
VERTEX
  8
0
 62
7
 10
      3.8739
 20
     10.7476
 30
      0.0000
  0
VERTEX
  8
0
 62
7
 10
      3.8817
 20
     10.8292
 30
      0.0000
 42
          0.3174886
  0
VERTEX
  8
0
 62
7
 10
      3.8750
 20
     10.8383
 30
      0.0000
  0
VERTEX
  8
0
 62
7
 10
      3.8628
 20
     10.8422
 30
      0.0000
 42
          0.3175529
  0
VERTEX
  8
0
 62
7
 10
      3.8520
 20
     10.8387
 30
      0.0000
  0
VERTEX
  8
0
 62
7
 10
      3.8111
 20
     10.7677
 30
      0.0000
 42
         -0.3717996
  0
VERTEX
  8
0
 62
7
 10
      3.8042
 20
     10.7641
 30
      0.0000
  0
VERTEX
  8
0
 62
7
 10
      3.7698
 20
     10.7704
 30
      0.0000
 42
         -0.3718573
  0
VERTEX
  8
0
 62
7
 10
      3.7647
 20
     10.7761
 30
      0.0000
  0
VERTEX
  8
0
 62
7
 10
      3.7512
 20
     10.8570
 30
      0.0000
 42
          0.3175049
  0
VERTEX
  8
0
 62
7
 10
      3.7423
 20
     10.8641
 30
      0.0000
  0
VERTEX
  8
0
 62
7
 10
      3.7296
 20
     10.8647
 30
      0.0000
 42
          0.3175042
  0
VERTEX
  8
0
 62
7
 10
      3.7200
 20
     10.8585
 30
      0.0000
  0
VERTEX
  8
0
 62
7
 10
      3.6988
 20
     10.7793
 30
      0.0000
 42
         -0.3718232
  0
VERTEX
  8
0
 62
7
 10
      3.6932
 20
     10.7741
 30
      0.0000
  0
VERTEX
  8
0
 62
7
 10
      3.6583
 20
     10.7712
 30
      0.0000
 42
         -0.3717391
  0
VERTEX
  8
0
 62
7
 10
      3.6519
 20
     10.7754
 30
      0.0000
  0
VERTEX
  8
0
 62
7
 10
      3.6179
 20
     10.8500
 30
      0.0000
 42
          0.3175086
  0
VERTEX
  8
0
 62
7
 10
      3.6075
 20
     10.8545
 30
      0.0000
  0
VERTEX
  8
0
 62
7
 10
      3.5950
 20
     10.8518
 30
      0.0000
 42
          0.3175077
  0
VERTEX
  8
0
 62
7
 10
      3.5874
 20
     10.8434
 30
      0.0000
  0
VERTEX
  8
0
 62
7
 10
      3.5874
 20
     10.7614
 30
      0.0000
 42
         -0.3718204
  0
VERTEX
  8
0
 62
7
 10
      3.5833
 20
     10.7549
 30
      0.0000
  0
VERTEX
  8
0
 62
7
 10
      3.5504
 20
     10.7431
 30
      0.0000
 42
         -0.3717934
  0
VERTEX
  8
0
 62
7
 10
      3.5431
 20
     10.7455
 30
      0.0000
  0
VERTEX
  8
0
 62
7
 10
      3.4910
 20
     10.8088
 30
      0.0000
 42
          0.3175029
  0
VERTEX
  8
0
 62
7
 10
      3.4797
 20
     10.8105
 30
      0.0000
  0
VERTEX
  8
0
 62
7
 10
      3.4684
 20
     10.8046
 30
      0.0000
 42
          0.3175440
  0
VERTEX
  8
0
 62
7
 10
      3.4632
 20
     10.7945
 30
      0.0000
  0
VERTEX
  8
0
 62
7
 10
      3.4844
 20
     10.7154
 30
      0.0000
 42
         -0.3718181
  0
VERTEX
  8
0
 62
7
 10
      3.4822
 20
     10.7080
 30
      0.0000
  0
VERTEX
  8
0
 62
7
 10
      3.4534
 20
     10.6880
 30
      0.0000
 42
         -0.3718238
  0
VERTEX
  8
0
 62
7
 10
      3.4457
 20
     10.6885
 30
      0.0000
  0
VERTEX
  8
0
 62
7
 10
      3.3790
 20
     10.7361
 30
      0.0000
 42
          0.3175756
  0
VERTEX
  8
0
 62
7
 10
      3.3677
 20
     10.7348
 30
      0.0000
  0
VERTEX
  8
0
 62
7
 10
      3.3583
 20
     10.7262
 30
      0.0000
 42
          0.3175269
  0
VERTEX
  8
0
 62
7
 10
      3.3559
 20
     10.7151
 30
      0.0000
  0
VERTEX
  8
0
 62
7
 10
      3.3969
 20
     10.6442
 30
      0.0000
 42
         -0.3718295
  0
VERTEX
  8
0
 62
7
 10
      3.3966
 20
     10.6365
 30
      0.0000
  0
VERTEX
  8
0
 62
7
 10
      3.3740
 20
     10.6098
 30
      0.0000
 42
         -0.3717762
  0
VERTEX
  8
0
 62
7
 10
      3.3664
 20
     10.6082
 30
      0.0000
  0
VERTEX
  8
0
 62
7
 10
      3.2897
 20
     10.6369
 30
      0.0000
 42
          0.3175310
  0
VERTEX
  8
0
 62
7
 10
      3.2791
 20
     10.6328
 30
      0.0000
  0
VERTEX
  8
0
 62
7
 10
      3.2722
 20
     10.6220
 30
      0.0000
 42
          0.3174903
  0
VERTEX
  8
0
 62
7
 10
      3.2728
 20
     10.6107
 30
      0.0000
  0
VERTEX
  8
0
 62
7
 10
      3.3308
 20
     10.5528
 30
      0.0000
 42
         -0.3718156
  0
VERTEX
  8
0
 62
7
 10
      3.3325
 20
     10.5452
 30
      0.0000
  0
VERTEX
  8
0
 62
7
 10
      3.3175
 20
     10.5136
 30
      0.0000
 42
         -0.3718736
  0
VERTEX
  8
0
 62
7
 10
      3.3106
 20
     10.5101
 30
      0.0000
  0
VERTEX
  8
0
 62
7
 10
      3.2291
 20
     10.5180
 30
      0.0000
 42
          0.3175047
  0
VERTEX
  8
0
 62
7
 10
      3.2199
 20
     10.5113
 30
      0.0000
  0
VERTEX
  8
0
 62
7
 10
      3.2160
 20
     10.4991
 30
      0.0000
 42
          0.3175367
  0
VERTEX
  8
0
 62
7
 10
      3.2196
 20
     10.4883
 30
      0.0000
  0
VERTEX
  8
0
 62
7
 10
      3.2905
 20
     10.4473
 30
      0.0000
 42
         -0.3717965
  0
VERTEX
  8
0
 62
7
 10
      3.2941
 20
     10.4405
 30
      0.0000
  0
VERTEX
  8
0
 62
7
 10
      3.2879
 20
     10.4061
 30
      0.0000
 42
         -0.3718608
  0
VERTEX
  8
0
 62
7
 10
      3.2821
 20
     10.4010
 30
      0.0000
  0
VERTEX
  8
0
 62
7
 10
      3.2013
 20
     10.3875
 30
      0.0000
 42
          0.3175431
  0
VERTEX
  8
0
 62
7
 10
      3.1942
 20
     10.3786
 30
      0.0000
  0
VERTEX
  8
0
 62
7
 10
      3.1936
 20
     10.3658
 30
      0.0000
 42
          0.3175465
  0
VERTEX
  8
0
 62
7
 10
      3.1998
 20
     10.3563
 30
      0.0000
  0
VERTEX
  8
0
 62
7
 10
      3.2790
 20
     10.3351
 30
      0.0000
 42
         -0.3717661
  0
VERTEX
  8
0
 62
7
 10
      3.2842
 20
     10.3295
 30
      0.0000
  0
VERTEX
  8
0
 62
7
 10
      3.2871
 20
     10.2946
 30
      0.0000
 42
         -0.3717465
  0
VERTEX
  8
0
 62
7
 10
      3.2829
 20
     10.2881
 30
      0.0000
  0
VERTEX
  8
0
 62
7
 10
      3.2083
 20
     10.2542
 30
      0.0000
 42
          0.3175184
  0
VERTEX
  8
0
 62
7
 10
      3.2037
 20
     10.2438
 30
      0.0000
  0
VERTEX
  8
0
 62
7
 10
      3.2064
 20
     10.2313
 30
      0.0000
 42
          0.3175246
  0
VERTEX
  8
0
 62
7
 10
      3.2149
 20
     10.2237
 30
      0.0000
  0
VERTEX
  8
0
 62
7
 10
      3.2968
 20
     10.2237
 30
      0.0000
 42
         -0.3718558
  0
VERTEX
  8
0
 62
7
 10
      3.3034
 20
     10.2196
 30
      0.0000
  0
VERTEX
  8
0
 62
7
 10
      3.3152
 20
     10.1867
 30
      0.0000
 42
         -0.3717923
  0
VERTEX
  8
0
 62
7
 10
      3.3128
 20
     10.1793
 30
      0.0000
  0
VERTEX
  8
0
 62
7
 10
      3.2495
 20
     10.1272
 30
      0.0000
 42
          0.3175422
  0
VERTEX
  8
0
 62
7
 10
      3.2478
 20
     10.1160
 30
      0.0000
  0
VERTEX
  8
0
 62
7
 10
      3.2537
 20
     10.1047
 30
      0.0000
 42
          0.3175435
  0
VERTEX
  8
0
 62
7
 10
      3.2638
 20
     10.0995
 30
      0.0000
  0
VERTEX
  8
0
 62
7
 10
      3.3429
 20
     10.1207
 30
      0.0000
 42
         -0.3718371
  0
VERTEX
  8
0
 62
7
 10
      3.3503
 20
     10.1184
 30
      0.0000
  0
VERTEX
  8
0
 62
7
 10
      3.3702
 20
     10.0897
 30
      0.0000
 42
         -0.3718052
  0
VERTEX
  8
0
 62
7
 10
      3.3698
 20
     10.0820
 30
      0.0000
  0
VERTEX
  8
0
 62
7
 10
      3.3222
 20
     10.0153
 30
      0.0000
 42
          0.3174921
  0
VERTEX
  8
0
 62
7
 10
      3.3234
 20
     10.0040
 30
      0.0000
  0
VERTEX
  8
0
 62
7
 10
      3.3320
 20
      9.9946
 30
      0.0000
 42
          0.3175611
  0
VERTEX
  8
0
 62
7
 10
      3.3432
 20
      9.9922
 30
      0.0000
  0
VERTEX
  8
0
 62
7
 10
      3.4141
 20
     10.0332
 30
      0.0000
 42
         -0.3718235
  0
VERTEX
  8
0
 62
7
 10
      3.4218
 20
     10.0329
 30
      0.0000
  0
VERTEX
  8
0
 62
7
 10
      3.4485
 20
     10.0103
 30
      0.0000
 42
         -0.3718259
  0
VERTEX
  8
0
 62
7
 10
      3.4501
 20
     10.0027
 30
      0.0000
  0
VERTEX
  8
0
 62
7
 10
      3.4214
 20
      9.9260
 30
      0.0000
 42
          0.3175285
  0
VERTEX
  8
0
 62
7
 10
      3.4255
 20
      9.9154
 30
      0.0000
  0
VERTEX
  8
0
 62
7
 10
      3.4362
 20
      9.9085
 30
      0.0000
 42
          0.3175343
  0
VERTEX
  8
0
 62
7
 10
      3.4476
 20
      9.9091
 30
      0.0000
  0
VERTEX
  8
0
 62
7
 10
      3.5055
 20
      9.9670
 30
      0.0000
 42
         -0.3718292
  0
VERTEX
  8
0
 62
7
 10
      3.5130
 20
      9.9688
 30
      0.0000
  0
VERTEX
  8
0
 62
7
 10
      3.5447
 20
      9.9538
 30
      0.0000
 42
         -0.3717976
  0
VERTEX
  8
0
 62
7
 10
      3.5482
 20
      9.9469
 30
      0.0000
  0
VERTEX
  8
0
 62
7
 10
      3.5403
 20
      9.8654
 30
      0.0000
 42
          0.3175397
  0
VERTEX
  8
0
 62
7
 10
      3.5470
 20
      9.8562
 30
      0.0000
  0
VERTEX
  8
0
 62
7
 10
      3.5592
 20
      9.8523
 30
      0.0000
 42
          0.3175711
  0
VERTEX
  8
0
 62
7
 10
      3.5700
 20
      9.8559
 30
      0.0000
  0
VERTEX
  8
0
 62
7
 10
      3.6109
 20
      9.9268
 30
      0.0000
 42
         -0.3718066
  0
VERTEX
  8
0
 62
7
 10
      3.6178
 20
      9.9304
 30
      0.0000
  0
VERTEX
  8
0
 62
7
 10
      3.6522
 20
      9.9242
 30
      0.0000
 42
         -0.3717777
  0
VERTEX
  8
0
 62
7
 10
      3.6573
 20
      9.9184
 30
      0.0000
  0
VERTEX
  8
0
 62
7
 10
      3.6708
 20
      9.8376
 30
      0.0000
 42
          0.3175319
  0
VERTEX
  8
0
 62
7
 10
      3.6797
 20
      9.8305
 30
      0.0000
  0
VERTEX
  8
0
 62
7
 10
      3.6925
 20
      9.8299
 30
      0.0000
 42
          0.3175122
  0
VERTEX
  8
0
 62
7
 10
      3.7020
 20
      9.8361
 30
      0.0000
  0
VERTEX
  8
0
 62
7
 10
      3.7232
 20
      9.9152
 30
      0.0000
 42
         -0.3718078
  0
VERTEX
  8
0
 62
7
 10
      3.7288
 20
      9.9205
 30
      0.0000
  0
VERTEX
  8
0
 62
7
 10
      3.7637
 20
      9.9234
 30
      0.0000
 42
         -0.3718058
  0
VERTEX
  8
0
 62
7
 10
      3.7701
 20
      9.9191
 30
      0.0000
  0
VERTEX
  8
0
 62
7
 10
      3.8041
 20
      9.8446
 30
      0.0000
 42
          0.3175569
  0
VERTEX
  8
0
 62
7
 10
      3.8145
 20
      9.8400
 30
      0.0000
  0
VERTEX
  8
0
 62
7
 10
      3.8270
 20
      9.8427
 30
      0.0000
 42
          0.3175339
  0
VERTEX
  8
0
 62
7
 10
      3.8346
 20
      9.8512
 30
      0.0000
  0
VERTEX
  8
0
 62
7
 10
      3.8346
 20
      9.9331
 30
      0.0000
 42
         -0.3717870
  0
VERTEX
  8
0
 62
7
 10
      3.8387
 20
      9.9396
 30
      0.0000
  0
VERTEX
  8
0
 62
7
 10
      3.8716
 20
      9.9515
 30
      0.0000
 42
         -0.3718457
  0
VERTEX
  8
0
 62
7
 10
      3.8789
 20
      9.9490
 30
      0.0000
  0
VERTEX
  8
0
 62
7
 10
      3.9310
 20
      9.8858
 30
      0.0000
 42
          0.3175333
  0
VERTEX
  8
0
 62
7
 10
      3.9423
 20
      9.8841
 30
      0.0000
  0
VERTEX
  8
0
 62
7
 10
      3.9536
 20
      9.8899
 30
      0.0000
 42
          0.3175233
  0
VERTEX
  8
0
 62
7
 10
      3.9588
 20
      9.9001
 30
      0.0000
  0
VERTEX
  8
0
 62
7
 10
      3.9376
 20
      9.9792
 30
      0.0000
 42
         -0.3718522
  0
VERTEX
  8
0
 62
7
 10
      3.9398
 20
      9.9866
 30
      0.0000
  0
VERTEX
  8
0
 62
7
 10
      3.9686
 20
     10.0065
 30
      0.0000
 42
         -0.3718449
  0
VERTEX
  8
0
 62
7
 10
      3.9763
 20
     10.0061
 30
      0.0000
  0
VERTEX
  8
0
 62
7
 10
      4.0430
 20
      9.9585
 30
      0.0000
 42
          0.3175341
  0
VERTEX
  8
0
 62
7
 10
      4.0543
 20
      9.9597
 30
      0.0000
  0
SEQEND
  8
0
 62
7
  0
CIRCLE
  8
0
 62
7
 10
      2.4610
 20
     10.3473
 30
      0.0000
 40
      0.4035
  0
POLYLINE
  8
0
 62
7
 10
      0.0000
 20
      0.0000
 30
      0.0000
 66
  1
 70
  1
  0
VERTEX
  8
0
 62
7
 10
      3.5223
 20
      9.1116
 30
      0.0000
  0
VERTEX
  8
0
 62
7
 10
      2.4914
 20
      9.2690
 30
      0.0000
 42
         -0.3222540
  0
VERTEX
  8
0
 62
7
 10
      1.7406
 20
     10.0044
 30
      0.0000
 42
         -0.0863528
  0
VERTEX
  8
0
 62
7
 10
      1.7406
 20
     10.6901
 30
      0.0000
 42
         -0.3222543
  0
VERTEX
  8
0
 62
7
 10
      2.4914
 20
     11.4255
 30
      0.0000
  0
VERTEX
  8
0
 62
7
 10
      3.5223
 20
     11.5830
 30
      0.0000
 42
         -1.1642952
  0
VERTEX
  8
0
 62
7
 10
      3.5223
 20
      9.1116
 30
      0.0000
  0
SEQEND
  8
0
 62
7
  0
TEXT
  8
251
 62
13
 10
      2.7980
 20
      9.1875
 30
      0.0000
 40
      0.4921
 1
2
  0
POLYLINE
  8
0
 62
7
 10
      0.0000
 20
      0.0000
 30
      0.0000
 66
  1
 70
  1
  0
VERTEX
  8
0
 62
7
 10
      4.7602
 20
      7.9800
 30
      0.0000
  0
VERTEX
  8
0
 62
7
 10
      4.6352
 20
      8.1965
 30
      0.0000
  0
VERTEX
  8
0
 62
7
 10
      4.2022
 20
      7.9465
 30
      0.0000
  0
VERTEX
  8
0
 62
7
 10
      4.3272
 20
      7.7300
 30
      0.0000
  0
SEQEND
  8
0
 62
7
  0
POLYLINE
  8
0
 62
7
 10
      0.0000
 20
      0.0000
 30
      0.0000
 66
  1
 70
  1
  0
VERTEX
  8
0
 62
7
 10
      4.1437
 20
      4.6537
 30
      0.0000
  0
VERTEX
  8
0
 62
7
 10
      4.3937
 20
      4.6537
 30
      0.0000
  0
VERTEX
  8
0
 62
7
 10
      4.3937
 20
      5.1537
 30
      0.0000
  0
VERTEX
  8
0
 62
7
 10
      4.1437
 20
      5.1537
 30
      0.0000
  0
SEQEND
  8
0
 62
7
  0
POLYLINE
  8
0
 62
7
 10
      0.0000
 20
      0.0000
 30
      0.0000
 66
  1
 70
  1
  0
VERTEX
  8
0
 62
7
 10
      0.8240
 20
      6.5152
 30
      0.0000
  0
VERTEX
  8
0
 62
7
 10
      1.3240
 20
      6.5152
 30
      0.0000
  0
VERTEX
  8
0
 62
7
 10
      1.3240
 20
      6.7652
 30
      0.0000
  0
VERTEX
  8
0
 62
7
 10
      0.8240
 20
      6.7652
 30
      0.0000
  0
SEQEND
  8
0
 62
7
  0
POLYLINE
  8
0
 62
7
 10
      0.0000
 20
      0.0000
 30
      0.0000
 66
  1
 70
  1
  0
VERTEX
  8
0
 62
7
 10
      1.5957
 20
      5.5644
 30
      0.0000
  0
VERTEX
  8
0
 62
7
 10
      1.8457
 20
      5.5644
 30
      0.0000
  0
VERTEX
  8
0
 62
7
 10
      1.8457
 20
      6.0644
 30
      0.0000
  0
VERTEX
  8
0
 62
7
 10
      1.5957
 20
      6.0644
 30
      0.0000
  0
SEQEND
  8
0
 62
7
  0
POLYLINE
  8
0
 62
7
 10
      0.0000
 20
      0.0000
 30
      0.0000
 66
  1
 70
  1
  0
VERTEX
  8
0
 62
7
 10
      0.9411
 20
      4.8636
 30
      0.0000
  0
VERTEX
  8
0
 62
7
 10
      1.4411
 20
      4.8636
 30
      0.0000
  0
VERTEX
  8
0
 62
7
 10
      1.4411
 20
      5.1136
 30
      0.0000
  0
VERTEX
  8
0
 62
7
 10
      0.9411
 20
      5.1136
 30
      0.0000
  0
SEQEND
  8
0
 62
7
  0
POLYLINE
  8
0
 62
7
 10
      0.0000
 20
      0.0000
 30
      0.0000
 66
  1
 70
  1
  0
VERTEX
  8
0
 62
7
 10
      1.3937
 20
      3.4884
 30
      0.0000
  0
VERTEX
  8
0
 62
7
 10
      2.6437
 20
      3.4884
 30
      0.0000
  0
VERTEX
  8
0
 62
7
 10
      2.6437
 20
      3.7384
 30
      0.0000
  0
VERTEX
  8
0
 62
7
 10
      1.3937
 20
      3.7384
 30
      0.0000
  0
SEQEND
  8
0
 62
7
  0
POLYLINE
  8
0
 62
7
 10
      0.0000
 20
      0.0000
 30
      0.0000
 66
  1
 70
  1
  0
VERTEX
  8
0
 62
7
 10
      3.8937
 20
      3.4884
 30
      0.0000
  0
VERTEX
  8
0
 62
7
 10
      5.1437
 20
      3.4884
 30
      0.0000
  0
VERTEX
  8
0
 62
7
 10
      5.1437
 20
      3.7384
 30
      0.0000
  0
VERTEX
  8
0
 62
7
 10
      3.8937
 20
      3.7384
 30
      0.0000
  0
SEQEND
  8
0
 62
7
  0
POLYLINE
  8
0
 62
7
 10
      0.0000
 20
      0.0000
 30
      0.0000
 66
  1
 70
  1
  0
VERTEX
  8
0
 62
7
 10
      3.0955
 20
      3.9030
 30
      0.0000
  0
VERTEX
  8
0
 62
7
 10
      3.3455
 20
      3.9030
 30
      0.0000
  0
VERTEX
  8
0
 62
7
 10
      3.3455
 20
      4.4030
 30
      0.0000
  0
VERTEX
  8
0
 62
7
 10
      3.0955
 20
      4.4030
 30
      0.0000
  0
SEQEND
  8
0
 62
7
  0
POLYLINE
  8
0
 62
7
 10
      0.0000
 20
      0.0000
 30
      0.0000
 66
  1
 70
  1
  0
VERTEX
  8
0
 62
7
 10
      2.1447
 20
      4.9404
 30
      0.0000
  0
VERTEX
  8
0
 62
7
 10
      2.6447
 20
      4.9404
 30
      0.0000
  0
VERTEX
  8
0
 62
7
 10
      2.6447
 20
      5.1904
 30
      0.0000
  0
VERTEX
  8
0
 62
7
 10
      2.1447
 20
      5.1904
 30
      0.0000
  0
SEQEND
  8
0
 62
7
  0
POLYLINE
  8
0
 62
7
 10
      0.0000
 20
      0.0000
 30
      0.0000
 66
  1
 70
  1
  0
VERTEX
  8
0
 62
7
 10
      1.6939
 20
      4.7858
 30
      0.0000
  0
VERTEX
  8
0
 62
7
 10
      1.4439
 20
      4.7858
 30
      0.0000
  0
VERTEX
  8
0
 62
7
 10
      1.4439
 20
      4.2858
 30
      0.0000
  0
VERTEX
  8
0
 62
7
 10
      1.6939
 20
      4.2858
 30
      0.0000
  0
SEQEND
  8
0
 62
7
  0
CIRCLE
  8
0
 62
7
 10
      3.2687
 20
      6.6884
 30
      0.0000
 40
      0.6250
  0
CIRCLE
  8
0
 62
7
 10
      3.2687
 20
     10.0634
 30
      0.0000
 40
      2.0500
  0
CIRCLE
  8
0
 62
7
 10
      2.3238
 20
      6.6785
 30
      0.0000
 40
      0.1100
  0
CIRCLE
  8
0
 62
7
 10
      1.9874
 20
      5.4071
 30
      0.0000
 40
      0.0780
  0
CIRCLE
  8
0
 62
7
 10
      4.5500
 20
      5.4071
 30
      0.0000
 40
      0.0780
  0
CIRCLE
  8
0
 62
7
 10
      1.9874
 20
      7.9697
 30
      0.0000
 40
      0.0780
  0
POLYLINE
  8
0
 62
7
 10
      0.0000
 20
      0.0000
 30
      0.0000
 66
  1
 70
  1
  0
VERTEX
  8
0
 62
7
 10
      5.8937
 20
      1.9037
 30
      0.0000
  0
VERTEX
  8
0
 62
7
 10
      6.1437
 20
      1.9037
 30
      0.0000
  0
VERTEX
  8
0
 62
7
 10
      6.1437
 20
      0.4037
 30
      0.0000
  0
VERTEX
  8
0
 62
7
 10
      5.1437
 20
      0.4037
 30
      0.0000
  0
VERTEX
  8
0
 62
7
 10
      5.1437
 20
      0.6537
 30
      0.0000
  0
VERTEX
  8
0
 62
7
 10
      3.8937
 20
      0.6537
 30
      0.0000
  0
VERTEX
  8
0
 62
7
 10
      3.8937
 20
      0.4037
 30
      0.0000
  0
VERTEX
  8
0
 62
7
 10
      2.6437
 20
      0.4037
 30
      0.0000
  0
VERTEX
  8
0
 62
7
 10
      2.6437
 20
      0.6537
 30
      0.0000
  0
VERTEX
  8
0
 62
7
 10
      1.3937
 20
      0.6537
 30
      0.0000
  0
VERTEX
  8
0
 62
7
 10
      1.3937
 20
      0.4037
 30
      0.0000
  0
VERTEX
  8
0
 62
7
 10
      0.3937
 20
      0.4037
 30
      0.0000
  0
VERTEX
  8
0
 62
7
 10
      0.3937
 20
      8.2386
 30
      0.0000
  0
VERTEX
  8
0
 62
7
 10
      0.6437
 20
      8.2386
 30
      0.0000
  0
VERTEX
  8
0
 62
7
 10
      0.6437
 20
      8.4886
 30
      0.0000
  0
VERTEX
  8
0
 62
7
 10
      0.3937
 20
      8.4886
 30
      0.0000
  0
VERTEX
  8
0
 62
7
 10
      0.3937
 20
      9.6384
 30
      0.0000
  0
VERTEX
  8
0
 62
7
 10
      0.6437
 20
      9.6384
 30
      0.0000
  0
VERTEX
  8
0
 62
7
 10
      0.6437
 20
      9.8884
 30
      0.0000
  0
VERTEX
  8
0
 62
7
 10
      0.3937
 20
      9.8884
 30
      0.0000
  0
VERTEX
  8
0
 62
7
 10
      0.3937
 20
     13.4884
 30
      0.0000
  0
VERTEX
  8
0
 62
7
 10
      1.3937
 20
     13.4884
 30
      0.0000
  0
VERTEX
  8
0
 62
7
 10
      1.3937
 20
     13.7384
 30
      0.0000
  0
VERTEX
  8
0
 62
7
 10
      2.7687
 20
     13.7384
 30
      0.0000
  0
VERTEX
  8
0
 62
7
 10
      2.7687
 20
     13.4884
 30
      0.0000
  0
VERTEX
  8
0
 62
7
 10
      3.7687
 20
     13.4884
 30
      0.0000
  0
VERTEX
  8
0
 62
7
 10
      3.7687
 20
     13.7384
 30
      0.0000
  0
VERTEX
  8
0
 62
7
 10
      5.1437
 20
     13.7384
 30
      0.0000
  0
VERTEX
  8
0
 62
7
 10
      5.1437
 20
     13.4884
 30
      0.0000
  0
VERTEX
  8
0
 62
7
 10
      6.1437
 20
     13.4884
 30
      0.0000
  0
VERTEX
  8
0
 62
7
 10
      6.1437
 20
     12.6027
 30
      0.0000
  0
VERTEX
  8
0
 62
7
 10
      5.8937
 20
     12.6027
 30
      0.0000
  0
VERTEX
  8
0
 62
7
 10
      5.8937
 20
     11.6027
 30
      0.0000
  0
VERTEX
  8
0
 62
7
 10
      6.1437
 20
     11.6027
 30
      0.0000
  0
VERTEX
  8
0
 62
7
 10
      6.1437
 20
     10.7169
 30
      0.0000
  0
VERTEX
  8
0
 62
7
 10
      5.8937
 20
     10.7169
 30
      0.0000
  0
VERTEX
  8
0
 62
7
 10
      5.8937
 20
     10.4669
 30
      0.0000
  0
VERTEX
  8
0
 62
7
 10
      6.1437
 20
     10.4669
 30
      0.0000
  0
VERTEX
  8
0
 62
7
 10
      6.1437
 20
      9.8884
 30
      0.0000
  0
VERTEX
  8
0
 62
7
 10
      5.8937
 20
      9.8884
 30
      0.0000
  0
VERTEX
  8
0
 62
7
 10
      5.8937
 20
      9.6384
 30
      0.0000
  0
VERTEX
  8
0
 62
7
 10
      6.1437
 20
      9.6384
 30
      0.0000
  0
VERTEX
  8
0
 62
7
 10
      6.1437
 20
      7.9098
 30
      0.0000
  0
VERTEX
  8
0
 62
7
 10
      5.8937
 20
      7.9098
 30
      0.0000
  0
VERTEX
  8
0
 62
7
 10
      5.8937
 20
      6.6598
 30
      0.0000
  0
VERTEX
  8
0
 62
7
 10
      6.1437
 20
      6.6598
 30
      0.0000
  0
VERTEX
  8
0
 62
7
 10
      6.1437
 20
      3.1537
 30
      0.0000
  0
VERTEX
  8
0
 62
7
 10
      5.8937
 20
      3.1537
 30
      0.0000
  0
SEQEND
  8
0
 62
7
  0
TEXT
  8
251
 62
13
 10
      5.7726
 20
      1.4116
 30
      0.0000
 40
      0.4921
 1
3
  0
POLYLINE
  8
0
 62
7
 10
      0.0000
 20
      0.0000
 30
      0.0000
 66
  1
 70
  1
  0
VERTEX
  8
0
 62
7
 10
      4.2687
 20
     18.5632
 30
      0.0000
  0
VERTEX
  8
0
 62
7
 10
      4.2687
 20
     16.8742
 30
      0.0000
  0
VERTEX
  8
0
 62
7
 10
      4.5187
 20
     16.8742
 30
      0.0000
  0
VERTEX
  8
0
 62
7
 10
      4.5187
 20
     15.8742
 30
      0.0000
  0
VERTEX
  8
0
 62
7
 10
      4.2687
 20
     15.8742
 30
      0.0000
  0
VERTEX
  8
0
 62
7
 10
      4.2687
 20
     14.1852
 30
      0.0000
  0
VERTEX
  8
0
 62
7
 10
      2.9687
 20
     14.1852
 30
      0.0000
  0
VERTEX
  8
0
 62
7
 10
      2.9687
 20
     13.9352
 30
      0.0000
  0
VERTEX
  8
0
 62
7
 10
      1.9687
 20
     13.9352
 30
      0.0000
  0
VERTEX
  8
0
 62
7
 10
      1.9687
 20
     14.1852
 30
      0.0000
  0
VERTEX
  8
0
 62
7
 10
      0.6687
 20
     14.1852
 30
      0.0000
  0
VERTEX
  8
0
 62
7
 10
      0.6687
 20
     15.8742
 30
      0.0000
  0
VERTEX
  8
0
 62
7
 10
      0.4187
 20
     15.8742
 30
      0.0000
  0
VERTEX
  8
0
 62
7
 10
      0.4187
 20
     16.8742
 30
      0.0000
  0
VERTEX
  8
0
 62
7
 10
      0.6687
 20
     16.8742
 30
      0.0000
  0
VERTEX
  8
0
 62
7
 10
      0.6687
 20
     18.5632
 30
      0.0000
  0
VERTEX
  8
0
 62
7
 10
      1.9687
 20
     18.5632
 30
      0.0000
  0
VERTEX
  8
0
 62
7
 10
      1.9687
 20
     18.8132
 30
      0.0000
  0
VERTEX
  8
0
 62
7
 10
      2.9687
 20
     18.8132
 30
      0.0000
  0
VERTEX
  8
0
 62
7
 10
      2.9687
 20
     18.5632
 30
      0.0000
  0
SEQEND
  8
0
 62
7
  0
TEXT
  8
251
 62
13
 10
      3.7766
 20
     17.4726
 30
      0.0000
 40
      0.4921
 1
4
  0
POLYLINE
  8
0
 62
7
 10
      0.0000
 20
      0.0000
 30
      0.0000
 66
  1
 70
  1
  0
VERTEX
  8
0
 62
7
 10
      7.8257
 20
      2.0006
 30
      0.0000
  0
VERTEX
  8
0
 62
7
 10
      7.8431
 20
      2.2500
 30
      0.0000
  0
VERTEX
  8
0
 62
7
 10
      7.5937
 20
      2.2675
 30
      0.0000
  0
VERTEX
  8
0
 62
7
 10
      7.5763
 20
      2.0181
 30
      0.0000
  0
SEQEND
  8
0
 62
7
  0
POLYLINE
  8
0
 62
7
 10
      0.0000
 20
      0.0000
 30
      0.0000
 66
  1
 70
  1
  0
VERTEX
  8
0
 62
7
 10
      8.8406
 20
      1.0766
 30
      0.0000
  0
VERTEX
  8
0
 62
7
 10
      7.4398
 20
      1.0766
 30
      0.0000
  0
VERTEX
  8
0
 62
7
 10
      7.4398
 20
      0.7636
 30
      0.0000
  0
VERTEX
  8
0
 62
7
 10
      6.8120
 20
      0.7636
 30
      0.0000
  0
VERTEX
  8
0
 62
7
 10
      6.8120
 20
      0.5136
 30
      0.0000
  0
VERTEX
  8
0
 62
7
 10
      6.5620
 20
      0.5136
 30
      0.0000
  0
VERTEX
  8
0
 62
7
 10
      6.5620
 20
      2.3384
 30
      0.0000
  0
VERTEX
  8
0
 62
7
 10
      7.3120
 20
      2.3384
 30
      0.0000
  0
VERTEX
  8
0
 62
7
 10
      7.3120
 20
      2.5884
 30
      0.0000
  0
VERTEX
  8
0
 62
7
 10
      8.0620
 20
      2.5884
 30
      0.0000
  0
VERTEX
  8
0
 62
7
 10
      8.0620
 20
      2.3384
 30
      0.0000
  0
VERTEX
  8
0
 62
7
 10
      8.5906
 20
      2.3384
 30
      0.0000
  0
VERTEX
  8
0
 62
7
 10
      8.5906
 20
      2.5884
 30
      0.0000
  0
VERTEX
  8
0
 62
7
 10
      8.8406
 20
      2.5884
 30
      0.0000
  0
VERTEX
  8
0
 62
7
 10
      8.8406
 20
      1.5707
 30
      0.0000
  0
VERTEX
  8
0
 62
7
 10
      8.5906
 20
      1.5707
 30
      0.0000
  0
VERTEX
  8
0
 62
7
 10
      8.5906
 20
      1.3207
 30
      0.0000
  0
VERTEX
  8
0
 62
7
 10
      8.8406
 20
      1.3207
 30
      0.0000
  0
SEQEND
  8
0
 62
7
  0
TEXT
  8
251
 62
13
 10
      7.8941
 20
      1.0766
 30
      0.0000
 40
      0.4921
 1
5
  0
POLYLINE
  8
0
 62
7
 10
      0.0000
 20
      0.0000
 30
      0.0000
 66
  1
 70
  1
  0
VERTEX
  8
0
 62
7
 10
      8.2421
 20
     12.4470
 30
      0.0000
  0
VERTEX
  8
0
 62
7
 10
      8.2421
 20
     12.1970
 30
      0.0000
  0
VERTEX
  8
0
 62
7
 10
      8.5906
 20
     12.1970
 30
      0.0000
  0
VERTEX
  8
0
 62
7
 10
      8.5906
 20
     12.4470
 30
      0.0000
  0
SEQEND
  8
0
 62
7
  0
POLYLINE
  8
0
 62
7
 10
      0.0000
 20
      0.0000
 30
      0.0000
 66
  1
 70
  1
  0
VERTEX
  8
0
 62
7
 10
      7.3937
 20
     12.1970
 30
      0.0000
  0
VERTEX
  8
0
 62
7
 10
      7.3937
 20
     12.4470
 30
      0.0000
  0
VERTEX
  8
0
 62
7
 10
      6.5906
 20
     12.4470
 30
      0.0000
  0
VERTEX
  8
0
 62
7
 10
      6.5906
 20
     12.1970
 30
      0.0000
  0
SEQEND
  8
0
 62
7
  0
POLYLINE
  8
0
 62
7
 10
      0.0000
 20
      0.0000
 30
      0.0000
 66
  1
 70
  1
  0
VERTEX
  8
0
 62
7
 10
      7.9921
 20
     11.7925
 30
      0.0000
  0
VERTEX
  8
0
 62
7
 10
      7.9921
 20
     11.0425
 30
      0.0000
  0
VERTEX
  8
0
 62
7
 10
      8.2421
 20
     11.0425
 30
      0.0000
  0
VERTEX
  8
0
 62
7
 10
      8.2421
 20
     11.7925
 30
      0.0000
  0
SEQEND
  8
0
 62
7
  0
POLYLINE
  8
0
 62
7
 10
      0.0000
 20
      0.0000
 30
      0.0000
 66
  1
 70
  1
  0
VERTEX
  8
0
 62
7
 10
      6.8406
 20
     10.6380
 30
      0.0000
  0
VERTEX
  8
0
 62
7
 10
      6.8406
 20
     10.3880
 30
      0.0000
  0
VERTEX
  8
0
 62
7
 10
      7.5906
 20
     10.3880
 30
      0.0000
  0
VERTEX
  8
0
 62
7
 10
      7.5906
 20
     10.6380
 30
      0.0000
  0
SEQEND
  8
0
 62
7
  0
POLYLINE
  8
0
 62
7
 10
      0.0000
 20
      0.0000
 30
      0.0000
 66
  1
 70
  1
  0
VERTEX
  8
0
 62
7
 10
      5.7156
 20
     15.6852
 30
      0.0000
  0
VERTEX
  8
0
 62
7
 10
      5.7156
 20
     15.1852
 30
      0.0000
  0
VERTEX
  8
0
 62
7
 10
      7.0906
 20
     15.1852
 30
      0.0000
  0
VERTEX
  8
0
 62
7
 10
      7.0906
 20
     15.6852
 30
      0.0000
  0
SEQEND
  8
0
 62
7
  0
POLYLINE
  8
0
 62
7
 10
      0.0000
 20
      0.0000
 30
      0.0000
 66
  1
 70
  1
  0
VERTEX
  8
0
 62
7
 10
      8.0906
 20
     15.6852
 30
      0.0000
  0
VERTEX
  8
0
 62
7
 10
      8.0906
 20
     15.1852
 30
      0.0000
  0
VERTEX
  8
0
 62
7
 10
      9.4656
 20
     15.1852
 30
      0.0000
  0
VERTEX
  8
0
 62
7
 10
      9.4656
 20
     15.6852
 30
      0.0000
  0
SEQEND
  8
0
 62
7
  0
POLYLINE
  8
0
 62
7
 10
      0.0000
 20
      0.0000
 30
      0.0000
 66
  1
 70
  1
  0
VERTEX
  8
0
 62
7
 10
      7.0906
 20
      7.6632
 30
      0.0000
  0
VERTEX
  8
0
 62
7
 10
      7.0906
 20
      7.4132
 30
      0.0000
  0
VERTEX
  8
0
 62
7
 10
      8.0906
 20
      7.4132
 30
      0.0000
  0
VERTEX
  8
0
 62
7
 10
      8.0906
 20
      7.6632
 30
      0.0000
  0
SEQEND
  8
0
 62
7
  0
POLYLINE
  8
0
 62
7
 10
      0.0000
 20
      0.0000
 30
      0.0000
 66
  1
 70
  1
  0
VERTEX
  8
0
 62
7
 10
      6.5906
 20
      5.7242
 30
      0.0000
  0
VERTEX
  8
0
 62
7
 10
      6.3406
 20
      5.7242
 30
      0.0000
  0
VERTEX
  8
0
 62
7
 10
      6.3406
 20
     11.0425
 30
      0.0000
  0
VERTEX
  8
0
 62
7
 10
      6.5906
 20
     11.0425
 30
      0.0000
  0
VERTEX
  8
0
 62
7
 10
      6.5906
 20
     11.7925
 30
      0.0000
  0
VERTEX
  8
0
 62
7
 10
      6.3406
 20
     11.7925
 30
      0.0000
  0
VERTEX
  8
0
 62
7
 10
      6.3406
 20
     13.6852
 30
      0.0000
  0
VERTEX
  8
0
 62
7
 10
      4.7156
 20
     14.6852
 30
      0.0000
  0
VERTEX
  8
0
 62
7
 10
      4.7156
 20
     17.5100
 30
      0.0000
  0
VERTEX
  8
0
 62
7
 10
      5.7156
 20
     17.5100
 30
      0.0000
  0
VERTEX
  8
0
 62
7
 10
      5.7156
 20
     17.2600
 30
      0.0000
  0
VERTEX
  8
0
 62
7
 10
      7.0906
 20
     17.2600
 30
      0.0000
  0
VERTEX
  8
0
 62
7
 10
      7.0906
 20
     17.5100
 30
      0.0000
  0
VERTEX
  8
0
 62
7
 10
      8.0906
 20
     17.5100
 30
      0.0000
  0
VERTEX
  8
0
 62
7
 10
      8.0906
 20
     17.2600
 30
      0.0000
  0
VERTEX
  8
0
 62
7
 10
      9.4656
 20
     17.2600
 30
      0.0000
  0
VERTEX
  8
0
 62
7
 10
      9.4656
 20
     17.5100
 30
      0.0000
  0
VERTEX
  8
0
 62
7
 10
     10.4656
 20
     17.5100
 30
      0.0000
  0
VERTEX
  8
0
 62
7
 10
     10.4656
 20
     14.6852
 30
      0.0000
  0
VERTEX
  8
0
 62
7
 10
      8.8406
 20
     13.6852
 30
      0.0000
  0
VERTEX
  8
0
 62
7
 10
      8.8406
 20
      3.0352
 30
      0.0000
  0
VERTEX
  8
0
 62
7
 10
      8.0906
 20
      3.0352
 30
      0.0000
  0
VERTEX
  8
0
 62
7
 10
      8.0906
 20
      2.7852
 30
      0.0000
  0
VERTEX
  8
0
 62
7
 10
      7.0906
 20
      2.7852
 30
      0.0000
  0
VERTEX
  8
0
 62
7
 10
      7.0906
 20
      3.0352
 30
      0.0000
  0
VERTEX
  8
0
 62
7
 10
      6.3406
 20
      3.0352
 30
      0.0000
  0
VERTEX
  8
0
 62
7
 10
      6.3406
 20
      4.7242
 30
      0.0000
  0
VERTEX
  8
0
 62
7
 10
      6.5906
 20
      4.7242
 30
      0.0000
  0
SEQEND
  8
0
 62
7
  0
TEXT
  8
251
 62
13
 10
      6.2195
 20
      5.7242
 30
      0.0000
 40
      0.4921
 1
6
  0
POLYLINE
  8
0
 62
7
 10
      0.0000
 20
      0.0000
 30
      0.0000
 66
  1
 70
  1
  0
VERTEX
  8
0
 62
7
 10
      8.3177
 20
     18.7670
 30
      0.0000
  0
VERTEX
  8
0
 62
7
 10
      8.0697
 20
     18.7982
 30
      0.0000
  0
VERTEX
  8
0
 62
7
 10
      8.0386
 20
     18.5501
 30
      0.0000
  0
VERTEX
  8
0
 62
7
 10
      8.2866
 20
     18.5190
 30
      0.0000
  0
SEQEND
  8
0
 62
7
  0
POLYLINE
  8
0
 62
7
 10
      0.0000
 20
      0.0000
 30
      0.0000
 66
  1
 70
  1
  0
VERTEX
  8
0
 62
7
 10
      7.4496
 20
     18.8760
 30
      0.0000
  0
VERTEX
  8
0
 62
7
 10
      7.2015
 20
     18.9072
 30
      0.0000
  0
VERTEX
  8
0
 62
7
 10
      7.1704
 20
     18.6591
 30
      0.0000
  0
VERTEX
  8
0
 62
7
 10
      7.4184
 20
     18.6280
 30
      0.0000
  0
SEQEND
  8
0
 62
7
  0
POLYLINE
  8
0
 62
7
 10
      0.0000
 20
      0.0000
 30
      0.0000
 66
  1
 70
  1
  0
VERTEX
  8
0
 62
7
 10
      8.5187
 20
     17.7079
 30
      0.0000
  0
VERTEX
  8
0
 62
7
 10
      6.8937
 20
     17.7079
 30
      0.0000
  0
VERTEX
  8
0
 62
7
 10
      6.8937
 20
     17.4569
 30
      0.0000
  0
VERTEX
  8
0
 62
7
 10
      6.1781
 20
     17.4569
 30
      0.0000
  0
VERTEX
  8
0
 62
7
 10
      6.1781
 20
     19.2817
 30
      0.0000
  0
VERTEX
  8
0
 62
7
 10
      6.5531
 20
     19.2817
 30
      0.0000
  0
VERTEX
  8
0
 62
7
 10
      6.5531
 20
     19.0317
 30
      0.0000
  0
VERTEX
  8
0
 62
7
 10
      7.5531
 20
     19.0317
 30
      0.0000
  0
VERTEX
  8
0
 62
7
 10
      7.5531
 20
     19.2817
 30
      0.0000
  0
VERTEX
  8
0
 62
7
 10
      7.9281
 20
     19.2817
 30
      0.0000
  0
VERTEX
  8
0
 62
7
 10
      7.9281
 20
     19.0317
 30
      0.0000
  0
VERTEX
  8
0
 62
7
 10
      8.5187
 20
     19.0317
 30
      0.0000
  0
SEQEND
  8
0
 62
7
  0
TEXT
  8
251
 62
13
 10
      7.4601
 20
     17.7079
 30
      0.0000
 40
      0.4921
 1
7
  0
POLYLINE
  8
0
 62
7
 10
      0.0000
 20
      0.0000
 30
      0.0000
 66
  1
 70
  1
  0
VERTEX
  8
0
 62
7
 10
     11.1644
 20
      9.8902
 30
      0.0000
  0
VERTEX
  8
0
 62
7
 10
     11.4144
 20
      9.8902
 30
      0.0000
  0
VERTEX
  8
0
 62
7
 10
     11.4144
 20
     10.1402
 30
      0.0000
  0
VERTEX
  8
0
 62
7
 10
     11.1644
 20
     10.1402
 30
      0.0000
  0
SEQEND
  8
0
 62
7
  0
POLYLINE
  8
0
 62
7
 10
      0.0000
 20
      0.0000
 30
      0.0000
 66
  1
 70
  1
  0
VERTEX
  8
0
 62
7
 10
      9.8927
 20
     10.1402
 30
      0.0000
  0
VERTEX
  8
0
 62
7
 10
      9.3927
 20
     10.1402
 30
      0.0000
  0
VERTEX
  8
0
 62
7
 10
      9.3927
 20
      9.8902
 30
      0.0000
  0
VERTEX
  8
0
 62
7
 10
      9.8927
 20
      9.8902
 30
      0.0000
  0
SEQEND
  8
0
 62
7
  0
POLYLINE
  8
0
 62
7
 10
      0.0000
 20
      0.0000
 30
      0.0000
 66
  1
 70
  1
  0
VERTEX
  8
0
 62
7
 10
     10.4144
 20
      9.4394
 30
      0.0000
  0
VERTEX
  8
0
 62
7
 10
     10.1644
 20
      9.4394
 30
      0.0000
  0
VERTEX
  8
0
 62
7
 10
     10.1644
 20
      8.9394
 30
      0.0000
  0
VERTEX
  8
0
 62
7
 10
     10.4144
 20
      8.9394
 30
      0.0000
  0
SEQEND
  8
0
 62
7
  0
POLYLINE
  8
0
 62
7
 10
      0.0000
 20
      0.0000
 30
      0.0000
 66
  1
 70
  1
  0
VERTEX
  8
0
 62
7
 10
     10.0098
 20
      8.4886
 30
      0.0000
  0
VERTEX
  8
0
 62
7
 10
      9.5098
 20
      8.4886
 30
      0.0000
  0
VERTEX
  8
0
 62
7
 10
      9.5098
 20
      8.2386
 30
      0.0000
  0
VERTEX
  8
0
 62
7
 10
     10.0098
 20
      8.2386
 30
      0.0000
  0
SEQEND
  8
0
 62
7
  0
POLYLINE
  8
0
 62
7
 10
      0.0000
 20
      0.0000
 30
      0.0000
 66
  1
 70
  1
  0
VERTEX
  8
0
 62
7
 10
     11.5089
 20
      8.4098
 30
      0.0000
  0
VERTEX
  8
0
 62
7
 10
     11.2589
 20
      8.4098
 30
      0.0000
  0
VERTEX
  8
0
 62
7
 10
     11.2589
 20
      8.1598
 30
      0.0000
  0
VERTEX
  8
0
 62
7
 10
     11.5089
 20
      8.1598
 30
      0.0000
  0
SEQEND
  8
0
 62
7
  0
POLYLINE
  8
0
 62
7
 10
      0.0000
 20
      0.0000
 30
      0.0000
 66
  1
 70
  1
  0
VERTEX
  8
0
 62
7
 10
     12.9709
 20
      7.7300
 30
      0.0000
  0
VERTEX
  8
0
 62
7
 10
     13.4039
 20
      7.9800
 30
      0.0000
  0
VERTEX
  8
0
 62
7
 10
     13.2789
 20
      8.1965
 30
      0.0000
  0
VERTEX
  8
0
 62
7
 10
     12.8459
 20
      7.9465
 30
      0.0000
  0
SEQEND
  8
0
 62
7
  0
POLYLINE
  8
0
 62
7
 10
      0.0000
 20
      0.0000
 30
      0.0000
 66
  1
 70
  1
  0
VERTEX
  8
0
 62
7
 10
     12.7589
 20
     10.7169
 30
      0.0000
  0
VERTEX
  8
0
 62
7
 10
     12.5089
 20
     10.7169
 30
      0.0000
  0
VERTEX
  8
0
 62
7
 10
     12.5089
 20
     10.4669
 30
      0.0000
  0
VERTEX
  8
0
 62
7
 10
     12.7589
 20
     10.4669
 30
      0.0000
  0
SEQEND
  8
0
 62
7
  0
POLYLINE
  8
0
 62
7
 10
      0.0000
 20
      0.0000
 30
      0.0000
 66
  1
 70
  1
  0
VERTEX
  8
0
 62
7
 10
     14.0374
 20
     10.7169
 30
      0.0000
  0
VERTEX
  8
0
 62
7
 10
     13.2874
 20
     10.7169
 30
      0.0000
  0
VERTEX
  8
0
 62
7
 10
     13.2874
 20
     10.4669
 30
      0.0000
  0
VERTEX
  8
0
 62
7
 10
     14.0374
 20
     10.4669
 30
      0.0000
  0
SEQEND
  8
0
 62
7
  0
POLYLINE
  8
0
 62
7
 10
      0.0000
 20
      0.0000
 30
      0.0000
 66
  1
 70
  1
  0
VERTEX
  8
0
 62
7
 10
     12.7874
 20
      4.6537
 30
      0.0000
  0
VERTEX
  8
0
 62
7
 10
     13.0374
 20
      4.6537
 30
      0.0000
  0
VERTEX
  8
0
 62
7
 10
     13.0374
 20
      5.1537
 30
      0.0000
  0
VERTEX
  8
0
 62
7
 10
     12.7874
 20
      5.1537
 30
      0.0000
  0
SEQEND
  8
0
 62
7
  0
POLYLINE
  8
0
 62
7
 10
      0.0000
 20
      0.0000
 30
      0.0000
 66
  1
 70
  1
  0
VERTEX
  8
0
 62
7
 10
     13.2874
 20
      9.4098
 30
      0.0000
  0
VERTEX
  8
0
 62
7
 10
     14.0374
 20
      9.4098
 30
      0.0000
  0
VERTEX
  8
0
 62
7
 10
     14.0374
 20
      9.6598
 30
      0.0000
  0
VERTEX
  8
0
 62
7
 10
     13.2874
 20
      9.6598
 30
      0.0000
  0
SEQEND
  8
0
 62
7
  0
POLYLINE
  8
0
 62
7
 10
      0.0000
 20
      0.0000
 30
      0.0000
 66
  1
 70
  1
  0
VERTEX
  8
0
 62
7
 10
     10.0848
 20
      4.8636
 30
      0.0000
  0
VERTEX
  8
0
 62
7
 10
     10.0848
 20
      5.1136
 30
      0.0000
  0
VERTEX
  8
0
 62
7
 10
      9.5848
 20
      5.1136
 30
      0.0000
  0
VERTEX
  8
0
 62
7
 10
      9.5848
 20
      4.8636
 30
      0.0000
  0
SEQEND
  8
0
 62
7
  0
POLYLINE
  8
0
 62
7
 10
      0.0000
 20
      0.0000
 30
      0.0000
 66
  1
 70
  1
  0
VERTEX
  8
0
 62
7
 10
     10.4894
 20
      6.0644
 30
      0.0000
  0
VERTEX
  8
0
 62
7
 10
     10.2394
 20
      6.0644
 30
      0.0000
  0
VERTEX
  8
0
 62
7
 10
     10.2394
 20
      5.5644
 30
      0.0000
  0
VERTEX
  8
0
 62
7
 10
     10.4894
 20
      5.5644
 30
      0.0000
  0
SEQEND
  8
0
 62
7
  0
POLYLINE
  8
0
 62
7
 10
      0.0000
 20
      0.0000
 30
      0.0000
 66
  1
 70
  1
  0
VERTEX
  8
0
 62
7
 10
      9.4677
 20
      6.5152
 30
      0.0000
  0
VERTEX
  8
0
 62
7
 10
      9.9677
 20
      6.5152
 30
      0.0000
  0
VERTEX
  8
0
 62
7
 10
      9.9677
 20
      6.7652
 30
      0.0000
  0
VERTEX
  8
0
 62
7
 10
      9.4677
 20
      6.7652
 30
      0.0000
  0
SEQEND
  8
0
 62
7
  0
POLYLINE
  8
0
 62
7
 10
      0.0000
 20
      0.0000
 30
      0.0000
 66
  1
 70
  1
  0
VERTEX
  8
0
 62
7
 10
     10.3376
 20
      4.7858
 30
      0.0000
  0
VERTEX
  8
0
 62
7
 10
     10.0876
 20
      4.7858
 30
      0.0000
  0
VERTEX
  8
0
 62
7
 10
     10.0876
 20
      4.2858
 30
      0.0000
  0
VERTEX
  8
0
 62
7
 10
     10.3376
 20
      4.2858
 30
      0.0000
  0
SEQEND
  8
0
 62
7
  0
POLYLINE
  8
0
 62
7
 10
      0.0000
 20
      0.0000
 30
      0.0000
 66
  1
 70
  1
  0
VERTEX
  8
0
 62
7
 10
     10.7884
 20
      4.9404
 30
      0.0000
  0
VERTEX
  8
0
 62
7
 10
     11.2884
 20
      4.9404
 30
      0.0000
  0
VERTEX
  8
0
 62
7
 10
     11.2884
 20
      5.1904
 30
      0.0000
  0
VERTEX
  8
0
 62
7
 10
     10.7884
 20
      5.1904
 30
      0.0000
  0
SEQEND
  8
0
 62
7
  0
POLYLINE
  8
0
 62
7
 10
      0.0000
 20
      0.0000
 30
      0.0000
 66
  1
 70
  1
  0
VERTEX
  8
0
 62
7
 10
     11.7392
 20
      3.9030
 30
      0.0000
  0
VERTEX
  8
0
 62
7
 10
     11.9892
 20
      3.9030
 30
      0.0000
  0
VERTEX
  8
0
 62
7
 10
     11.9892
 20
      4.4030
 30
      0.0000
  0
VERTEX
  8
0
 62
7
 10
     11.7392
 20
      4.4030
 30
      0.0000
  0
SEQEND
  8
0
 62
7
  0
CIRCLE
  8
0
 62
7
 10
     11.9124
 20
      6.6884
 30
      0.0000
 40
      0.1125
  0
CIRCLE
  8
0
 62
7
 10
     10.9675
 20
      6.6785
 30
      0.0000
 40
      0.1125
  0
POLYLINE
  8
0
 62
7
 10
      0.0000
 20
      0.0000
 30
      0.0000
 66
  1
 70
  1
  0
VERTEX
  8
0
 62
7
 10
     14.5374
 20
      1.9037
 30
      0.0000
  0
VERTEX
  8
0
 62
7
 10
     14.7874
 20
      1.9037
 30
      0.0000
  0
VERTEX
  8
0
 62
7
 10
     14.7874
 20
      0.4037
 30
      0.0000
  0
VERTEX
  8
0
 62
7
 10
     13.7874
 20
      0.4037
 30
      0.0000
  0
VERTEX
  8
0
 62
7
 10
     13.7874
 20
      0.6537
 30
      0.0000
  0
VERTEX
  8
0
 62
7
 10
     12.5374
 20
      0.6537
 30
      0.0000
  0
VERTEX
  8
0
 62
7
 10
     12.5374
 20
      0.4037
 30
      0.0000
  0
VERTEX
  8
0
 62
7
 10
     11.2874
 20
      0.4037
 30
      0.0000
  0
VERTEX
  8
0
 62
7
 10
     11.2874
 20
      0.6537
 30
      0.0000
  0
VERTEX
  8
0
 62
7
 10
     10.0374
 20
      0.6537
 30
      0.0000
  0
VERTEX
  8
0
 62
7
 10
     10.0374
 20
      0.4037
 30
      0.0000
  0
VERTEX
  8
0
 62
7
 10
      9.0374
 20
      0.4037
 30
      0.0000
  0
VERTEX
  8
0
 62
7
 10
      9.0374
 20
     13.4884
 30
      0.0000
  0
VERTEX
  8
0
 62
7
 10
     10.0374
 20
     13.4884
 30
      0.0000
  0
VERTEX
  8
0
 62
7
 10
     10.0374
 20
     13.7384
 30
      0.0000
  0
VERTEX
  8
0
 62
7
 10
     11.4124
 20
     13.7384
 30
      0.0000
  0
VERTEX
  8
0
 62
7
 10
     11.4124
 20
     13.4884
 30
      0.0000
  0
VERTEX
  8
0
 62
7
 10
     12.4124
 20
     13.4884
 30
      0.0000
  0
VERTEX
  8
0
 62
7
 10
     12.4124
 20
     13.7384
 30
      0.0000
  0
VERTEX
  8
0
 62
7
 10
     13.7874
 20
     13.7384
 30
      0.0000
  0
VERTEX
  8
0
 62
7
 10
     13.7874
 20
     13.4884
 30
      0.0000
  0
VERTEX
  8
0
 62
7
 10
     14.7874
 20
     13.4884
 30
      0.0000
  0
VERTEX
  8
0
 62
7
 10
     14.7874
 20
     12.6027
 30
      0.0000
  0
VERTEX
  8
0
 62
7
 10
     14.5374
 20
     12.6027
 30
      0.0000
  0
VERTEX
  8
0
 62
7
 10
     14.5374
 20
     11.6027
 30
      0.0000
  0
VERTEX
  8
0
 62
7
 10
     14.7874
 20
     11.6027
 30
      0.0000
  0
VERTEX
  8
0
 62
7
 10
     14.7874
 20
      7.9098
 30
      0.0000
  0
VERTEX
  8
0
 62
7
 10
     14.5374
 20
      7.9098
 30
      0.0000
  0
VERTEX
  8
0
 62
7
 10
     14.5374
 20
      6.6598
 30
      0.0000
  0
VERTEX
  8
0
 62
7
 10
     14.7874
 20
      6.6598
 30
      0.0000
  0
VERTEX
  8
0
 62
7
 10
     14.7874
 20
      3.1537
 30
      0.0000
  0
VERTEX
  8
0
 62
7
 10
     14.5374
 20
      3.1537
 30
      0.0000
  0
SEQEND
  8
0
 62
7
  0
TEXT
  8
251
 62
13
 10
     14.4163
 20
      1.4116
 30
      0.0000
 40
      0.4921
 1
8
  0
POLYLINE
  8
0
 62
7
 10
      0.0000
 20
      0.0000
 30
      0.0000
 66
  1
 70
  1
  0
VERTEX
  8
0
 62
7
 10
     11.7660
 20
     14.4154
 30
      0.0000
  0
VERTEX
  8
0
 62
7
 10
     11.5180
 20
     14.3842
 30
      0.0000
  0
VERTEX
  8
0
 62
7
 10
     11.5491
 20
     14.1362
 30
      0.0000
  0
VERTEX
  8
0
 62
7
 10
     11.7972
 20
     14.1673
 30
      0.0000
  0
SEQEND
  8
0
 62
7
  0
POLYLINE
  8
0
 62
7
 10
      0.0000
 20
      0.0000
 30
      0.0000
 66
  1
 70
  1
  0
VERTEX
  8
0
 62
7
 10
     11.6570
 20
     15.2836
 30
      0.0000
  0
VERTEX
  8
0
 62
7
 10
     11.4090
 20
     15.2524
 30
      0.0000
  0
VERTEX
  8
0
 62
7
 10
     11.4401
 20
     15.0044
 30
      0.0000
  0
VERTEX
  8
0
 62
7
 10
     11.6882
 20
     15.0355
 30
      0.0000
  0
SEQEND
  8
0
 62
7
  0
POLYLINE
  8
0
 62
7
 10
      0.0000
 20
      0.0000
 30
      0.0000
 66
  1
 70
  1
  0
VERTEX
  8
0
 62
7
 10
     12.6083
 20
     14.3102
 30
      0.0000
  0
VERTEX
  8
0
 62
7
 10
     11.8750
 20
     14.3102
 30
      0.0000
  0
VERTEX
  8
0
 62
7
 10
     11.8750
 20
     13.9352
 30
      0.0000
  0
VERTEX
  8
0
 62
7
 10
     11.2844
 20
     13.9352
 30
      0.0000
  0
VERTEX
  8
0
 62
7
 10
     11.2844
 20
     14.5258
 30
      0.0000
  0
VERTEX
  8
0
 62
7
 10
     11.0344
 20
     14.5258
 30
      0.0000
  0
VERTEX
  8
0
 62
7
 10
     11.0344
 20
     14.9008
 30
      0.0000
  0
VERTEX
  8
0
 62
7
 10
     11.2844
 20
     14.9008
 30
      0.0000
  0
VERTEX
  8
0
 62
7
 10
     11.2844
 20
     15.9008
 30
      0.0000
  0
VERTEX
  8
0
 62
7
 10
     11.0344
 20
     15.9008
 30
      0.0000
  0
VERTEX
  8
0
 62
7
 10
     11.0344
 20
     16.2758
 30
      0.0000
  0
VERTEX
  8
0
 62
7
 10
     12.8593
 20
     16.2758
 30
      0.0000
  0
VERTEX
  8
0
 62
7
 10
     12.8593
 20
     15.5602
 30
      0.0000
  0
VERTEX
  8
0
 62
7
 10
     12.6083
 20
     15.5602
 30
      0.0000
  0
SEQEND
  8
0
 62
7
  0
TEXT
  8
251
 62
13
 10
     11.9956
 20
     14.3102
 30
      0.0000
 40
      0.4921
 1
9
  0
POLYLINE
  8
0
 62
7
 10
      0.0000
 20
      0.0000
 30
      0.0000
 66
  1
 70
  1
  0
VERTEX
  8
0
 62
7
 10
     12.2966
 20
     17.1497
 30
      0.0000
  0
VERTEX
  8
0
 62
7
 10
     12.4074
 20
     17.1497
 30
      0.0000
 42
         -0.4142136
  0
VERTEX
  8
0
 62
7
 10
     12.6074
 20
     16.9497
 30
      0.0000
  0
VERTEX
  8
0
 62
7
 10
     12.6074
 20
     16.7461
 30
      0.0000
  0
VERTEX
  8
0
 62
7
 10
     12.3574
 20
     16.7461
 30
      0.0000
  0
VERTEX
  8
0
 62
7
 10
     12.3574
 20
     16.4961
 30
      0.0000
  0
VERTEX
  8
0
 62
7
 10
     12.1074
 20
     16.4961
 30
      0.0000
  0
VERTEX
  8
0
 62
7
 10
     12.1074
 20
     16.7461
 30
      0.0000
  0
VERTEX
  8
0
 62
7
 10
     11.7038
 20
     16.7461
 30
      0.0000
 42
         -0.4142136
  0
VERTEX
  8
0
 62
7
 10
     11.3003
 20
     17.1497
 30
      0.0000
 42
          0.1665655
  0
VERTEX
  8
0
 62
7
 10
     11.1224
 20
     17.6688
 30
      0.0000
 42
          0.2316667
  0
VERTEX
  8
0
 62
7
 10
     10.9645
 20
     17.7461
 30
      0.0000
  0
VERTEX
  8
0
 62
7
 10
      9.8003
 20
     17.7461
 30
      0.0000
  0
VERTEX
  8
0
 62
7
 10
      9.8003
 20
     17.9961
 30
      0.0000
  0
VERTEX
  8
0
 62
7
 10
     10.4538
 20
     17.9961
 30
      0.0000
 42
          0.4142136
  0
VERTEX
  8
0
 62
7
 10
     10.8574
 20
     18.3997
 30
      0.0000
  0
VERTEX
  8
0
 62
7
 10
     10.8574
 20
     18.7532
 30
      0.0000
  0
VERTEX
  8
0
 62
7
 10
     11.1074
 20
     18.7532
 30
      0.0000
  0
VERTEX
  8
0
 62
7
 10
     11.1074
 20
     19.0032
 30
      0.0000
  0
VERTEX
  8
0
 62
7
 10
     11.3574
 20
     19.0032
 30
      0.0000
  0
VERTEX
  8
0
 62
7
 10
     11.3574
 20
     18.6389
 30
      0.0000
 42
          0.2375928
  0
VERTEX
  8
0
 62
7
 10
     11.4383
 20
     18.4782
 30
      0.0000
  0
VERTEX
  8
0
 62
7
 10
     11.4530
 20
     18.4672
 30
      0.0000
  0
VERTEX
  8
0
 62
7
 10
     11.4676
 20
     18.4560
 30
      0.0000
 42
          0.3048295
  0
VERTEX
  8
0
 62
7
 10
     11.6902
 20
     18.4408
 30
      0.0000
  0
VERTEX
  8
0
 62
7
 10
     12.1957
 20
     18.7327
 30
      0.0000
  0
VERTEX
  8
0
 62
7
 10
     12.3207
 20
     18.5162
 30
      0.0000
  0
VERTEX
  8
0
 62
7
 10
     12.5372
 20
     18.6412
 30
      0.0000
  0
VERTEX
  8
0
 62
7
 10
     12.7872
 20
     18.2082
 30
      0.0000
  0
VERTEX
  8
0
 62
7
 10
     12.5707
 20
     18.0832
 30
      0.0000
  0
VERTEX
  8
0
 62
7
 10
     12.6957
 20
     17.8667
 30
      0.0000
  0
VERTEX
  8
0
 62
7
 10
     12.1902
 20
     17.5748
 30
      0.0000
 42
          0.3048314
  0
VERTEX
  8
0
 62
7
 10
     12.0920
 20
     17.3744
 30
      0.0000
  0
VERTEX
  8
0
 62
7
 10
     12.0950
 20
     17.3513
 30
      0.0000
  0
VERTEX
  8
0
 62
7
 10
     12.0977
 20
     17.3281
 30
      0.0000
 42
          0.3828908
  0
VERTEX
  8
0
 62
7
 10
     12.2966
 20
     17.1497
 30
      0.0000
  0
SEQEND
  8
0
 62
7
  0
TEXT
  8
251
 62
13
 10
     11.8598
 20
     16.6576
 30
      0.0000
 40
      0.4921
 1
10
  0
POLYLINE
  8
0
 62
7
 10
      0.0000
 20
      0.0000
 30
      0.0000
 66
  1
 70
  1
  0
VERTEX
  8
0
 62
7
 10
     14.9843
 20
      0.9917
 30
      0.0000
  0
VERTEX
  8
0
 62
7
 10
     15.5827
 20
      0.9917
 30
      0.0000
  0
VERTEX
  8
0
 62
7
 10
     15.5827
 20
      1.9366
 30
      0.0000
  0
VERTEX
  8
0
 62
7
 10
     14.9843
 20
      1.9366
 30
      0.0000
  0
VERTEX
  8
0
 62
7
 10
     14.9843
 20
      2.2515
 30
      0.0000
  0
VERTEX
  8
0
 62
7
 10
     16.3858
 20
      2.2515
 30
      0.0000
  0
VERTEX
  8
0
 62
7
 10
     16.3858
 20
      1.7141
 30
      0.0000
  0
VERTEX
  8
0
 62
7
 10
     16.6358
 20
      1.7141
 30
      0.0000
  0
VERTEX
  8
0
 62
7
 10
     16.6358
 20
      1.2141
 30
      0.0000
  0
VERTEX
  8
0
 62
7
 10
     16.3858
 20
      1.2141
 30
      0.0000
  0
VERTEX
  8
0
 62
7
 10
     16.3858
 20
      0.6767
 30
      0.0000
  0
VERTEX
  8
0
 62
7
 10
     15.9350
 20
      0.6767
 30
      0.0000
  0
VERTEX
  8
0
 62
7
 10
     15.9350
 20
      0.4267
 30
      0.0000
  0
VERTEX
  8
0
 62
7
 10
     15.4350
 20
      0.4267
 30
      0.0000
  0
VERTEX
  8
0
 62
7
 10
     15.4350
 20
      0.6767
 30
      0.0000
  0
VERTEX
  8
0
 62
7
 10
     14.9843
 20
      0.6767
 30
      0.0000
  0
SEQEND
  8
0
 62
7
  0
TEXT
  8
251
 62
13
 10
     14.7913
 20
      0.4996
 30
      0.0000
 40
      0.4921
 1
11
  0
POLYLINE
  8
0
 62
7
 10
      0.0000
 20
      0.0000
 30
      0.0000
 66
  1
 70
  1
  0
VERTEX
  8
0
 62
7
 10
     15.7343
 20
      7.3263
 30
      0.0000
  0
VERTEX
  8
0
 62
7
 10
     16.7343
 20
      7.3263
 30
      0.0000
  0
VERTEX
  8
0
 62
7
 10
     16.7343
 20
      7.5763
 30
      0.0000
  0
VERTEX
  8
0
 62
7
 10
     15.7343
 20
      7.5763
 30
      0.0000
  0
SEQEND
  8
0
 62
7
  0
POLYLINE
  8
0
 62
7
 10
      0.0000
 20
      0.0000
 30
      0.0000
 66
  1
 70
  1
  0
VERTEX
  8
0
 62
7
 10
     15.7343
 20
     12.1102
 30
      0.0000
  0
VERTEX
  8
0
 62
7
 10
     16.7343
 20
     12.1102
 30
      0.0000
  0
VERTEX
  8
0
 62
7
 10
     16.7343
 20
     12.3602
 30
      0.0000
  0
VERTEX
  8
0
 62
7
 10
     15.7343
 20
     12.3602
 30
      0.0000
  0
SEQEND
  8
0
 62
7
  0
POLYLINE
  8
0
 62
7
 10
      0.0000
 20
      0.0000
 30
      0.0000
 66
  1
 70
  1
  0
VERTEX
  8
0
 62
7
 10
     15.7343
 20
     10.3011
 30
      0.0000
  0
VERTEX
  8
0
 62
7
 10
     15.7618
 20
     10.3011
 30
      0.0000
  0
VERTEX
  8
0
 62
7
 10
     15.7618
 20
      9.4507
 30
      0.0000
  0
VERTEX
  8
0
 62
7
 10
     16.7067
 20
      9.4507
 30
      0.0000
  0
VERTEX
  8
0
 62
7
 10
     16.7067
 20
     10.3011
 30
      0.0000
  0
VERTEX
  8
0
 62
7
 10
     16.7343
 20
     10.3011
 30
      0.0000
  0
VERTEX
  8
0
 62
7
 10
     16.7343
 20
     10.5511
 30
      0.0000
  0
VERTEX
  8
0
 62
7
 10
     15.7343
 20
     10.5511
 30
      0.0000
  0
SEQEND
  8
0
 62
7
  0
POLYLINE
  8
0
 62
7
 10
      0.0000
 20
      0.0000
 30
      0.0000
 66
  1
 70
  1
  0
VERTEX
  8
0
 62
7
 10
     17.2343
 20
      5.6374
 30
      0.0000
  0
VERTEX
  8
0
 62
7
 10
     17.2343
 20
      4.6374
 30
      0.0000
  0
VERTEX
  8
0
 62
7
 10
     17.4843
 20
      4.6374
 30
      0.0000
  0
VERTEX
  8
0
 62
7
 10
     17.4843
 20
      2.9484
 30
      0.0000
  0
VERTEX
  8
0
 62
7
 10
     16.7343
 20
      2.9484
 30
      0.0000
  0
VERTEX
  8
0
 62
7
 10
     16.7343
 20
      2.4484
 30
      0.0000
  0
VERTEX
  8
0
 62
7
 10
     15.7343
 20
      2.4484
 30
      0.0000
  0
VERTEX
  8
0
 62
7
 10
     15.7343
 20
      2.9484
 30
      0.0000
  0
VERTEX
  8
0
 62
7
 10
     14.9843
 20
      2.9484
 30
      0.0000
  0
VERTEX
  8
0
 62
7
 10
     14.9843
 20
     13.5984
 30
      0.0000
  0
VERTEX
  8
0
 62
7
 10
     13.3593
 20
     14.5984
 30
      0.0000
  0
VERTEX
  8
0
 62
7
 10
     13.3593
 20
     15.5984
 30
      0.0000
  0
VERTEX
  8
0
 62
7
 10
     13.6093
 20
     15.5984
 30
      0.0000
  0
VERTEX
  8
0
 62
7
 10
     13.6093
 20
     15.3484
 30
      0.0000
  0
VERTEX
  8
0
 62
7
 10
     18.8593
 20
     15.3484
 30
      0.0000
  0
VERTEX
  8
0
 62
7
 10
     18.8593
 20
     15.5984
 30
      0.0000
  0
VERTEX
  8
0
 62
7
 10
     19.1093
 20
     15.5984
 30
      0.0000
  0
VERTEX
  8
0
 62
7
 10
     19.1093
 20
     14.5984
 30
      0.0000
  0
VERTEX
  8
0
 62
7
 10
     17.4843
 20
     13.5984
 30
      0.0000
  0
VERTEX
  8
0
 62
7
 10
     17.4843
 20
      5.6374
 30
      0.0000
  0
SEQEND
  8
0
 62
7
  0
TEXT
  8
251
 62
13
 10
     16.4961
 20
      4.8913
 30
      0.0000
 40
      0.4921
 1
12
  0
POLYLINE
  8
0
 62
7
 10
      0.0000
 20
      0.0000
 30
      0.0000
 66
  1
 70
  1
  0
VERTEX
  8
0
 62
7
 10
     14.4311
 20
     17.8376
 30
      0.0000
  0
VERTEX
  8
0
 62
7
 10
     14.1811
 20
     17.8376
 30
      0.0000
  0
VERTEX
  8
0
 62
7
 10
     14.1811
 20
     16.8376
 30
      0.0000
  0
VERTEX
  8
0
 62
7
 10
     14.4311
 20
     16.8376
 30
      0.0000
  0
SEQEND
  8
0
 62
7
  0
POLYLINE
  8
0
 62
7
 10
      0.0000
 20
      0.0000
 30
      0.0000
 66
  1
 70
  1
  0
VERTEX
  8
0
 62
7
 10
     15.5561
 20
     15.7952
 30
      0.0000
  0
VERTEX
  8
0
 62
7
 10
     14.8061
 20
     15.7952
 30
      0.0000
  0
VERTEX
  8
0
 62
7
 10
     14.8061
 20
     15.5452
 30
      0.0000
  0
VERTEX
  8
0
 62
7
 10
     13.8061
 20
     15.5452
 30
      0.0000
  0
VERTEX
  8
0
 62
7
 10
     13.8061
 20
     15.7952
 30
      0.0000
  0
VERTEX
  8
0
 62
7
 10
     13.0561
 20
     15.7952
 30
      0.0000
  0
VERTEX
  8
0
 62
7
 10
     13.0561
 20
     18.6299
 30
      0.0000
  0
VERTEX
  8
0
 62
7
 10
     13.8061
 20
     18.6299
 30
      0.0000
  0
VERTEX
  8
0
 62
7
 10
     13.8061
 20
     18.8799
 30
      0.0000
  0
VERTEX
  8
0
 62
7
 10
     14.8061
 20
     18.8799
 30
      0.0000
  0
VERTEX
  8
0
 62
7
 10
     14.8061
 20
     18.6299
 30
      0.0000
  0
VERTEX
  8
0
 62
7
 10
     15.5561
 20
     18.6299
 30
      0.0000
  0
SEQEND
  8
0
 62
7
  0
TEXT
  8
251
 62
13
 10
     14.6890
 20
     15.7952
 30
      0.0000
 40
      0.4921
 1
13
  0
POLYLINE
  8
0
 62
7
 10
      0.0000
 20
      0.0000
 30
      0.0000
 66
  1
 70
  1
  0
VERTEX
  8
0
 62
7
 10
     17.1280
 20
     17.8376
 30
      0.0000
  0
VERTEX
  8
0
 62
7
 10
     16.8780
 20
     17.8376
 30
      0.0000
  0
VERTEX
  8
0
 62
7
 10
     16.8780
 20
     16.8376
 30
      0.0000
  0
VERTEX
  8
0
 62
7
 10
     17.1280
 20
     16.8376
 30
      0.0000
  0
SEQEND
  8
0
 62
7
  0
POLYLINE
  8
0
 62
7
 10
      0.0000
 20
      0.0000
 30
      0.0000
 66
  1
 70
  1
  0
VERTEX
  8
0
 62
7
 10
     18.2530
 20
     15.7952
 30
      0.0000
  0
VERTEX
  8
0
 62
7
 10
     17.5030
 20
     15.7952
 30
      0.0000
  0
VERTEX
  8
0
 62
7
 10
     17.5030
 20
     15.5452
 30
      0.0000
  0
VERTEX
  8
0
 62
7
 10
     16.5030
 20
     15.5452
 30
      0.0000
  0
VERTEX
  8
0
 62
7
 10
     16.5030
 20
     15.7952
 30
      0.0000
  0
VERTEX
  8
0
 62
7
 10
     15.7530
 20
     15.7952
 30
      0.0000
  0
VERTEX
  8
0
 62
7
 10
     15.7530
 20
     18.6299
 30
      0.0000
  0
VERTEX
  8
0
 62
7
 10
     16.5030
 20
     18.6299
 30
      0.0000
  0
VERTEX
  8
0
 62
7
 10
     16.5030
 20
     18.8799
 30
      0.0000
  0
VERTEX
  8
0
 62
7
 10
     17.5030
 20
     18.8799
 30
      0.0000
  0
VERTEX
  8
0
 62
7
 10
     17.5030
 20
     18.6299
 30
      0.0000
  0
VERTEX
  8
0
 62
7
 10
     18.2530
 20
     18.6299
 30
      0.0000
  0
SEQEND
  8
0
 62
7
  0
TEXT
  8
251
 62
13
 10
     17.3858
 20
     15.7952
 30
      0.0000
 40
      0.4921
 1
14
  0
POLYLINE
  8
0
 62
7
 10
      0.0000
 20
      0.0000
 30
      0.0000
 66
  1
 70
  1
  0
VERTEX
  8
0
 62
7
 10
     19.4311
 20
      4.5851
 30
      0.0000
  0
VERTEX
  8
0
 62
7
 10
     19.4311
 20
      4.8351
 30
      0.0000
  0
VERTEX
  8
0
 62
7
 10
     18.4311
 20
      4.8351
 30
      0.0000
  0
VERTEX
  8
0
 62
7
 10
     18.4311
 20
      4.5851
 30
      0.0000
  0
SEQEND
  8
0
 62
7
  0
POLYLINE
  8
0
 62
7
 10
      0.0000
 20
      0.0000
 30
      0.0000
 66
  1
 70
  1
  0
VERTEX
  8
0
 62
7
 10
     19.4311
 20
      9.2131
 30
      0.0000
  0
VERTEX
  8
0
 62
7
 10
     19.4311
 20
      9.4631
 30
      0.0000
  0
VERTEX
  8
0
 62
7
 10
     18.4311
 20
      9.4631
 30
      0.0000
  0
VERTEX
  8
0
 62
7
 10
     18.4311
 20
      9.2131
 30
      0.0000
  0
SEQEND
  8
0
 62
7
  0
POLYLINE
  8
0
 62
7
 10
      0.0000
 20
      0.0000
 30
      0.0000
 66
  1
 70
  1
  0
VERTEX
  8
0
 62
7
 10
     18.8061
 20
     11.9131
 30
      0.0000
  0
VERTEX
  8
0
 62
7
 10
     18.8061
 20
     10.9131
 30
      0.0000
  0
VERTEX
  8
0
 62
7
 10
     19.0561
 20
     10.9131
 30
      0.0000
  0
VERTEX
  8
0
 62
7
 10
     19.0561
 20
     11.9131
 30
      0.0000
  0
SEQEND
  8
0
 62
7
  0
POLYLINE
  8
0
 62
7
 10
      0.0000
 20
      0.0000
 30
      0.0000
 66
  1
 70
  1
  0
VERTEX
  8
0
 62
7
 10
     17.6811
 20
     13.3631
 30
      0.0000
  0
VERTEX
  8
0
 62
7
 10
     18.4311
 20
     13.3631
 30
      0.0000
  0
VERTEX
  8
0
 62
7
 10
     18.4311
 20
     13.8631
 30
      0.0000
  0
VERTEX
  8
0
 62
7
 10
     19.4311
 20
     13.8631
 30
      0.0000
  0
VERTEX
  8
0
 62
7
 10
     19.4311
 20
     13.3631
 30
      0.0000
  0
VERTEX
  8
0
 62
7
 10
     20.1811
 20
     13.3631
 30
      0.0000
  0
VERTEX
  8
0
 62
7
 10
     20.1811
 20
      2.7131
 30
      0.0000
  0
VERTEX
  8
0
 62
7
 10
     20.8061
 20
      1.7131
 30
      0.0000
  0
VERTEX
  8
0
 62
7
 10
     20.8061
 20
      0.7131
 30
      0.0000
  0
VERTEX
  8
0
 62
7
 10
     19.5561
 20
      0.7131
 30
      0.0000
  0
VERTEX
  8
0
 62
7
 10
     19.5561
 20
      0.9631
 30
      0.0000
  0
VERTEX
  8
0
 62
7
 10
     18.3061
 20
      0.9631
 30
      0.0000
  0
VERTEX
  8
0
 62
7
 10
     18.3061
 20
      0.7131
 30
      0.0000
  0
VERTEX
  8
0
 62
7
 10
     17.0561
 20
      0.7131
 30
      0.0000
  0
VERTEX
  8
0
 62
7
 10
     17.0561
 20
      1.7131
 30
      0.0000
  0
VERTEX
  8
0
 62
7
 10
     17.6811
 20
      2.7131
 30
      0.0000
  0
SEQEND
  8
0
 62
7
  0
TEXT
  8
251
 62
13
 10
     17.5640
 20
     12.8709
 30
      0.0000
 40
      0.4921
 1
15
  0
POLYLINE
  8
0
 62
7
 10
      0.0000
 20
      0.0000
 30
      0.0000
 66
  1
 70
  1
  0
VERTEX
  8
0
 62
7
 10
     20.7064
 20
     16.2042
 30
      0.0000
  0
VERTEX
  8
0
 62
7
 10
     20.7150
 20
     16.1947
 30
      0.0000
 42
          0.3175007
  0
VERTEX
  8
0
 62
7
 10
     20.7261
 20
     16.1924
 30
      0.0000
  0
VERTEX
  8
0
 62
7
 10
     20.7971
 20
     16.2333
 30
      0.0000
 42
         -0.3717670
  0
VERTEX
  8
0
 62
7
 10
     20.8048
 20
     16.2330
 30
      0.0000
  0
VERTEX
  8
0
 62
7
 10
     20.8315
 20
     16.2104
 30
      0.0000
 42
         -0.3717762
  0
VERTEX
  8
0
 62
7
 10
     20.8331
 20
     16.2029
 30
      0.0000
  0
VERTEX
  8
0
 62
7
 10
     20.8044
 20
     16.1261
 30
      0.0000
 42
          0.3175838
  0
VERTEX
  8
0
 62
7
 10
     20.8085
 20
     16.1156
 30
      0.0000
  0
VERTEX
  8
0
 62
7
 10
     20.8192
 20
     16.1086
 30
      0.0000
 42
          0.3176062
  0
VERTEX
  8
0
 62
7
 10
     20.8306
 20
     16.1093
 30
      0.0000
  0
VERTEX
  8
0
 62
7
 10
     20.8885
 20
     16.1672
 30
      0.0000
 42
         -0.3717426
  0
VERTEX
  8
0
 62
7
 10
     20.8960
 20
     16.1689
 30
      0.0000
  0
VERTEX
  8
0
 62
7
 10
     20.9277
 20
     16.1540
 30
      0.0000
 42
         -0.3718486
  0
VERTEX
  8
0
 62
7
 10
     20.9311
 20
     16.1471
 30
      0.0000
  0
VERTEX
  8
0
 62
7
 10
     20.9233
 20
     16.0655
 30
      0.0000
 42
          0.3174362
  0
VERTEX
  8
0
 62
7
 10
     20.9300
 20
     16.0564
 30
      0.0000
  0
VERTEX
  8
0
 62
7
 10
     20.9422
 20
     16.0525
 30
      0.0000
 42
          0.3174980
  0
VERTEX
  8
0
 62
7
 10
     20.9530
 20
     16.0560
 30
      0.0000
  0
VERTEX
  8
0
 62
7
 10
     20.9939
 20
     16.1270
 30
      0.0000
 42
         -0.3718352
  0
VERTEX
  8
0
 62
7
 10
     21.0008
 20
     16.1306
 30
      0.0000
  0
VERTEX
  8
0
 62
7
 10
     21.0352
 20
     16.1243
 30
      0.0000
 42
         -0.3717895
  0
VERTEX
  8
0
 62
7
 10
     21.0403
 20
     16.1186
 30
      0.0000
  0
VERTEX
  8
0
 62
7
 10
     21.0538
 20
     16.0378
 30
      0.0000
 42
          0.3175249
  0
VERTEX
  8
0
 62
7
 10
     21.0627
 20
     16.0307
 30
      0.0000
  0
VERTEX
  8
0
 62
7
 10
     21.0754
 20
     16.0301
 30
      0.0000
 42
          0.3175853
  0
VERTEX
  8
0
 62
7
 10
     21.0850
 20
     16.0363
 30
      0.0000
  0
VERTEX
  8
0
 62
7
 10
     21.1062
 20
     16.1154
 30
      0.0000
 42
         -0.3719131
  0
VERTEX
  8
0
 62
7
 10
     21.1118
 20
     16.1206
 30
      0.0000
  0
VERTEX
  8
0
 62
7
 10
     21.1467
 20
     16.1235
 30
      0.0000
 42
         -0.3716478
  0
VERTEX
  8
0
 62
7
 10
     21.1531
 20
     16.1193
 30
      0.0000
  0
VERTEX
  8
0
 62
7
 10
     21.1871
 20
     16.0447
 30
      0.0000
 42
          0.3175370
  0
VERTEX
  8
0
 62
7
 10
     21.1975
 20
     16.0402
 30
      0.0000
  0
VERTEX
  8
0
 62
7
 10
     21.2100
 20
     16.0429
 30
      0.0000
 42
          0.3175035
  0
VERTEX
  8
0
 62
7
 10
     21.2176
 20
     16.0513
 30
      0.0000
  0
VERTEX
  8
0
 62
7
 10
     21.2176
 20
     16.1333
 30
      0.0000
 42
         -0.3716491
  0
VERTEX
  8
0
 62
7
 10
     21.2217
 20
     16.1398
 30
      0.0000
  0
VERTEX
  8
0
 62
7
 10
     21.2546
 20
     16.1516
 30
      0.0000
 42
         -0.3718145
  0
VERTEX
  8
0
 62
7
 10
     21.2619
 20
     16.1492
 30
      0.0000
  0
VERTEX
  8
0
 62
7
 10
     21.3140
 20
     16.0860
 30
      0.0000
 42
          0.3175599
  0
VERTEX
  8
0
 62
7
 10
     21.3253
 20
     16.0842
 30
      0.0000
  0
VERTEX
  8
0
 62
7
 10
     21.3366
 20
     16.0901
 30
      0.0000
 42
          0.3174987
  0
VERTEX
  8
0
 62
7
 10
     21.3418
 20
     16.1002
 30
      0.0000
  0
VERTEX
  8
0
 62
7
 10
     21.3206
 20
     16.1794
 30
      0.0000
 42
         -0.3717294
  0
VERTEX
  8
0
 62
7
 10
     21.3228
 20
     16.1867
 30
      0.0000
  0
VERTEX
  8
0
 62
7
 10
     21.3516
 20
     16.2067
 30
      0.0000
 42
         -0.3716749
  0
VERTEX
  8
0
 62
7
 10
     21.3593
 20
     16.2062
 30
      0.0000
  0
VERTEX
  8
0
 62
7
 10
     21.4260
 20
     16.1586
 30
      0.0000
 42
          0.3175187
  0
VERTEX
  8
0
 62
7
 10
     21.4373
 20
     16.1599
 30
      0.0000
  0
VERTEX
  8
0
 62
7
 10
     21.4467
 20
     16.1685
 30
      0.0000
 42
          0.3175035
  0
VERTEX
  8
0
 62
7
 10
     21.4491
 20
     16.1796
 30
      0.0000
  0
VERTEX
  8
0
 62
7
 10
     21.4081
 20
     16.2505
 30
      0.0000
 42
         -0.3716997
  0
VERTEX
  8
0
 62
7
 10
     21.4084
 20
     16.2583
 30
      0.0000
  0
VERTEX
  8
0
 62
7
 10
     21.4310
 20
     16.2850
 30
      0.0000
 42
         -0.3717762
  0
VERTEX
  8
0
 62
7
 10
     21.4386
 20
     16.2865
 30
      0.0000
  0
VERTEX
  8
0
 62
7
 10
     21.5153
 20
     16.2578
 30
      0.0000
 42
          0.3175265
  0
VERTEX
  8
0
 62
7
 10
     21.5259
 20
     16.2619
 30
      0.0000
  0
VERTEX
  8
0
 62
7
 10
     21.5328
 20
     16.2727
 30
      0.0000
 42
          0.3174996
  0
VERTEX
  8
0
 62
7
 10
     21.5322
 20
     16.2840
 30
      0.0000
  0
VERTEX
  8
0
 62
7
 10
     21.4742
 20
     16.3420
 30
      0.0000
 42
         -0.3719768
  0
VERTEX
  8
0
 62
7
 10
     21.4725
 20
     16.3495
 30
      0.0000
  0
VERTEX
  8
0
 62
7
 10
     21.4875
 20
     16.3811
 30
      0.0000
 42
         -0.3718358
  0
VERTEX
  8
0
 62
7
 10
     21.4944
 20
     16.3846
 30
      0.0000
  0
VERTEX
  8
0
 62
7
 10
     21.5759
 20
     16.3767
 30
      0.0000
 42
          0.3174868
  0
VERTEX
  8
0
 62
7
 10
     21.5850
 20
     16.3834
 30
      0.0000
  0
VERTEX
  8
0
 62
7
 10
     21.5889
 20
     16.3956
 30
      0.0000
 42
          0.3175726
  0
VERTEX
  8
0
 62
7
 10
     21.5854
 20
     16.4064
 30
      0.0000
  0
VERTEX
  8
0
 62
7
 10
     21.5145
 20
     16.4474
 30
      0.0000
 42
         -0.3717121
  0
VERTEX
  8
0
 62
7
 10
     21.5109
 20
     16.4542
 30
      0.0000
  0
VERTEX
  8
0
 62
7
 10
     21.5171
 20
     16.4886
 30
      0.0000
 42
         -0.3717752
  0
VERTEX
  8
0
 62
7
 10
     21.5229
 20
     16.4938
 30
      0.0000
  0
VERTEX
  8
0
 62
7
 10
     21.6037
 20
     16.5073
 30
      0.0000
 42
          0.3175878
  0
VERTEX
  8
0
 62
7
 10
     21.6108
 20
     16.5161
 30
      0.0000
  0
VERTEX
  8
0
 62
7
 10
     21.6114
 20
     16.5289
 30
      0.0000
 42
          0.3174468
  0
VERTEX
  8
0
 62
7
 10
     21.6052
 20
     16.5384
 30
      0.0000
  0
VERTEX
  8
0
 62
7
 10
     21.5260
 20
     16.5596
 30
      0.0000
 42
         -0.3718218
  0
VERTEX
  8
0
 62
7
 10
     21.5208
 20
     16.5653
 30
      0.0000
  0
VERTEX
  8
0
 62
7
 10
     21.5179
 20
     16.6001
 30
      0.0000
 42
         -0.3718140
  0
VERTEX
  8
0
 62
7
 10
     21.5221
 20
     16.6066
 30
      0.0000
  0
VERTEX
  8
0
 62
7
 10
     21.5967
 20
     16.6405
 30
      0.0000
 42
          0.3175412
  0
VERTEX
  8
0
 62
7
 10
     21.6013
 20
     16.6509
 30
      0.0000
  0
VERTEX
  8
0
 62
7
 10
     21.5986
 20
     16.6634
 30
      0.0000
 42
          0.3175904
  0
VERTEX
  8
0
 62
7
 10
     21.5901
 20
     16.6710
 30
      0.0000
  0
VERTEX
  8
0
 62
7
 10
     21.5082
 20
     16.6710
 30
      0.0000
 42
         -0.3718385
  0
VERTEX
  8
0
 62
7
 10
     21.5016
 20
     16.6751
 30
      0.0000
  0
VERTEX
  8
0
 62
7
 10
     21.4898
 20
     16.7081
 30
      0.0000
 42
         -0.3718205
  0
VERTEX
  8
0
 62
7
 10
     21.4922
 20
     16.7154
 30
      0.0000
  0
VERTEX
  8
0
 62
7
 10
     21.5555
 20
     16.7675
 30
      0.0000
 42
          0.3175707
  0
VERTEX
  8
0
 62
7
 10
     21.5572
 20
     16.7787
 30
      0.0000
  0
VERTEX
  8
0
 62
7
 10
     21.5513
 20
     16.7901
 30
      0.0000
 42
          0.3174987
  0
VERTEX
  8
0
 62
7
 10
     21.5412
 20
     16.7952
 30
      0.0000
  0
VERTEX
  8
0
 62
7
 10
     21.4621
 20
     16.7740
 30
      0.0000
 42
         -0.3717782
  0
VERTEX
  8
0
 62
7
 10
     21.4547
 20
     16.7763
 30
      0.0000
  0
VERTEX
  8
0
 62
7
 10
     21.4348
 20
     16.8050
 30
      0.0000
 42
         -0.3717788
  0
VERTEX
  8
0
 62
7
 10
     21.4352
 20
     16.8127
 30
      0.0000
  0
VERTEX
  8
0
 62
7
 10
     21.4828
 20
     16.8794
 30
      0.0000
 42
          0.3175798
  0
VERTEX
  8
0
 62
7
 10
     21.4815
 20
     16.8907
 30
      0.0000
  0
VERTEX
  8
0
 62
7
 10
     21.4730
 20
     16.9002
 30
      0.0000
 42
          0.3175247
  0
VERTEX
  8
0
 62
7
 10
     21.4618
 20
     16.9025
 30
      0.0000
  0
VERTEX
  8
0
 62
7
 10
     21.3909
 20
     16.8615
 30
      0.0000
 42
         -0.3718296
  0
VERTEX
  8
0
 62
7
 10
     21.3832
 20
     16.8618
 30
      0.0000
  0
VERTEX
  8
0
 62
7
 10
     21.3565
 20
     16.8844
 30
      0.0000
 42
         -0.3717762
  0
VERTEX
  8
0
 62
7
 10
     21.3549
 20
     16.8920
 30
      0.0000
  0
VERTEX
  8
0
 62
7
 10
     21.3836
 20
     16.9687
 30
      0.0000
 42
          0.3175838
  0
VERTEX
  8
0
 62
7
 10
     21.3795
 20
     16.9793
 30
      0.0000
  0
VERTEX
  8
0
 62
7
 10
     21.3688
 20
     16.9862
 30
      0.0000
 42
          0.3175117
  0
VERTEX
  8
0
 62
7
 10
     21.3574
 20
     16.9856
 30
      0.0000
  0
VERTEX
  8
0
 62
7
 10
     21.2995
 20
     16.9277
 30
      0.0000
 42
         -0.3718330
  0
VERTEX
  8
0
 62
7
 10
     21.2920
 20
     16.9260
 30
      0.0000
  0
VERTEX
  8
0
 62
7
 10
     21.2603
 20
     16.9409
 30
      0.0000
 42
         -0.3719207
  0
VERTEX
  8
0
 62
7
 10
     21.2568
 20
     16.9478
 30
      0.0000
  0
VERTEX
  8
0
 62
7
 10
     21.2647
 20
     17.0294
 30
      0.0000
 42
          0.3174738
  0
VERTEX
  8
0
 62
7
 10
     21.2580
 20
     17.0385
 30
      0.0000
  0
VERTEX
  8
0
 62
7
 10
     21.2458
 20
     17.0424
 30
      0.0000
 42
          0.3174980
  0
VERTEX
  8
0
 62
7
 10
     21.2350
 20
     17.0389
 30
      0.0000
  0
VERTEX
  8
0
 62
7
 10
     21.1941
 20
     16.9679
 30
      0.0000
 42
         -0.3716730
  0
VERTEX
  8
0
 62
7
 10
     21.1872
 20
     16.9643
 30
      0.0000
  0
VERTEX
  8
0
 62
7
 10
     21.1528
 20
     16.9705
 30
      0.0000
 42
         -0.3717795
  0
VERTEX
  8
0
 62
7
 10
     21.1477
 20
     16.9763
 30
      0.0000
  0
VERTEX
  8
0
 62
7
 10
     21.1342
 20
     17.0571
 30
      0.0000
 42
          0.3175346
  0
VERTEX
  8
0
 62
7
 10
     21.1253
 20
     17.0642
 30
      0.0000
  0
VERTEX
  8
0
 62
7
 10
     21.1125
 20
     17.0648
 30
      0.0000
 42
          0.3174804
  0
VERTEX
  8
0
 62
7
 10
     21.1030
 20
     17.0586
 30
      0.0000
  0
VERTEX
  8
0
 62
7
 10
     21.0818
 20
     16.9795
 30
      0.0000
 42
         -0.3720050
  0
VERTEX
  8
0
 62
7
 10
     21.0762
 20
     16.9742
 30
      0.0000
  0
VERTEX
  8
0
 62
7
 10
     21.0413
 20
     16.9713
 30
      0.0000
 42
         -0.3717481
  0
VERTEX
  8
0
 62
7
 10
     21.0348
 20
     16.9756
 30
      0.0000
  0
VERTEX
  8
0
 62
7
 10
     21.0009
 20
     17.0502
 30
      0.0000
 42
          0.3175124
  0
VERTEX
  8
0
 62
7
 10
     20.9905
 20
     17.0547
 30
      0.0000
  0
VERTEX
  8
0
 62
7
 10
     20.9780
 20
     17.0520
 30
      0.0000
 42
          0.3175035
  0
VERTEX
  8
0
 62
7
 10
     20.9704
 20
     17.0435
 30
      0.0000
  0
VERTEX
  8
0
 62
7
 10
     20.9704
 20
     16.9616
 30
      0.0000
 42
         -0.3717369
  0
VERTEX
  8
0
 62
7
 10
     20.9663
 20
     16.9551
 30
      0.0000
  0
VERTEX
  8
0
 62
7
 10
     20.9334
 20
     16.9433
 30
      0.0000
 42
         -0.3718145
  0
VERTEX
  8
0
 62
7
 10
     20.9261
 20
     16.9457
 30
      0.0000
  0
VERTEX
  8
0
 62
7
 10
     20.8740
 20
     17.0089
 30
      0.0000
 42
          0.3174991
  0
VERTEX
  8
0
 62
7
 10
     20.8627
 20
     17.0106
 30
      0.0000
  0
VERTEX
  8
0
 62
7
 10
     20.8514
 20
     17.0048
 30
      0.0000
 42
          0.3174439
  0
VERTEX
  8
0
 62
7
 10
     20.8462
 20
     16.9947
 30
      0.0000
  0
VERTEX
  8
0
 62
7
 10
     20.8674
 20
     16.9155
 30
      0.0000
 42
         -0.3718087
  0
VERTEX
  8
0
 62
7
 10
     20.8652
 20
     16.9081
 30
      0.0000
  0
VERTEX
  8
0
 62
7
 10
     20.8364
 20
     16.8882
 30
      0.0000
 42
         -0.3717877
  0
VERTEX
  8
0
 62
7
 10
     20.8287
 20
     16.8887
 30
      0.0000
  0
VERTEX
  8
0
 62
7
 10
     20.7620
 20
     16.9363
 30
      0.0000
 42
          0.3175654
  0
VERTEX
  8
0
 62
7
 10
     20.7507
 20
     16.9350
 30
      0.0000
  0
VERTEX
  8
0
 62
7
 10
     20.7413
 20
     16.9264
 30
      0.0000
 42
          0.3174532
  0
VERTEX
  8
0
 62
7
 10
     20.7389
 20
     16.9153
 30
      0.0000
  0
VERTEX
  8
0
 62
7
 10
     20.7799
 20
     16.8443
 30
      0.0000
 42
         -0.3718778
  0
VERTEX
  8
0
 62
7
 10
     20.7796
 20
     16.8366
 30
      0.0000
  0
VERTEX
  8
0
 62
7
 10
     20.7570
 20
     16.8099
 30
      0.0000
 42
         -0.3717762
  0
VERTEX
  8
0
 62
7
 10
     20.7494
 20
     16.8084
 30
      0.0000
  0
VERTEX
  8
0
 62
7
 10
     20.6727
 20
     16.8371
 30
      0.0000
 42
          0.3174913
  0
VERTEX
  8
0
 62
7
 10
     20.6621
 20
     16.8329
 30
      0.0000
  0
VERTEX
  8
0
 62
7
 10
     20.6552
 20
     16.8222
 30
      0.0000
 42
          0.3174698
  0
VERTEX
  8
0
 62
7
 10
     20.6558
 20
     16.8109
 30
      0.0000
  0
VERTEX
  8
0
 62
7
 10
     20.7138
 20
     16.7529
 30
      0.0000
 42
         -0.3717971
  0
VERTEX
  8
0
 62
7
 10
     20.7155
 20
     16.7454
 30
      0.0000
  0
VERTEX
  8
0
 62
7
 10
     20.7005
 20
     16.7138
 30
      0.0000
 42
         -0.3717819
  0
VERTEX
  8
0
 62
7
 10
     20.6936
 20
     16.7103
 30
      0.0000
  0
VERTEX
  8
0
 62
7
 10
     20.6121
 20
     16.7182
 30
      0.0000
 42
          0.3174373
  0
VERTEX
  8
0
 62
7
 10
     20.6029
 20
     16.7114
 30
      0.0000
  0
VERTEX
  8
0
 62
7
 10
     20.5990
 20
     16.6993
 30
      0.0000
 42
          0.3175332
  0
VERTEX
  8
0
 62
7
 10
     20.6026
 20
     16.6885
 30
      0.0000
  0
VERTEX
  8
0
 62
7
 10
     20.6735
 20
     16.6475
 30
      0.0000
 42
         -0.3717456
  0
VERTEX
  8
0
 62
7
 10
     20.6771
 20
     16.6407
 30
      0.0000
  0
VERTEX
  8
0
 62
7
 10
     20.6709
 20
     16.6063
 30
      0.0000
 42
         -0.3716968
  0
VERTEX
  8
0
 62
7
 10
     20.6651
 20
     16.6011
 30
      0.0000
  0
VERTEX
  8
0
 62
7
 10
     20.5843
 20
     16.5876
 30
      0.0000
 42
          0.3175397
  0
VERTEX
  8
0
 62
7
 10
     20.5772
 20
     16.5788
 30
      0.0000
  0
VERTEX
  8
0
 62
7
 10
     20.5766
 20
     16.5660
 30
      0.0000
 42
          0.3175853
  0
VERTEX
  8
0
 62
7
 10
     20.5828
 20
     16.5565
 30
      0.0000
  0
VERTEX
  8
0
 62
7
 10
     20.6620
 20
     16.5353
 30
      0.0000
 42
         -0.3717337
  0
VERTEX
  8
0
 62
7
 10
     20.6672
 20
     16.5296
 30
      0.0000
  0
VERTEX
  8
0
 62
7
 10
     20.6701
 20
     16.4947
 30
      0.0000
 42
         -0.3717137
  0
VERTEX
  8
0
 62
7
 10
     20.6659
 20
     16.4883
 30
      0.0000
  0
VERTEX
  8
0
 62
7
 10
     20.5913
 20
     16.4543
 30
      0.0000
 42
          0.3175412
  0
VERTEX
  8
0
 62
7
 10
     20.5867
 20
     16.4439
 30
      0.0000
  0
VERTEX
  8
0
 62
7
 10
     20.5894
 20
     16.4314
 30
      0.0000
 42
          0.3175384
  0
VERTEX
  8
0
 62
7
 10
     20.5979
 20
     16.4239
 30
      0.0000
  0
VERTEX
  8
0
 62
7
 10
     20.6798
 20
     16.4239
 30
      0.0000
 42
         -0.3718385
  0
VERTEX
  8
0
 62
7
 10
     20.6864
 20
     16.4198
 30
      0.0000
  0
VERTEX
  8
0
 62
7
 10
     20.6982
 20
     16.3868
 30
      0.0000
 42
         -0.3718205
  0
VERTEX
  8
0
 62
7
 10
     20.6957
 20
     16.3795
 30
      0.0000
  0
VERTEX
  8
0
 62
7
 10
     20.6325
 20
     16.3274
 30
      0.0000
 42
          0.3175098
  0
VERTEX
  8
0
 62
7
 10
     20.6308
 20
     16.3162
 30
      0.0000
  0
VERTEX
  8
0
 62
7
 10
     20.6367
 20
     16.3048
 30
      0.0000
 42
          0.3174439
  0
VERTEX
  8
0
 62
7
 10
     20.6468
 20
     16.2997
 30
      0.0000
  0
VERTEX
  8
0
 62
7
 10
     20.7259
 20
     16.3209
 30
      0.0000
 42
         -0.3718929
  0
VERTEX
  8
0
 62
7
 10
     20.7333
 20
     16.3186
 30
      0.0000
  0
VERTEX
  8
0
 62
7
 10
     20.7532
 20
     16.2899
 30
      0.0000
 42
         -0.3719616
  0
VERTEX
  8
0
 62
7
 10
     20.7528
 20
     16.2821
 30
      0.0000
  0
VERTEX
  8
0
 62
7
 10
     20.7052
 20
     16.2155
 30
      0.0000
 42
          0.3175867
  0
VERTEX
  8
0
 62
7
 10
     20.7064
 20
     16.2042
 30
      0.0000
  0
SEQEND
  8
0
 62
7
  0
POLYLINE
  8
0
 62
7
 10
      0.0000
 20
      0.0000
 30
      0.0000
 66
  1
 70
  1
  0
VERTEX
  8
0
 62
7
 10
     21.9129
 20
     17.3289
 30
      0.0000
  0
VERTEX
  8
0
 62
7
 10
     21.7214
 20
     17.4896
 30
      0.0000
  0
VERTEX
  8
0
 62
7
 10
     21.5607
 20
     17.2981
 30
      0.0000
  0
VERTEX
  8
0
 62
7
 10
     21.7522
 20
     17.1374
 30
      0.0000
  0
SEQEND
  8
0
 62
7
  0
POLYLINE
  8
0
 62
7
 10
      0.0000
 20
      0.0000
 30
      0.0000
 66
  1
 70
  1
  0
VERTEX
  8
0
 62
7
 10
     20.2751
 20
     17.3289
 30
      0.0000
  0
VERTEX
  8
0
 62
7
 10
     20.4358
 20
     17.1374
 30
      0.0000
  0
VERTEX
  8
0
 62
7
 10
     20.6273
 20
     17.2981
 30
      0.0000
  0
VERTEX
  8
0
 62
7
 10
     20.4666
 20
     17.4896
 30
      0.0000
  0
SEQEND
  8
0
 62
7
  0
CIRCLE
  8
0
 62
7
 10
     21.0940
 20
     17.7974
 30
      0.0000
 40
      0.4035
  0
CIRCLE
  8
0
 62
7
 10
     21.0940
 20
     16.5474
 30
      0.0000
 40
      2.0000
  0
TEXT
  8
251
 62
13
 10
     20.6019
 20
     18.0553
 30
      0.0000
 40
      0.4921
 1
16
  0
POLYLINE
  8
0
 62
7
 10
      0.0000
 20
      0.0000
 30
      0.0000
 66
  1
 70
  1
  0
VERTEX
  8
0
 62
7
 10
     22.9107
 20
      5.1397
 30
      0.0000
  0
VERTEX
  8
0
 62
7
 10
     22.9107
 20
      5.5147
 30
      0.0000
  0
VERTEX
  8
0
 62
7
 10
     23.1607
 20
      5.5147
 30
      0.0000
  0
VERTEX
  8
0
 62
7
 10
     23.1607
 20
      5.7022
 30
      0.0000
  0
VERTEX
  8
0
 62
7
 10
     24.1588
 20
      5.7022
 30
      0.0000
  0
VERTEX
  8
0
 62
7
 10
     24.1588
 20
      5.4522
 30
      0.0000
  0
VERTEX
  8
0
 62
7
 10
     23.9088
 20
      5.4522
 30
      0.0000
  0
VERTEX
  8
0
 62
7
 10
     23.9088
 20
      5.2022
 30
      0.0000
  0
VERTEX
  8
0
 62
7
 10
     24.1588
 20
      5.2022
 30
      0.0000
  0
VERTEX
  8
0
 62
7
 10
     24.1588
 20
      4.9522
 30
      0.0000
  0
VERTEX
  8
0
 62
7
 10
     23.1607
 20
      4.9522
 30
      0.0000
  0
VERTEX
  8
0
 62
7
 10
     23.1607
 20
      5.1397
 30
      0.0000
  0
SEQEND
  8
0
 62
7
  0
TEXT
  8
251
 62
13
 10
     22.6647
 20
      5.0811
 30
      0.0000
 40
      0.4921
 1
17
  0
POLYLINE
  8
0
 62
7
 10
      0.0000
 20
      0.0000
 30
      0.0000
 66
  1
 70
  1
  0
VERTEX
  8
0
 62
7
 10
     22.8701
 20
      7.3146
 30
      0.0000
  0
VERTEX
  8
0
 62
7
 10
     22.8701
 20
      8.1896
 30
      0.0000
  0
VERTEX
  8
0
 62
7
 10
     25.6201
 20
      8.1896
 30
      0.0000
  0
VERTEX
  8
0
 62
7
 10
     25.6201
 20
      7.3146
 30
      0.0000
  0
SEQEND
  8
0
 62
7
  0
TEXT
  8
251
 62
13
 10
     22.6240
 20
      7.5060
 30
      0.0000
 40
      0.4921
 1
18
  0
POLYLINE
  8
0
 62
7
 10
      0.0000
 20
      0.0000
 30
      0.0000
 66
  1
 70
  1
  0
VERTEX
  8
0
 62
7
 10
     25.4012
 20
      8.6087
 30
      0.0000
  0
VERTEX
  8
0
 62
7
 10
     22.7733
 20
      8.6087
 30
      0.0000
 42
          0.4142136
  0
VERTEX
  8
0
 62
7
 10
     22.2733
 20
      8.1087
 30
      0.0000
  0
VERTEX
  8
0
 62
7
 10
     22.2733
 20
      7.0240
 30
      0.0000
 42
          0.4142136
  0
VERTEX
  8
0
 62
7
 10
     22.7733
 20
      6.5240
 30
      0.0000
  0
VERTEX
  8
0
 62
7
 10
     25.4012
 20
      6.5240
 30
      0.0000
 42
          0.4142136
  0
VERTEX
  8
0
 62
7
 10
     25.9012
 20
      7.0240
 30
      0.0000
  0
VERTEX
  8
0
 62
7
 10
     25.9012
 20
      8.1087
 30
      0.0000
 42
          0.4142136
  0
VERTEX
  8
0
 62
7
 10
     25.4012
 20
      8.6087
 30
      0.0000
  0
SEQEND
  8
0
 62
7
  0
POLYLINE
  8
0
 62
7
 10
      0.0000
 20
      0.0000
 30
      0.0000
 66
  1
 70
  1
  0
VERTEX
  8
0
 62
7
 10
     21.8983
 20
      8.0663
 30
      0.0000
  0
VERTEX
  8
0
 62
7
 10
     21.8983
 20
      8.9837
 30
      0.0000
  0
VERTEX
  8
0
 62
7
 10
     23.5872
 20
      8.9837
 30
      0.0000
  0
VERTEX
  8
0
 62
7
 10
     23.5872
 20
      9.2337
 30
      0.0000
  0
VERTEX
  8
0
 62
7
 10
     24.5872
 20
      9.2337
 30
      0.0000
  0
VERTEX
  8
0
 62
7
 10
     24.5872
 20
      8.9837
 30
      0.0000
  0
VERTEX
  8
0
 62
7
 10
     26.2762
 20
      8.9837
 30
      0.0000
  0
VERTEX
  8
0
 62
7
 10
     26.2762
 20
      8.0663
 30
      0.0000
  0
VERTEX
  8
0
 62
7
 10
     26.5262
 20
      8.0663
 30
      0.0000
  0
VERTEX
  8
0
 62
7
 10
     26.5262
 20
      7.0663
 30
      0.0000
  0
VERTEX
  8
0
 62
7
 10
     26.2762
 20
      7.0663
 30
      0.0000
  0
VERTEX
  8
0
 62
7
 10
     26.2762
 20
      6.1490
 30
      0.0000
  0
VERTEX
  8
0
 62
7
 10
     24.5872
 20
      6.1490
 30
      0.0000
  0
VERTEX
  8
0
 62
7
 10
     24.5872
 20
      5.8990
 30
      0.0000
  0
VERTEX
  8
0
 62
7
 10
     23.5872
 20
      5.8990
 30
      0.0000
  0
VERTEX
  8
0
 62
7
 10
     23.5872
 20
      6.1490
 30
      0.0000
  0
VERTEX
  8
0
 62
7
 10
     21.8983
 20
      6.1490
 30
      0.0000
  0
VERTEX
  8
0
 62
7
 10
     21.8983
 20
      7.0663
 30
      0.0000
  0
VERTEX
  8
0
 62
7
 10
     21.6483
 20
      7.0663
 30
      0.0000
  0
VERTEX
  8
0
 62
7
 10
     21.6483
 20
      8.0663
 30
      0.0000
  0
SEQEND
  8
0
 62
7
  0
TEXT
  8
251
 62
13
 10
     21.6522
 20
      8.2789
 30
      0.0000
 40
      0.4921
 1
19
  0
POLYLINE
  8
0
 62
7
 10
      0.0000
 20
      0.0000
 30
      0.0000
 66
  1
 70
  1
  0
VERTEX
  8
0
 62
7
 10
     27.4357
 20
      1.9528
 30
      0.0000
  0
VERTEX
  8
0
 62
7
 10
     27.4357
 20
      2.2028
 30
      0.0000
  0
VERTEX
  8
0
 62
7
 10
     26.9357
 20
      2.2028
 30
      0.0000
  0
VERTEX
  8
0
 62
7
 10
     26.9357
 20
      1.9528
 30
      0.0000
  0
SEQEND
  8
0
 62
7
  0
POLYLINE
  8
0
 62
7
 10
      0.0000
 20
      0.0000
 30
      0.0000
 66
  1
 70
  1
  0
VERTEX
  8
0
 62
7
 10
     26.3983
 20
      2.4528
 30
      0.0000
  0
VERTEX
  8
0
 62
7
 10
     27.9731
 20
      2.4528
 30
      0.0000
  0
VERTEX
  8
0
 62
7
 10
     27.9731
 20
      1.0758
 30
      0.0000
  0
VERTEX
  8
0
 62
7
 10
     28.2231
 20
      1.0758
 30
      0.0000
  0
VERTEX
  8
0
 62
7
 10
     28.2231
 20
      0.3937
 30
      0.0000
  0
VERTEX
  8
0
 62
7
 10
     27.6424
 20
      0.3937
 30
      0.0000
  0
VERTEX
  8
0
 62
7
 10
     27.6424
 20
      0.7087
 30
      0.0000
  0
VERTEX
  8
0
 62
7
 10
     26.7290
 20
      0.7087
 30
      0.0000
  0
VERTEX
  8
0
 62
7
 10
     26.7290
 20
      0.3937
 30
      0.0000
  0
VERTEX
  8
0
 62
7
 10
     26.3983
 20
      0.3937
 30
      0.0000
  0
VERTEX
  8
0
 62
7
 10
     26.3983
 20
      1.2982
 30
      0.0000
  0
VERTEX
  8
0
 62
7
 10
     26.1483
 20
      1.2982
 30
      0.0000
  0
VERTEX
  8
0
 62
7
 10
     26.1483
 20
      1.7982
 30
      0.0000
  0
VERTEX
  8
0
 62
7
 10
     26.3983
 20
      1.7982
 30
      0.0000
  0
SEQEND
  8
0
 62
7
  0
TEXT
  8
251
 62
13
 10
     26.6936
 20
      1.9606
 30
      0.0000
 40
      0.4921
 1
20
  0
POLYLINE
  8
0
 62
7
 10
      0.0000
 20
      0.0000
 30
      0.0000
 66
  1
 70
  1
  0
VERTEX
  8
0
 62
7
 10
     24.9141
 20
      1.3565
 30
      0.0000
  0
VERTEX
  8
0
 62
7
 10
     24.9141
 20
      3.8321
 30
      0.0000
  0
VERTEX
  8
0
 62
7
 10
     23.9124
 20
      3.8321
 30
      0.0000
  0
VERTEX
  8
0
 62
7
 10
     23.9124
 20
      1.3565
 30
      0.0000
  0
SEQEND
  8
0
 62
7
  0
POLYLINE
  8
0
 62
7
 10
      0.0000
 20
      0.0000
 30
      0.0000
 66
  1
 70
  1
  0
VERTEX
  8
0
 62
7
 10
     22.8372
 20
      2.9537
 30
      0.0000
  0
VERTEX
  8
0
 62
7
 10
     22.8372
 20
      1.9537
 30
      0.0000
  0
VERTEX
  8
0
 62
7
 10
     23.0872
 20
      1.9537
 30
      0.0000
  0
VERTEX
  8
0
 62
7
 10
     23.0872
 20
      2.9537
 30
      0.0000
  0
SEQEND
  8
0
 62
7
  0
POLYLINE
  8
0
 62
7
 10
      0.0000
 20
      0.0000
 30
      0.0000
 66
  1
 70
  1
  0
VERTEX
  8
0
 62
7
 10
     23.9622
 20
     11.3412
 30
      0.0000
  0
VERTEX
  8
0
 62
7
 10
     23.9622
 20
     10.9662
 30
      0.0000
  0
VERTEX
  8
0
 62
7
 10
     24.2122
 20
     10.9662
 30
      0.0000
  0
VERTEX
  8
0
 62
7
 10
     24.2122
 20
     11.3412
 30
      0.0000
  0
SEQEND
  8
0
 62
7
  0
POLYLINE
  8
0
 62
7
 10
      0.0000
 20
      0.0000
 30
      0.0000
 66
  1
 70
  1
  0
VERTEX
  8
0
 62
7
 10
     25.0593
 20
      4.6685
 30
      0.0000
 42
          0.7101445
  0
VERTEX
  8
0
 62
7
 10
     25.0593
 20
     10.2390
 30
      0.0000
  0
VERTEX
  8
0
 62
7
 10
     24.5872
 20
     10.4037
 30
      0.0000
  0
VERTEX
  8
0
 62
7
 10
     24.5872
 20
     10.6537
 30
      0.0000
  0
VERTEX
  8
0
 62
7
 10
     23.5872
 20
     10.6537
 30
      0.0000
  0
VERTEX
  8
0
 62
7
 10
     23.5872
 20
     10.4037
 30
      0.0000
  0
VERTEX
  8
0
 62
7
 10
     23.1152
 20
     10.2390
 30
      0.0000
 42
          0.7101450
  0
VERTEX
  8
0
 62
7
 10
     23.1152
 20
      4.6685
 30
      0.0000
  0
VERTEX
  8
0
 62
7
 10
     23.5872
 20
      4.5037
 30
      0.0000
  0
VERTEX
  8
0
 62
7
 10
     23.5872
 20
      4.2537
 30
      0.0000
  0
VERTEX
  8
0
 62
7
 10
     24.5872
 20
      4.2537
 30
      0.0000
  0
VERTEX
  8
0
 62
7
 10
     24.5872
 20
      4.5037
 30
      0.0000
  0
SEQEND
  8
0
 62
7
  0
POLYLINE
  8
0
 62
7
 10
      0.0000
 20
      0.0000
 30
      0.0000
 66
  1
 70
  1
  0
VERTEX
  8
0
 62
7
 10
     22.6827
 20
      3.5929
 30
      0.0000
  0
VERTEX
  8
0
 62
7
 10
     22.9898
 20
      3.5929
 30
      0.0000
  0
VERTEX
  8
0
 62
7
 10
     22.9898
 20
      4.5141
 30
      0.0000
  0
VERTEX
  8
0
 62
7
 10
     22.6827
 20
      4.5141
 30
      0.0000
  0
SEQEND
  8
0
 62
7
  0
POLYLINE
  8
0
 62
7
 10
      0.0000
 20
      0.0000
 30
      0.0000
 66
  1
 70
  1
  0
VERTEX
  8
0
 62
7
 10
     22.9937
 20
     10.3983
 30
      0.0000
  0
VERTEX
  8
0
 62
7
 10
     22.9937
 20
     11.0947
 30
      0.0000
  0
VERTEX
  8
0
 62
7
 10
     23.9622
 20
     11.6537
 30
      0.0000
  0
VERTEX
  8
0
 62
7
 10
     24.2122
 20
     11.6537
 30
      0.0000
  0
VERTEX
  8
0
 62
7
 10
     25.9369
 20
     10.6582
 30
      0.0000
 42
         -0.3692495
  0
VERTEX
  8
0
 62
7
 10
     27.5401
 20
      6.1241
 30
      0.0000
  0
VERTEX
  8
0
 62
7
 10
     25.3372
 20
      0.4037
 30
      0.0000
  0
VERTEX
  8
0
 62
7
 10
     24.5872
 20
      0.4037
 30
      0.0000
  0
VERTEX
  8
0
 62
7
 10
     24.5872
 20
      0.6537
 30
      0.0000
  0
VERTEX
  8
0
 62
7
 10
     23.5872
 20
      0.6537
 30
      0.0000
  0
VERTEX
  8
0
 62
7
 10
     23.5872
 20
      0.4037
 30
      0.0000
  0
VERTEX
  8
0
 62
7
 10
     22.8372
 20
      0.4037
 30
      0.0000
  0
VERTEX
  8
0
 62
7
 10
     20.6344
 20
      6.1241
 30
      0.0000
 42
         -0.3692496
  0
VERTEX
  8
0
 62
7
 10
     22.2375
 20
     10.6582
 30
      0.0000
  0
VERTEX
  8
0
 62
7
 10
     22.6866
 20
     10.9174
 30
      0.0000
  0
VERTEX
  8
0
 62
7
 10
     22.6866
 20
     10.3983
 30
      0.0000
  0
SEQEND
  8
0
 62
7
  0
TEXT
  8
251
 62
13
 10
     22.7476
 20
     10.5004
 30
      0.0000
 40
      0.4921
 1
21
  0
POLYLINE
  8
0
 62
7
 10
      0.0000
 20
      0.0000
 30
      0.0000
 66
  1
 70
  1
  0
VERTEX
  8
0
 62
7
 10
     29.8177
 20
      1.2726
 30
      0.0000
  0
VERTEX
  8
0
 62
7
 10
     28.2429
 20
      1.2726
 30
      0.0000
  0
VERTEX
  8
0
 62
7
 10
     28.2429
 20
      2.7726
 30
      0.0000
  0
VERTEX
  8
0
 62
7
 10
     27.9929
 20
      2.7726
 30
      0.0000
  0
VERTEX
  8
0
 62
7
 10
     27.9929
 20
      4.0226
 30
      0.0000
  0
VERTEX
  8
0
 62
7
 10
     28.2429
 20
      4.0226
 30
      0.0000
  0
VERTEX
  8
0
 62
7
 10
     28.2429
 20
      7.5287
 30
      0.0000
  0
VERTEX
  8
0
 62
7
 10
     27.9929
 20
      7.5287
 30
      0.0000
  0
VERTEX
  8
0
 62
7
 10
     27.9929
 20
      8.7787
 30
      0.0000
  0
VERTEX
  8
0
 62
7
 10
     28.2429
 20
      8.7787
 30
      0.0000
  0
VERTEX
  8
0
 62
7
 10
     28.2429
 20
     10.2787
 30
      0.0000
  0
VERTEX
  8
0
 62
7
 10
     29.8177
 20
     10.2787
 30
      0.0000
  0
VERTEX
  8
0
 62
7
 10
     29.8177
 20
      8.7787
 30
      0.0000
  0
VERTEX
  8
0
 62
7
 10
     30.0677
 20
      8.7787
 30
      0.0000
  0
VERTEX
  8
0
 62
7
 10
     30.0677
 20
      7.5287
 30
      0.0000
  0
VERTEX
  8
0
 62
7
 10
     29.8177
 20
      7.5287
 30
      0.0000
  0
VERTEX
  8
0
 62
7
 10
     29.8177
 20
      4.0226
 30
      0.0000
  0
VERTEX
  8
0
 62
7
 10
     30.0677
 20
      4.0226
 30
      0.0000
  0
VERTEX
  8
0
 62
7
 10
     30.0677
 20
      2.7726
 30
      0.0000
  0
VERTEX
  8
0
 62
7
 10
     29.8177
 20
      2.7726
 30
      0.0000
  0
SEQEND
  8
0
 62
7
  0
TEXT
  8
251
 62
13
 10
     28.5382
 20
      1.2726
 30
      0.0000
 40
      0.4921
 1
22
  0
POLYLINE
  8
0
 62
7
 10
      0.0000
 20
      0.0000
 30
      0.0000
 66
  1
 70
  1
  0
VERTEX
  8
0
 62
7
 10
     25.2559
 20
     12.6006
 30
      0.0000
  0
VERTEX
  8
0
 62
7
 10
     25.2559
 20
     13.6006
 30
      0.0000
  0
VERTEX
  8
0
 62
7
 10
     25.0059
 20
     13.6006
 30
      0.0000
  0
VERTEX
  8
0
 62
7
 10
     25.0059
 20
     12.6006
 30
      0.0000
  0
SEQEND
  8
0
 62
7
  0
POLYLINE
  8
0
 62
7
 10
      0.0000
 20
      0.0000
 30
      0.0000
 66
  1
 70
  1
  0
VERTEX
  8
0
 62
7
 10
     29.1280
 20
     12.4756
 30
      0.0000
  0
VERTEX
  8
0
 62
7
 10
     29.1280
 20
     13.7256
 30
      0.0000
  0
VERTEX
  8
0
 62
7
 10
     28.8780
 20
     13.7256
 30
      0.0000
  0
VERTEX
  8
0
 62
7
 10
     28.8780
 20
     12.4756
 30
      0.0000
  0
SEQEND
  8
0
 62
7
  0
POLYLINE
  8
0
 62
7
 10
      0.0000
 20
      0.0000
 30
      0.0000
 66
  1
 70
  1
  0
VERTEX
  8
0
 62
7
 10
     20.6280
 20
     12.6006
 30
      0.0000
  0
VERTEX
  8
0
 62
7
 10
     20.6280
 20
     13.6006
 30
      0.0000
  0
VERTEX
  8
0
 62
7
 10
     20.3780
 20
     13.6006
 30
      0.0000
  0
VERTEX
  8
0
 62
7
 10
     20.3780
 20
     14.3506
 30
      0.0000
  0
VERTEX
  8
0
 62
7
 10
     27.1280
 20
     14.3506
 30
      0.0000
  0
VERTEX
  8
0
 62
7
 10
     28.1280
 20
     14.9756
 30
      0.0000
  0
VERTEX
  8
0
 62
7
 10
     29.1280
 20
     14.9756
 30
      0.0000
  0
VERTEX
  8
0
 62
7
 10
     29.1280
 20
     15.9756
 30
      0.0000
  0
VERTEX
  8
0
 62
7
 10
     30.7028
 20
     15.9756
 30
      0.0000
  0
VERTEX
  8
0
 62
7
 10
     30.7028
 20
     14.9756
 30
      0.0000
  0
VERTEX
  8
0
 62
7
 10
     30.9528
 20
     14.9756
 30
      0.0000
  0
VERTEX
  8
0
 62
7
 10
     30.9528
 20
     13.7256
 30
      0.0000
  0
VERTEX
  8
0
 62
7
 10
     30.7028
 20
     13.7256
 30
      0.0000
  0
VERTEX
  8
0
 62
7
 10
     30.7028
 20
     12.4756
 30
      0.0000
  0
VERTEX
  8
0
 62
7
 10
     30.9528
 20
     12.4756
 30
      0.0000
  0
VERTEX
  8
0
 62
7
 10
     30.9528
 20
     11.2256
 30
      0.0000
  0
VERTEX
  8
0
 62
7
 10
     30.7028
 20
     11.2256
 30
      0.0000
  0
VERTEX
  8
0
 62
7
 10
     30.7028
 20
     10.4756
 30
      0.0000
  0
VERTEX
  8
0
 62
7
 10
     29.1280
 20
     10.4756
 30
      0.0000
  0
VERTEX
  8
0
 62
7
 10
     29.1280
 20
     11.2256
 30
      0.0000
  0
VERTEX
  8
0
 62
7
 10
     28.1280
 20
     11.2256
 30
      0.0000
  0
VERTEX
  8
0
 62
7
 10
     27.1280
 20
     11.8506
 30
      0.0000
  0
VERTEX
  8
0
 62
7
 10
     20.3780
 20
     11.8506
 30
      0.0000
  0
VERTEX
  8
0
 62
7
 10
     20.3780
 20
     12.6006
 30
      0.0000
  0
SEQEND
  8
0
 62
7
  0
TEXT
  8
251
 62
13
 10
     20.3819
 20
     12.8545
 30
      0.0000
 40
      0.4921
 1
23
  0
POLYLINE
  8
0
 62
7
 10
      0.0000
 20
      0.0000
 30
      0.0000
 66
  1
 70
  1
  0
VERTEX
  8
0
 62
7
 10
     23.8489
 20
     14.7974
 30
      0.0000
  0
VERTEX
  8
0
 62
7
 10
     22.8066
 20
     14.7974
 30
      0.0000
  0
VERTEX
  8
0
 62
7
 10
     22.8066
 20
     15.0474
 30
      0.0000
  0
VERTEX
  8
0
 62
7
 10
     24.8912
 20
     18.6974
 30
      0.0000
  0
VERTEX
  8
0
 62
7
 10
     25.2037
 20
     18.6974
 30
      0.0000
  0
VERTEX
  8
0
 62
7
 10
     25.2037
 20
     18.9474
 30
      0.0000
  0
VERTEX
  8
0
 62
7
 10
     25.5787
 20
     18.9474
 30
      0.0000
  0
VERTEX
  8
0
 62
7
 10
     25.5787
 20
     18.6974
 30
      0.0000
  0
VERTEX
  8
0
 62
7
 10
     25.8912
 20
     18.6974
 30
      0.0000
  0
VERTEX
  8
0
 62
7
 10
     25.8912
 20
     17.2474
 30
      0.0000
  0
VERTEX
  8
0
 62
7
 10
     26.1412
 20
     17.2474
 30
      0.0000
  0
VERTEX
  8
0
 62
7
 10
     26.1412
 20
     16.2474
 30
      0.0000
  0
VERTEX
  8
0
 62
7
 10
     25.8912
 20
     16.2474
 30
      0.0000
  0
VERTEX
  8
0
 62
7
 10
     25.8912
 20
     14.7974
 30
      0.0000
  0
VERTEX
  8
0
 62
7
 10
     24.8489
 20
     14.7974
 30
      0.0000
  0
VERTEX
  8
0
 62
7
 10
     24.8489
 20
     14.5474
 30
      0.0000
  0
VERTEX
  8
0
 62
7
 10
     23.8489
 20
     14.5474
 30
      0.0000
  0
SEQEND
  8
0
 62
7
  0
TEXT
  8
251
 62
13
 10
     22.8356
 20
     14.7974
 30
      0.0000
 40
      0.4921
 1
24
  0
POLYLINE
  8
0
 62
7
 10
      0.0000
 20
      0.0000
 30
      0.0000
 66
  1
 70
  1
  0
VERTEX
  8
0
 62
7
 10
     27.4188
 20
     16.1275
 30
      0.0000
  0
VERTEX
  8
0
 62
7
 10
     28.4109
 20
     16.1275
 30
      0.0000
  0
VERTEX
  8
0
 62
7
 10
     28.4109
 20
     18.6008
 30
      0.0000
  0
VERTEX
  8
0
 62
7
 10
     27.4188
 20
     18.6008
 30
      0.0000
  0
SEQEND
  8
0
 62
7
  0
POLYLINE
  8
0
 62
7
 10
      0.0000
 20
      0.0000
 30
      0.0000
 66
  1
 70
  1
  0
VERTEX
  8
0
 62
7
 10
     28.8380
 20
     15.4224
 30
      0.0000
  0
VERTEX
  8
0
 62
7
 10
     28.0880
 20
     15.4224
 30
      0.0000
  0
VERTEX
  8
0
 62
7
 10
     28.0880
 20
     15.1724
 30
      0.0000
  0
VERTEX
  8
0
 62
7
 10
     27.0880
 20
     15.1724
 30
      0.0000
  0
VERTEX
  8
0
 62
7
 10
     27.0880
 20
     15.4224
 30
      0.0000
  0
VERTEX
  8
0
 62
7
 10
     26.3380
 20
     15.4224
 30
      0.0000
  0
VERTEX
  8
0
 62
7
 10
     26.3380
 20
     16.7224
 30
      0.0000
  0
VERTEX
  8
0
 62
7
 10
     26.5880
 20
     16.7224
 30
      0.0000
  0
VERTEX
  8
0
 62
7
 10
     26.5880
 20
     17.7224
 30
      0.0000
  0
VERTEX
  8
0
 62
7
 10
     26.3380
 20
     17.7224
 30
      0.0000
  0
VERTEX
  8
0
 62
7
 10
     26.3380
 20
     19.0224
 30
      0.0000
  0
VERTEX
  8
0
 62
7
 10
     27.0880
 20
     19.0224
 30
      0.0000
  0
VERTEX
  8
0
 62
7
 10
     27.0880
 20
     19.2724
 30
      0.0000
  0
VERTEX
  8
0
 62
7
 10
     28.0880
 20
     19.2724
 30
      0.0000
  0
VERTEX
  8
0
 62
7
 10
     28.0880
 20
     19.0224
 30
      0.0000
  0
VERTEX
  8
0
 62
7
 10
     28.8380
 20
     19.0224
 30
      0.0000
  0
SEQEND
  8
0
 62
7
  0
TEXT
  8
251
 62
13
 10
     27.9709
 20
     15.4224
 30
      0.0000
 40
      0.4921
 1
25
  0
POLYLINE
  8
0
 62
7
 10
      0.0000
 20
      0.0000
 30
      0.0000
 66
  1
 70
  1
  0
VERTEX
  8
0
 62
7
 10
     30.5795
 20
      1.8142
 30
      0.0000
  0
VERTEX
  8
0
 62
7
 10
     30.5795
 20
      0.9008
 30
      0.0000
  0
VERTEX
  8
0
 62
7
 10
     30.8945
 20
      0.9008
 30
      0.0000
  0
VERTEX
  8
0
 62
7
 10
     30.8945
 20
      1.8142
 30
      0.0000
  0
SEQEND
  8
0
 62
7
  0
POLYLINE
  8
0
 62
7
 10
      0.0000
 20
      0.0000
 30
      0.0000
 66
  1
 70
  1
  0
VERTEX
  8
0
 62
7
 10
     31.2094
 20
      0.9008
 30
      0.0000
  0
VERTEX
  8
0
 62
7
 10
     31.5244
 20
      0.9008
 30
      0.0000
  0
VERTEX
  8
0
 62
7
 10
     31.5244
 20
      1.8142
 30
      0.0000
  0
VERTEX
  8
0
 62
7
 10
     31.2094
 20
      1.8142
 30
      0.0000
  0
SEQEND
  8
0
 62
7
  0
POLYLINE
  8
0
 62
7
 10
      0.0000
 20
      0.0000
 30
      0.0000
 66
  1
 70
  1
  0
VERTEX
  8
0
 62
7
 10
     30.7370
 20
      2.1291
 30
      0.0000
  0
VERTEX
  8
0
 62
7
 10
     31.3669
 20
      2.1291
 30
      0.0000
  0
VERTEX
  8
0
 62
7
 10
     31.3669
 20
      2.3791
 30
      0.0000
  0
VERTEX
  8
0
 62
7
 10
     31.8394
 20
      2.3791
 30
      0.0000
  0
VERTEX
  8
0
 62
7
 10
     31.8394
 20
      1.8575
 30
      0.0000
  0
VERTEX
  8
0
 62
7
 10
     32.0894
 20
      1.8575
 30
      0.0000
  0
VERTEX
  8
0
 62
7
 10
     32.0894
 20
      1.3575
 30
      0.0000
  0
VERTEX
  8
0
 62
7
 10
     31.8394
 20
      1.3575
 30
      0.0000
  0
VERTEX
  8
0
 62
7
 10
     31.8394
 20
      0.5701
 30
      0.0000
  0
VERTEX
  8
0
 62
7
 10
     30.2646
 20
      0.5701
 30
      0.0000
  0
VERTEX
  8
0
 62
7
 10
     30.2646
 20
      1.3575
 30
      0.0000
  0
VERTEX
  8
0
 62
7
 10
     30.0146
 20
      1.3575
 30
      0.0000
  0
VERTEX
  8
0
 62
7
 10
     30.0146
 20
      1.8575
 30
      0.0000
  0
VERTEX
  8
0
 62
7
 10
     30.2646
 20
      1.8575
 30
      0.0000
  0
VERTEX
  8
0
 62
7
 10
     30.2646
 20
      2.3791
 30
      0.0000
  0
VERTEX
  8
0
 62
7
 10
     30.7370
 20
      2.3791
 30
      0.0000
  0
SEQEND
  8
0
 62
7
  0
TEXT
  8
251
 62
13
 10
     30.5598
 20
      1.6370
 30
      0.0000
 40
      0.4921
 1
26
  0
POLYLINE
  8
0
 62
7
 10
      0.0000
 20
      0.0000
 30
      0.0000
 66
  1
 70
  1
  0
VERTEX
  8
0
 62
7
 10
     31.3895
 20
      2.5760
 30
      0.0000
  0
VERTEX
  8
0
 62
7
 10
     30.5146
 20
      2.5760
 30
      0.0000
  0
VERTEX
  8
0
 62
7
 10
     30.5146
 20
      3.2010
 30
      0.0000
  0
VERTEX
  8
0
 62
7
 10
     30.2646
 20
      3.2010
 30
      0.0000
  0
VERTEX
  8
0
 62
7
 10
     30.2646
 20
      3.4510
 30
      0.0000
  0
VERTEX
  8
0
 62
7
 10
     30.5146
 20
      3.4510
 30
      0.0000
  0
VERTEX
  8
0
 62
7
 10
     30.5146
 20
      4.0760
 30
      0.0000
  0
VERTEX
  8
0
 62
7
 10
     30.2646
 20
      4.0760
 30
      0.0000
  0
VERTEX
  8
0
 62
7
 10
     30.2646
 20
      4.3260
 30
      0.0000
  0
VERTEX
  8
0
 62
7
 10
     30.5146
 20
      4.3260
 30
      0.0000
  0
VERTEX
  8
0
 62
7
 10
     30.5146
 20
      5.3260
 30
      0.0000
  0
VERTEX
  8
0
 62
7
 10
     31.3895
 20
      5.3260
 30
      0.0000
  0
VERTEX
  8
0
 62
7
 10
     31.3895
 20
      4.3260
 30
      0.0000
  0
VERTEX
  8
0
 62
7
 10
     31.6396
 20
      4.3260
 30
      0.0000
  0
VERTEX
  8
0
 62
7
 10
     31.6396
 20
      4.0760
 30
      0.0000
  0
VERTEX
  8
0
 62
7
 10
     31.3895
 20
      4.0760
 30
      0.0000
  0
VERTEX
  8
0
 62
7
 10
     31.3895
 20
      3.4510
 30
      0.0000
  0
VERTEX
  8
0
 62
7
 10
     31.6396
 20
      3.4510
 30
      0.0000
  0
VERTEX
  8
0
 62
7
 10
     31.6396
 20
      3.2010
 30
      0.0000
  0
VERTEX
  8
0
 62
7
 10
     31.3895
 20
      3.2010
 30
      0.0000
  0
SEQEND
  8
0
 62
7
  0
TEXT
  8
251
 62
13
 10
     30.4599
 20
      2.5760
 30
      0.0000
 40
      0.4921
 1
27
  0
POLYLINE
  8
0
 62
7
 10
      0.0000
 20
      0.0000
 30
      0.0000
 66
  1
 70
  1
  0
VERTEX
  8
0
 62
7
 10
     31.2744
 20
      5.8535
 30
      0.0000
  0
VERTEX
  8
0
 62
7
 10
     31.2744
 20
      6.7669
 30
      0.0000
  0
VERTEX
  8
0
 62
7
 10
     30.9594
 20
      6.7669
 30
      0.0000
  0
VERTEX
  8
0
 62
7
 10
     30.9594
 20
      5.8535
 30
      0.0000
  0
SEQEND
  8
0
 62
7
  0
POLYLINE
  8
0
 62
7
 10
      0.0000
 20
      0.0000
 30
      0.0000
 66
  1
 70
  1
  0
VERTEX
  8
0
 62
7
 10
     30.3295
 20
      5.8535
 30
      0.0000
  0
VERTEX
  8
0
 62
7
 10
     30.6445
 20
      5.8535
 30
      0.0000
  0
VERTEX
  8
0
 62
7
 10
     30.6445
 20
      6.7669
 30
      0.0000
  0
VERTEX
  8
0
 62
7
 10
     30.3295
 20
      6.7669
 30
      0.0000
  0
SEQEND
  8
0
 62
7
  0
POLYLINE
  8
0
 62
7
 10
      0.0000
 20
      0.0000
 30
      0.0000
 66
  1
 70
  1
  0
VERTEX
  8
0
 62
7
 10
     30.4870
 20
      7.0819
 30
      0.0000
  0
VERTEX
  8
0
 62
7
 10
     31.1169
 20
      7.0819
 30
      0.0000
  0
VERTEX
  8
0
 62
7
 10
     31.1169
 20
      8.3319
 30
      0.0000
  0
VERTEX
  8
0
 62
7
 10
     31.8394
 20
      8.3319
 30
      0.0000
  0
VERTEX
  8
0
 62
7
 10
     31.8394
 20
      8.0819
 30
      0.0000
  0
VERTEX
  8
0
 62
7
 10
     31.5894
 20
      8.0819
 30
      0.0000
  0
VERTEX
  8
0
 62
7
 10
     31.5894
 20
      6.8102
 30
      0.0000
  0
VERTEX
  8
0
 62
7
 10
     31.8394
 20
      6.8102
 30
      0.0000
  0
VERTEX
  8
0
 62
7
 10
     31.8394
 20
      6.3102
 30
      0.0000
  0
VERTEX
  8
0
 62
7
 10
     31.5894
 20
      6.3102
 30
      0.0000
  0
VERTEX
  8
0
 62
7
 10
     31.5894
 20
      5.5228
 30
      0.0000
  0
VERTEX
  8
0
 62
7
 10
     30.0146
 20
      5.5228
 30
      0.0000
  0
VERTEX
  8
0
 62
7
 10
     30.0146
 20
      7.3319
 30
      0.0000
  0
VERTEX
  8
0
 62
7
 10
     30.4870
 20
      7.3319
 30
      0.0000
  0
SEQEND
  8
0
 62
7
  0
TEXT
  8
251
 62
13
 10
     30.3098
 20
      6.5898
 30
      0.0000
 40
      0.4921
 1
28
  0
POLYLINE
  8
0
 62
7
 10
      0.0000
 20
      0.0000
 30
      0.0000
 66
  1
 70
  1
  0
VERTEX
  8
0
 62
7
 10
     30.8597
 20
     16.1724
 30
      0.0000
  0
VERTEX
  8
0
 62
7
 10
     29.2849
 20
     16.1724
 30
      0.0000
  0
VERTEX
  8
0
 62
7
 10
     29.2849
 20
     17.0582
 30
      0.0000
  0
VERTEX
  8
0
 62
7
 10
     29.0349
 20
     17.0582
 30
      0.0000
  0
VERTEX
  8
0
 62
7
 10
     29.0349
 20
     18.0582
 30
      0.0000
  0
VERTEX
  8
0
 62
7
 10
     29.2849
 20
     18.0582
 30
      0.0000
  0
VERTEX
  8
0
 62
7
 10
     29.2849
 20
     18.9439
 30
      0.0000
  0
VERTEX
  8
0
 62
7
 10
     30.8597
 20
     18.9439
 30
      0.0000
  0
VERTEX
  8
0
 62
7
 10
     30.8597
 20
     18.0582
 30
      0.0000
  0
VERTEX
  8
0
 62
7
 10
     31.1097
 20
     18.0582
 30
      0.0000
  0
VERTEX
  8
0
 62
7
 10
     31.1097
 20
     17.0582
 30
      0.0000
  0
VERTEX
  8
0
 62
7
 10
     30.8597
 20
     17.0582
 30
      0.0000
  0
SEQEND
  8
0
 62
7
  0
TEXT
  8
251
 62
13
 10
     29.5802
 20
     16.1724
 30
      0.0000
 40
      0.4921
 1
29
  0
POLYLINE
  8
0
 62
7
 10
      0.0000
 20
      0.0000
 30
      0.0000
 66
  1
 70
  1
  0
VERTEX
  8
0
 62
7
 10
     32.8344
 20
      3.3767
 30
      0.0000
  0
VERTEX
  8
0
 62
7
 10
     32.8344
 20
      2.7517
 30
      0.0000
  0
VERTEX
  8
0
 62
7
 10
     33.0844
 20
      2.7517
 30
      0.0000
  0
VERTEX
  8
0
 62
7
 10
     33.0844
 20
      2.2659
 30
      0.0000
  0
VERTEX
  8
0
 62
7
 10
     32.0864
 20
      2.2659
 30
      0.0000
  0
VERTEX
  8
0
 62
7
 10
     32.0864
 20
      2.8142
 30
      0.0000
  0
VERTEX
  8
0
 62
7
 10
     31.8364
 20
      2.8142
 30
      0.0000
  0
VERTEX
  8
0
 62
7
 10
     31.8364
 20
      3.3142
 30
      0.0000
  0
VERTEX
  8
0
 62
7
 10
     32.0864
 20
      3.3142
 30
      0.0000
  0
VERTEX
  8
0
 62
7
 10
     32.0864
 20
      3.8624
 30
      0.0000
  0
VERTEX
  8
0
 62
7
 10
     33.0844
 20
      3.8624
 30
      0.0000
  0
VERTEX
  8
0
 62
7
 10
     33.0844
 20
      3.3767
 30
      0.0000
  0
SEQEND
  8
0
 62
7
  0
TEXT
  8
251
 62
13
 10
     32.0962
 20
      2.8181
 30
      0.0000
 40
      0.4921
 1
30
  0
POLYLINE
  8
0
 62
7
 10
      0.0000
 20
      0.0000
 30
      0.0000
 66
  1
 70
  1
  0
VERTEX
  8
0
 62
7
 10
     32.6435
 20
      5.0760
 30
      0.0000
  0
VERTEX
  8
0
 62
7
 10
     32.6435
 20
      4.0592
 30
      0.0000
  0
VERTEX
  8
0
 62
7
 10
     31.8364
 20
      4.0592
 30
      0.0000
  0
VERTEX
  8
0
 62
7
 10
     31.8364
 20
      5.0760
 30
      0.0000
  0
VERTEX
  8
0
 62
7
 10
     31.5864
 20
      5.0760
 30
      0.0000
  0
VERTEX
  8
0
 62
7
 10
     31.5864
 20
      5.3260
 30
      0.0000
  0
VERTEX
  8
0
 62
7
 10
     31.8364
 20
      5.3260
 30
      0.0000
  0
VERTEX
  8
0
 62
7
 10
     31.8364
 20
      6.0927
 30
      0.0000
  0
VERTEX
  8
0
 62
7
 10
     32.6435
 20
      6.0927
 30
      0.0000
  0
VERTEX
  8
0
 62
7
 10
     32.6435
 20
      5.3260
 30
      0.0000
  0
VERTEX
  8
0
 62
7
 10
     32.8935
 20
      5.3260
 30
      0.0000
  0
VERTEX
  8
0
 62
7
 10
     32.8935
 20
      5.0760
 30
      0.0000
  0
SEQEND
  8
0
 62
7
  0
TEXT
  8
251
 62
13
 10
     31.9053
 20
      4.3215
 30
      0.0000
 40
      0.4921
 1
31
  0
POLYLINE
  8
0
 62
7
 10
      0.0000
 20
      0.0000
 30
      0.0000
 66
  1
 70
  1
  0
VERTEX
  8
0
 62
7
 10
     32.7087
 20
      9.8161
 30
      0.0000
  0
VERTEX
  8
0
 62
7
 10
     32.4587
 20
      9.8161
 30
      0.0000
  0
VERTEX
  8
0
 62
7
 10
     32.4587
 20
      9.3161
 30
      0.0000
  0
VERTEX
  8
0
 62
7
 10
     32.7087
 20
      9.3161
 30
      0.0000
  0
VERTEX
  8
0
 62
7
 10
     32.7087
 20
      8.7787
 30
      0.0000
  0
VERTEX
  8
0
 62
7
 10
     32.3041
 20
      8.7787
 30
      0.0000
  0
VERTEX
  8
0
 62
7
 10
     32.3041
 20
      8.5287
 30
      0.0000
  0
VERTEX
  8
0
 62
7
 10
     31.8041
 20
      8.5287
 30
      0.0000
  0
VERTEX
  8
0
 62
7
 10
     31.8041
 20
      8.7787
 30
      0.0000
  0
VERTEX
  8
0
 62
7
 10
     30.8996
 20
      8.7787
 30
      0.0000
  0
VERTEX
  8
0
 62
7
 10
     30.8996
 20
      9.1094
 30
      0.0000
  0
VERTEX
  8
0
 62
7
 10
     31.2146
 20
      9.1094
 30
      0.0000
  0
VERTEX
  8
0
 62
7
 10
     31.2146
 20
     10.0228
 30
      0.0000
  0
VERTEX
  8
0
 62
7
 10
     30.8996
 20
     10.0228
 30
      0.0000
  0
VERTEX
  8
0
 62
7
 10
     30.8996
 20
     10.3535
 30
      0.0000
  0
VERTEX
  8
0
 62
7
 10
     31.8041
 20
     10.3535
 30
      0.0000
  0
VERTEX
  8
0
 62
7
 10
     31.8041
 20
     10.6035
 30
      0.0000
  0
VERTEX
  8
0
 62
7
 10
     32.3041
 20
     10.6035
 30
      0.0000
  0
VERTEX
  8
0
 62
7
 10
     32.3041
 20
     10.3535
 30
      0.0000
  0
VERTEX
  8
0
 62
7
 10
     32.7087
 20
     10.3535
 30
      0.0000
  0
SEQEND
  8
0
 62
7
  0
TEXT
  8
251
 62
13
 10
     32.0915
 20
      9.8161
 30
      0.0000
 40
      0.4921
 1
32
  0
POLYLINE
  8
0
 62
7
 10
      0.0000
 20
      0.0000
 30
      0.0000
 66
  1
 70
  1
  0
VERTEX
  8
0
 62
7
 10
     31.2380
 20
     12.9976
 30
      0.0000
  0
VERTEX
  8
0
 62
7
 10
     31.4874
 20
     13.0151
 30
      0.0000
  0
VERTEX
  8
0
 62
7
 10
     31.4699
 20
     13.2645
 30
      0.0000
  0
VERTEX
  8
0
 62
7
 10
     31.2205
 20
     13.2470
 30
      0.0000
  0
SEQEND
  8
0
 62
7
  0
POLYLINE
  8
0
 62
7
 10
      0.0000
 20
      0.0000
 30
      0.0000
 66
  1
 70
  1
  0
VERTEX
  8
0
 62
7
 10
     32.7244
 20
     14.2787
 30
      0.0000
  0
VERTEX
  8
0
 62
7
 10
     32.7244
 20
     13.4010
 30
      0.0000
  0
VERTEX
  8
0
 62
7
 10
     32.4114
 20
     13.4010
 30
      0.0000
  0
VERTEX
  8
0
 62
7
 10
     32.4114
 20
     13.0073
 30
      0.0000
  0
VERTEX
  8
0
 62
7
 10
     31.9173
 20
     13.0073
 30
      0.0000
  0
VERTEX
  8
0
 62
7
 10
     31.9173
 20
     12.2502
 30
      0.0000
  0
VERTEX
  8
0
 62
7
 10
     31.1496
 20
     12.2502
 30
      0.0000
  0
VERTEX
  8
0
 62
7
 10
     31.1496
 20
     12.7787
 30
      0.0000
  0
VERTEX
  8
0
 62
7
 10
     30.8996
 20
     12.7787
 30
      0.0000
  0
VERTEX
  8
0
 62
7
 10
     30.8996
 20
     13.5287
 30
      0.0000
  0
VERTEX
  8
0
 62
7
 10
     31.1496
 20
     13.5287
 30
      0.0000
  0
VERTEX
  8
0
 62
7
 10
     31.1496
 20
     14.2787
 30
      0.0000
  0
SEQEND
  8
0
 62
7
  0
TEXT
  8
251
 62
13
 10
     31.9862
 20
     13.5938
 30
      0.0000
 40
      0.4921
 1
33
  0
POLYLINE
  8
0
 62
7
 10
      0.0000
 20
      0.0000
 30
      0.0000
 66
  1
 70
  1
  0
VERTEX
  8
0
 62
7
 10
     31.6550
 20
     16.5464
 30
      0.0000
  0
VERTEX
  8
0
 62
7
 10
     31.0565
 20
     16.5464
 30
      0.0000
  0
VERTEX
  8
0
 62
7
 10
     31.0565
 20
     16.8613
 30
      0.0000
  0
VERTEX
  8
0
 62
7
 10
     31.5073
 20
     16.8613
 30
      0.0000
  0
VERTEX
  8
0
 62
7
 10
     31.5073
 20
     17.1113
 30
      0.0000
  0
VERTEX
  8
0
 62
7
 10
     32.0073
 20
     17.1113
 30
      0.0000
  0
VERTEX
  8
0
 62
7
 10
     32.0073
 20
     16.8613
 30
      0.0000
  0
VERTEX
  8
0
 62
7
 10
     32.4581
 20
     16.8613
 30
      0.0000
  0
VERTEX
  8
0
 62
7
 10
     32.4581
 20
     16.3239
 30
      0.0000
  0
VERTEX
  8
0
 62
7
 10
     32.7081
 20
     16.3239
 30
      0.0000
  0
VERTEX
  8
0
 62
7
 10
     32.7081
 20
     15.8239
 30
      0.0000
  0
VERTEX
  8
0
 62
7
 10
     32.4581
 20
     15.8239
 30
      0.0000
  0
VERTEX
  8
0
 62
7
 10
     32.4581
 20
     15.2865
 30
      0.0000
  0
VERTEX
  8
0
 62
7
 10
     32.0073
 20
     15.2865
 30
      0.0000
  0
VERTEX
  8
0
 62
7
 10
     32.0073
 20
     15.0365
 30
      0.0000
  0
VERTEX
  8
0
 62
7
 10
     31.5073
 20
     15.0365
 30
      0.0000
  0
VERTEX
  8
0
 62
7
 10
     31.5073
 20
     15.2865
 30
      0.0000
  0
VERTEX
  8
0
 62
7
 10
     31.0565
 20
     15.2865
 30
      0.0000
  0
VERTEX
  8
0
 62
7
 10
     31.0565
 20
     15.6015
 30
      0.0000
  0
VERTEX
  8
0
 62
7
 10
     31.6550
 20
     15.6015
 30
      0.0000
  0
SEQEND
  8
0
 62
7
  0
TEXT
  8
251
 62
13
 10
     30.8636
 20
     16.5464
 30
      0.0000
 40
      0.4921
 1
34
  0
POLYLINE
  8
0
 62
7
 10
      0.0000
 20
      0.0000
 30
      0.0000
 66
  1
 70
  1
  0
VERTEX
  8
0
 62
7
 10
     31.5565
 20
     19.1271
 30
      0.0000
  0
VERTEX
  8
0
 62
7
 10
     31.8065
 20
     19.1271
 30
      0.0000
  0
VERTEX
  8
0
 62
7
 10
     31.8065
 20
     19.0211
 30
      0.0000
 42
          0.5209752
  0
VERTEX
  8
0
 62
7
 10
     32.3942
 20
     18.6102
 30
      0.0000
 42
         -0.5209744
  0
VERTEX
  8
0
 62
7
 10
     32.4614
 20
     18.5632
 30
      0.0000
  0
VERTEX
  8
0
 62
7
 10
     32.4614
 20
     18.3426
 30
      0.0000
  0
VERTEX
  8
0
 62
7
 10
     32.7114
 20
     18.3426
 30
      0.0000
  0
VERTEX
  8
0
 62
7
 10
     32.7114
 20
     18.0926
 30
      0.0000
  0
VERTEX
  8
0
 62
7
 10
     32.4614
 20
     18.0926
 30
      0.0000
  0
VERTEX
  8
0
 62
7
 10
     32.4614
 20
     17.8720
 30
      0.0000
 42
         -0.5209744
  0
VERTEX
  8
0
 62
7
 10
     32.3942
 20
     17.8251
 30
      0.0000
 42
          0.5209729
  0
VERTEX
  8
0
 62
7
 10
     31.8065
 20
     17.4141
 30
      0.0000
  0
VERTEX
  8
0
 62
7
 10
     31.8065
 20
     17.3082
 30
      0.0000
  0
VERTEX
  8
0
 62
7
 10
     31.5565
 20
     17.3082
 30
      0.0000
  0
VERTEX
  8
0
 62
7
 10
     31.5565
 20
     17.9051
 30
      0.0000
  0
VERTEX
  8
0
 62
7
 10
     31.3065
 20
     17.9051
 30
      0.0000
  0
VERTEX
  8
0
 62
7
 10
     31.3065
 20
     18.5301
 30
      0.0000
  0
VERTEX
  8
0
 62
7
 10
     31.5565
 20
     18.5301
 30
      0.0000
  0
SEQEND
  8
0
 62
7
  0
TEXT
  8
251
 62
13
 10
     31.1894
 20
     18.6349
 30
      0.0000
 40
      0.4921
 1
35
  0
POLYLINE
  8
0
 62
7
 10
      0.0000
 20
      0.0000
 30
      0.0000
 66
  1
 70
  1
  0
VERTEX
  8
0
 62
7
 10
     32.5010
 20
      7.3467
 30
      0.0000
  0
VERTEX
  8
0
 62
7
 10
     32.5010
 20
      7.0967
 30
      0.0000
  0
VERTEX
  8
0
 62
7
 10
     33.0010
 20
      7.0967
 30
      0.0000
  0
VERTEX
  8
0
 62
7
 10
     33.0010
 20
      7.3467
 30
      0.0000
  0
SEQEND
  8
0
 62
7
  0
POLYLINE
  8
0
 62
7
 10
      0.0000
 20
      0.0000
 30
      0.0000
 66
  1
 70
  1
  0
VERTEX
  8
0
 62
7
 10
     33.0010
 20
      6.5396
 30
      0.0000
  0
VERTEX
  8
0
 62
7
 10
     33.0010
 20
      6.2896
 30
      0.0000
  0
VERTEX
  8
0
 62
7
 10
     32.5010
 20
      6.2896
 30
      0.0000
  0
VERTEX
  8
0
 62
7
 10
     32.5010
 20
      6.5396
 30
      0.0000
  0
VERTEX
  8
0
 62
7
 10
     32.2510
 20
      6.5396
 30
      0.0000
  0
VERTEX
  8
0
 62
7
 10
     32.2510
 20
      8.1144
 30
      0.0000
  0
VERTEX
  8
0
 62
7
 10
     32.5010
 20
      8.1144
 30
      0.0000
  0
VERTEX
  8
0
 62
7
 10
     32.5010
 20
      8.3644
 30
      0.0000
  0
VERTEX
  8
0
 62
7
 10
     33.0010
 20
      8.3644
 30
      0.0000
  0
VERTEX
  8
0
 62
7
 10
     33.0010
 20
      8.1144
 30
      0.0000
  0
VERTEX
  8
0
 62
7
 10
     33.2510
 20
      8.1144
 30
      0.0000
  0
VERTEX
  8
0
 62
7
 10
     33.2510
 20
      6.5396
 30
      0.0000
  0
SEQEND
  8
0
 62
7
  0
TEXT
  8
251
 62
13
 10
     32.2628
 20
      6.1685
 30
      0.0000
 40
      0.4921
 1
36
  0
POLYLINE
  8
0
 62
7
 10
      0.0000
 20
      0.0000
 30
      0.0000
 66
  1
 70
  1
  0
VERTEX
  8
0
 62
7
 10
     33.0010
 20
     10.9856
 30
      0.0000
  0
VERTEX
  8
0
 62
7
 10
     33.0010
 20
     10.7356
 30
      0.0000
  0
VERTEX
  8
0
 62
7
 10
     32.5010
 20
     10.7356
 30
      0.0000
  0
VERTEX
  8
0
 62
7
 10
     32.5010
 20
     10.9856
 30
      0.0000
  0
VERTEX
  8
0
 62
7
 10
     32.2510
 20
     10.9856
 30
      0.0000
  0
VERTEX
  8
0
 62
7
 10
     32.2510
 20
     12.5604
 30
      0.0000
  0
VERTEX
  8
0
 62
7
 10
     32.5010
 20
     12.5604
 30
      0.0000
  0
VERTEX
  8
0
 62
7
 10
     32.5010
 20
     12.8104
 30
      0.0000
  0
VERTEX
  8
0
 62
7
 10
     33.0010
 20
     12.8104
 30
      0.0000
  0
VERTEX
  8
0
 62
7
 10
     33.0010
 20
     12.5604
 30
      0.0000
  0
VERTEX
  8
0
 62
7
 10
     33.2510
 20
     12.5604
 30
      0.0000
  0
VERTEX
  8
0
 62
7
 10
     33.2510
 20
     10.9856
 30
      0.0000
  0
SEQEND
  8
0
 62
7
  0
TEXT
  8
251
 62
13
 10
     32.2628
 20
     10.6146
 30
      0.0000
 40
      0.4921
 1
37
  0
TEXT
  8
251
 62
13
 10
     -1.3123
 20
     -1.9685
 30
      0.0000
 40
      0.5249
 1
1)pin
  0
TEXT
  8
251
 62
13
 10
     23.8845
 20
     -1.9685
 30
      0.0000
 40
      0.5249
 1
2)Part7-2
  0
TEXT
  8
251
 62
13
 10
     -1.3123
 20
     -2.9528
 30
      0.0000
 40
      0.5249
 1
3)basetop
  0
TEXT
  8
251
 62
13
 10
     23.8845
 20
     -2.9528
 30
      0.0000
 40
      0.5249
 1
4)tingy1
  0
TEXT
  8
251
 62
13
 10
     -1.3123
 20
     -3.9370
 30
      0.0000
 40
      0.5249
 1
5)ret rail 2
  0
TEXT
  8
251
 62
13
 10
     23.8845
 20
     -3.9370
 30
      0.0000
 40
      0.5249
 1
6)vert3
  0
TEXT
  8
251
 62
13
 10
     -1.3123
 20
     -4.9213
 30
      0.0000
 40
      0.5249
 1
7)bot ramp rails
  0
TEXT
  8
251
 62
13
 10
     23.8845
 20
     -4.9213
 30
      0.0000
 40
      0.5249
 1
8)basebot
  0
TEXT
  8
251
 62
13
 10
     -1.3123
 20
     -5.9055
 30
      0.0000
 40
      0.5249
 1
9)bot ramp super rails
  0
TEXT
  8
251
 62
13
 10
     23.8845
 20
     -5.9055
 30
      0.0000
 40
      0.5249
 1
10)botblocker2
  0
TEXT
  8
251
 62
13
 10
     -1.3123
 20
     -6.8898
 30
      0.0000
 40
      0.5249
 1
11)motor5
  0
TEXT
  8
251
 62
13
 10
     24.4094
 20
     -6.8898
 30
      0.0000
 40
      0.5249
 1
12)vert2
  0
TEXT
  8
251
 62
13
 10
     -1.3123
 20
     -7.8740
 30
      0.0000
 40
      0.5249
 1
13)thingy 3-2
  0
TEXT
  8
251
 62
13
 10
     24.4094
 20
     -7.8740
 30
      0.0000
 40
      0.5249
 1
14)thingy 3
  0
TEXT
  8
251
 62
13
 10
     -1.3123
 20
     -8.8583
 30
      0.0000
 40
      0.5249
 1
15)vert1
  0
TEXT
  8
251
 62
13
 10
     24.4094
 20
     -8.8583
 30
      0.0000
 40
      0.5249
 1
16)Part7
  0
TEXT
  8
251
 62
13
 10
     -1.3123
 20
     -9.8425
 30
      0.0000
 40
      0.5249
 1
17)blocker suppourt 2
  0
TEXT
  8
251
 62
13
 10
     24.4094
 20
     -9.8425
 30
      0.0000
 40
      0.5249
 1
18)eject ramp
  0
TEXT
  8
251
 62
13
 10
     -1.3123
 20
    -10.8268
 30
      0.0000
 40
      0.5249
 1
19)ev3 backing
  0
TEXT
  8
251
 62
13
 10
     24.4094
 20
    -10.8268
 30
      0.0000
 40
      0.5249
 1
20)motor4
  0
TEXT
  8
251
 62
13
 10
     -1.3123
 20
    -11.8110
 30
      0.0000
 40
      0.5249
 1
21)top ring v2
  0
TEXT
  8
251
 62
13
 10
     24.4094
 20
    -11.8110
 30
      0.0000
 40
      0.5249
 1
22)venieer 1
  0
TEXT
  8
251
 62
13
 10
     -1.3123
 20
    -12.7953
 30
      0.0000
 40
      0.5249
 1
23)vert0
  0
TEXT
  8
251
 62
13
 10
     24.4094
 20
    -12.7953
 30
      0.0000
 40
      0.5249
 1
24)thingy4
  0
TEXT
  8
251
 62
13
 10
     -1.3123
 20
    -13.7795
 30
      0.0000
 40
      0.5249
 1
25)thingy2
  0
TEXT
  8
251
 62
13
 10
     24.4094
 20
    -13.7795
 30
      0.0000
 40
      0.5249
 1
26)motor1
  0
TEXT
  8
251
 62
13
 10
     -1.3123
 20
    -14.7638
 30
      0.0000
 40
      0.5249
 1
27)eject ramp 2
  0
TEXT
  8
251
 62
13
 10
     24.4094
 20
    -14.7638
 30
      0.0000
 40
      0.5249
 1
28)motor6
  0
TEXT
  8
251
 62
13
 10
     -1.3123
 20
    -15.7480
 30
      0.0000
 40
      0.5249
 1
29)venieer 2
  0
TEXT
  8
251
 62
13
 10
     24.4094
 20
    -15.7480
 30
      0.0000
 40
      0.5249
 1
30)blocker suppourt 1
  0
TEXT
  8
251
 62
13
 10
     -1.3123
 20
    -16.7323
 30
      0.0000
 40
      0.5249
 1
31)bot ramp 2
  0
TEXT
  8
251
 62
13
 10
     24.4094
 20
    -16.7323
 30
      0.0000
 40
      0.5249
 1
32)motor2
  0
TEXT
  8
251
 62
13
 10
     -1.3123
 20
    -17.7165
 30
      0.0000
 40
      0.5249
 1
33)ret rail
  0
TEXT
  8
251
 62
13
 10
     24.4094
 20
    -17.7165
 30
      0.0000
 40
      0.5249
 1
34)motor3
  0
TEXT
  8
251
 62
13
 10
     -1.3123
 20
    -18.7008
 30
      0.0000
 40
      0.5249
 1
35)botblocker
  0
TEXT
  8
251
 62
13
 10
     24.4094
 20
    -18.7008
 30
      0.0000
 40
      0.5249
 1
36)pillar
  0
TEXT
  8
251
 62
13
 10
     -1.3123
 20
    -19.6850
 30
      0.0000
 40
      0.5249
 1
37)pillar2
  0
ENDSEC
  0
EOF
